<?xml version="1.0" encoding="utf-8"?>
<!-- Generator: Adobe Illustrator 25.2.3, SVG Export Plug-In . SVG Version: 6.00 Build 0)  -->
<svg version="1.1" id="Layer_1" xmlns="http://www.w3.org/2000/svg" xmlns:xlink="http://www.w3.org/1999/xlink" x="0px" y="0px"
	 viewBox="0 0 177 174.3" style="enable-background:new 0 0 177 174.3;" xml:space="preserve">
<style type="text/css">
	.st0{fill:#FFFFFF;stroke:#FFFFFF;stroke-miterlimit:10;}
</style>
<g>
	<path class="st0" d="M11.6,19.4h3.9l-4.2,7.9C11,27.8,10.7,28,10.4,28c-0.2,0-0.4-0.1-0.6-0.2c-0.2-0.2-0.2-0.4-0.2-0.6
		c0-0.1,0-0.2,0-0.3L11.6,19.4z"/>
	<path class="st0" d="M37.6,14.6v1.7H25.4v-1.7H37.6z"/>
	<path class="st0" d="M55.1,14.6v1.7H42.9v-1.7H55.1z"/>
	<path class="st0" d="M66.2,20.3h0.5c0.5,0,1,0.2,1.4,0.6s0.6,0.8,0.6,1.4s-0.2,1-0.6,1.4c-0.4,0.4-0.8,0.6-1.4,0.6h-0.5
		c-0.5,0-1-0.2-1.4-0.6s-0.6-0.8-0.6-1.4s0.2-1,0.6-1.4C65.3,20.5,65.7,20.3,66.2,20.3z"/>
	<path class="st0" d="M89.4,5l-9.6,20.6c-0.2,0.4-0.4,0.5-0.6,0.5c-0.2,0-0.3-0.1-0.4-0.2s-0.2-0.2-0.2-0.4c0-0.1,0-0.3,0.1-0.5
		l9.6-20.6C88.4,4.2,88.5,4,88.6,4c0.1-0.1,0.2-0.1,0.3-0.1c0.2,0,0.3,0.1,0.4,0.2s0.2,0.2,0.2,0.4C89.5,4.6,89.5,4.8,89.4,5z"/>
	<path class="st0" d="M99.1,19.4h3.9l-4.2,7.9c-0.3,0.5-0.6,0.7-0.9,0.7c-0.2,0-0.4-0.1-0.6-0.2c-0.2-0.2-0.2-0.4-0.2-0.6
		c0-0.1,0-0.2,0-0.3L99.1,19.4z"/>
	<path class="st0" d="M125.1,14.6v1.7h-12.2v-1.7H125.1z"/>
	<path class="st0" d="M136.2,20.3h0.5c0.5,0,1,0.2,1.4,0.6s0.6,0.8,0.6,1.4s-0.2,1-0.6,1.4s-0.8,0.6-1.4,0.6h-0.5
		c-0.5,0-1-0.2-1.4-0.6s-0.6-0.8-0.6-1.4s0.2-1,0.6-1.4S135.7,20.3,136.2,20.3z"/>
	<path class="st0" d="M19.4,40L9.8,60.6c-0.2,0.4-0.4,0.5-0.6,0.5c-0.2,0-0.3-0.1-0.4-0.2s-0.2-0.2-0.2-0.4c0-0.1,0-0.3,0.1-0.5
		l9.6-20.6c0.1-0.2,0.2-0.4,0.3-0.4c0.1-0.1,0.2-0.1,0.3-0.1c0.2,0,0.3,0.1,0.4,0.2s0.2,0.2,0.2,0.4C19.5,39.6,19.5,39.8,19.4,40z"
		/>
	<path class="st0" d="M29.1,54.4H33l-4.2,7.9c-0.3,0.5-0.6,0.7-0.9,0.7c-0.2,0-0.4-0.1-0.6-0.2c-0.2-0.2-0.2-0.4-0.2-0.6
		c0-0.1,0-0.2,0-0.3L29.1,54.4z"/>
	<path class="st0" d="M55.1,49.6v1.7H42.9v-1.7H55.1z"/>
	<path class="st0" d="M66.2,55.3h0.5c0.5,0,1,0.2,1.4,0.6s0.6,0.8,0.6,1.4s-0.2,1-0.6,1.4c-0.4,0.4-0.8,0.6-1.4,0.6h-0.5
		c-0.5,0-1-0.2-1.4-0.6s-0.6-0.8-0.6-1.4s0.2-1,0.6-1.4C65.3,55.5,65.7,55.3,66.2,55.3z"/>
	<path class="st0" d="M91.9,66.7H76c-0.3,0-0.5-0.1-0.6-0.2s-0.2-0.3-0.2-0.4s0.1-0.3,0.2-0.4s0.3-0.2,0.6-0.2h15.9
		c0.3,0,0.5,0.1,0.6,0.2s0.2,0.3,0.2,0.4s-0.1,0.3-0.2,0.4C92.4,66.7,92.2,66.7,91.9,66.7z"/>
	<path class="st0" d="M101.2,55.3h0.5c0.5,0,1,0.2,1.4,0.6s0.6,0.8,0.6,1.4s-0.2,1-0.6,1.4s-0.8,0.6-1.4,0.6h-0.5
		c-0.5,0-1-0.2-1.4-0.6s-0.6-0.8-0.6-1.4s0.2-1,0.6-1.4S100.7,55.3,101.2,55.3z"/>
	<path class="st0" d="M125.1,49.6v1.7h-12.2v-1.7H125.1z"/>
	<path class="st0" d="M142.6,49.6v1.7h-12.2v-1.7H142.6z"/>
	<path class="st0" d="M159.5,49.2c0.2,0,0.3,0.1,0.4,0.2s0.2,0.2,0.2,0.4c0,0.3-0.4,0.9-1.2,1.6c-0.8,0.8-1.6,1.1-2.3,1.1
		c-0.4,0-0.9-0.1-1.3-0.4c-0.4-0.2-1.1-0.7-1.9-1.5c-0.5-0.5-1-0.8-1.2-1c-0.3-0.2-0.5-0.2-0.8-0.2s-0.5,0.1-0.8,0.2
		c-0.3,0.2-0.8,0.6-1.4,1.3c-0.3,0.3-0.5,0.5-0.5,0.5s-0.2,0.1-0.3,0.1c-0.2,0-0.3-0.1-0.4-0.2s-0.2-0.2-0.2-0.4
		c0-0.2,0.1-0.4,0.4-0.7c0.6-0.8,1.2-1.3,1.7-1.6s1-0.4,1.4-0.4s0.8,0.1,1.2,0.3c0.4,0.2,0.9,0.5,1.5,1.1c1,0.9,1.6,1.4,1.8,1.5
		c0.2,0.1,0.5,0.2,0.7,0.2c0.7,0,1.4-0.5,2.1-1.5c0.3-0.4,0.5-0.6,0.6-0.6C159.3,49.3,159.4,49.2,159.5,49.2z"/>
	<path class="st0" d="M167.2,39.6l9.6,20.6c0.1,0.2,0.1,0.4,0.1,0.5c0,0.2-0.1,0.3-0.2,0.4s-0.3,0.2-0.4,0.2c-0.3,0-0.5-0.2-0.6-0.5
		l-9.6-20.6c-0.1-0.2-0.1-0.4-0.1-0.5c0-0.2,0.1-0.3,0.2-0.4s0.3-0.2,0.4-0.2C166.8,39,167,39.2,167.2,39.6z"/>
	<path class="st0" d="M39.5,101.7H23.6c-0.3,0-0.5-0.1-0.6-0.2s-0.2-0.3-0.2-0.4c0-0.2,0.1-0.3,0.2-0.4s0.3-0.2,0.6-0.2h15.9
		c0.3,0,0.5,0.1,0.6,0.2s0.2,0.3,0.2,0.4c0,0.2-0.1,0.3-0.2,0.4S39.7,101.7,39.5,101.7z"/>
	<path class="st0" d="M56.9,101.7H41c-0.3,0-0.5-0.1-0.6-0.2c-0.1-0.1-0.2-0.3-0.2-0.4c0-0.2,0.1-0.3,0.2-0.4
		c0.1-0.1,0.3-0.2,0.6-0.2h15.9c0.3,0,0.5,0.1,0.6,0.2s0.2,0.3,0.2,0.4c0,0.2-0.1,0.3-0.2,0.4S57.2,101.7,56.9,101.7z"/>
	<path class="st0" d="M67.2,86.6c-0.5-0.4-0.8-0.7-1-1c-0.2-0.4-0.3-0.9-0.3-1.5V79c0-0.5-0.2-1-0.5-1.3c-0.3-0.4-0.7-0.5-1.2-0.6
		c-0.3,0-0.5-0.1-0.6-0.2c-0.1-0.1-0.2-0.3-0.2-0.4c0-0.2,0.1-0.3,0.2-0.4s0.3-0.2,0.5-0.2c0.8,0,1.4,0.2,1.9,0.7
		c0.7,0.6,1,1.4,1,2.4v5.1c0,0.5,0.2,1,0.5,1.3s0.7,0.6,1.2,0.6c0.3,0,0.4,0.1,0.5,0.2s0.2,0.2,0.2,0.4s-0.1,0.3-0.2,0.4
		s-0.3,0.2-0.5,0.2c-0.5,0-0.9,0.2-1.2,0.6c-0.3,0.4-0.5,0.8-0.5,1.3v5.1c0,0.9-0.3,1.6-0.9,2.2c-0.6,0.6-1.2,0.9-2,0.9
		c-0.2,0-0.4-0.1-0.5-0.2s-0.2-0.3-0.2-0.4c0-0.2,0.1-0.3,0.2-0.4c0.1-0.1,0.3-0.1,0.6-0.2c0.5,0,0.9-0.2,1.2-0.6
		c0.3-0.4,0.5-0.8,0.5-1.3v-5.1c0-0.6,0.1-1.1,0.3-1.5C66.4,87.4,66.7,87,67.2,86.6z"/>
	<path class="st0" d="M118.3,86.6c0.5,0.4,0.8,0.7,1,1c0.2,0.4,0.3,0.9,0.3,1.5v5.1c0,0.5,0.2,1,0.5,1.3s0.7,0.5,1.2,0.6
		c0.3,0,0.5,0.1,0.6,0.2c0.1,0.1,0.2,0.3,0.2,0.4c0,0.2-0.1,0.3-0.2,0.4s-0.3,0.2-0.5,0.2c-0.7,0-1.4-0.2-1.9-0.7
		c-0.7-0.7-1-1.5-1-2.4v-5.1c0-0.5-0.2-1-0.5-1.3c-0.3-0.4-0.7-0.6-1.2-0.6c-0.3,0-0.5-0.1-0.6-0.2s-0.2-0.3-0.2-0.4
		c0-0.2,0.1-0.3,0.2-0.4s0.3-0.2,0.6-0.2c0.5,0,0.9-0.2,1.2-0.6c0.3-0.4,0.5-0.8,0.5-1.3V79c0-0.9,0.3-1.6,0.9-2.2
		c0.6-0.6,1.3-0.9,2.1-0.9c0.2,0,0.4,0.1,0.5,0.2s0.2,0.3,0.2,0.4c0,0.2-0.1,0.3-0.2,0.4c-0.1,0.1-0.3,0.2-0.6,0.2
		c-0.5,0-0.9,0.2-1.2,0.6c-0.3,0.4-0.5,0.8-0.5,1.3v5.1c0,0.6-0.1,1.1-0.3,1.4C119.1,85.9,118.8,86.3,118.3,86.6z"/>
	<path class="st0" d="M9.7,109.6l9.6,20.6c0.1,0.2,0.1,0.4,0.1,0.5c0,0.2-0.1,0.3-0.2,0.4s-0.3,0.2-0.4,0.2c-0.3,0-0.5-0.2-0.6-0.5
		l-9.6-20.6c-0.1-0.2-0.1-0.4-0.1-0.5c0-0.2,0.1-0.3,0.2-0.4s0.3-0.2,0.4-0.2C9.3,109,9.5,109.2,9.7,109.6z"/>
	<path class="st0" d="M30.2,110.1l3.4,2.9l0.3,0.4c0,0,0,0.1,0,0.2c0,0.2-0.1,0.3-0.2,0.4s-0.3,0.2-0.4,0.2c-0.1,0-0.3-0.1-0.5-0.3
		l-3.4-2.9c-0.2-0.2-0.4-0.4-0.4-0.6c0-0.2,0.1-0.3,0.2-0.4s0.3-0.2,0.4-0.2C29.8,109.8,30,109.9,30.2,110.1z"/>
	<path class="st0" d="M55.1,119.6v1.7H42.9v-1.7H55.1z"/>
	<path class="st0" d="M66.2,125.3h0.5c0.5,0,1,0.2,1.4,0.6c0.4,0.4,0.6,0.8,0.6,1.4c0,0.6-0.2,1-0.6,1.4c-0.4,0.4-0.8,0.6-1.4,0.6
		h-0.5c-0.5,0-1-0.2-1.4-0.6s-0.6-0.8-0.6-1.4c0-0.6,0.2-1,0.6-1.4C65.3,125.5,65.7,125.3,66.2,125.3z"/>
	<path class="st0" d="M91.9,136.7H76c-0.3,0-0.5-0.1-0.6-0.2c-0.1-0.1-0.2-0.3-0.2-0.4c0-0.2,0.1-0.3,0.2-0.4s0.3-0.2,0.6-0.2h15.9
		c0.3,0,0.5,0.1,0.6,0.2s0.2,0.3,0.2,0.4c0,0.2-0.1,0.3-0.2,0.4C92.4,136.7,92.2,136.7,91.9,136.7z"/>
	<path class="st0" d="M99.1,124.4h3.9l-4.2,7.9c-0.3,0.5-0.6,0.7-0.9,0.7c-0.2,0-0.4-0.1-0.6-0.2c-0.2-0.2-0.2-0.4-0.2-0.6
		c0-0.1,0-0.2,0-0.3L99.1,124.4z"/>
	<path class="st0" d="M125.1,119.6v1.7h-12.2v-1.7H125.1z"/>
	<path class="st0" d="M135.2,110.1l3.4,2.9l0.3,0.4c0,0,0,0.1,0,0.2c0,0.2-0.1,0.3-0.2,0.4s-0.3,0.2-0.4,0.2s-0.3-0.1-0.5-0.3
		l-3.4-2.9c-0.2-0.2-0.4-0.4-0.4-0.6c0-0.2,0.1-0.3,0.2-0.4s0.3-0.2,0.4-0.2C134.8,109.8,135,109.9,135.2,110.1z"/>
	<path class="st0" d="M160.1,119.6v1.7h-12.2v-1.7H160.1z"/>
	<path class="st0" d="M169.1,124.4h3.9l-4.2,7.9c-0.3,0.5-0.6,0.7-0.9,0.7c-0.2,0-0.4-0.1-0.6-0.2s-0.2-0.4-0.2-0.6
		c0-0.1,0-0.2,0-0.3L169.1,124.4z"/>
	<path class="st0" d="M30.2,145.1l3.4,2.9l0.3,0.4c0,0,0,0.1,0,0.2c0,0.2-0.1,0.3-0.2,0.4s-0.3,0.2-0.4,0.2c-0.1,0-0.3-0.1-0.5-0.3
		l-3.4-2.9c-0.2-0.2-0.4-0.4-0.4-0.6c0-0.2,0.1-0.3,0.2-0.4s0.3-0.2,0.4-0.2C29.8,144.8,30,144.9,30.2,145.1z"/>
	<path class="st0" d="M48.7,160.3h0.5c0.5,0,1,0.2,1.4,0.6c0.4,0.4,0.6,0.8,0.6,1.4c0,0.6-0.2,1-0.6,1.4s-0.8,0.6-1.4,0.6h-0.5
		c-0.5,0-1-0.2-1.4-0.6c-0.4-0.4-0.6-0.8-0.6-1.4c0-0.6,0.2-1,0.6-1.4S48.2,160.3,48.7,160.3z"/>
	<path class="st0" d="M74.4,171.7H58.5c-0.3,0-0.5-0.1-0.6-0.2c-0.1-0.1-0.2-0.3-0.2-0.4c0-0.2,0.1-0.3,0.2-0.4s0.3-0.2,0.6-0.2
		h15.9c0.3,0,0.5,0.1,0.6,0.2s0.2,0.3,0.2,0.4c0,0.2-0.1,0.3-0.2,0.4C74.9,171.6,74.7,171.7,74.4,171.7z"/>
	<path class="st0" d="M81.6,159.4h3.9l-4.2,7.9c-0.3,0.5-0.6,0.7-0.9,0.7c-0.2,0-0.4-0.1-0.6-0.2c-0.2-0.2-0.2-0.4-0.2-0.6
		c0-0.1,0-0.2,0-0.3L81.6,159.4z"/>
	<path class="st0" d="M101.2,160.3h0.5c0.5,0,1,0.2,1.4,0.6c0.4,0.4,0.6,0.8,0.6,1.4c0,0.6-0.2,1-0.6,1.4s-0.8,0.6-1.4,0.6h-0.5
		c-0.5,0-1-0.2-1.4-0.6c-0.4-0.4-0.6-0.8-0.6-1.4c0-0.6,0.2-1,0.6-1.4S100.7,160.3,101.2,160.3z"/>
	<path class="st0" d="M126.9,171.7H111c-0.3,0-0.5-0.1-0.6-0.2c-0.1-0.1-0.2-0.3-0.2-0.4c0-0.2,0.1-0.3,0.2-0.4
		c0.1-0.1,0.3-0.2,0.6-0.2h15.9c0.3,0,0.5,0.1,0.6,0.2s0.2,0.3,0.2,0.4c0,0.2-0.1,0.3-0.2,0.4C127.4,171.6,127.2,171.7,126.9,171.7z
		"/>
	<path class="st0" d="M134.1,159.4h3.9l-4.2,7.9c-0.3,0.5-0.6,0.7-0.9,0.7c-0.2,0-0.4-0.1-0.6-0.2c-0.2-0.2-0.2-0.4-0.2-0.6
		c0-0.1,0-0.2,0-0.3L134.1,159.4z"/>
	<path class="st0" d="M152.1,145.8h3.8l-1,7.5c-0.1,0.4-0.2,0.7-0.3,0.8c-0.2,0.2-0.3,0.2-0.6,0.2c-0.2,0-0.4-0.1-0.6-0.2
		c-0.2-0.2-0.3-0.4-0.3-0.8L152.1,145.8z"/>
</g>
</svg>
