<?xml version="1.0" encoding="utf-8"?>
<!-- Generator: Adobe Illustrator 25.2.3, SVG Export Plug-In . SVG Version: 6.00 Build 0)  -->
<svg version="1.1" id="Layer_1" xmlns="http://www.w3.org/2000/svg" xmlns:xlink="http://www.w3.org/1999/xlink" x="0px" y="0px"
	 viewBox="0 0 759.8 637.3" style="enable-background:new 0 0 759.8 637.3;" xml:space="preserve">
<style type="text/css">
	.st0{fill:#FFFFFF;}
</style>
<g id="Layer_1_1_">
</g>
<g id="Layer_2_1_">
	<image style="overflow:visible;" width="764" height="616" xlink:href="8477EE82.png"  transform="matrix(1 0 0 1 3.1 -1.8)">
	</image>
	<g>
		<g>
			<g>
				<path class="st0" d="M67.3,16.4l-9.6,20.7c-0.2,0.5-0.5,0.9-0.7,1c-0.3,0.2-0.6,0.3-0.9,0.3c-0.4,0-0.8-0.1-1.1-0.4
					c-0.3-0.3-0.4-0.6-0.4-1c0-0.3,0.1-0.7,0.4-1.2l9.7-20.7c0.2-0.5,0.5-0.9,0.6-1c0.3-0.2,0.6-0.3,0.9-0.3c0.4,0,0.8,0.1,1.1,0.4
					s0.4,0.6,0.4,1C67.7,15.5,67.6,15.9,67.3,16.4z"/>
				<path class="st0" d="M80.4,27.7c0,1.7-0.3,3.4-0.8,5.2c-0.4,1.3-1.1,2.7-1.9,4.3c-0.6,1.1-1.1,1.8-1.4,2.1s-0.6,0.4-1,0.4
					s-0.8-0.1-1.1-0.4s-0.4-0.6-0.4-1.1c0-0.3,0.1-0.6,0.4-1c1.1-1.7,1.8-3.3,2.3-4.9s0.7-3.1,0.7-4.6c0-1.6-0.2-3.1-0.7-4.6
					s-1.3-3.1-2.3-4.9c-0.2-0.4-0.4-0.7-0.4-1c0-0.4,0.1-0.8,0.4-1.1s0.7-0.4,1.1-0.4s0.7,0.1,1,0.4c0.4,0.3,0.9,1.1,1.6,2.3
					c0.9,1.7,1.6,3.1,1.9,4.3C80.2,24.4,80.4,26.1,80.4,27.7z"/>
				<path class="st0" d="M98.4,27.7c0,1.7-0.3,3.4-0.8,5.2c-0.4,1.3-1.1,2.7-1.9,4.3c-0.6,1.1-1.1,1.8-1.4,2.1s-0.6,0.4-1,0.4
					s-0.8-0.1-1.1-0.4s-0.4-0.6-0.4-1.1c0-0.3,0.1-0.6,0.4-1c1.1-1.7,1.8-3.3,2.3-4.9s0.7-3.1,0.7-4.6c0-1.6-0.2-3.1-0.7-4.6
					s-1.3-3.1-2.3-4.9c-0.2-0.4-0.4-0.7-0.4-1c0-0.4,0.1-0.8,0.4-1.1s0.7-0.4,1.1-0.4s0.7,0.1,1,0.4c0.4,0.3,0.9,1.1,1.6,2.3
					c0.9,1.7,1.6,3.1,1.9,4.3C98.2,24.4,98.4,26.1,98.4,27.7z"/>
				<path class="st0" d="M177.5,44H161c-0.7,0-1.2-0.1-1.5-0.4S159,43,159,42.5s0.2-0.8,0.5-1.1s0.8-0.4,1.5-0.4h16.5
					c0.7,0,1.2,0.1,1.5,0.4s0.5,0.6,0.5,1.1c0,0.4-0.2,0.8-0.5,1.1S178.2,44,177.5,44z"/>
				<path class="st0" d="M249.5,44H233c-0.7,0-1.2-0.1-1.5-0.4S231,43,231,42.5s0.2-0.8,0.5-1.1s0.8-0.4,1.5-0.4h16.5
					c0.7,0,1.2,0.1,1.5,0.4s0.5,0.6,0.5,1.1c0,0.4-0.2,0.8-0.5,1.1S250.2,44,249.5,44z"/>
				<path class="st0" d="M267.5,44H251c-0.7,0-1.2-0.1-1.5-0.4S249,43,249,42.5s0.2-0.8,0.5-1.1s0.8-0.4,1.5-0.4h16.5
					c0.7,0,1.2,0.1,1.5,0.4s0.5,0.6,0.5,1.1c0,0.4-0.2,0.8-0.5,1.1S268.2,44,267.5,44z"/>
				<path class="st0" d="M285.5,44H269c-0.7,0-1.2-0.1-1.5-0.4S267,43,267,42.5s0.2-0.8,0.5-1.1s0.8-0.4,1.5-0.4h16.5
					c0.7,0,1.2,0.1,1.5,0.4s0.5,0.6,0.5,1.1c0,0.4-0.2,0.8-0.5,1.1S286.2,44,285.5,44z"/>
				<path class="st0" d="M303.5,44H287c-0.7,0-1.2-0.1-1.5-0.4S285,43,285,42.5s0.2-0.8,0.5-1.1s0.8-0.4,1.5-0.4h16.5
					c0.7,0,1.2,0.1,1.5,0.4s0.5,0.6,0.5,1.1c0,0.4-0.2,0.8-0.5,1.1S304.2,44,303.5,44z"/>
				<path class="st0" d="M321.5,44H305c-0.7,0-1.2-0.1-1.5-0.4S303,43,303,42.5s0.2-0.8,0.5-1.1s0.8-0.4,1.5-0.4h16.5
					c0.7,0,1.2,0.1,1.5,0.4s0.5,0.6,0.5,1.1c0,0.4-0.2,0.8-0.5,1.1S322.2,44,321.5,44z"/>
				<path class="st0" d="M339.5,44H323c-0.7,0-1.2-0.1-1.5-0.4S321,43,321,42.5s0.2-0.8,0.5-1.1s0.8-0.4,1.5-0.4h16.5
					c0.7,0,1.2,0.1,1.5,0.4s0.5,0.6,0.5,1.1c0,0.4-0.2,0.8-0.5,1.1S340.2,44,339.5,44z"/>
				<path class="st0" d="M357.5,44H341c-0.7,0-1.2-0.1-1.5-0.4S339,43,339,42.5s0.2-0.8,0.5-1.1s0.8-0.4,1.5-0.4h16.5
					c0.7,0,1.2,0.1,1.5,0.4s0.5,0.6,0.5,1.1c0,0.4-0.2,0.8-0.5,1.1S358.2,44,357.5,44z"/>
				<path class="st0" d="M375.5,44H359c-0.7,0-1.2-0.1-1.5-0.4S357,43,357,42.5s0.2-0.8,0.5-1.1s0.8-0.4,1.5-0.4h16.5
					c0.7,0,1.2,0.1,1.5,0.4s0.5,0.6,0.5,1.1c0,0.4-0.2,0.8-0.5,1.1S376.2,44,375.5,44z"/>
				<path class="st0" d="M393.5,44H377c-0.7,0-1.2-0.1-1.5-0.4S375,43,375,42.5s0.2-0.8,0.5-1.1s0.8-0.4,1.5-0.4h16.5
					c0.7,0,1.2,0.1,1.5,0.4s0.5,0.6,0.5,1.1c0,0.4-0.2,0.8-0.5,1.1S394.2,44,393.5,44z"/>
				<path class="st0" d="M411.5,44H395c-0.7,0-1.2-0.1-1.5-0.4S393,43,393,42.5s0.2-0.8,0.5-1.1s0.8-0.4,1.5-0.4h16.5
					c0.7,0,1.2,0.1,1.5,0.4s0.5,0.6,0.5,1.1c0,0.4-0.2,0.8-0.5,1.1S412.2,44,411.5,44z"/>
				<path class="st0" d="M429.5,44H413c-0.7,0-1.2-0.1-1.5-0.4S411,43,411,42.5s0.2-0.8,0.5-1.1s0.8-0.4,1.5-0.4h16.5
					c0.7,0,1.2,0.1,1.5,0.4s0.5,0.6,0.5,1.1c0,0.4-0.2,0.8-0.5,1.1S430.2,44,429.5,44z"/>
				<path class="st0" d="M447.5,44H431c-0.7,0-1.2-0.1-1.5-0.4S429,43,429,42.5s0.2-0.8,0.5-1.1s0.8-0.4,1.5-0.4h16.5
					c0.7,0,1.2,0.1,1.5,0.4s0.5,0.6,0.5,1.1c0,0.4-0.2,0.8-0.5,1.1S448.2,44,447.5,44z"/>
				<path class="st0" d="M465.5,44H449c-0.7,0-1.2-0.1-1.5-0.4S447,43,447,42.5s0.2-0.8,0.5-1.1s0.8-0.4,1.5-0.4h16.5
					c0.7,0,1.2,0.1,1.5,0.4s0.5,0.6,0.5,1.1c0,0.4-0.2,0.8-0.5,1.1S466.2,44,465.5,44z"/>
				<path class="st0" d="M483.5,44H467c-0.7,0-1.2-0.1-1.5-0.4S465,43,465,42.5s0.2-0.8,0.5-1.1s0.8-0.4,1.5-0.4h16.5
					c0.7,0,1.2,0.1,1.5,0.4s0.5,0.6,0.5,1.1c0,0.4-0.2,0.8-0.5,1.1S484.2,44,483.5,44z"/>
				<path class="st0" d="M501.5,44H485c-0.7,0-1.2-0.1-1.5-0.4S483,43,483,42.5s0.2-0.8,0.5-1.1s0.8-0.4,1.5-0.4h16.5
					c0.7,0,1.2,0.1,1.5,0.4s0.5,0.6,0.5,1.1c0,0.4-0.2,0.8-0.5,1.1S502.3,44,501.5,44z"/>
				<path class="st0" d="M519.5,44H503c-0.7,0-1.2-0.1-1.5-0.4S501,43,501,42.5s0.2-0.8,0.5-1.1s0.8-0.4,1.5-0.4h16.5
					c0.7,0,1.2,0.1,1.5,0.4s0.5,0.6,0.5,1.1c0,0.4-0.2,0.8-0.5,1.1S520.3,44,519.5,44z"/>
				<path class="st0" d="M537.5,44H521c-0.7,0-1.2-0.1-1.5-0.4S519,43,519,42.5s0.2-0.8,0.5-1.1s0.8-0.4,1.5-0.4h16.5
					c0.7,0,1.2,0.1,1.5,0.4s0.5,0.6,0.5,1.1c0,0.4-0.2,0.8-0.5,1.1S538.3,44,537.5,44z"/>
				<path class="st0" d="M672.2,27.7c0-1.7,0.3-3.4,0.8-5.2c0.4-1.3,1.1-2.7,1.9-4.3c0.6-1.1,1.1-1.8,1.4-2.1s0.6-0.4,1-0.4
					s0.8,0.1,1.1,0.4s0.4,0.6,0.4,1.1c0,0.3-0.1,0.6-0.4,1c-1.1,1.7-1.8,3.3-2.3,4.9s-0.7,3-0.7,4.6s0.2,3.1,0.7,4.6
					s1.3,3.1,2.3,4.9c0.2,0.4,0.4,0.7,0.4,1c0,0.4-0.1,0.8-0.4,1.1s-0.7,0.4-1.1,0.4c-0.4,0-0.7-0.1-1-0.4c-0.4-0.3-0.9-1.1-1.6-2.3
					c-0.9-1.7-1.6-3.2-1.9-4.3C672.4,31,672.2,29.4,672.2,27.7z"/>
				<path class="st0" d="M690.2,27.7c0-1.7,0.3-3.4,0.8-5.2c0.4-1.3,1.1-2.7,1.9-4.3c0.6-1.1,1.1-1.8,1.4-2.1s0.6-0.4,1-0.4
					s0.8,0.1,1.1,0.4s0.4,0.6,0.4,1.1c0,0.3-0.1,0.6-0.4,1c-1.1,1.7-1.8,3.3-2.3,4.9s-0.7,3-0.7,4.6s0.2,3.1,0.7,4.6
					s1.3,3.1,2.3,4.9c0.2,0.4,0.4,0.7,0.4,1c0,0.4-0.1,0.8-0.4,1.1s-0.7,0.4-1.1,0.4c-0.4,0-0.7-0.1-1-0.4c-0.4-0.3-0.9-1.1-1.6-2.3
					c-0.9-1.7-1.6-3.2-1.9-4.3C690.4,31,690.2,29.4,690.2,27.7z"/>
				<path class="st0" d="M705.8,15.1l9.6,20.7c0,0.1,0.1,0.4,0.2,0.7c0.1,0.2,0.1,0.4,0.1,0.5c0,0.4-0.1,0.7-0.4,0.9
					c-0.3,0.3-0.6,0.4-1,0.4s-0.7-0.1-0.9-0.3c-0.2-0.2-0.5-0.5-0.7-1l-9.6-20.7c-0.2-0.5-0.4-0.9-0.4-1.2c0-0.4,0.1-0.7,0.4-1
					s0.6-0.4,1-0.4s0.7,0.1,0.9,0.3S705.6,14.6,705.8,15.1z"/>
				<path class="st0" d="M49.3,56.4l-9.6,20.7c-0.2,0.5-0.5,0.9-0.7,1c-0.3,0.2-0.6,0.3-0.9,0.3c-0.4,0-0.8-0.1-1.1-0.4
					s-0.4-0.6-0.4-1c0-0.3,0.1-0.7,0.4-1.2l9.7-20.7c0.2-0.5,0.5-0.9,0.6-1c0.3-0.2,0.6-0.3,0.9-0.3c0.4,0,0.8,0.1,1.1,0.4
					s0.4,0.6,0.4,1C49.7,55.5,49.6,55.9,49.3,56.4z"/>
				<path class="st0" d="M85.3,56.4l-9.6,20.7c-0.2,0.5-0.5,0.9-0.7,1c-0.3,0.2-0.6,0.3-0.9,0.3c-0.4,0-0.8-0.1-1.1-0.4
					s-0.4-0.6-0.4-1c0-0.3,0.1-0.7,0.4-1.2l9.7-20.7c0.2-0.5,0.5-0.9,0.6-1c0.3-0.2,0.6-0.3,0.9-0.3c0.4,0,0.8,0.1,1.1,0.4
					s0.4,0.6,0.4,1C85.7,55.5,85.6,55.9,85.3,56.4z"/>
				<path class="st0" d="M123.5,84H107c-0.7,0-1.2-0.1-1.5-0.4S105,83,105,82.5s0.2-0.8,0.5-1.1s0.8-0.4,1.5-0.4h16.5
					c0.7,0,1.2,0.1,1.5,0.4s0.5,0.6,0.5,1.1c0,0.4-0.2,0.8-0.5,1.1S124.2,84,123.5,84z"/>
				<path class="st0" d="M157.4,56.4l-9.6,20.7c-0.2,0.5-0.5,0.9-0.7,1c-0.3,0.2-0.6,0.3-0.9,0.3c-0.4,0-0.8-0.1-1.1-0.4
					s-0.4-0.6-0.4-1c0-0.3,0.1-0.7,0.4-1.2l9.7-20.7c0.2-0.5,0.5-0.9,0.6-1c0.3-0.2,0.6-0.3,0.9-0.3c0.4,0,0.8,0.1,1.1,0.4
					s0.4,0.6,0.4,1C157.7,55.5,157.6,55.9,157.4,56.4z"/>
				<path class="st0" d="M186.1,55.4l3.3,2.7c0.4,0.3,0.6,0.6,0.6,0.9s-0.1,0.5-0.3,0.7S189.3,60,189,60c-0.2,0-0.5-0.1-0.8-0.4
					l-3.3-2.7c-0.4-0.3-0.6-0.6-0.6-0.9s0.1-0.5,0.3-0.7s0.4-0.3,0.7-0.3C185.5,55,185.8,55.1,186.1,55.4z"/>
				<path class="st0" d="M224.7,58.9v17.9c0,1,0,1.6-0.1,1.8c-0.1,0.3-0.3,0.5-0.5,0.7s-0.6,0.3-0.9,0.3c-0.3,0-0.6-0.1-0.9-0.3
					s-0.4-0.5-0.5-0.8c0-0.2-0.1-0.8-0.1-1.8V58.9c0-1,0-1.6,0.1-1.8c0.1-0.3,0.3-0.5,0.5-0.7s0.6-0.3,0.9-0.3
					c0.3,0,0.6,0.1,0.9,0.3s0.4,0.5,0.5,0.8C224.7,57.3,224.7,57.9,224.7,58.9z"/>
				<path class="st0" d="M548.7,58.9v17.9c0,1,0,1.6-0.1,1.8c-0.1,0.3-0.3,0.5-0.5,0.7s-0.6,0.3-0.9,0.3c-0.3,0-0.6-0.1-0.9-0.3
					s-0.4-0.5-0.5-0.8c0-0.2-0.1-0.8-0.1-1.8V58.9c0-1,0-1.6,0.1-1.8c0.1-0.3,0.3-0.5,0.5-0.7s0.6-0.3,0.9-0.3
					c0.3,0,0.6,0.1,0.9,0.3s0.4,0.5,0.5,0.8C548.7,57.3,548.7,57.9,548.7,58.9z"/>
				<path class="st0" d="M600.5,71h4l-4.3,8.1c-0.3,0.5-0.6,0.7-1,0.7c-0.3,0-0.5-0.1-0.7-0.2s-0.3-0.4-0.3-0.6c0-0.1,0-0.3,0.1-0.6
					L600.5,71z"/>
				<path class="st0" d="M625.5,67.8H613v-2.7h12.5V67.8z"/>
				<path class="st0" d="M663.6,84h-16.5c-0.7,0-1.2-0.1-1.5-0.4s-0.5-0.6-0.5-1.1s0.2-0.8,0.5-1.1s0.8-0.4,1.5-0.4h16.5
					c0.7,0,1.2,0.1,1.5,0.4s0.5,0.6,0.5,1.1c0,0.4-0.2,0.8-0.5,1.1S664.3,84,663.6,84z"/>
				<path class="st0" d="M687.8,55.1l9.6,20.7c0,0.1,0.1,0.4,0.2,0.7c0.1,0.2,0.1,0.4,0.1,0.5c0,0.4-0.1,0.7-0.4,0.9s-0.6,0.4-1,0.4
					s-0.7-0.1-0.9-0.3s-0.5-0.5-0.7-1l-9.6-20.7c-0.2-0.5-0.4-0.9-0.4-1.2c0-0.4,0.1-0.7,0.4-1s0.6-0.4,1-0.4s0.7,0.1,0.9,0.3
					S687.6,54.6,687.8,55.1z"/>
				<path class="st0" d="M723.8,55.1l9.6,20.7c0,0.1,0.1,0.4,0.2,0.7c0.1,0.2,0.1,0.4,0.1,0.5c0,0.4-0.1,0.7-0.4,0.9s-0.6,0.4-1,0.4
					s-0.7-0.1-0.9-0.3s-0.5-0.5-0.7-1l-9.6-20.7c-0.2-0.5-0.4-0.9-0.4-1.2c0-0.4,0.1-0.7,0.4-1s0.6-0.4,1-0.4s0.7,0.1,0.9,0.3
					S723.6,54.6,723.8,55.1z"/>
				<path class="st0" d="M31.3,96.4l-9.6,20.7c-0.2,0.5-0.5,0.9-0.7,1c-0.3,0.2-0.6,0.3-0.9,0.3c-0.4,0-0.8-0.1-1.1-0.4
					s-0.4-0.6-0.4-1c0-0.3,0.1-0.7,0.4-1.2l9.7-20.7c0.2-0.5,0.5-0.9,0.6-1c0.3-0.2,0.6-0.3,0.9-0.3c0.4,0,0.8,0.1,1.1,0.4
					s0.4,0.6,0.4,1C31.7,95.5,31.6,95.9,31.3,96.4z"/>
				<path class="st0" d="M67.3,96.4l-9.6,20.7c-0.2,0.5-0.5,0.9-0.7,1c-0.3,0.2-0.6,0.3-0.9,0.3c-0.4,0-0.8-0.1-1.1-0.4
					s-0.4-0.6-0.4-1c0-0.3,0.1-0.7,0.4-1.2l9.7-20.7c0.2-0.5,0.5-0.9,0.6-1c0.3-0.2,0.6-0.3,0.9-0.3c0.4,0,0.8,0.1,1.1,0.4
					s0.4,0.6,0.4,1C67.7,95.5,67.6,95.9,67.3,96.4z"/>
				<path class="st0" d="M103.3,96.4l-9.6,20.7c-0.2,0.5-0.5,0.9-0.7,1c-0.3,0.2-0.6,0.3-0.9,0.3c-0.4,0-0.8-0.1-1.1-0.4
					s-0.4-0.6-0.4-1c0-0.3,0.1-0.7,0.4-1.2l9.7-20.7c0.2-0.5,0.5-0.9,0.6-1c0.3-0.2,0.6-0.3,0.9-0.3c0.4,0,0.8,0.1,1.1,0.4
					s0.4,0.6,0.4,1C103.7,95.5,103.6,95.9,103.3,96.4z"/>
				<path class="st0" d="M139.3,96.4l-9.6,20.7c-0.2,0.5-0.5,0.9-0.7,1c-0.3,0.2-0.6,0.3-0.9,0.3c-0.4,0-0.8-0.1-1.1-0.4
					s-0.4-0.6-0.4-1c0-0.3,0.1-0.7,0.4-1.2l9.7-20.7c0.2-0.5,0.5-0.9,0.6-1c0.3-0.2,0.6-0.3,0.9-0.3c0.4,0,0.8,0.1,1.1,0.4
					s0.4,0.6,0.4,1C139.7,95.5,139.6,95.9,139.3,96.4z"/>
				<path class="st0" d="M175.4,96.4l-9.6,20.7c-0.2,0.5-0.5,0.9-0.7,1c-0.3,0.2-0.6,0.3-0.9,0.3c-0.4,0-0.8-0.1-1.1-0.4
					s-0.4-0.6-0.4-1c0-0.3,0.1-0.7,0.4-1.2l9.7-20.7c0.2-0.5,0.5-0.9,0.6-1c0.3-0.2,0.6-0.3,0.9-0.3c0.4,0,0.8,0.1,1.1,0.4
					s0.4,0.6,0.4,1C175.7,95.5,175.6,95.9,175.4,96.4z"/>
				<path class="st0" d="M186.1,95.4l3.3,2.7c0.4,0.3,0.6,0.6,0.6,0.9s-0.1,0.5-0.3,0.7s-0.4,0.3-0.7,0.3c-0.2,0-0.5-0.1-0.8-0.4
					l-3.3-2.7c-0.4-0.3-0.6-0.6-0.6-0.9s0.1-0.5,0.3-0.7s0.4-0.3,0.7-0.3C185.5,95,185.8,95.1,186.1,95.4z"/>
				<path class="st0" d="M213.5,124H197c-0.7,0-1.2-0.1-1.5-0.4s-0.5-0.6-0.5-1.1s0.2-0.8,0.5-1.1s0.8-0.4,1.5-0.4h16.5
					c0.7,0,1.2,0.1,1.5,0.4s0.5,0.6,0.5,1.1c0,0.4-0.2,0.8-0.5,1.1S214.2,124,213.5,124z"/>
				<path class="st0" d="M224.7,98.9v17.9c0,1,0,1.6-0.1,1.8c-0.1,0.3-0.3,0.5-0.5,0.7s-0.6,0.3-0.9,0.3c-0.3,0-0.6-0.1-0.9-0.3
					s-0.4-0.5-0.5-0.8c0-0.2-0.1-0.8-0.1-1.8V98.8c0-1,0-1.6,0.1-1.8c0.1-0.3,0.3-0.5,0.5-0.7s0.6-0.3,0.9-0.3
					c0.3,0,0.6,0.1,0.9,0.3s0.4,0.5,0.5,0.8C224.7,97.3,224.7,97.9,224.7,98.9z"/>
				<path class="st0" d="M345.4,102.9v9.1h1.1c0.7,0,1.2,0.1,1.5,0.4s0.5,0.6,0.5,1.1c0,0.4-0.2,0.8-0.5,1.1s-0.8,0.4-1.5,0.4h-3.9
					c-0.7,0-1.2-0.1-1.5-0.4s-0.5-0.6-0.5-1.1c0-0.4,0.2-0.8,0.5-1.1s0.8-0.4,1.4-0.4v-11.7H342c-0.7,0-1.2-0.1-1.5-0.4
					s-0.5-0.6-0.5-1.1s0.2-0.8,0.5-1.1s0.8-0.4,1.5-0.4h3.5l7.7,12v-9h-1.1c-0.7,0-1.2-0.1-1.5-0.4s-0.5-0.6-0.5-1.1
					s0.2-0.8,0.5-1.1s0.8-0.4,1.5-0.4h3.9c0.7,0,1.2,0.1,1.5,0.4s0.5,0.6,0.5,1.1c0,0.4-0.2,0.8-0.5,1.1s-0.8,0.4-1.4,0.4V115h-3
					L345.4,102.9z"/>
				<path class="st0" d="M375.6,106.1c0,2.7-0.8,4.9-2.5,6.7s-3.7,2.7-5.9,2.7c-2,0-3.8-0.7-5.4-2.2c-2-1.8-3-4.2-3-7.1s1-5.3,3-7.1
					c1.6-1.5,3.4-2.2,5.4-2.2c2.2,0,4.2,0.9,5.9,2.7S375.6,103.4,375.6,106.1z M372.6,106.1c0-1.8-0.6-3.3-1.7-4.5s-2.4-1.8-3.8-1.8
					s-2.6,0.6-3.8,1.8c-1.2,1.2-1.7,2.7-1.7,4.5s0.6,3.3,1.7,4.5s2.4,1.8,3.8,1.8s2.7-0.6,3.8-1.8S372.6,107.9,372.6,106.1z"/>
				<path class="st0" d="M404.7,100.2V112h2c0.7,0,1.2,0.1,1.5,0.4s0.5,0.6,0.5,1.1c0,0.4-0.2,0.8-0.5,1.1s-0.8,0.4-1.5,0.4h-7
					c-0.7,0-1.2-0.1-1.5-0.4s-0.5-0.6-0.5-1.1c0-0.4,0.2-0.8,0.5-1.1s0.8-0.4,1.5-0.4h2v-11.7h-3.3v2.8c0,0.7-0.1,1.2-0.4,1.5
					s-0.6,0.5-1.1,0.5c-0.4,0-0.8-0.2-1.1-0.5s-0.4-0.8-0.4-1.5v-5.9H411v5.8c0,0.7-0.1,1.2-0.4,1.5s-0.6,0.5-1.1,0.5
					c-0.4,0-0.8-0.2-1.1-0.5s-0.4-0.8-0.4-1.5v-2.8H404.7z"/>
				<path class="st0" d="M429.6,106.1c0,2.7-0.8,4.9-2.5,6.7s-3.7,2.7-5.9,2.7c-2,0-3.8-0.7-5.4-2.2c-2-1.8-3-4.2-3-7.1s1-5.3,3-7.1
					c1.6-1.5,3.4-2.2,5.4-2.2c2.2,0,4.2,0.9,5.9,2.7S429.6,103.4,429.6,106.1z M426.6,106.1c0-1.8-0.6-3.3-1.7-4.5s-2.4-1.8-3.8-1.8
					s-2.6,0.6-3.8,1.8c-1.2,1.2-1.7,2.7-1.7,4.5s0.6,3.3,1.7,4.5s2.4,1.8,3.8,1.8s2.7-0.6,3.8-1.8S426.6,107.9,426.6,106.1z"/>
				<path class="st0" d="M548.7,98.9v17.9c0,1,0,1.6-0.1,1.8c-0.1,0.3-0.3,0.5-0.5,0.7s-0.6,0.3-0.9,0.3c-0.3,0-0.6-0.1-0.9-0.3
					s-0.4-0.5-0.5-0.8c0-0.2-0.1-0.8-0.1-1.8V98.8c0-1,0-1.6,0.1-1.8c0.1-0.3,0.3-0.5,0.5-0.7s0.6-0.3,0.9-0.3
					c0.3,0,0.6,0.1,0.9,0.3s0.4,0.5,0.5,0.8C548.7,97.3,548.7,97.9,548.7,98.9z"/>
				<path class="st0" d="M564.5,111h4l-4.3,8.1c-0.3,0.5-0.6,0.7-1,0.7c-0.3,0-0.5-0.1-0.7-0.2s-0.3-0.4-0.3-0.6
					c0-0.1,0-0.3,0.1-0.6L564.5,111z"/>
				<path class="st0" d="M589.5,107.8H577v-2.7h12.5V107.8z"/>
				<path class="st0" d="M597.8,95.1l9.6,20.7c0,0.1,0.1,0.4,0.2,0.7c0.1,0.2,0.1,0.4,0.1,0.5c0,0.4-0.1,0.7-0.4,0.9s-0.6,0.4-1,0.4
					s-0.7-0.1-0.9-0.3s-0.5-0.5-0.7-1l-9.6-20.7c-0.2-0.5-0.4-0.9-0.4-1.2c0-0.4,0.1-0.7,0.4-1s0.6-0.4,1-0.4s0.7,0.1,0.9,0.3
					S597.6,94.6,597.8,95.1z"/>
				<path class="st0" d="M633.8,95.1l9.6,20.7c0,0.1,0.1,0.4,0.2,0.7c0.1,0.2,0.1,0.4,0.1,0.5c0,0.4-0.1,0.7-0.4,0.9s-0.6,0.4-1,0.4
					s-0.7-0.1-0.9-0.3s-0.5-0.5-0.7-1l-9.6-20.7c-0.2-0.5-0.4-0.9-0.4-1.2c0-0.4,0.1-0.7,0.4-1s0.6-0.4,1-0.4s0.7,0.1,0.9,0.3
					S633.6,94.6,633.8,95.1z"/>
				<path class="st0" d="M669.8,95.1l9.6,20.7c0,0.1,0.1,0.4,0.2,0.7c0.1,0.2,0.1,0.4,0.1,0.5c0,0.4-0.1,0.7-0.4,0.9s-0.6,0.4-1,0.4
					s-0.7-0.1-0.9-0.3s-0.5-0.5-0.7-1l-9.6-20.7c-0.2-0.5-0.4-0.9-0.4-1.2c0-0.4,0.1-0.7,0.4-1s0.6-0.4,1-0.4s0.7,0.1,0.9,0.3
					S669.6,94.6,669.8,95.1z"/>
				<path class="st0" d="M705.8,95.1l9.6,20.7c0,0.1,0.1,0.4,0.2,0.7c0.1,0.2,0.1,0.4,0.1,0.5c0,0.4-0.1,0.7-0.4,0.9s-0.6,0.4-1,0.4
					s-0.7-0.1-0.9-0.3s-0.5-0.5-0.7-1l-9.6-20.7c-0.2-0.5-0.4-0.9-0.4-1.2c0-0.4,0.1-0.7,0.4-1s0.6-0.4,1-0.4s0.7,0.1,0.9,0.3
					S705.6,94.6,705.8,95.1z"/>
				<path class="st0" d="M741.8,95.1l9.6,20.7c0,0.1,0.1,0.4,0.2,0.7c0.1,0.2,0.1,0.4,0.1,0.5c0,0.4-0.1,0.7-0.4,0.9s-0.6,0.4-1,0.4
					s-0.7-0.1-0.9-0.3s-0.5-0.5-0.7-1l-9.6-20.7c-0.2-0.5-0.4-0.9-0.4-1.2c0-0.4,0.1-0.7,0.4-1s0.6-0.4,1-0.4s0.7,0.1,0.9,0.3
					S741.6,94.6,741.8,95.1z"/>
				<path class="st0" d="M26.7,138.9v17.9c0,1,0,1.6-0.1,1.8c-0.1,0.3-0.3,0.5-0.5,0.7s-0.6,0.3-0.9,0.3s-0.6-0.1-0.9-0.3
					s-0.4-0.5-0.5-0.8c0-0.2-0.1-0.8-0.1-1.8v-17.9c0-1,0-1.6,0.1-1.8c0.1-0.3,0.3-0.5,0.5-0.7s0.6-0.3,0.9-0.3s0.6,0.1,0.9,0.3
					s0.4,0.5,0.5,0.8C26.6,137.3,26.7,137.9,26.7,138.9z"/>
				<path class="st0" d="M62.7,138.9v17.9c0,1,0,1.6-0.1,1.8c-0.1,0.3-0.3,0.5-0.5,0.7s-0.6,0.3-0.9,0.3c-0.3,0-0.6-0.1-0.9-0.3
					s-0.4-0.5-0.5-0.8c0-0.2-0.1-0.8-0.1-1.8v-17.9c0-1,0-1.6,0.1-1.8c0.1-0.3,0.3-0.5,0.5-0.7s0.6-0.3,0.9-0.3
					c0.3,0,0.6,0.1,0.9,0.3s0.4,0.5,0.5,0.8C62.6,137.3,62.7,137.9,62.7,138.9z"/>
				<path class="st0" d="M85.3,136.4l-9.6,20.7c-0.2,0.5-0.5,0.9-0.7,1c-0.3,0.2-0.6,0.3-0.9,0.3c-0.4,0-0.8-0.1-1.1-0.4
					s-0.4-0.6-0.4-1c0-0.3,0.1-0.7,0.4-1.2l9.7-20.7c0.2-0.5,0.5-0.9,0.6-1c0.3-0.2,0.6-0.3,0.9-0.3c0.4,0,0.8,0.1,1.1,0.4
					s0.4,0.6,0.4,1C85.7,135.5,85.6,135.9,85.3,136.4z"/>
				<path class="st0" d="M121.3,136.4l-9.6,20.7c-0.2,0.5-0.5,0.9-0.7,1c-0.3,0.2-0.6,0.3-0.9,0.3c-0.4,0-0.8-0.1-1.1-0.4
					s-0.4-0.6-0.4-1c0-0.3,0.1-0.7,0.4-1.2l9.7-20.7c0.2-0.5,0.5-0.9,0.6-1c0.3-0.2,0.6-0.3,0.9-0.3c0.4,0,0.8,0.1,1.1,0.4
					s0.4,0.6,0.4,1C121.7,135.5,121.6,135.9,121.3,136.4z"/>
				<path class="st0" d="M157.4,136.4l-9.6,20.7c-0.2,0.5-0.5,0.9-0.7,1c-0.3,0.2-0.6,0.3-0.9,0.3c-0.4,0-0.8-0.1-1.1-0.4
					s-0.4-0.6-0.4-1c0-0.3,0.1-0.7,0.4-1.2l9.7-20.7c0.2-0.5,0.5-0.9,0.6-1c0.3-0.2,0.6-0.3,0.9-0.3c0.4,0,0.8,0.1,1.1,0.4
					s0.4,0.6,0.4,1C157.7,135.5,157.6,135.9,157.4,136.4z"/>
				<path class="st0" d="M193.4,136.4l-9.6,20.7c-0.2,0.5-0.5,0.9-0.7,1c-0.3,0.2-0.6,0.3-0.9,0.3c-0.4,0-0.8-0.1-1.1-0.4
					s-0.4-0.6-0.4-1c0-0.3,0.1-0.7,0.4-1.2l9.7-20.7c0.2-0.5,0.5-0.9,0.6-1c0.3-0.2,0.6-0.3,0.9-0.3c0.4,0,0.8,0.1,1.1,0.4
					s0.4,0.6,0.4,1C193.7,135.5,193.6,135.9,193.4,136.4z"/>
				<path class="st0" d="M224.7,138.9v17.9c0,1,0,1.6-0.1,1.8c-0.1,0.3-0.3,0.5-0.5,0.7s-0.6,0.3-0.9,0.3c-0.3,0-0.6-0.1-0.9-0.3
					s-0.4-0.5-0.5-0.8c0-0.2-0.1-0.8-0.1-1.8v-17.9c0-1,0-1.6,0.1-1.8c0.1-0.3,0.3-0.5,0.5-0.7s0.6-0.3,0.9-0.3
					c0.3,0,0.6,0.1,0.9,0.3s0.4,0.5,0.5,0.8C224.7,137.3,224.7,137.9,224.7,138.9z"/>
				<path class="st0" d="M317.9,138c0.2-0.3,0.4-0.4,0.6-0.6s0.5-0.2,0.7-0.2c0.4,0,0.8,0.2,1.1,0.5s0.4,0.8,0.4,1.5v2.5
					c0,0.7-0.1,1.2-0.4,1.5s-0.6,0.5-1.1,0.5c-0.4,0-0.7-0.1-1-0.3s-0.4-0.6-0.5-1.3c-0.1-0.4-0.2-0.7-0.4-1c-0.4-0.4-1-0.8-1.7-1.1
					s-1.4-0.4-2.2-0.4c-0.9,0-1.7,0.2-2.5,0.6s-1.4,1-2,1.9s-0.9,1.9-0.9,3.1v1.9c0,1.4,0.5,2.7,1.6,3.6s2.5,1.4,4.4,1.4
					c1.1,0,2.1-0.2,2.8-0.5c0.4-0.2,0.9-0.5,1.4-1c0.3-0.3,0.6-0.5,0.7-0.6s0.4-0.1,0.6-0.1c0.4,0,0.8,0.2,1.1,0.5s0.5,0.7,0.5,1.1
					s-0.2,0.8-0.6,1.3c-0.6,0.7-1.4,1.2-2.3,1.6c-1.3,0.5-2.7,0.8-4.2,0.8c-1.8,0-3.4-0.4-4.8-1.1c-1.2-0.6-2.1-1.5-2.9-2.8
					s-1.2-2.6-1.2-4.1v-2c0-1.6,0.4-3,1.1-4.4s1.7-2.4,3-3.1s2.7-1.1,4.1-1.1c0.9,0,1.7,0.1,2.4,0.3S317.2,137.6,317.9,138z"/>
				<path class="st0" d="M339.6,146.1c0,2.7-0.8,4.9-2.5,6.7s-3.7,2.7-5.9,2.7c-2,0-3.8-0.7-5.4-2.2c-2-1.8-3-4.2-3-7.1s1-5.3,3-7.1
					c1.6-1.5,3.4-2.2,5.4-2.2c2.2,0,4.2,0.9,5.9,2.7S339.6,143.4,339.6,146.1z M336.6,146.1c0-1.8-0.6-3.3-1.7-4.5s-2.4-1.8-3.8-1.8
					s-2.6,0.6-3.8,1.8s-1.7,2.7-1.7,4.5s0.6,3.3,1.7,4.5s2.4,1.8,3.8,1.8s2.7-0.6,3.8-1.8S336.6,147.9,336.6,146.1z"/>
				<path class="st0" d="M346.1,148.2v3.8h1.1c0.7,0,1.2,0.1,1.5,0.4s0.5,0.6,0.5,1.1c0,0.4-0.2,0.8-0.5,1.1s-0.8,0.4-1.5,0.4h-4.6
					c-0.7,0-1.2-0.1-1.5-0.4s-0.5-0.6-0.5-1.1c0-0.4,0.2-0.8,0.5-1.1s0.8-0.4,1.5-0.4h0.5v-11.7h-0.5c-0.7,0-1.2-0.1-1.5-0.4
					s-0.5-0.6-0.5-1.1s0.2-0.8,0.5-1.1s0.8-0.4,1.5-0.4h6.8c2.1,0,3.8,0.5,4.9,1.6s1.8,2.3,1.8,3.8c0,0.9-0.3,1.8-0.8,2.6
					s-1.4,1.4-2.5,2c0.6,0.6,1.3,1.3,2,2.1c0.4,0.6,1.1,1.4,1.8,2.6c0.8,0,1.3,0.1,1.5,0.2c0.4,0.3,0.7,0.7,0.7,1.3
					c0,0.4-0.2,0.8-0.5,1.1s-0.8,0.4-1.5,0.4h-1.7c-2.4-3.8-4.4-6-6-6.8L346.1,148.2L346.1,148.2z M346.1,145.2h2.3
					c0.9,0,1.6-0.1,2.3-0.4c0.9-0.4,1.5-0.7,1.9-1.1s0.5-0.8,0.5-1.2c0-0.6-0.3-1.1-0.9-1.6s-1.5-0.7-2.7-0.7h-3.4L346.1,145.2
					L346.1,145.2z"/>
				<path class="st0" d="M365.5,148.9v3.1h3c0.7,0,1.2,0.1,1.5,0.4s0.5,0.6,0.5,1.1c0,0.4-0.2,0.8-0.5,1.1s-0.8,0.4-1.5,0.4H362
					c-0.7,0-1.2-0.1-1.5-0.4s-0.5-0.6-0.5-1.1c0-0.4,0.2-0.8,0.5-1.1s0.8-0.4,1.5-0.4h0.5v-11.7H362c-0.7,0-1.2-0.1-1.5-0.4
					s-0.5-0.6-0.5-1.1s0.2-0.8,0.5-1.1s0.8-0.4,1.5-0.4h6.9c2,0,3.6,0.6,4.8,1.7s1.8,2.5,1.8,4.1c0,0.9-0.2,1.7-0.6,2.5
					c-0.3,0.6-0.8,1.2-1.5,1.7s-1.4,1-2.2,1.3s-1.7,0.4-2.9,0.4h-2.8V148.9z M365.5,145.9h2.8c1.3,0,2.3-0.3,3.1-0.9
					s1.2-1.3,1.2-2.1c0-0.7-0.3-1.3-0.9-1.8s-1.5-0.8-2.7-0.8h-3.5V145.9z"/>
				<path class="st0" d="M393.6,146.1c0,2.7-0.8,4.9-2.5,6.7s-3.7,2.7-5.9,2.7c-2,0-3.8-0.7-5.4-2.2c-2-1.8-3-4.2-3-7.1s1-5.3,3-7.1
					c1.6-1.5,3.4-2.2,5.4-2.2c2.2,0,4.2,0.9,5.9,2.7S393.6,143.4,393.6,146.1z M390.6,146.1c0-1.8-0.6-3.3-1.7-4.5s-2.4-1.8-3.8-1.8
					s-2.6,0.6-3.8,1.8s-1.7,2.7-1.7,4.5s0.6,3.3,1.7,4.5s2.4,1.8,3.8,1.8s2.7-0.6,3.8-1.8S390.6,147.9,390.6,146.1z"/>
				<path class="st0" d="M400.1,148.2v3.8h1.1c0.7,0,1.2,0.1,1.5,0.4s0.5,0.6,0.5,1.1c0,0.4-0.2,0.8-0.5,1.1s-0.8,0.4-1.5,0.4h-4.6
					c-0.7,0-1.2-0.1-1.5-0.4s-0.5-0.6-0.5-1.1c0-0.4,0.2-0.8,0.5-1.1s0.8-0.4,1.5-0.4h0.5v-11.7h-0.5c-0.7,0-1.2-0.1-1.5-0.4
					s-0.5-0.6-0.5-1.1s0.2-0.8,0.5-1.1s0.8-0.4,1.5-0.4h6.8c2.1,0,3.8,0.5,4.9,1.6s1.8,2.3,1.8,3.8c0,0.9-0.3,1.8-0.8,2.6
					s-1.4,1.4-2.5,2c0.6,0.6,1.3,1.3,2,2.1c0.4,0.6,1.1,1.4,1.8,2.6c0.8,0,1.3,0.1,1.5,0.2c0.4,0.3,0.7,0.7,0.7,1.3
					c0,0.4-0.2,0.8-0.5,1.1s-0.8,0.4-1.5,0.4h-1.7c-2.4-3.8-4.4-6-6.1-6.8L400.1,148.2L400.1,148.2z M400.1,145.2h2.3
					c0.9,0,1.6-0.1,2.3-0.4c0.9-0.4,1.5-0.7,1.9-1.1s0.5-0.8,0.5-1.2c0-0.6-0.3-1.1-0.9-1.6s-1.5-0.7-2.7-0.7h-3.4L400.1,145.2
					L400.1,145.2z"/>
				<path class="st0" d="M424.9,150.2h-7.3l-0.7,1.8h0.7c0.7,0,1.2,0.1,1.5,0.4s0.5,0.6,0.5,1.1c0,0.4-0.2,0.8-0.5,1.1
					s-0.8,0.4-1.5,0.4h-4c-0.7,0-1.2-0.1-1.5-0.4s-0.5-0.6-0.5-1.1s0.2-0.8,0.5-1.1s0.9-0.4,1.6-0.4l4.7-11.7h-2
					c-0.7,0-1.2-0.1-1.5-0.4s-0.5-0.6-0.5-1.1s0.2-0.8,0.5-1.1s0.8-0.4,1.5-0.4h6.5l6,14.8c0.7,0,1.2,0.1,1.4,0.2
					c0.4,0.3,0.7,0.7,0.7,1.3c0,0.4-0.2,0.8-0.5,1.1s-0.8,0.4-1.5,0.4h-4c-0.7,0-1.2-0.1-1.5-0.4s-0.5-0.6-0.5-1.1
					c0-0.4,0.2-0.8,0.5-1.1s0.8-0.4,1.5-0.4h0.7L424.9,150.2z M423.6,147.2l-2.4-5.9l-2.4,5.9H423.6z"/>
				<path class="st0" d="M440.7,140.2V152h2c0.7,0,1.2,0.1,1.5,0.4s0.5,0.6,0.5,1.1c0,0.4-0.2,0.8-0.5,1.1s-0.8,0.4-1.5,0.4h-7
					c-0.7,0-1.2-0.1-1.5-0.4s-0.5-0.6-0.5-1.1c0-0.4,0.2-0.8,0.5-1.1s0.8-0.4,1.5-0.4h2v-11.7h-3.3v2.8c0,0.7-0.1,1.2-0.4,1.5
					s-0.6,0.5-1.1,0.5c-0.4,0-0.8-0.2-1.1-0.5s-0.4-0.8-0.4-1.5v-5.9H447v5.8c0,0.7-0.1,1.2-0.4,1.5s-0.6,0.5-1.1,0.5
					c-0.4,0-0.8-0.2-1.1-0.5s-0.4-0.8-0.4-1.5v-2.8L440.7,140.2L440.7,140.2z"/>
				<path class="st0" d="M454.1,147.6v4.4h7.7v-1.6c0-0.7,0.1-1.2,0.4-1.5s0.6-0.5,1.1-0.5c0.4,0,0.8,0.2,1.1,0.5s0.4,0.8,0.4,1.5
					v4.6h-14.1c-0.7,0-1.2-0.1-1.5-0.4s-0.5-0.6-0.5-1.1c0-0.4,0.2-0.8,0.5-1.1s0.8-0.4,1.5-0.4h0.5v-11.7h-0.5
					c-0.7,0-1.2-0.1-1.5-0.4s-0.5-0.6-0.5-1.1s0.2-0.8,0.5-1.1s0.8-0.4,1.5-0.4h13.5v4.6c0,0.7-0.1,1.2-0.4,1.5s-0.6,0.5-1.1,0.5
					s-0.8-0.2-1.1-0.5s-0.4-0.8-0.4-1.5v-1.6h-7v4.3h2.6c0-0.8,0.1-1.3,0.2-1.5c0.3-0.5,0.7-0.7,1.3-0.7c0.4,0,0.8,0.2,1.1,0.5
					s0.4,0.8,0.4,1.5v3.5c0,0.7-0.1,1.1-0.2,1.3c-0.3,0.5-0.7,0.7-1.3,0.7c-0.6,0-1-0.2-1.3-0.7c-0.1-0.2-0.2-0.7-0.2-1.5h-2.7
					V147.6z"/>
				<path class="st0" d="M548.7,138.9v17.9c0,1,0,1.6-0.1,1.8c-0.1,0.3-0.3,0.5-0.5,0.7s-0.6,0.3-0.9,0.3c-0.3,0-0.6-0.1-0.9-0.3
					s-0.4-0.5-0.5-0.8c0-0.2-0.1-0.8-0.1-1.8v-17.9c0-1,0-1.6,0.1-1.8c0.1-0.3,0.3-0.5,0.5-0.7s0.6-0.3,0.9-0.3
					c0.3,0,0.6,0.1,0.9,0.3s0.4,0.5,0.5,0.8C548.7,137.3,548.7,137.9,548.7,138.9z"/>
				<path class="st0" d="M579.8,135.1l9.6,20.7c0,0.1,0.1,0.4,0.2,0.7c0.1,0.2,0.1,0.4,0.1,0.5c0,0.4-0.1,0.7-0.4,0.9
					s-0.6,0.4-1,0.4s-0.7-0.1-0.9-0.3s-0.5-0.5-0.7-1l-9.6-20.7c-0.2-0.5-0.4-0.9-0.4-1.2c0-0.4,0.1-0.7,0.4-1s0.6-0.4,1-0.4
					s0.7,0.1,0.9,0.3S579.6,134.6,579.8,135.1z"/>
				<path class="st0" d="M615.8,135.1l9.6,20.7c0,0.1,0.1,0.4,0.2,0.7c0.1,0.2,0.1,0.4,0.1,0.5c0,0.4-0.1,0.7-0.4,0.9
					s-0.6,0.4-1,0.4s-0.7-0.1-0.9-0.3s-0.5-0.5-0.7-1l-9.6-20.7c-0.2-0.5-0.4-0.9-0.4-1.2c0-0.4,0.1-0.7,0.4-1s0.6-0.4,1-0.4
					s0.7,0.1,0.9,0.3S615.6,134.6,615.8,135.1z"/>
				<path class="st0" d="M651.8,135.1l9.6,20.7c0,0.1,0.1,0.4,0.2,0.7c0.1,0.2,0.1,0.4,0.1,0.5c0,0.4-0.1,0.7-0.4,0.9
					s-0.6,0.4-1,0.4s-0.7-0.1-0.9-0.3s-0.5-0.5-0.7-1l-9.6-20.7c-0.2-0.5-0.4-0.9-0.4-1.2c0-0.4,0.1-0.7,0.4-1s0.6-0.4,1-0.4
					s0.7,0.1,0.9,0.3S651.6,134.6,651.8,135.1z"/>
				<path class="st0" d="M687.8,135.1l9.6,20.7c0,0.1,0.1,0.4,0.2,0.7c0.1,0.2,0.1,0.4,0.1,0.5c0,0.4-0.1,0.7-0.4,0.9
					s-0.6,0.4-1,0.4s-0.7-0.1-0.9-0.3s-0.5-0.5-0.7-1l-9.6-20.7c-0.2-0.5-0.4-0.9-0.4-1.2c0-0.4,0.1-0.7,0.4-1s0.6-0.4,1-0.4
					s0.7,0.1,0.9,0.3S687.6,134.6,687.8,135.1z"/>
				<path class="st0" d="M710.8,138.9v17.9c0,1,0,1.6-0.1,1.8c-0.1,0.3-0.3,0.5-0.5,0.7s-0.6,0.3-0.9,0.3c-0.3,0-0.6-0.1-0.9-0.3
					s-0.4-0.5-0.5-0.8c0-0.2-0.1-0.8-0.1-1.8v-17.9c0-1,0-1.6,0.1-1.8c0.1-0.3,0.3-0.5,0.5-0.7s0.6-0.3,0.9-0.3
					c0.3,0,0.6,0.1,0.9,0.3s0.4,0.5,0.5,0.8C710.7,137.3,710.8,137.9,710.8,138.9z"/>
				<path class="st0" d="M746.8,138.9v17.9c0,1,0,1.6-0.1,1.8c-0.1,0.3-0.3,0.5-0.5,0.7s-0.6,0.3-0.9,0.3c-0.3,0-0.6-0.1-0.9-0.3
					s-0.4-0.5-0.5-0.8c0-0.2-0.1-0.8-0.1-1.8v-17.9c0-1,0-1.6,0.1-1.8c0.1-0.3,0.3-0.5,0.5-0.7s0.6-0.3,0.9-0.3
					c0.3,0,0.6,0.1,0.9,0.3s0.4,0.5,0.5,0.8C746.7,137.3,746.8,137.9,746.8,138.9z"/>
				<path class="st0" d="M26.7,178.9v17.9c0,1,0,1.6-0.1,1.8c-0.1,0.3-0.3,0.5-0.5,0.7s-0.6,0.3-0.9,0.3s-0.6-0.1-0.9-0.3
					s-0.4-0.5-0.5-0.8c0-0.2-0.1-0.8-0.1-1.8v-17.9c0-1,0-1.6,0.1-1.8c0.1-0.3,0.3-0.5,0.5-0.7s0.6-0.3,0.9-0.3s0.6,0.1,0.9,0.3
					s0.4,0.5,0.5,0.8C26.6,177.3,26.7,177.9,26.7,178.9z"/>
				<path class="st0" d="M67.3,176.4l-9.6,20.7c-0.2,0.5-0.5,0.9-0.7,1c-0.3,0.2-0.6,0.3-0.9,0.3c-0.4,0-0.8-0.1-1.1-0.4
					s-0.4-0.6-0.4-1c0-0.3,0.1-0.7,0.4-1.2l9.7-20.7c0.2-0.5,0.5-0.9,0.6-1c0.3-0.2,0.6-0.3,0.9-0.3c0.4,0,0.8,0.1,1.1,0.4
					s0.4,0.6,0.4,1C67.7,175.5,67.6,175.9,67.3,176.4z"/>
				<path class="st0" d="M103.3,176.4l-9.6,20.7c-0.2,0.5-0.5,0.9-0.7,1c-0.3,0.2-0.6,0.3-0.9,0.3c-0.4,0-0.8-0.1-1.1-0.4
					s-0.4-0.6-0.4-1c0-0.3,0.1-0.7,0.4-1.2l9.7-20.7c0.2-0.5,0.5-0.9,0.6-1c0.3-0.2,0.6-0.3,0.9-0.3c0.4,0,0.8,0.1,1.1,0.4
					s0.4,0.6,0.4,1C103.7,175.5,103.6,175.9,103.3,176.4z"/>
				<path class="st0" d="M139.3,176.4l-9.6,20.7c-0.2,0.5-0.5,0.9-0.7,1c-0.3,0.2-0.6,0.3-0.9,0.3c-0.4,0-0.8-0.1-1.1-0.4
					s-0.4-0.6-0.4-1c0-0.3,0.1-0.7,0.4-1.2l9.7-20.7c0.2-0.5,0.5-0.9,0.6-1c0.3-0.2,0.6-0.3,0.9-0.3c0.4,0,0.8,0.1,1.1,0.4
					s0.4,0.6,0.4,1C139.7,175.5,139.6,175.9,139.3,176.4z"/>
				<path class="st0" d="M175.4,176.4l-9.6,20.7c-0.2,0.5-0.5,0.9-0.7,1c-0.3,0.2-0.6,0.3-0.9,0.3c-0.4,0-0.8-0.1-1.1-0.4
					s-0.4-0.6-0.4-1c0-0.3,0.1-0.7,0.4-1.2l9.7-20.7c0.2-0.5,0.5-0.9,0.6-1c0.3-0.2,0.6-0.3,0.9-0.3c0.4,0,0.8,0.1,1.1,0.4
					s0.4,0.6,0.4,1C175.7,175.5,175.6,175.9,175.4,176.4z"/>
				<path class="st0" d="M211.4,176.4l-9.6,20.7c-0.2,0.5-0.5,0.9-0.7,1c-0.3,0.2-0.6,0.3-0.9,0.3c-0.4,0-0.8-0.1-1.1-0.4
					s-0.4-0.6-0.4-1c0-0.3,0.1-0.7,0.4-1.2l9.7-20.7c0.2-0.5,0.5-0.9,0.6-1c0.3-0.2,0.6-0.3,0.9-0.3c0.4,0,0.8,0.1,1.1,0.4
					s0.4,0.6,0.4,1C211.7,175.5,211.6,175.9,211.4,176.4z"/>
				<path class="st0" d="M224.7,178.9v17.9c0,1,0,1.6-0.1,1.8c-0.1,0.3-0.3,0.5-0.5,0.7s-0.6,0.3-0.9,0.3c-0.3,0-0.6-0.1-0.9-0.3
					s-0.4-0.5-0.5-0.8c0-0.2-0.1-0.8-0.1-1.8v-17.9c0-1,0-1.6,0.1-1.8c0.1-0.3,0.3-0.5,0.5-0.7s0.6-0.3,0.9-0.3
					c0.3,0,0.6,0.1,0.9,0.3s0.4,0.5,0.5,0.8C224.7,177.3,224.7,177.9,224.7,178.9z"/>
				<path class="st0" d="M335.9,178c0.2-0.3,0.4-0.4,0.6-0.6s0.5-0.2,0.7-0.2c0.4,0,0.8,0.2,1.1,0.5s0.4,0.8,0.4,1.5v2.5
					c0,0.7-0.1,1.2-0.4,1.5s-0.6,0.5-1.1,0.5c-0.4,0-0.7-0.1-1-0.3s-0.4-0.6-0.5-1.3c-0.1-0.4-0.2-0.7-0.4-1c-0.4-0.4-1-0.8-1.7-1.1
					s-1.4-0.4-2.2-0.4c-0.9,0-1.7,0.2-2.5,0.6s-1.4,1-2,1.9s-0.9,1.9-0.9,3.1v1.9c0,1.4,0.5,2.7,1.6,3.6s2.5,1.4,4.4,1.4
					c1.1,0,2.1-0.2,2.8-0.5c0.4-0.2,0.9-0.5,1.4-1c0.3-0.3,0.6-0.5,0.7-0.6s0.4-0.1,0.6-0.1c0.4,0,0.8,0.2,1.1,0.5s0.5,0.7,0.5,1.1
					s-0.2,0.8-0.6,1.3c-0.6,0.7-1.4,1.2-2.3,1.6c-1.3,0.5-2.7,0.8-4.2,0.8c-1.8,0-3.4-0.4-4.8-1.1c-1.2-0.6-2.1-1.5-2.9-2.8
					s-1.2-2.6-1.2-4.1v-2c0-1.6,0.4-3,1.1-4.4s1.7-2.4,3-3.1s2.7-1.1,4.1-1.1c0.9,0,1.7,0.1,2.4,0.3S335.2,177.6,335.9,178z"/>
				<path class="st0" d="M352.9,190.2h-7.3l-0.7,1.8h0.7c0.7,0,1.2,0.1,1.5,0.4s0.5,0.6,0.5,1.1c0,0.4-0.2,0.8-0.5,1.1
					s-0.8,0.4-1.5,0.4h-4c-0.7,0-1.2-0.1-1.5-0.4s-0.5-0.6-0.5-1.1s0.2-0.8,0.5-1.1s0.9-0.4,1.6-0.4l4.7-11.7h-2
					c-0.7,0-1.2-0.1-1.5-0.4s-0.5-0.6-0.5-1.1s0.2-0.8,0.5-1.1s0.8-0.4,1.5-0.4h6.5l6,14.8c0.7,0,1.2,0.1,1.4,0.2
					c0.4,0.3,0.7,0.7,0.7,1.3c0,0.4-0.2,0.8-0.5,1.1s-0.8,0.4-1.5,0.4h-4c-0.7,0-1.2-0.1-1.5-0.4s-0.5-0.6-0.5-1.1
					c0-0.4,0.2-0.8,0.5-1.1s0.8-0.4,1.5-0.4h0.7L352.9,190.2z M351.6,187.2l-2.4-5.9l-2.4,5.9H351.6z"/>
				<path class="st0" d="M365.5,188.9v3.1h3c0.7,0,1.2,0.1,1.5,0.4s0.5,0.6,0.5,1.1c0,0.4-0.2,0.8-0.5,1.1s-0.8,0.4-1.5,0.4H362
					c-0.7,0-1.2-0.1-1.5-0.4s-0.5-0.6-0.5-1.1c0-0.4,0.2-0.8,0.5-1.1s0.8-0.4,1.5-0.4h0.5v-11.7H362c-0.7,0-1.2-0.1-1.5-0.4
					s-0.5-0.6-0.5-1.1s0.2-0.8,0.5-1.1s0.8-0.4,1.5-0.4h6.9c2,0,3.6,0.6,4.8,1.7s1.8,2.5,1.8,4.1c0,0.9-0.2,1.7-0.6,2.5
					c-0.3,0.6-0.8,1.2-1.5,1.7s-1.4,1-2.2,1.3s-1.7,0.4-2.9,0.4h-2.8V188.9z M365.5,185.9h2.8c1.3,0,2.3-0.3,3.1-0.9
					s1.2-1.3,1.2-2.1c0-0.7-0.3-1.3-0.9-1.8s-1.5-0.8-2.7-0.8h-3.5V185.9z"/>
				<path class="st0" d="M386.7,180.2V192h2c0.7,0,1.2,0.1,1.5,0.4s0.5,0.6,0.5,1.1c0,0.4-0.2,0.8-0.5,1.1s-0.8,0.4-1.5,0.4h-7
					c-0.7,0-1.2-0.1-1.5-0.4s-0.5-0.6-0.5-1.1c0-0.4,0.2-0.8,0.5-1.1s0.8-0.4,1.5-0.4h2v-11.7h-3.3v2.8c0,0.7-0.1,1.2-0.4,1.5
					s-0.6,0.5-1.1,0.5c-0.4,0-0.8-0.2-1.1-0.5s-0.4-0.8-0.4-1.5v-5.9H393v5.8c0,0.7-0.1,1.2-0.4,1.5s-0.6,0.5-1.1,0.5
					c-0.4,0-0.8-0.2-1.1-0.5s-0.4-0.8-0.4-1.5v-2.8L386.7,180.2L386.7,180.2z"/>
				<path class="st0" d="M410.1,180.2v8.5c0,1.9-0.7,3.4-2,4.7s-2.9,1.9-4.8,1.9c-0.9,0-1.8-0.2-2.6-0.5s-1.5-0.8-2.2-1.4
					s-1.2-1.3-1.5-2s-0.5-1.6-0.5-2.8v-8.5c-0.6,0-1.1-0.1-1.4-0.4s-0.5-0.6-0.5-1.1c0-0.4,0.2-0.8,0.5-1.1s0.8-0.4,1.6-0.4h3.9
					c0.7,0,1.2,0.1,1.5,0.4s0.5,0.6,0.5,1.1s-0.2,0.8-0.5,1.1s-0.8,0.4-1.5,0.4h-1.1v8.8c0,0.9,0.4,1.7,1.1,2.4s1.6,1,2.7,1
					c0.7,0,1.4-0.2,2-0.5s1.1-0.8,1.5-1.4c0.2-0.4,0.4-0.9,0.4-1.5v-8.8h-1.1c-0.7,0-1.2-0.1-1.5-0.4s-0.5-0.6-0.5-1.1
					s0.2-0.8,0.5-1.1s0.8-0.4,1.5-0.4h3.9c0.7,0,1.2,0.1,1.5,0.4s0.5,0.6,0.5,1.1c0,0.4-0.2,0.8-0.5,1.1S410.7,180.2,410.1,180.2z"
					/>
				<path class="st0" d="M418.1,188.2v3.8h1.1c0.7,0,1.2,0.1,1.5,0.4s0.5,0.6,0.5,1.1c0,0.4-0.2,0.8-0.5,1.1s-0.8,0.4-1.5,0.4h-4.6
					c-0.7,0-1.2-0.1-1.5-0.4s-0.5-0.6-0.5-1.1c0-0.4,0.2-0.8,0.5-1.1s0.8-0.4,1.5-0.4h0.5v-11.7h-0.5c-0.7,0-1.2-0.1-1.5-0.4
					s-0.5-0.6-0.5-1.1s0.2-0.8,0.5-1.1s0.8-0.4,1.5-0.4h6.8c2.1,0,3.8,0.5,4.9,1.6s1.8,2.3,1.8,3.8c0,0.9-0.3,1.8-0.8,2.6
					s-1.4,1.4-2.5,2c0.6,0.6,1.3,1.3,2,2.1c0.4,0.6,1.1,1.4,1.8,2.6c0.8,0,1.3,0.1,1.5,0.2c0.4,0.3,0.7,0.7,0.7,1.3
					c0,0.4-0.2,0.8-0.5,1.1s-0.8,0.4-1.5,0.4h-1.7c-2.4-3.8-4.4-6-6-6.8L418.1,188.2L418.1,188.2z M418.1,185.2h2.3
					c0.9,0,1.6-0.1,2.3-0.4c0.9-0.4,1.5-0.7,1.9-1.1s0.5-0.8,0.5-1.2c0-0.6-0.3-1.1-0.9-1.6s-1.5-0.7-2.7-0.7h-3.4L418.1,185.2
					L418.1,185.2z"/>
				<path class="st0" d="M436.1,187.6v4.4h7.7v-1.6c0-0.7,0.1-1.2,0.4-1.5s0.6-0.5,1.1-0.5c0.4,0,0.8,0.2,1.1,0.5s0.4,0.8,0.4,1.5
					v4.6h-14.1c-0.7,0-1.2-0.1-1.5-0.4s-0.5-0.6-0.5-1.1c0-0.4,0.2-0.8,0.5-1.1s0.8-0.4,1.5-0.4h0.5v-11.7h-0.5
					c-0.7,0-1.2-0.1-1.5-0.4s-0.5-0.6-0.5-1.1s0.2-0.8,0.5-1.1s0.8-0.4,1.5-0.4h13.5v4.6c0,0.7-0.1,1.2-0.4,1.5s-0.6,0.5-1.1,0.5
					s-0.8-0.2-1.1-0.5s-0.4-0.8-0.4-1.5v-1.6h-7v4.3h2.6c0-0.8,0.1-1.3,0.2-1.5c0.3-0.5,0.7-0.7,1.3-0.7c0.4,0,0.8,0.2,1.1,0.5
					s0.4,0.8,0.4,1.5v3.5c0,0.7-0.1,1.1-0.2,1.3c-0.3,0.5-0.7,0.7-1.3,0.7c-0.6,0-1-0.2-1.3-0.7c-0.1-0.2-0.2-0.7-0.2-1.5h-2.7
					V187.6z"/>
				<path class="st0" d="M548.7,178.9v17.9c0,1,0,1.6-0.1,1.8c-0.1,0.3-0.3,0.5-0.5,0.7s-0.6,0.3-0.9,0.3c-0.3,0-0.6-0.1-0.9-0.3
					s-0.4-0.5-0.5-0.8c0-0.2-0.1-0.8-0.1-1.8v-17.9c0-1,0-1.6,0.1-1.8c0.1-0.3,0.3-0.5,0.5-0.7s0.6-0.3,0.9-0.3
					c0.3,0,0.6,0.1,0.9,0.3s0.4,0.5,0.5,0.8C548.7,177.3,548.7,177.9,548.7,178.9z"/>
				<path class="st0" d="M561.8,175.1l9.6,20.7c0,0.1,0.1,0.4,0.2,0.7c0.1,0.2,0.1,0.4,0.1,0.5c0,0.4-0.1,0.7-0.4,0.9
					s-0.6,0.4-1,0.4s-0.7-0.1-0.9-0.3s-0.5-0.5-0.7-1l-9.6-20.7c-0.2-0.5-0.4-0.9-0.4-1.2c0-0.4,0.1-0.7,0.4-1s0.6-0.4,1-0.4
					s0.7,0.1,0.9,0.3S561.6,174.6,561.8,175.1z"/>
				<path class="st0" d="M597.8,175.1l9.6,20.7c0,0.1,0.1,0.4,0.2,0.7c0.1,0.2,0.1,0.4,0.1,0.5c0,0.4-0.1,0.7-0.4,0.9
					s-0.6,0.4-1,0.4s-0.7-0.1-0.9-0.3s-0.5-0.5-0.7-1l-9.6-20.7c-0.2-0.5-0.4-0.9-0.4-1.2c0-0.4,0.1-0.7,0.4-1s0.6-0.4,1-0.4
					s0.7,0.1,0.9,0.3S597.6,174.6,597.8,175.1z"/>
				<path class="st0" d="M633.8,175.1l9.6,20.7c0,0.1,0.1,0.4,0.2,0.7c0.1,0.2,0.1,0.4,0.1,0.5c0,0.4-0.1,0.7-0.4,0.9
					s-0.6,0.4-1,0.4s-0.7-0.1-0.9-0.3s-0.5-0.5-0.7-1l-9.6-20.7c-0.2-0.5-0.4-0.9-0.4-1.2c0-0.4,0.1-0.7,0.4-1s0.6-0.4,1-0.4
					s0.7,0.1,0.9,0.3S633.6,174.6,633.8,175.1z"/>
				<path class="st0" d="M669.8,175.1l9.6,20.7c0,0.1,0.1,0.4,0.2,0.7c0.1,0.2,0.1,0.4,0.1,0.5c0,0.4-0.1,0.7-0.4,0.9
					s-0.6,0.4-1,0.4s-0.7-0.1-0.9-0.3s-0.5-0.5-0.7-1l-9.6-20.7c-0.2-0.5-0.4-0.9-0.4-1.2c0-0.4,0.1-0.7,0.4-1s0.6-0.4,1-0.4
					s0.7,0.1,0.9,0.3S669.6,174.6,669.8,175.1z"/>
				<path class="st0" d="M705.8,175.1l9.6,20.7c0,0.1,0.1,0.4,0.2,0.7c0.1,0.2,0.1,0.4,0.1,0.5c0,0.4-0.1,0.7-0.4,0.9
					s-0.6,0.4-1,0.4s-0.7-0.1-0.9-0.3s-0.5-0.5-0.7-1l-9.6-20.7c-0.2-0.5-0.4-0.9-0.4-1.2c0-0.4,0.1-0.7,0.4-1s0.6-0.4,1-0.4
					s0.7,0.1,0.9,0.3S705.6,174.6,705.8,175.1z"/>
				<path class="st0" d="M746.8,178.9v17.9c0,1,0,1.6-0.1,1.8c-0.1,0.3-0.3,0.5-0.5,0.7s-0.6,0.3-0.9,0.3c-0.3,0-0.6-0.1-0.9-0.3
					s-0.4-0.5-0.5-0.8c0-0.2-0.1-0.8-0.1-1.8v-17.9c0-1,0-1.6,0.1-1.8c0.1-0.3,0.3-0.5,0.5-0.7s0.6-0.3,0.9-0.3
					c0.3,0,0.6,0.1,0.9,0.3s0.4,0.5,0.5,0.8C746.7,177.3,746.8,177.9,746.8,178.9z"/>
				<path class="st0" d="M26.7,218.9v17.9c0,1,0,1.6-0.1,1.8c-0.1,0.3-0.3,0.5-0.5,0.7s-0.6,0.3-0.9,0.3s-0.6-0.1-0.9-0.3
					s-0.4-0.5-0.5-0.8c0-0.2-0.1-0.8-0.1-1.8v-17.9c0-1,0-1.6,0.1-1.8c0.1-0.3,0.3-0.5,0.5-0.7s0.6-0.3,0.9-0.3s0.6,0.1,0.9,0.3
					s0.4,0.5,0.5,0.8C26.6,217.3,26.7,217.9,26.7,218.9z"/>
				<path class="st0" d="M62.7,218.9v17.9c0,1,0,1.6-0.1,1.8c-0.1,0.3-0.3,0.5-0.5,0.7s-0.6,0.3-0.9,0.3c-0.3,0-0.6-0.1-0.9-0.3
					s-0.4-0.5-0.5-0.8c0-0.2-0.1-0.8-0.1-1.8v-17.9c0-1,0-1.6,0.1-1.8c0.1-0.3,0.3-0.5,0.5-0.7s0.6-0.3,0.9-0.3
					c0.3,0,0.6,0.1,0.9,0.3s0.4,0.5,0.5,0.8C62.6,217.3,62.7,217.9,62.7,218.9z"/>
				<path class="st0" d="M98.7,218.9v17.9c0,1,0,1.6-0.1,1.8c-0.1,0.3-0.3,0.5-0.5,0.7s-0.6,0.3-0.9,0.3s-0.6-0.1-0.9-0.3
					s-0.4-0.5-0.5-0.8c0-0.2-0.1-0.8-0.1-1.8v-17.9c0-1,0-1.6,0.1-1.8c0.1-0.3,0.3-0.5,0.5-0.7s0.6-0.3,0.9-0.3s0.6,0.1,0.9,0.3
					s0.4,0.5,0.5,0.8C98.6,217.3,98.7,217.9,98.7,218.9z"/>
				<path class="st0" d="M132.1,215.4l3.3,2.7c0.4,0.3,0.6,0.6,0.6,0.9c0,0.3-0.1,0.5-0.3,0.7s-0.4,0.3-0.7,0.3
					c-0.2,0-0.5-0.1-0.8-0.4l-3.3-2.7c-0.4-0.3-0.6-0.6-0.6-0.9c0-0.3,0.1-0.5,0.3-0.7c0.2-0.2,0.4-0.3,0.7-0.3
					C131.5,215,131.8,215.1,132.1,215.4z"/>
				<path class="st0" d="M149.2,216.7h3.9l-1,7.7c0,0.4-0.2,0.7-0.3,0.8s-0.4,0.2-0.6,0.2c-0.2,0-0.4-0.1-0.6-0.2s-0.3-0.4-0.3-0.8
					L149.2,216.7z"/>
				<path class="st0" d="M204.1,227.7c0-1.7,0.3-3.4,0.8-5.2c0.4-1.3,1.1-2.7,1.9-4.3c0.6-1.1,1.1-1.8,1.4-2.1s0.6-0.4,1-0.4
					s0.8,0.1,1.1,0.4s0.4,0.6,0.4,1.1c0,0.3-0.1,0.6-0.4,1c-1.1,1.7-1.8,3.3-2.3,4.9s-0.7,3-0.7,4.6s0.2,3.1,0.7,4.6
					s1.3,3.1,2.3,4.9c0.2,0.4,0.4,0.7,0.4,1c0,0.4-0.1,0.8-0.4,1.1s-0.7,0.4-1.1,0.4c-0.4,0-0.7-0.1-1-0.4c-0.4-0.3-0.9-1.1-1.6-2.3
					c-0.9-1.7-1.6-3.2-1.9-4.3C204.4,231,204.1,229.4,204.1,227.7z"/>
				<path class="st0" d="M224.7,218.9v17.9c0,1,0,1.6-0.1,1.8c-0.1,0.3-0.3,0.5-0.5,0.7s-0.6,0.3-0.9,0.3c-0.3,0-0.6-0.1-0.9-0.3
					s-0.4-0.5-0.5-0.8c0-0.2-0.1-0.8-0.1-1.8v-17.9c0-1,0-1.6,0.1-1.8c0.1-0.3,0.3-0.5,0.5-0.7s0.6-0.3,0.9-0.3
					c0.3,0,0.6,0.1,0.9,0.3s0.4,0.5,0.5,0.8C224.7,217.3,224.7,217.9,224.7,218.9z"/>
				<path class="st0" d="M247.4,216.4l-9.6,20.7c-0.2,0.5-0.5,0.9-0.7,1c-0.3,0.2-0.6,0.3-0.9,0.3c-0.4,0-0.8-0.1-1.1-0.4
					s-0.4-0.6-0.4-1c0-0.3,0.1-0.7,0.4-1.2l9.7-20.7c0.2-0.5,0.5-0.9,0.6-1c0.3-0.2,0.6-0.3,0.9-0.3c0.4,0,0.8,0.1,1.1,0.4
					s0.4,0.6,0.4,1C247.7,215.5,247.6,215.9,247.4,216.4z"/>
				<path class="st0" d="M258.1,227.7c0-1.7,0.3-3.4,0.8-5.2c0.4-1.3,1.1-2.7,1.9-4.3c0.6-1.1,1.1-1.8,1.4-2.1s0.6-0.4,1-0.4
					s0.8,0.1,1.1,0.4s0.4,0.6,0.4,1.1c0,0.3-0.1,0.6-0.4,1c-1.1,1.7-1.8,3.3-2.3,4.9s-0.7,3-0.7,4.6s0.2,3.1,0.7,4.6
					s1.3,3.1,2.3,4.9c0.2,0.4,0.4,0.7,0.4,1c0,0.4-0.1,0.8-0.4,1.1s-0.7,0.4-1.1,0.4s-0.7-0.1-1-0.4c-0.4-0.3-0.9-1.1-1.6-2.3
					c-0.9-1.7-1.6-3.2-1.9-4.3C258.4,231,258.1,229.4,258.1,227.7z"/>
				<path class="st0" d="M278.7,218.9v17.9c0,1,0,1.6-0.1,1.8c-0.1,0.3-0.3,0.5-0.5,0.7s-0.6,0.3-0.9,0.3s-0.6-0.1-0.9-0.3
					s-0.4-0.5-0.5-0.8c0-0.2-0.1-0.8-0.1-1.8v-17.9c0-1,0-1.6,0.1-1.8c0.1-0.3,0.3-0.5,0.5-0.7s0.6-0.3,0.9-0.3s0.6,0.1,0.9,0.3
					s0.4,0.5,0.5,0.8C278.7,217.3,278.7,217.9,278.7,218.9z"/>
				<path class="st0" d="M303.5,244H287c-0.7,0-1.2-0.1-1.5-0.4s-0.5-0.6-0.5-1.1s0.2-0.8,0.5-1.1s0.8-0.4,1.5-0.4h16.5
					c0.7,0,1.2,0.1,1.5,0.4s0.5,0.6,0.5,1.1c0,0.4-0.2,0.8-0.5,1.1S304.2,244,303.5,244z"/>
				<path class="st0" d="M321.5,244H305c-0.7,0-1.2-0.1-1.5-0.4s-0.5-0.6-0.5-1.1s0.2-0.8,0.5-1.1s0.8-0.4,1.5-0.4h16.5
					c0.7,0,1.2,0.1,1.5,0.4s0.5,0.6,0.5,1.1c0,0.4-0.2,0.8-0.5,1.1S322.2,244,321.5,244z"/>
				<path class="st0" d="M339.5,244H323c-0.7,0-1.2-0.1-1.5-0.4s-0.5-0.6-0.5-1.1s0.2-0.8,0.5-1.1s0.8-0.4,1.5-0.4h16.5
					c0.7,0,1.2,0.1,1.5,0.4s0.5,0.6,0.5,1.1c0,0.4-0.2,0.8-0.5,1.1S340.2,244,339.5,244z"/>
				<path class="st0" d="M357.5,244H341c-0.7,0-1.2-0.1-1.5-0.4s-0.5-0.6-0.5-1.1s0.2-0.8,0.5-1.1s0.8-0.4,1.5-0.4h16.5
					c0.7,0,1.2,0.1,1.5,0.4s0.5,0.6,0.5,1.1c0,0.4-0.2,0.8-0.5,1.1S358.2,244,357.5,244z"/>
				<path class="st0" d="M375.5,244H359c-0.7,0-1.2-0.1-1.5-0.4s-0.5-0.6-0.5-1.1s0.2-0.8,0.5-1.1s0.8-0.4,1.5-0.4h16.5
					c0.7,0,1.2,0.1,1.5,0.4s0.5,0.6,0.5,1.1c0,0.4-0.2,0.8-0.5,1.1S376.2,244,375.5,244z"/>
				<path class="st0" d="M393.5,244H377c-0.7,0-1.2-0.1-1.5-0.4s-0.5-0.6-0.5-1.1s0.2-0.8,0.5-1.1s0.8-0.4,1.5-0.4h16.5
					c0.7,0,1.2,0.1,1.5,0.4s0.5,0.6,0.5,1.1c0,0.4-0.2,0.8-0.5,1.1S394.2,244,393.5,244z"/>
				<path class="st0" d="M411.5,244H395c-0.7,0-1.2-0.1-1.5-0.4s-0.5-0.6-0.5-1.1s0.2-0.8,0.5-1.1s0.8-0.4,1.5-0.4h16.5
					c0.7,0,1.2,0.1,1.5,0.4s0.5,0.6,0.5,1.1c0,0.4-0.2,0.8-0.5,1.1S412.2,244,411.5,244z"/>
				<path class="st0" d="M429.5,244H413c-0.7,0-1.2-0.1-1.5-0.4s-0.5-0.6-0.5-1.1s0.2-0.8,0.5-1.1s0.8-0.4,1.5-0.4h16.5
					c0.7,0,1.2,0.1,1.5,0.4s0.5,0.6,0.5,1.1c0,0.4-0.2,0.8-0.5,1.1S430.2,244,429.5,244z"/>
				<path class="st0" d="M447.5,244H431c-0.7,0-1.2-0.1-1.5-0.4s-0.5-0.6-0.5-1.1s0.2-0.8,0.5-1.1s0.8-0.4,1.5-0.4h16.5
					c0.7,0,1.2,0.1,1.5,0.4s0.5,0.6,0.5,1.1c0,0.4-0.2,0.8-0.5,1.1S448.2,244,447.5,244z"/>
				<path class="st0" d="M465.5,244H449c-0.7,0-1.2-0.1-1.5-0.4s-0.5-0.6-0.5-1.1s0.2-0.8,0.5-1.1s0.8-0.4,1.5-0.4h16.5
					c0.7,0,1.2,0.1,1.5,0.4s0.5,0.6,0.5,1.1c0,0.4-0.2,0.8-0.5,1.1S466.2,244,465.5,244z"/>
				<path class="st0" d="M483.5,244H467c-0.7,0-1.2-0.1-1.5-0.4s-0.5-0.6-0.5-1.1s0.2-0.8,0.5-1.1s0.8-0.4,1.5-0.4h16.5
					c0.7,0,1.2,0.1,1.5,0.4s0.5,0.6,0.5,1.1c0,0.4-0.2,0.8-0.5,1.1S484.2,244,483.5,244z"/>
				<path class="st0" d="M494.7,218.9v17.9c0,1,0,1.6-0.1,1.8c-0.1,0.3-0.3,0.5-0.5,0.7s-0.6,0.3-0.9,0.3s-0.6-0.1-0.9-0.3
					s-0.4-0.5-0.5-0.8c0-0.2-0.1-0.8-0.1-1.8v-17.9c0-1,0-1.6,0.1-1.8c0.1-0.3,0.3-0.5,0.5-0.7s0.6-0.3,0.9-0.3s0.6,0.1,0.9,0.3
					s0.4,0.5,0.5,0.8C494.7,217.3,494.7,217.9,494.7,218.9z"/>
				<path class="st0" d="M512.5,227.7c0,1.7-0.3,3.4-0.8,5.2c-0.4,1.3-1.1,2.7-1.9,4.3c-0.6,1.1-1.1,1.8-1.4,2.1s-0.6,0.4-1,0.4
					s-0.8-0.1-1.1-0.4s-0.4-0.6-0.4-1.1c0-0.3,0.1-0.6,0.4-1c1.1-1.7,1.8-3.3,2.3-4.9s0.7-3.1,0.7-4.6c0-1.6-0.2-3.1-0.7-4.6
					s-1.3-3.1-2.3-4.9c-0.2-0.4-0.4-0.7-0.4-1c0-0.4,0.1-0.8,0.4-1.1s0.7-0.4,1.1-0.4s0.7,0.1,1,0.4c0.4,0.3,0.9,1.1,1.6,2.3
					c0.9,1.7,1.6,3.1,1.9,4.3C512.2,224.4,512.5,226.1,512.5,227.7z"/>
				<path class="st0" d="M525.8,215.1l9.6,20.7c0,0.1,0.1,0.4,0.2,0.7c0.1,0.2,0.1,0.4,0.1,0.5c0,0.4-0.1,0.7-0.4,0.9
					s-0.6,0.4-1,0.4s-0.7-0.1-0.9-0.3s-0.5-0.5-0.7-1l-9.6-20.7c-0.2-0.5-0.4-0.9-0.4-1.2c0-0.4,0.1-0.7,0.4-1s0.6-0.4,1-0.4
					s0.7,0.1,0.9,0.3S525.5,214.6,525.8,215.1z"/>
				<path class="st0" d="M548.7,218.9v17.9c0,1,0,1.6-0.1,1.8c-0.1,0.3-0.3,0.5-0.5,0.7s-0.6,0.3-0.9,0.3c-0.3,0-0.6-0.1-0.9-0.3
					s-0.4-0.5-0.5-0.8c0-0.2-0.1-0.8-0.1-1.8v-17.9c0-1,0-1.6,0.1-1.8c0.1-0.3,0.3-0.5,0.5-0.7s0.6-0.3,0.9-0.3
					c0.3,0,0.6,0.1,0.9,0.3s0.4,0.5,0.5,0.8C548.7,217.3,548.7,217.9,548.7,218.9z"/>
				<path class="st0" d="M635.3,216.7h3.9l-1,7.7c0,0.4-0.2,0.7-0.3,0.8s-0.4,0.2-0.6,0.2c-0.2,0-0.4-0.1-0.6-0.2s-0.3-0.4-0.3-0.8
					L635.3,216.7z"/>
				<path class="st0" d="M674.8,218.9v17.9c0,1,0,1.6-0.1,1.8c-0.1,0.3-0.3,0.5-0.5,0.7s-0.6,0.3-0.9,0.3c-0.3,0-0.6-0.1-0.9-0.3
					s-0.4-0.5-0.5-0.8c0-0.2-0.1-0.8-0.1-1.8v-17.9c0-1,0-1.6,0.1-1.8c0.1-0.3,0.3-0.5,0.5-0.7s0.6-0.3,0.9-0.3
					c0.3,0,0.6,0.1,0.9,0.3s0.4,0.5,0.5,0.8C674.7,217.3,674.8,217.9,674.8,218.9z"/>
				<path class="st0" d="M710.8,218.9v17.9c0,1,0,1.6-0.1,1.8c-0.1,0.3-0.3,0.5-0.5,0.7s-0.6,0.3-0.9,0.3c-0.3,0-0.6-0.1-0.9-0.3
					s-0.4-0.5-0.5-0.8c0-0.2-0.1-0.8-0.1-1.8v-17.9c0-1,0-1.6,0.1-1.8c0.1-0.3,0.3-0.5,0.5-0.7s0.6-0.3,0.9-0.3
					c0.3,0,0.6,0.1,0.9,0.3s0.4,0.5,0.5,0.8C710.7,217.3,710.8,217.9,710.8,218.9z"/>
				<path class="st0" d="M746.8,218.9v17.9c0,1,0,1.6-0.1,1.8c-0.1,0.3-0.3,0.5-0.5,0.7s-0.6,0.3-0.9,0.3c-0.3,0-0.6-0.1-0.9-0.3
					s-0.4-0.5-0.5-0.8c0-0.2-0.1-0.8-0.1-1.8v-17.9c0-1,0-1.6,0.1-1.8c0.1-0.3,0.3-0.5,0.5-0.7s0.6-0.3,0.9-0.3
					c0.3,0,0.6,0.1,0.9,0.3s0.4,0.5,0.5,0.8C746.7,217.3,746.8,217.9,746.8,218.9z"/>
				<path class="st0" d="M26.7,258.9v17.9c0,1,0,1.6-0.1,1.8c-0.1,0.3-0.3,0.5-0.5,0.7s-0.6,0.3-0.9,0.3s-0.6-0.1-0.9-0.3
					s-0.4-0.5-0.5-0.8c0-0.2-0.1-0.8-0.1-1.8v-17.9c0-1,0-1.6,0.1-1.8c0.1-0.3,0.3-0.5,0.5-0.7s0.6-0.3,0.9-0.3s0.6,0.1,0.9,0.3
					s0.4,0.5,0.5,0.8C26.6,257.3,26.7,257.9,26.7,258.9z"/>
				<path class="st0" d="M222.1,255.4l3.3,2.7c0.4,0.3,0.6,0.6,0.6,0.9s-0.1,0.5-0.3,0.7s-0.4,0.3-0.7,0.3c-0.2,0-0.5-0.1-0.8-0.4
					l-3.3-2.7c-0.4-0.3-0.6-0.6-0.6-0.9s0.1-0.5,0.3-0.7s0.4-0.3,0.7-0.3C221.5,255,221.8,255.1,222.1,255.4z"/>
				<path class="st0" d="M237.7,255.1l9.6,20.7c0,0.1,0.1,0.4,0.2,0.7c0.1,0.2,0.1,0.4,0.1,0.5c0,0.4-0.1,0.7-0.4,0.9
					s-0.6,0.4-1,0.4s-0.7-0.1-0.9-0.3s-0.5-0.5-0.7-1l-9.6-20.7c-0.2-0.5-0.4-0.9-0.4-1.2c0-0.4,0.1-0.7,0.4-1s0.6-0.4,1-0.4
					s0.7,0.1,0.9,0.3S237.5,254.6,237.7,255.1z"/>
				<path class="st0" d="M291.7,255.1l9.6,20.7c0,0.1,0.1,0.4,0.2,0.7c0.1,0.2,0.1,0.4,0.1,0.5c0,0.4-0.1,0.7-0.4,0.9
					s-0.6,0.4-1,0.4s-0.7-0.1-0.9-0.3s-0.5-0.5-0.7-1l-9.6-20.7c-0.2-0.5-0.4-0.9-0.4-1.2c0-0.4,0.1-0.7,0.4-1s0.6-0.4,1-0.4
					s0.7,0.1,0.9,0.3S291.5,254.6,291.7,255.1z"/>
				<path class="st0" d="M481.4,256.4l-9.6,20.7c-0.2,0.5-0.5,0.9-0.7,1c-0.3,0.2-0.6,0.3-0.9,0.3c-0.4,0-0.8-0.1-1.1-0.4
					s-0.4-0.6-0.4-1c0-0.3,0.1-0.7,0.4-1.2l9.7-20.7c0.2-0.5,0.5-0.9,0.6-1c0.3-0.2,0.6-0.3,0.9-0.3c0.4,0,0.8,0.1,1.1,0.4
					s0.4,0.6,0.4,1C481.8,255.5,481.6,255.9,481.4,256.4z"/>
				<path class="st0" d="M535.4,256.4l-9.6,20.7c-0.2,0.5-0.5,0.9-0.7,1c-0.3,0.2-0.6,0.3-0.9,0.3c-0.4,0-0.8-0.1-1.1-0.4
					s-0.4-0.6-0.4-1c0-0.3,0.1-0.7,0.4-1.2l9.7-20.7c0.2-0.5,0.5-0.9,0.6-1c0.3-0.2,0.6-0.3,0.9-0.3c0.4,0,0.8,0.1,1.1,0.4
					s0.4,0.6,0.4,1C535.8,255.5,535.6,255.9,535.4,256.4z"/>
				<path class="st0" d="M546.5,271h4l-4.3,8.1c-0.3,0.5-0.6,0.7-1,0.7c-0.3,0-0.5-0.1-0.7-0.2s-0.3-0.4-0.3-0.6
					c0-0.1,0-0.3,0.1-0.6L546.5,271z"/>
				<path class="st0" d="M746.8,258.9v17.9c0,1,0,1.6-0.1,1.8c-0.1,0.3-0.3,0.5-0.5,0.7s-0.6,0.3-0.9,0.3c-0.3,0-0.6-0.1-0.9-0.3
					s-0.4-0.5-0.5-0.8c0-0.2-0.1-0.8-0.1-1.8v-17.9c0-1,0-1.6,0.1-1.8c0.1-0.3,0.3-0.5,0.5-0.7s0.6-0.3,0.9-0.3
					c0.3,0,0.6,0.1,0.9,0.3s0.4,0.5,0.5,0.8C746.7,257.3,746.8,257.9,746.8,258.9z"/>
				<path class="st0" d="M21.7,295.1l9.6,20.7c0,0.1,0.1,0.4,0.2,0.7c0.1,0.2,0.1,0.4,0.1,0.5c0,0.4-0.1,0.7-0.4,0.9s-0.6,0.4-1,0.4
					s-0.7-0.1-0.9-0.3s-0.5-0.5-0.7-1L19,296.3c-0.2-0.5-0.4-0.9-0.4-1.2c0-0.4,0.1-0.7,0.4-1s0.6-0.4,1-0.4s0.7,0.1,0.9,0.3
					S21.5,294.6,21.7,295.1z"/>
				<path class="st0" d="M242.7,298.9v17.9c0,1,0,1.6-0.1,1.8c-0.1,0.3-0.3,0.5-0.5,0.7s-0.6,0.3-0.9,0.3c-0.3,0-0.6-0.1-0.9-0.3
					s-0.4-0.5-0.5-0.8c0-0.2-0.1-0.8-0.1-1.8v-17.9c0-1,0-1.6,0.1-1.8c0.1-0.3,0.3-0.5,0.5-0.7s0.6-0.3,0.9-0.3
					c0.3,0,0.6,0.1,0.9,0.3s0.4,0.5,0.5,0.8C242.7,297.3,242.7,297.9,242.7,298.9z"/>
				<path class="st0" d="M296.7,298.9v17.9c0,1,0,1.6-0.1,1.8c-0.1,0.3-0.3,0.5-0.5,0.7s-0.6,0.3-0.9,0.3s-0.6-0.1-0.9-0.3
					s-0.4-0.5-0.5-0.8c0-0.2-0.1-0.8-0.1-1.8v-17.9c0-1,0-1.6,0.1-1.8c0.1-0.3,0.3-0.5,0.5-0.7s0.6-0.3,0.9-0.3s0.6,0.1,0.9,0.3
					s0.4,0.5,0.5,0.8C296.7,297.3,296.7,297.9,296.7,298.9z"/>
				<path class="st0" d="M476.7,298.9v17.9c0,1,0,1.6-0.1,1.8c-0.1,0.3-0.3,0.5-0.5,0.7s-0.6,0.3-0.9,0.3s-0.6-0.1-0.9-0.3
					s-0.4-0.5-0.5-0.8c0-0.2-0.1-0.8-0.1-1.8v-17.9c0-1,0-1.6,0.1-1.8c0.1-0.3,0.3-0.5,0.5-0.7s0.6-0.3,0.9-0.3s0.6,0.1,0.9,0.3
					s0.4,0.5,0.5,0.8C476.7,297.3,476.7,297.9,476.7,298.9z"/>
				<path class="st0" d="M530.7,298.9v17.9c0,1,0,1.6-0.1,1.8c-0.1,0.3-0.3,0.5-0.5,0.7s-0.6,0.3-0.9,0.3c-0.3,0-0.6-0.1-0.9-0.3
					s-0.4-0.5-0.5-0.8c0-0.2-0.1-0.8-0.1-1.8v-17.9c0-1,0-1.6,0.1-1.8c0.1-0.3,0.3-0.5,0.5-0.7s0.6-0.3,0.9-0.3
					c0.3,0,0.6,0.1,0.9,0.3s0.4,0.5,0.5,0.8C530.7,297.3,530.7,297.9,530.7,298.9z"/>
				<path class="st0" d="M733.4,296.4l-9.6,20.7c-0.2,0.5-0.5,0.9-0.7,1c-0.3,0.2-0.6,0.3-0.9,0.3c-0.4,0-0.8-0.1-1.1-0.4
					s-0.4-0.6-0.4-1c0-0.3,0.1-0.7,0.4-1.2l9.7-20.7c0.2-0.5,0.5-0.9,0.6-1c0.3-0.2,0.6-0.3,0.9-0.3c0.4,0,0.8,0.1,1.1,0.4
					s0.4,0.6,0.4,1C733.8,295.5,733.7,295.9,733.4,296.4z"/>
				<path class="st0" d="M39.7,335.1l9.6,20.7c0,0.1,0.1,0.4,0.2,0.7c0.1,0.2,0.1,0.4,0.1,0.5c0,0.4-0.1,0.7-0.4,0.9s-0.6,0.4-1,0.4
					s-0.7-0.1-0.9-0.3s-0.5-0.5-0.7-1L37,336.3c-0.2-0.5-0.4-0.9-0.4-1.2c0-0.4,0.1-0.7,0.4-1s0.6-0.4,1-0.4s0.7,0.1,0.9,0.3
					S39.5,334.6,39.7,335.1z"/>
				<path class="st0" d="M296.7,338.9v17.9c0,1,0,1.6-0.1,1.8c-0.1,0.3-0.3,0.5-0.5,0.7s-0.6,0.3-0.9,0.3s-0.6-0.1-0.9-0.3
					s-0.4-0.5-0.5-0.8c0-0.2-0.1-0.8-0.1-1.8v-17.9c0-1,0-1.6,0.1-1.8c0.1-0.3,0.3-0.5,0.5-0.7s0.6-0.3,0.9-0.3s0.6,0.1,0.9,0.3
					s0.4,0.5,0.5,0.8C296.7,337.3,296.7,337.9,296.7,338.9z"/>
				<path class="st0" d="M476.7,338.9v17.9c0,1,0,1.6-0.1,1.8c-0.1,0.3-0.3,0.5-0.5,0.7s-0.6,0.3-0.9,0.3s-0.6-0.1-0.9-0.3
					s-0.4-0.5-0.5-0.8c0-0.2-0.1-0.8-0.1-1.8v-17.9c0-1,0-1.6,0.1-1.8c0.1-0.3,0.3-0.5,0.5-0.7s0.6-0.3,0.9-0.3s0.6,0.1,0.9,0.3
					s0.4,0.5,0.5,0.8C476.7,337.3,476.7,337.9,476.7,338.9z"/>
				<path class="st0" d="M715.4,336.4l-9.6,20.7c-0.2,0.5-0.5,0.9-0.7,1c-0.3,0.2-0.6,0.3-0.9,0.3c-0.4,0-0.8-0.1-1.1-0.4
					s-0.4-0.6-0.4-1c0-0.3,0.1-0.7,0.4-1.2l9.7-20.7c0.2-0.5,0.5-0.9,0.6-1c0.3-0.2,0.6-0.3,0.9-0.3c0.4,0,0.8,0.1,1.1,0.4
					s0.4,0.6,0.4,1C715.8,335.5,715.7,335.9,715.4,336.4z"/>
				<path class="st0" d="M57.7,375.1l9.6,20.7c0,0.1,0.1,0.4,0.2,0.7c0.1,0.2,0.1,0.4,0.1,0.5c0,0.4-0.1,0.7-0.4,0.9s-0.6,0.4-1,0.4
					c-0.4,0-0.7-0.1-0.9-0.3c-0.2-0.2-0.5-0.5-0.7-1L55,376.3c-0.2-0.5-0.4-0.9-0.4-1.2c0-0.4,0.1-0.7,0.4-1s0.6-0.4,1-0.4
					s0.7,0.1,0.9,0.3S57.5,374.6,57.7,375.1z"/>
				<path class="st0" d="M283.4,376.4l-9.6,20.7c-0.2,0.5-0.5,0.9-0.7,1c-0.3,0.2-0.6,0.3-0.9,0.3c-0.4,0-0.8-0.1-1.1-0.4
					s-0.4-0.6-0.4-1c0-0.3,0.1-0.7,0.4-1.2l9.7-20.7c0.2-0.5,0.5-0.9,0.6-1c0.3-0.2,0.6-0.3,0.9-0.3c0.4,0,0.8,0.1,1.1,0.4
					s0.4,0.6,0.4,1C283.7,375.5,283.6,375.9,283.4,376.4z"/>
				<path class="st0" d="M471.8,375.1l9.6,20.7c0,0.1,0.1,0.4,0.2,0.7c0.1,0.2,0.1,0.4,0.1,0.5c0,0.4-0.1,0.7-0.4,0.9
					s-0.6,0.4-1,0.4s-0.7-0.1-0.9-0.3s-0.5-0.5-0.7-1l-9.6-20.7c-0.2-0.5-0.4-0.9-0.4-1.2c0-0.4,0.1-0.7,0.4-1s0.6-0.4,1-0.4
					s0.7,0.1,0.9,0.3S471.5,374.6,471.8,375.1z"/>
				<path class="st0" d="M697.4,376.4l-9.6,20.7c-0.2,0.5-0.5,0.9-0.7,1c-0.3,0.2-0.6,0.3-0.9,0.3c-0.4,0-0.8-0.1-1.1-0.4
					s-0.4-0.6-0.4-1c0-0.3,0.1-0.7,0.4-1.2l9.7-20.7c0.2-0.5,0.5-0.9,0.6-1c0.3-0.2,0.6-0.3,0.9-0.3c0.4,0,0.8,0.1,1.1,0.4
					s0.4,0.6,0.4,1C697.8,375.5,697.7,375.9,697.4,376.4z"/>
				<path class="st0" d="M75.7,415.1l9.6,20.7c0,0.1,0.1,0.4,0.2,0.7c0.1,0.2,0.1,0.4,0.1,0.5c0,0.4-0.1,0.7-0.4,0.9s-0.6,0.4-1,0.4
					s-0.7-0.1-0.9-0.3s-0.5-0.5-0.7-1L73,416.3c-0.2-0.5-0.4-0.9-0.4-1.2c0-0.4,0.1-0.7,0.4-1s0.6-0.4,1-0.4s0.7,0.1,0.9,0.3
					S75.5,414.6,75.7,415.1z"/>
				<path class="st0" d="M265.4,416.4l-9.6,20.7c-0.2,0.5-0.5,0.9-0.7,1c-0.3,0.2-0.6,0.3-0.9,0.3c-0.4,0-0.8-0.1-1.1-0.4
					s-0.4-0.6-0.4-1c0-0.3,0.1-0.7,0.4-1.2l9.7-20.7c0.2-0.5,0.5-0.9,0.6-1c0.3-0.2,0.6-0.3,0.9-0.3c0.4,0,0.8,0.1,1.1,0.4
					s0.4,0.6,0.4,1C265.7,415.5,265.6,415.9,265.4,416.4z"/>
				<path class="st0" d="M489.8,415.1l9.6,20.7c0,0.1,0.1,0.4,0.2,0.7c0.1,0.2,0.1,0.4,0.1,0.5c0,0.4-0.1,0.7-0.4,0.9
					s-0.6,0.4-1,0.4s-0.7-0.1-0.9-0.3s-0.5-0.5-0.7-1l-9.6-20.7c-0.2-0.5-0.4-0.9-0.4-1.2c0-0.4,0.1-0.7,0.4-1s0.6-0.4,1-0.4
					s0.7,0.1,0.9,0.3S489.5,414.6,489.8,415.1z"/>
				<path class="st0" d="M679.4,416.4l-9.6,20.7c-0.2,0.5-0.5,0.9-0.7,1c-0.3,0.2-0.6,0.3-0.9,0.3c-0.4,0-0.8-0.1-1.1-0.4
					s-0.4-0.6-0.4-1c0-0.3,0.1-0.7,0.4-1.2l9.7-20.7c0.2-0.5,0.5-0.9,0.6-1c0.3-0.2,0.6-0.3,0.9-0.3c0.4,0,0.8,0.1,1.1,0.4
					s0.4,0.6,0.4,1C679.8,415.5,679.7,415.9,679.4,416.4z"/>
				<path class="st0" d="M93.7,455.1l9.6,20.7c0,0.1,0.1,0.4,0.2,0.7c0.1,0.2,0.1,0.4,0.1,0.5c0,0.4-0.1,0.7-0.4,0.9s-0.6,0.4-1,0.4
					s-0.7-0.1-0.9-0.3s-0.5-0.5-0.7-1L91,456.3c-0.2-0.5-0.4-0.9-0.4-1.2c0-0.4,0.1-0.7,0.4-1s0.6-0.4,1-0.4s0.7,0.1,0.9,0.3
					S93.5,454.6,93.7,455.1z"/>
				<path class="st0" d="M247.4,456.4l-9.6,20.7c-0.2,0.5-0.5,0.9-0.7,1c-0.3,0.2-0.6,0.3-0.9,0.3c-0.4,0-0.8-0.1-1.1-0.4
					s-0.4-0.6-0.4-1c0-0.3,0.1-0.7,0.4-1.2l9.7-20.7c0.2-0.5,0.5-0.9,0.6-1c0.3-0.2,0.6-0.3,0.9-0.3c0.4,0,0.8,0.1,1.1,0.4
					s0.4,0.6,0.4,1C247.7,455.5,247.6,455.9,247.4,456.4z"/>
				<path class="st0" d="M512.5,467.7c0,1.7-0.3,3.4-0.8,5.2c-0.4,1.3-1.1,2.7-1.9,4.3c-0.6,1.1-1.1,1.8-1.4,2.1s-0.6,0.4-1,0.4
					s-0.8-0.1-1.1-0.4s-0.4-0.6-0.4-1.1c0-0.3,0.1-0.6,0.4-1c1.1-1.7,1.8-3.3,2.3-4.9s0.7-3.1,0.7-4.6c0-1.6-0.2-3.1-0.7-4.6
					s-1.3-3.1-2.3-4.9c-0.2-0.4-0.4-0.7-0.4-1c0-0.4,0.1-0.8,0.4-1.1s0.7-0.4,1.1-0.4s0.7,0.1,1,0.4c0.4,0.3,0.9,1.1,1.6,2.3
					c0.9,1.7,1.6,3.1,1.9,4.3C512.2,464.4,512.5,466.1,512.5,467.7z"/>
				<path class="st0" d="M661.4,456.4l-9.6,20.7c-0.2,0.5-0.5,0.9-0.7,1c-0.3,0.2-0.6,0.3-0.9,0.3c-0.4,0-0.8-0.1-1.1-0.4
					s-0.4-0.6-0.4-1c0-0.3,0.1-0.7,0.4-1.2l9.7-20.7c0.2-0.5,0.5-0.9,0.6-1c0.3-0.2,0.6-0.3,0.9-0.3c0.4,0,0.8,0.1,1.1,0.4
					s0.4,0.6,0.4,1C661.8,455.5,661.7,455.9,661.4,456.4z"/>
				<path class="st0" d="M98.4,507.7c0,1.7-0.3,3.4-0.8,5.2c-0.4,1.3-1.1,2.7-1.9,4.3c-0.6,1.1-1.1,1.8-1.4,2.1s-0.6,0.4-1,0.4
					s-0.8-0.1-1.1-0.4s-0.4-0.6-0.4-1.1c0-0.3,0.1-0.6,0.4-1c1.1-1.7,1.8-3.3,2.3-4.9s0.7-3.1,0.7-4.6c0-1.6-0.2-3.1-0.7-4.6
					s-1.3-3.1-2.3-4.9c-0.2-0.4-0.4-0.7-0.4-1c0-0.4,0.1-0.8,0.4-1.1s0.7-0.4,1.1-0.4s0.7,0.1,1,0.4c0.4,0.3,0.9,1.1,1.6,2.3
					c0.9,1.7,1.6,3.1,1.9,4.3C98.2,504.4,98.4,506.1,98.4,507.7z"/>
				<path class="st0" d="M229.4,496.4l-9.6,20.7c-0.2,0.5-0.5,0.9-0.7,1c-0.3,0.2-0.6,0.3-0.9,0.3c-0.4,0-0.8-0.1-1.1-0.4
					s-0.4-0.6-0.4-1c0-0.3,0.1-0.7,0.4-1.2l9.7-20.7c0.2-0.5,0.5-0.9,0.6-1c0.3-0.2,0.6-0.3,0.9-0.3c0.4,0,0.8,0.1,1.1,0.4
					s0.4,0.6,0.4,1C229.7,495.5,229.6,495.9,229.4,496.4z"/>
				<path class="st0" d="M499.4,496.4l-9.6,20.7c-0.2,0.5-0.5,0.9-0.7,1c-0.3,0.2-0.6,0.3-0.9,0.3c-0.4,0-0.8-0.1-1.1-0.4
					s-0.4-0.6-0.4-1c0-0.3,0.1-0.7,0.4-1.2l9.7-20.7c0.2-0.5,0.5-0.9,0.6-1c0.3-0.2,0.6-0.3,0.9-0.3c0.4,0,0.8,0.1,1.1,0.4
					s0.4,0.6,0.4,1C499.8,495.5,499.6,495.9,499.4,496.4z"/>
				<path class="st0" d="M643.4,496.4l-9.6,20.7c-0.2,0.5-0.5,0.9-0.7,1c-0.3,0.2-0.6,0.3-0.9,0.3c-0.4,0-0.8-0.1-1.1-0.4
					s-0.4-0.6-0.4-1c0-0.3,0.1-0.7,0.4-1.2l9.7-20.7c0.2-0.5,0.5-0.9,0.6-1c0.3-0.2,0.6-0.3,0.9-0.3c0.4,0,0.8,0.1,1.1,0.4
					s0.4,0.6,0.4,1C643.8,495.5,643.7,495.9,643.4,496.4z"/>
				<path class="st0" d="M85.3,536.4l-9.6,20.7c-0.2,0.5-0.5,0.9-0.7,1c-0.3,0.2-0.6,0.3-0.9,0.3c-0.4,0-0.8-0.1-1.1-0.4
					s-0.4-0.6-0.4-1c0-0.3,0.1-0.7,0.4-1.2l9.7-20.7c0.2-0.5,0.5-0.9,0.6-1c0.3-0.2,0.6-0.3,0.9-0.3c0.4,0,0.8,0.1,1.1,0.4
					s0.4,0.6,0.4,1C85.7,535.5,85.6,535.9,85.3,536.4z"/>
				<path class="st0" d="M481.4,536.4l-9.6,20.7c-0.2,0.5-0.5,0.9-0.7,1c-0.3,0.2-0.6,0.3-0.9,0.3c-0.4,0-0.8-0.1-1.1-0.4
					s-0.4-0.6-0.4-1c0-0.3,0.1-0.7,0.4-1.2l9.7-20.7c0.2-0.5,0.5-0.9,0.6-1c0.3-0.2,0.6-0.3,0.9-0.3c0.4,0,0.8,0.1,1.1,0.4
					s0.4,0.6,0.4,1C481.8,535.5,481.6,535.9,481.4,536.4z"/>
				<path class="st0" d="M625.4,536.4l-9.6,20.7c-0.2,0.5-0.5,0.9-0.7,1c-0.3,0.2-0.6,0.3-0.9,0.3c-0.4,0-0.8-0.1-1.1-0.4
					s-0.4-0.6-0.4-1c0-0.3,0.1-0.7,0.4-1.2l9.7-20.7c0.2-0.5,0.5-0.9,0.6-1c0.3-0.2,0.6-0.3,0.9-0.3c0.4,0,0.8,0.1,1.1,0.4
					s0.4,0.6,0.4,1C625.8,535.5,625.7,535.9,625.4,536.4z"/>
				<path class="st0" d="M463.4,576.4l-9.6,20.7c-0.2,0.5-0.5,0.9-0.7,1c-0.3,0.2-0.6,0.3-0.9,0.3c-0.4,0-0.8-0.1-1.1-0.4
					s-0.4-0.6-0.4-1c0-0.3,0.1-0.7,0.4-1.2l9.7-20.7c0.2-0.5,0.5-0.9,0.6-1c0.3-0.2,0.6-0.3,0.9-0.3c0.4,0,0.8,0.1,1.1,0.4
					s0.4,0.6,0.4,1C463.8,575.5,463.6,575.9,463.4,576.4z"/>
			</g>
		</g>
	</g>
</g>
</svg>
