<?xml version="1.0" encoding="utf-8"?>
<!-- Generator: Adobe Illustrator 25.2.3, SVG Export Plug-In . SVG Version: 6.00 Build 0)  -->
<svg version="1.1" id="Layer_1" xmlns="http://www.w3.org/2000/svg" xmlns:xlink="http://www.w3.org/1999/xlink" x="0px" y="0px"
	 viewBox="0 0 198 174.3" style="enable-background:new 0 0 198 174.3;" xml:space="preserve">
<style type="text/css">
	.st0{fill:#FFFFFF;stroke:#FFFFFF;stroke-miterlimit:10;}
</style>
<g>
	<path class="st0" d="M34.1,15.7h2l-2.2,4.1c-0.1,0.3-0.3,0.4-0.5,0.4c-0.1,0-0.2,0-0.3-0.1S33,19.9,33,19.8c0-0.1,0-0.1,0-0.2
		L34.1,15.7z"/>
	<path class="st0" d="M47.8,13.2v0.9h-6.4v-0.9H47.8z"/>
	<path class="st0" d="M53.6,11.5h0.3c0.3,0,0.5,0.1,0.7,0.3s0.3,0.4,0.3,0.7c0,0.3-0.1,0.5-0.3,0.7s-0.4,0.3-0.7,0.3h-0.3
		c-0.3,0-0.5-0.1-0.7-0.3c-0.2-0.2-0.3-0.4-0.3-0.7c0-0.3,0.1-0.5,0.3-0.7C53.1,11.6,53.4,11.5,53.6,11.5z M53.6,16.1h0.3
		c0.3,0,0.5,0.1,0.7,0.3s0.3,0.4,0.3,0.7c0,0.3-0.1,0.5-0.3,0.7s-0.4,0.3-0.7,0.3h-0.3c-0.3,0-0.5-0.1-0.7-0.3s-0.3-0.4-0.3-0.7
		c0-0.3,0.1-0.5,0.3-0.7C53.1,16.2,53.4,16.1,53.6,16.1z"/>
	<path class="st0" d="M62.3,8.1l1.8,1.5l0.2,0.2v0.1c0,0.1,0,0.2-0.1,0.2s-0.1,0.1-0.2,0.1c-0.1,0-0.2,0-0.3-0.1l-1.8-1.5
		c-0.1-0.1-0.2-0.2-0.2-0.3s0-0.2,0.1-0.2C61.9,8,61.9,8,62,8C62.1,8,62.2,8,62.3,8.1z"/>
	<path class="st0" d="M79.1,7.9l5.1,10.8c0,0.1,0.1,0.2,0.1,0.2c0,0.1,0,0.2-0.1,0.2c-0.1,0.1-0.1,0.1-0.2,0.1
		c-0.1,0-0.3-0.1-0.3-0.3L78.6,8c-0.1-0.1-0.1-0.2-0.1-0.2c0-0.1,0-0.1,0.1-0.2s0.1-0.1,0.2-0.1C78.9,7.6,79.1,7.7,79.1,7.9z"/>
	<path class="st0" d="M89.4,15.7h2l-2.1,3.5c-0.1,0.2-0.2,0.3-0.3,0.3s-0.1,0.1-0.2,0.1c-0.1,0-0.2,0-0.3-0.1s-0.1-0.2-0.1-0.3
		c0-0.1,0-0.1,0-0.2L89.4,15.7z M90.5,11.5h0.3c0.3,0,0.5,0.1,0.7,0.3s0.3,0.4,0.3,0.7c0,0.3-0.1,0.5-0.3,0.7s-0.4,0.3-0.7,0.3h-0.3
		c-0.3,0-0.5-0.1-0.7-0.3c-0.2-0.2-0.3-0.4-0.3-0.7c0-0.3,0.1-0.5,0.3-0.7C90,11.6,90.2,11.5,90.5,11.5z"/>
	<path class="st0" d="M98.8,8.5h2l-0.5,3.9c0,0.2-0.1,0.4-0.2,0.4s-0.2,0.1-0.3,0.1s-0.2,0-0.3-0.1s-0.1-0.2-0.2-0.4L98.8,8.5z"/>
	<path class="st0" d="M107.8,15.7h2l-2.2,4.1c-0.1,0.3-0.3,0.4-0.5,0.4c-0.1,0-0.2,0-0.3-0.1s-0.1-0.2-0.1-0.3c0-0.1,0-0.1,0-0.2
		L107.8,15.7z"/>
	<path class="st0" d="M117.6,8.1l1.8,1.5l0.2,0.2v0.1c0,0.1,0,0.2-0.1,0.2s-0.1,0.1-0.2,0.1c-0.1,0-0.2,0-0.3-0.1l-1.8-1.5
		c-0.1-0.1-0.2-0.2-0.2-0.3s0-0.2,0.1-0.2c0.1-0.1,0.1-0.1,0.2-0.1C117.3,8,117.4,8,117.6,8.1z"/>
	<path class="st0" d="M126.4,8.5h2l-0.5,3.9c0,0.2-0.1,0.4-0.2,0.4s-0.2,0.1-0.3,0.1s-0.2,0-0.3-0.1s-0.1-0.2-0.2-0.4L126.4,8.5z"/>
	<path class="st0" d="M139.9,13.2v0.9h-6.4v-0.9H139.9z"/>
	<path class="st0" d="M144.6,15.7h2l-2.2,4.1c-0.1,0.3-0.3,0.4-0.5,0.4c-0.1,0-0.2,0-0.3-0.1s-0.1-0.2-0.1-0.3c0-0.1,0-0.1,0-0.2
		L144.6,15.7z"/>
	<path class="st0" d="M26,34.6h0.3c0.3,0,0.5,0.1,0.7,0.3s0.3,0.4,0.3,0.7c0,0.3-0.1,0.5-0.3,0.7s-0.4,0.3-0.7,0.3H26
		c-0.3,0-0.5-0.1-0.7-0.3S25,35.9,25,35.6c0-0.3,0.1-0.5,0.3-0.7C25.5,34.7,25.7,34.6,26,34.6z"/>
	<path class="st0" d="M34.4,27h2l-0.5,3.9c0,0.2-0.1,0.4-0.2,0.4s-0.2,0.1-0.3,0.1s-0.2,0-0.3-0.1s-0.1-0.2-0.2-0.4L34.4,27z"/>
	<path class="st0" d="M47.8,31.6v0.9h-6.4v-0.9H47.8z"/>
	<path class="st0" d="M52.5,34.1h2l-2.1,3.5c-0.1,0.2-0.2,0.3-0.3,0.3S52,38,51.9,38c-0.1,0-0.2,0-0.3-0.1s-0.1-0.2-0.1-0.3
		c0-0.1,0-0.1,0-0.2L52.5,34.1z M53.6,29.9h0.3c0.3,0,0.5,0.1,0.7,0.3s0.3,0.4,0.3,0.7c0,0.3-0.1,0.5-0.3,0.7s-0.4,0.3-0.7,0.3h-0.3
		c-0.3,0-0.5-0.1-0.7-0.3c-0.2-0.2-0.3-0.4-0.3-0.7c0-0.3,0.1-0.5,0.3-0.7C53.1,30,53.4,29.9,53.6,29.9z"/>
	<path class="st0" d="M67.2,40.6h-8.4c-0.1,0-0.3,0-0.3-0.1s-0.1-0.1-0.1-0.2s0-0.2,0.1-0.2c0.1-0.1,0.2-0.1,0.3-0.1h8.4
		c0.2,0,0.3,0,0.3,0.1c0.1,0.1,0.1,0.1,0.1,0.2s0,0.2-0.1,0.2S67.3,40.6,67.2,40.6z"/>
	<path class="st0" d="M70.9,34.1h2l-2.2,4.1c-0.1,0.3-0.3,0.4-0.5,0.4c-0.1,0-0.2,0-0.3-0.1s-0.1-0.2-0.1-0.3c0-0.1,0-0.1,0-0.2
		L70.9,34.1z"/>
	<path class="st0" d="M80.2,34.1h2l-2.1,3.5c-0.1,0.2-0.2,0.3-0.3,0.3S79.7,38,79.6,38c-0.1,0-0.2,0-0.3-0.1s-0.1-0.2-0.1-0.3
		c0-0.1,0-0.1,0-0.2L80.2,34.1z M81.3,29.9h0.3c0.3,0,0.5,0.1,0.7,0.3s0.3,0.4,0.3,0.7c0,0.3-0.1,0.5-0.3,0.7s-0.4,0.3-0.7,0.3h-0.3
		c-0.3,0-0.5-0.1-0.7-0.3c-0.2-0.2-0.3-0.4-0.3-0.7c0-0.3,0.1-0.5,0.3-0.7C80.7,30,81,29.9,81.3,29.9z"/>
	<path class="st0" d="M108,27h2l-0.5,3.9c0,0.2-0.1,0.4-0.2,0.4s-0.2,0.1-0.3,0.1s-0.2,0-0.3-0.1s-0.1-0.2-0.2-0.4L108,27z"/>
	<path class="st0" d="M118.1,29.9h0.3c0.3,0,0.5,0.1,0.7,0.3s0.3,0.4,0.3,0.7c0,0.3-0.1,0.5-0.3,0.7s-0.4,0.3-0.7,0.3h-0.3
		c-0.3,0-0.5-0.1-0.7-0.3c-0.2-0.2-0.3-0.4-0.3-0.7c0-0.3,0.1-0.5,0.3-0.7C117.6,30,117.8,29.9,118.1,29.9z M118.1,34.6h0.3
		c0.3,0,0.5,0.1,0.7,0.3s0.3,0.4,0.3,0.7c0,0.3-0.1,0.5-0.3,0.7s-0.4,0.3-0.7,0.3h-0.3c-0.3,0-0.5-0.1-0.7-0.3s-0.3-0.4-0.3-0.7
		c0-0.3,0.1-0.5,0.3-0.7C117.6,34.7,117.8,34.6,118.1,34.6z"/>
	<path class="st0" d="M130.6,31.6v0.9h-6.4v-0.9H130.6z"/>
	<path class="st0" d="M135.4,34.1h2l-2.1,3.5c-0.1,0.2-0.2,0.3-0.3,0.3s-0.1,0.1-0.2,0.1c-0.1,0-0.2,0-0.3-0.1s-0.1-0.2-0.1-0.3
		c0-0.1,0-0.1,0-0.2L135.4,34.1z M136.5,29.9h0.3c0.3,0,0.5,0.1,0.7,0.3s0.3,0.4,0.3,0.7c0,0.3-0.1,0.5-0.3,0.7s-0.4,0.3-0.7,0.3
		h-0.3c-0.3,0-0.5-0.1-0.7-0.3c-0.2-0.2-0.3-0.4-0.3-0.7c0-0.3,0.1-0.5,0.3-0.7C136,30,136.2,29.9,136.5,29.9z"/>
	<path class="st0" d="M150,40.6h-8.4c-0.1,0-0.3,0-0.3-0.1s-0.1-0.1-0.1-0.2s0-0.2,0.1-0.2c0.1-0.1,0.2-0.1,0.3-0.1h8.4
		c0.2,0,0.3,0,0.3,0.1c0.1,0.1,0.1,0.1,0.1,0.2s0,0.2-0.1,0.2S150.2,40.6,150,40.6z"/>
	<path class="st0" d="M153.8,34.1h2l-2.2,4.1c-0.1,0.3-0.3,0.4-0.5,0.4c-0.1,0-0.2,0-0.3-0.1s-0.1-0.2-0.1-0.3c0-0.1,0-0.1,0-0.2
		L153.8,34.1z"/>
	<path class="st0" d="M163.3,27h2l-0.5,3.9c0,0.2-0.1,0.4-0.2,0.4s-0.2,0.1-0.3,0.1c-0.1,0-0.2,0-0.3-0.1c-0.1-0.1-0.1-0.2-0.2-0.4
		L163.3,27z"/>
	<path class="st0" d="M173.3,34.6h0.3c0.3,0,0.5,0.1,0.7,0.3s0.3,0.4,0.3,0.7c0,0.3-0.1,0.5-0.3,0.7c-0.2,0.2-0.4,0.3-0.7,0.3h-0.3
		c-0.3,0-0.5-0.1-0.7-0.3s-0.3-0.4-0.3-0.7c0-0.3,0.1-0.5,0.3-0.7C172.8,34.7,173.1,34.6,173.3,34.6z"/>
	<path class="st0" d="M19.8,44.9l-5.1,10.8c-0.1,0.2-0.2,0.3-0.3,0.3c-0.1,0-0.2,0-0.2-0.1s-0.1-0.1-0.1-0.2s0-0.1,0.1-0.2l5.1-10.8
		c0.1-0.1,0.1-0.2,0.2-0.2c0,0,0.1-0.1,0.2-0.1s0.2,0,0.2,0.1s0.1,0.1,0.1,0.2C19.8,44.7,19.8,44.8,19.8,44.9z"/>
	<path class="st0" d="M24.9,52.5h2L24.8,56c-0.1,0.2-0.2,0.3-0.3,0.3s-0.1,0.1-0.2,0.1c-0.1,0-0.2,0-0.3-0.1s-0.1-0.2-0.1-0.3
		c0-0.1,0-0.1,0-0.2L24.9,52.5z M26,48.3h0.3c0.3,0,0.5,0.1,0.7,0.3s0.3,0.4,0.3,0.7c0,0.3-0.1,0.5-0.3,0.7s-0.4,0.3-0.7,0.3H26
		c-0.3,0-0.5-0.1-0.7-0.3c-0.2-0.2-0.3-0.4-0.3-0.7c0-0.3,0.1-0.5,0.3-0.7C25.5,48.4,25.7,48.3,26,48.3z"/>
	<path class="st0" d="M62,45.4h2l-0.5,3.9c0,0.2-0.1,0.4-0.2,0.4s-0.2,0.1-0.3,0.1s-0.2,0-0.3-0.1s-0.1-0.2-0.2-0.4L62,45.4z"/>
	<path class="st0" d="M75,44.9l-5.1,10.8c-0.1,0.2-0.2,0.3-0.3,0.3s-0.2,0-0.2-0.1s-0.1-0.1-0.1-0.2s0-0.1,0.1-0.2l5.1-10.8
		c0.1-0.1,0.1-0.2,0.2-0.2c0,0,0.1-0.1,0.2-0.1c0.1,0,0.2,0,0.2,0.1s0.1,0.1,0.1,0.2C75.1,44.7,75.1,44.8,75,44.9z"/>
	<path class="st0" d="M117,52.5h2l-2.2,4.1c-0.1,0.3-0.3,0.4-0.5,0.4c-0.1,0-0.2,0-0.3-0.1s-0.1-0.2-0.1-0.3c0-0.1,0-0.1,0-0.2
		L117,52.5z"/>
	<path class="st0" d="M150,59h-8.4c-0.1,0-0.3,0-0.3-0.1s-0.1-0.1-0.1-0.2s0-0.2,0.1-0.2c0.1-0.1,0.2-0.1,0.3-0.1h8.4
		c0.2,0,0.3,0,0.3,0.1c0.1,0.1,0.1,0.1,0.1,0.2s0,0.2-0.1,0.2S150.2,59,150,59z"/>
	<path class="st0" d="M154.4,45l1.8,1.5l0.2,0.2v0.1c0,0.1,0,0.2-0.1,0.2s-0.1,0.1-0.2,0.1s-0.2,0-0.3-0.1l-1.8-1.5
		c-0.1-0.1-0.2-0.2-0.2-0.3c0-0.1,0-0.2,0.1-0.2c0.1-0.1,0.1-0.1,0.2-0.1C154.2,44.8,154.3,44.9,154.4,45z"/>
	<path class="st0" d="M164.1,53h0.3c0.3,0,0.5,0.1,0.7,0.3s0.3,0.4,0.3,0.7c0,0.3-0.1,0.5-0.3,0.7c-0.2,0.2-0.4,0.3-0.7,0.3h-0.3
		c-0.3,0-0.5-0.1-0.7-0.3s-0.3-0.4-0.3-0.7c0-0.3,0.1-0.5,0.3-0.7C163.6,53.1,163.9,53,164.1,53z"/>
	<path class="st0" d="M176.7,50v0.9h-6.4V50H176.7z"/>
	<path class="st0" d="M180.4,44.7l5.1,10.8c0,0.1,0.1,0.2,0.1,0.2c0,0.1,0,0.2-0.1,0.2c-0.1,0.1-0.1,0.1-0.2,0.1s-0.3-0.1-0.3-0.3
		L179.9,45c-0.1-0.1-0.1-0.2-0.1-0.2c0-0.1,0-0.1,0.1-0.2s0.1-0.1,0.2-0.1C180.2,44.4,180.3,44.5,180.4,44.7z"/>
	<path class="st0" d="M8,64.2v10.5C8,74.8,8,75,7.9,75c-0.1,0.1-0.1,0.1-0.2,0.1s-0.2,0-0.2-0.1c-0.1-0.1-0.1-0.2-0.1-0.3V64.2
		c0-0.2,0-0.3,0.1-0.3c0.1-0.1,0.1-0.1,0.2-0.1s0.2,0,0.2,0.1C8,63.9,8,64.1,8,64.2z"/>
	<path class="st0" d="M25.1,63.8h2l-0.5,3.9c0,0.2-0.1,0.4-0.2,0.4s-0.2,0.1-0.3,0.1s-0.2,0-0.3-0.1s-0.1-0.2-0.2-0.4L25.1,63.8z"/>
	<path class="st0" d="M34.7,63.4l1.8,1.5l0.2,0.2v0.1c0,0.1,0,0.2-0.1,0.2s-0.1,0.1-0.2,0.1c-0.1,0-0.2,0-0.3-0.1l-1.8-1.5
		c-0.1-0.1-0.2-0.2-0.2-0.3c0-0.1,0-0.2,0.1-0.2c0.1-0.1,0.1-0.1,0.2-0.1C34.5,63.2,34.6,63.3,34.7,63.4z"/>
	<path class="st0" d="M44.4,71.4h0.3c0.3,0,0.5,0.1,0.7,0.3s0.3,0.4,0.3,0.7c0,0.3-0.1,0.5-0.3,0.7s-0.4,0.3-0.7,0.3h-0.3
		c-0.3,0-0.5-0.1-0.7-0.3s-0.3-0.4-0.3-0.7c0-0.3,0.1-0.5,0.3-0.7C43.9,71.5,44.2,71.4,44.4,71.4z"/>
	<path class="st0" d="M62.9,69.5c0-0.6,0.1-1.2,0.2-1.8s0.4-1.4,0.9-2.2c0.4-0.8,0.7-1.4,0.9-1.5c0.1-0.1,0.1-0.1,0.2-0.1
		c0.1,0,0.2,0,0.2,0.1c0.1,0.1,0.1,0.1,0.1,0.2s0,0.1-0.1,0.2c-0.5,1-0.9,1.9-1.2,2.7c-0.2,0.8-0.4,1.6-0.4,2.5
		c0,0.8,0.1,1.6,0.4,2.5c0.2,0.8,0.6,1.7,1.2,2.7c0,0.1,0.1,0.1,0.1,0.2c0,0.1,0,0.2-0.1,0.2s-0.1,0.1-0.2,0.1c-0.1,0-0.1,0-0.2-0.1
		c-0.2-0.2-0.5-0.7-0.9-1.5s-0.7-1.6-0.9-2.2C63,70.7,62.9,70.1,62.9,69.5z"/>
	<path class="st0" d="M71.5,63.4l1.8,1.5l0.2,0.2v0.1c0,0.1,0,0.2-0.1,0.2s-0.1,0.1-0.2,0.1c-0.1,0-0.2,0-0.3-0.1l-1.8-1.5
		c-0.1-0.1-0.2-0.2-0.2-0.3c0-0.1,0-0.2,0.1-0.2c0.1-0.1,0.1-0.1,0.2-0.1C71.3,63.2,71.4,63.3,71.5,63.4z"/>
	<path class="st0" d="M130.3,63.3l-5.1,10.8c-0.1,0.2-0.2,0.3-0.3,0.3s-0.2,0-0.2-0.1s-0.1-0.1-0.1-0.2s0-0.1,0.1-0.2l5.1-10.8
		c0.1-0.1,0.1-0.2,0.2-0.2c0,0,0.1-0.1,0.2-0.1c0.1,0,0.2,0,0.2,0.1s0.1,0.1,0.1,0.2C130.3,63.1,130.3,63.2,130.3,63.3z"/>
	<path class="st0" d="M136,63.4l1.8,1.5l0.2,0.2v0.1c0,0.1,0,0.2-0.1,0.2s-0.1,0.1-0.2,0.1c-0.1,0-0.2,0-0.3-0.1l-1.8-1.5
		c-0.1-0.1-0.2-0.2-0.2-0.3c0-0.1,0-0.2,0.1-0.2c0.1-0.1,0.1-0.1,0.2-0.1C135.8,63.2,135.9,63.3,136,63.4z"/>
	<path class="st0" d="M154.4,63.4l1.8,1.5l0.2,0.2v0.1c0,0.1,0,0.2-0.1,0.2s-0.1,0.1-0.2,0.1s-0.2,0-0.3-0.1l-1.8-1.5
		c-0.1-0.1-0.2-0.2-0.2-0.3c0-0.1,0-0.2,0.1-0.2c0.1-0.1,0.1-0.1,0.2-0.1C154.2,63.2,154.3,63.3,154.4,63.4z"/>
	<path class="st0" d="M171.2,63.1l5.1,10.8c0,0.1,0.1,0.2,0.1,0.2c0,0.1,0,0.2-0.1,0.2c-0.1,0.1-0.1,0.1-0.2,0.1s-0.3-0.1-0.3-0.3
		l-5.1-10.9c-0.1-0.1-0.1-0.2-0.1-0.2c0-0.1,0-0.1,0.1-0.2s0.1-0.1,0.2-0.1C171,62.8,171.1,62.9,171.2,63.1z"/>
	<path class="st0" d="M182,63.4l1.8,1.5l0.2,0.2v0.1c0,0.1,0,0.2-0.1,0.2s-0.1,0.1-0.2,0.1s-0.2,0-0.3-0.1l-1.8-1.5
		c-0.1-0.1-0.2-0.2-0.2-0.3c0-0.1,0-0.2,0.1-0.2c0.1-0.1,0.1-0.1,0.2-0.1C181.8,63.2,181.9,63.3,182,63.4z"/>
	<path class="st0" d="M192.2,64.2v10.5c0,0.1,0,0.3-0.1,0.3c-0.1,0.1-0.1,0.1-0.2,0.1s-0.2,0-0.2-0.1c-0.1-0.1-0.1-0.2-0.1-0.3V64.2
		c0-0.2,0-0.3,0.1-0.3c0.1-0.1,0.1-0.1,0.2-0.1s0.2,0,0.2,0.1C192.2,63.9,192.2,64.1,192.2,64.2z"/>
	<path class="st0" d="M8,82.6v10.5c0,0.1,0,0.3-0.1,0.3c-0.1,0.1-0.1,0.1-0.2,0.1s-0.2,0-0.2-0.1c-0.1-0.1-0.1-0.2-0.1-0.3V82.6
		c0-0.2,0-0.3,0.1-0.3c0.1-0.1,0.1-0.1,0.2-0.1s0.2,0,0.2,0.1C8,82.4,8,82.5,8,82.6z"/>
	<path class="st0" d="M16.8,85.1h0.3c0.3,0,0.5,0.1,0.7,0.3s0.3,0.4,0.3,0.7s-0.1,0.5-0.3,0.7c-0.2,0.2-0.4,0.3-0.7,0.3h-0.3
		c-0.3,0-0.5-0.1-0.7-0.3s-0.3-0.4-0.3-0.7s0.1-0.5,0.3-0.7C16.3,85.2,16.5,85.1,16.8,85.1z M16.8,89.8h0.3c0.3,0,0.5,0.1,0.7,0.3
		s0.3,0.4,0.3,0.7s-0.1,0.5-0.3,0.7c-0.2,0.2-0.4,0.3-0.7,0.3h-0.3c-0.3,0-0.5-0.1-0.7-0.3s-0.3-0.4-0.3-0.7s0.1-0.5,0.3-0.7
		C16.3,89.9,16.5,89.8,16.8,89.8z"/>
	<path class="st0" d="M26,89.8h0.3c0.3,0,0.5,0.1,0.7,0.3s0.3,0.4,0.3,0.7s-0.1,0.5-0.3,0.7s-0.4,0.3-0.7,0.3H26
		c-0.3,0-0.5-0.1-0.7-0.3S25,91.1,25,90.8s0.1-0.5,0.3-0.7C25.5,89.9,25.7,89.8,26,89.8z"/>
	<path class="st0" d="M53.1,81.8l1.8,1.5l0.2,0.2v0.1c0,0.1,0,0.2-0.1,0.2s-0.1,0.1-0.2,0.1c-0.1,0-0.2,0-0.3-0.1l-1.8-1.5
		c-0.1-0.1-0.2-0.2-0.2-0.3s0-0.2,0.1-0.2c0.1-0.1,0.1-0.1,0.2-0.1C52.9,81.6,53,81.7,53.1,81.8z"/>
	<path class="st0" d="M60.7,81.5l5.1,10.8c0,0.1,0.1,0.2,0.1,0.2c0,0.1,0,0.2-0.1,0.2c-0.1,0.1-0.1,0.1-0.2,0.1
		c-0.1,0-0.3-0.1-0.3-0.3l-5.1-10.9c-0.1-0.1-0.1-0.2-0.1-0.2c0-0.1,0-0.1,0.1-0.2s0.1-0.1,0.2-0.1C60.5,81.2,60.6,81.3,60.7,81.5z"
		/>
	<path class="st0" d="M71.5,81.8l1.8,1.5l0.2,0.2v0.1c0,0.1,0,0.2-0.1,0.2s-0.1,0.1-0.2,0.1c-0.1,0-0.2,0-0.3-0.1l-1.8-1.5
		c-0.1-0.1-0.2-0.2-0.2-0.3s0-0.2,0.1-0.2c0.1-0.1,0.1-0.1,0.2-0.1C71.3,81.6,71.4,81.7,71.5,81.8z"/>
	<path class="st0" d="M84.6,86.8v0.9h-6.4v-0.9H84.6z"/>
	<path class="st0" d="M90.5,89.8h0.3c0.3,0,0.5,0.1,0.7,0.3s0.3,0.4,0.3,0.7s-0.1,0.5-0.3,0.7s-0.4,0.3-0.7,0.3h-0.3
		c-0.3,0-0.5-0.1-0.7-0.3s-0.3-0.4-0.3-0.7s0.1-0.5,0.3-0.7C90,89.9,90.2,89.8,90.5,89.8z"/>
	<path class="st0" d="M125.2,81.5l5.1,10.8c0,0.1,0.1,0.2,0.1,0.2c0,0.1,0,0.2-0.1,0.2c-0.1,0.1-0.1,0.1-0.2,0.1
		c-0.1,0-0.3-0.1-0.3-0.3l-5.1-10.9c-0.1-0.1-0.1-0.2-0.1-0.2c0-0.1,0-0.1,0.1-0.2s0.1-0.1,0.2-0.1C125,81.2,125.1,81.3,125.2,81.5z
		"/>
	<path class="st0" d="M140.8,95.8h-8.4c-0.1,0-0.3,0-0.3-0.1s-0.1-0.1-0.1-0.2s0-0.2,0.1-0.2c0.1-0.1,0.2-0.1,0.3-0.1h8.4
		c0.2,0,0.3,0,0.3,0.1c0.1,0.1,0.1,0.1,0.1,0.2s0,0.2-0.1,0.2S141,95.8,140.8,95.8z"/>
	<path class="st0" d="M176.3,81.7l-5.1,10.8c-0.1,0.2-0.2,0.3-0.3,0.3c-0.1,0-0.2,0-0.2-0.1s-0.1-0.1-0.1-0.2c0-0.1,0-0.1,0.1-0.2
		l5.1-10.8c0.1-0.1,0.1-0.2,0.2-0.2c0,0,0.1-0.1,0.2-0.1s0.2,0,0.2,0.1s0.1,0.1,0.1,0.2C176.4,81.5,176.4,81.6,176.3,81.7z"/>
	<path class="st0" d="M192.2,82.6v10.5c0,0.1,0,0.3-0.1,0.3c-0.1,0.1-0.1,0.1-0.2,0.1s-0.2,0-0.2-0.1c-0.1-0.1-0.1-0.2-0.1-0.3V82.6
		c0-0.2,0-0.3,0.1-0.3c0.1-0.1,0.1-0.1,0.2-0.1s0.2,0,0.2,0.1C192.2,82.4,192.2,82.5,192.2,82.6z"/>
	<path class="st0" d="M8,101v10.5c0,0.1,0,0.3-0.1,0.3c-0.1,0.1-0.1,0.1-0.2,0.1s-0.2,0-0.2-0.1c-0.1-0.1-0.1-0.2-0.1-0.3V101
		c0-0.2,0-0.3,0.1-0.3c0.1-0.1,0.1-0.1,0.2-0.1s0.2,0,0.2,0.1C8,100.8,8,100.9,8,101z"/>
	<path class="st0" d="M62.9,106.3c0-0.6,0.1-1.2,0.2-1.8s0.4-1.4,0.9-2.2c0.4-0.8,0.7-1.4,0.9-1.5c0.1-0.1,0.1-0.1,0.2-0.1
		c0.1,0,0.2,0,0.2,0.1c0.1,0.1,0.1,0.1,0.1,0.2c0,0.1,0,0.1-0.1,0.2c-0.5,1-0.9,1.9-1.2,2.7c-0.2,0.8-0.4,1.6-0.4,2.5
		c0,0.8,0.1,1.6,0.4,2.5c0.2,0.8,0.6,1.7,1.2,2.7c0,0.1,0.1,0.1,0.1,0.2c0,0.1,0,0.2-0.1,0.2s-0.1,0.1-0.2,0.1c-0.1,0-0.1,0-0.2-0.1
		c-0.2-0.2-0.5-0.7-0.9-1.5s-0.7-1.6-0.9-2.2C63,107.6,62.9,106.9,62.9,106.3z"/>
	<path class="st0" d="M99.1,100.2l1.8,1.5l0.2,0.2v0.1c0,0.1,0,0.2-0.1,0.2s-0.1,0.1-0.2,0.1c-0.1,0-0.2,0-0.3-0.1l-1.8-1.5
		c-0.1-0.1-0.2-0.2-0.2-0.3s0-0.2,0.1-0.2c0.1-0.1,0.1-0.1,0.2-0.1C98.9,100.1,99,100.1,99.1,100.2z"/>
	<path class="st0" d="M107.8,107.8h2l-2.2,4.1c-0.1,0.3-0.3,0.4-0.5,0.4c-0.1,0-0.2,0-0.3-0.1s-0.1-0.2-0.1-0.3s0-0.1,0-0.2
		L107.8,107.8z"/>
	<path class="st0" d="M136.5,108.2h0.3c0.3,0,0.5,0.1,0.7,0.3s0.3,0.4,0.3,0.7s-0.1,0.5-0.3,0.7s-0.4,0.3-0.7,0.3h-0.3
		c-0.3,0-0.5-0.1-0.7-0.3s-0.3-0.4-0.3-0.7s0.1-0.5,0.3-0.7S136.2,108.2,136.5,108.2z"/>
	<path class="st0" d="M145.2,100.2l1.8,1.5l0.2,0.2v0.1c0,0.1,0,0.2-0.1,0.2s-0.1,0.1-0.2,0.1c-0.1,0-0.2,0-0.3-0.1l-1.8-1.5
		c-0.1-0.1-0.2-0.2-0.2-0.3s0-0.2,0.1-0.2c0.1-0.1,0.1-0.1,0.2-0.1C145,100.1,145.1,100.1,145.2,100.2z"/>
	<path class="st0" d="M152.8,99.9l5.1,10.8c0,0.1,0.1,0.2,0.1,0.2c0,0.1,0,0.2-0.1,0.2c-0.1,0.1-0.1,0.1-0.2,0.1s-0.3-0.1-0.3-0.3
		l-5.1-10.9c-0.1-0.1-0.1-0.2-0.1-0.2c0-0.1,0-0.1,0.1-0.2s0.1-0.1,0.2-0.1C152.6,99.7,152.7,99.7,152.8,99.9z"/>
	<path class="st0" d="M172.2,107.8h2l-2.1,3.5c-0.1,0.2-0.2,0.3-0.3,0.3c-0.1,0-0.1,0.1-0.2,0.1s-0.2,0-0.3-0.1
		c-0.1-0.1-0.1-0.2-0.1-0.3s0-0.1,0-0.2L172.2,107.8z M173.3,103.5h0.3c0.3,0,0.5,0.1,0.7,0.3s0.3,0.4,0.3,0.7s-0.1,0.5-0.3,0.7
		s-0.4,0.3-0.7,0.3h-0.3c-0.3,0-0.5-0.1-0.7-0.3s-0.3-0.4-0.3-0.7s0.1-0.5,0.3-0.7C172.8,103.6,173.1,103.5,173.3,103.5z"/>
	<path class="st0" d="M181.7,100.6h2l-0.5,3.9c0,0.2-0.1,0.4-0.2,0.4s-0.2,0.1-0.3,0.1c-0.1,0-0.2,0-0.3-0.1
		c-0.1-0.1-0.1-0.2-0.2-0.4L181.7,100.6z"/>
	<path class="st0" d="M192.2,101v10.5c0,0.1,0,0.3-0.1,0.3c-0.1,0.1-0.1,0.1-0.2,0.1s-0.2,0-0.2-0.1c-0.1-0.1-0.1-0.2-0.1-0.3V101
		c0-0.2,0-0.3,0.1-0.3c0.1-0.1,0.1-0.1,0.2-0.1s0.2,0,0.2,0.1C192.2,100.8,192.2,100.9,192.2,101z"/>
	<path class="st0" d="M14.7,118.3l5.1,10.8c0,0.1,0.1,0.2,0.1,0.2c0,0.1,0,0.2-0.1,0.2c-0.1,0.1-0.1,0.1-0.2,0.1s-0.3-0.1-0.3-0.3
		l-5.1-10.9c-0.1-0.1-0.1-0.2-0.1-0.2c0-0.1,0-0.1,0.1-0.2s0.1-0.1,0.2-0.1C14.5,118.1,14.6,118.2,14.7,118.3z"/>
	<path class="st0" d="M72.5,119.5V130c0,0.1,0,0.3-0.1,0.3c-0.1,0.1-0.1,0.1-0.2,0.1c-0.1,0-0.2,0-0.2-0.1c-0.1-0.1-0.1-0.2-0.1-0.3
		v-10.5c0-0.2,0-0.3,0.1-0.3c0.1-0.1,0.1-0.1,0.2-0.1c0.1,0,0.2,0,0.2,0.1C72.5,119.2,72.5,119.3,72.5,119.5z"/>
	<path class="st0" d="M90.5,126.6h0.3c0.3,0,0.5,0.1,0.7,0.3s0.3,0.4,0.3,0.7s-0.1,0.5-0.3,0.7s-0.4,0.3-0.7,0.3h-0.3
		c-0.3,0-0.5-0.1-0.7-0.3s-0.3-0.4-0.3-0.7s0.1-0.5,0.3-0.7C90,126.7,90.2,126.6,90.5,126.6z"/>
	<path class="st0" d="M98.8,119h2l-0.5,3.9c0,0.2-0.1,0.4-0.2,0.4s-0.2,0.1-0.3,0.1s-0.2,0-0.3-0.1s-0.1-0.2-0.2-0.4L98.8,119z"/>
	<path class="st0" d="M154.4,118.6l1.8,1.5l0.2,0.2v0.1c0,0.1,0,0.2-0.1,0.2s-0.1,0.1-0.2,0.1s-0.2,0-0.3-0.1l-1.8-1.5
		c-0.1-0.1-0.2-0.2-0.2-0.3s0-0.2,0.1-0.2c0.1-0.1,0.1-0.1,0.2-0.1S154.3,118.5,154.4,118.6z"/>
	<path class="st0" d="M167.5,123.6v0.9h-6.4v-0.9H167.5z"/>
	<path class="st0" d="M172.5,119h2l-0.5,3.9c0,0.2-0.1,0.4-0.2,0.4s-0.2,0.1-0.3,0.1c-0.1,0-0.2,0-0.3-0.1c-0.1-0.1-0.1-0.2-0.2-0.4
		L172.5,119z"/>
	<path class="st0" d="M185.5,118.6l-5.1,10.8c-0.1,0.2-0.2,0.3-0.3,0.3c-0.1,0-0.2,0-0.2-0.1s-0.1-0.1-0.1-0.2c0-0.1,0-0.1,0.1-0.2
		l5.1-10.8c0.1-0.1,0.1-0.2,0.2-0.2c0,0,0.1-0.1,0.2-0.1s0.2,0,0.2,0.1s0.1,0.1,0.1,0.2C185.6,118.4,185.6,118.5,185.5,118.6z"/>
	<path class="st0" d="M25.5,137l1.8,1.5l0.2,0.2v0.1c0,0.1,0,0.2-0.1,0.2s-0.1,0.1-0.2,0.1c-0.1,0-0.2,0-0.3-0.1l-1.8-1.5
		c-0.1-0.1-0.2-0.2-0.2-0.3s0-0.2,0.1-0.2c0.1-0.1,0.1-0.1,0.2-0.1C25.3,136.9,25.4,136.9,25.5,137z"/>
	<path class="st0" d="M35.2,145h0.3c0.3,0,0.5,0.1,0.7,0.3s0.3,0.4,0.3,0.7s-0.1,0.5-0.3,0.7s-0.4,0.3-0.7,0.3h-0.3
		c-0.3,0-0.5-0.1-0.7-0.3s-0.3-0.4-0.3-0.7s0.1-0.5,0.3-0.7S34.9,145,35.2,145z"/>
	<path class="st0" d="M71,144.6h2l-2.1,3.5c-0.1,0.2-0.2,0.3-0.3,0.3s-0.1,0.1-0.2,0.1c-0.1,0-0.2,0-0.3-0.1s-0.1-0.2-0.1-0.3
		s0-0.1,0-0.2L71,144.6z M72,140.4h0.3c0.3,0,0.5,0.1,0.7,0.3s0.3,0.4,0.3,0.7s-0.1,0.5-0.3,0.7s-0.4,0.3-0.7,0.3H72
		c-0.3,0-0.5-0.1-0.7-0.3s-0.3-0.4-0.3-0.7s0.1-0.5,0.3-0.7S71.8,140.4,72,140.4z"/>
	<path class="st0" d="M84.2,137l-5.1,10.8c-0.1,0.2-0.2,0.3-0.3,0.3s-0.2,0-0.2-0.1s-0.1-0.1-0.1-0.2c0-0.1,0-0.1,0.1-0.2l5.1-10.8
		c0.1-0.1,0.1-0.2,0.2-0.2c0,0,0.1-0.1,0.2-0.1c0.1,0,0.2,0,0.2,0.1s0.1,0.1,0.1,0.2C84.3,136.8,84.3,136.9,84.2,137z"/>
	<path class="st0" d="M164.1,145h0.3c0.3,0,0.5,0.1,0.7,0.3s0.3,0.4,0.3,0.7s-0.1,0.5-0.3,0.7c-0.2,0.2-0.4,0.3-0.7,0.3h-0.3
		c-0.3,0-0.5-0.1-0.7-0.3s-0.3-0.4-0.3-0.7s0.1-0.5,0.3-0.7C163.6,145.1,163.9,145,164.1,145z"/>
	<path class="st0" d="M172.5,137.4h2l-0.5,3.9c0,0.2-0.1,0.4-0.2,0.4s-0.2,0.1-0.3,0.1c-0.1,0-0.2,0-0.3-0.1
		c-0.1-0.1-0.1-0.2-0.2-0.4L172.5,137.4z"/>
	<path class="st0" d="M43.9,155.5l1.8,1.5l0.2,0.2v0.1c0,0.1,0,0.2-0.1,0.2s-0.1,0.1-0.2,0.1c-0.1,0-0.2,0-0.3-0.1l-1.8-1.5
		c-0.1-0.1-0.2-0.2-0.2-0.3s0-0.2,0.1-0.2c0.1-0.1,0.1-0.1,0.2-0.1C43.7,155.3,43.8,155.4,43.9,155.5z"/>
	<path class="st0" d="M52.8,155.9h2l-0.5,3.9c0,0.2-0.1,0.4-0.2,0.4s-0.2,0.1-0.3,0.1s-0.2,0-0.3-0.1s-0.1-0.2-0.2-0.4L52.8,155.9z"
		/>
	<path class="st0" d="M66.2,160.5v0.9h-6.4v-0.9H66.2z"/>
	<path class="st0" d="M72.1,163.5h0.3c0.3,0,0.5,0.1,0.7,0.3s0.3,0.4,0.3,0.7s-0.1,0.5-0.3,0.7s-0.4,0.3-0.7,0.3h-0.3
		c-0.3,0-0.5-0.1-0.7-0.3s-0.3-0.4-0.3-0.7s0.1-0.5,0.3-0.7C71.5,163.5,71.8,163.5,72.1,163.5z"/>
	<path class="st0" d="M85.6,169.5h-8.4c-0.1,0-0.3,0-0.3-0.1s-0.1-0.1-0.1-0.2s0-0.2,0.1-0.2c0.1-0.1,0.2-0.1,0.3-0.1h8.4
		c0.2,0,0.3,0,0.3,0.1c0.1,0.1,0.1,0.1,0.1,0.2s0,0.2-0.1,0.2S85.7,169.5,85.6,169.5z"/>
	<path class="st0" d="M94.8,169.5h-8.4c-0.1,0-0.3,0-0.3-0.1s-0.1-0.1-0.1-0.2s0-0.2,0.1-0.2c0.1-0.1,0.2-0.1,0.3-0.1h8.4
		c0.2,0,0.3,0,0.3,0.1c0.1,0.1,0.1,0.1,0.1,0.2s0,0.2-0.1,0.2S94.9,169.5,94.8,169.5z"/>
	<path class="st0" d="M104,169.5h-8.4c-0.1,0-0.3,0-0.3-0.1s-0.1-0.1-0.1-0.2s0-0.2,0.1-0.2c0.1-0.1,0.2-0.1,0.3-0.1h8.4
		c0.2,0,0.3,0,0.3,0.1c0.1,0.1,0.1,0.1,0.1,0.2s0,0.2-0.1,0.2S104.2,169.5,104,169.5z"/>
	<path class="st0" d="M113.2,169.5h-8.4c-0.1,0-0.3,0-0.3-0.1s-0.1-0.1-0.1-0.2s0-0.2,0.1-0.2c0.1-0.1,0.2-0.1,0.3-0.1h8.4
		c0.2,0,0.3,0,0.3,0.1c0.1,0.1,0.1,0.1,0.1,0.2s0,0.2-0.1,0.2S113.4,169.5,113.2,169.5z"/>
	<path class="st0" d="M122.4,169.5H114c-0.1,0-0.3,0-0.3-0.1s-0.1-0.1-0.1-0.2s0-0.2,0.1-0.2c0.1-0.1,0.2-0.1,0.3-0.1h8.4
		c0.2,0,0.3,0,0.3,0.1c0.1,0.1,0.1,0.1,0.1,0.2s0,0.2-0.1,0.2S122.6,169.5,122.4,169.5z"/>
	<path class="st0" d="M127.3,163.5h0.3c0.3,0,0.5,0.1,0.7,0.3s0.3,0.4,0.3,0.7s-0.1,0.5-0.3,0.7s-0.4,0.3-0.7,0.3h-0.3
		c-0.3,0-0.5-0.1-0.7-0.3s-0.3-0.4-0.3-0.7s0.1-0.5,0.3-0.7C126.8,163.5,127,163.5,127.3,163.5z"/>
</g>
</svg>
