<?xml version="1.0" encoding="utf-8"?>
<!-- Generator: Adobe Illustrator 25.2.3, SVG Export Plug-In . SVG Version: 6.00 Build 0)  -->
<svg version="1.1" id="Layer_1" xmlns="http://www.w3.org/2000/svg" xmlns:xlink="http://www.w3.org/1999/xlink" x="0px" y="0px"
	 viewBox="0 0 907 69" style="enable-background:new 0 0 907 69;" xml:space="preserve">
<style type="text/css">
	.st0{fill:#FFFFFF;stroke:#FFFFFF;stroke-width:2;stroke-miterlimit:10;}
	.st1{fill:#FFFFFF;stroke:#FFFFFF;stroke-width:1.5;stroke-miterlimit:10;}
</style>
<g>
	<path class="st1" d="M14.5,12.1H8.4c-0.3,0-0.5-0.1-0.6-0.2c-0.1-0.1-0.2-0.2-0.2-0.4s0.1-0.3,0.2-0.4S8.1,11,8.4,11h6.1
		c0.3,0,0.5,0.1,0.6,0.2s0.2,0.2,0.2,0.4c0,0.2-0.1,0.3-0.2,0.4C15,12.1,14.8,12.1,14.5,12.1z"/>
	<path class="st1" d="M21.2,12.1h-6.1c-0.3,0-0.5-0.1-0.6-0.2c-0.1-0.1-0.2-0.2-0.2-0.4s0.1-0.3,0.2-0.4s0.3-0.2,0.6-0.2h6.1
		c0.3,0,0.5,0.1,0.6,0.2s0.2,0.2,0.2,0.4c0,0.2-0.1,0.3-0.2,0.4C21.6,12.1,21.4,12.1,21.2,12.1z"/>
	<path class="st1" d="M27.8,12.1h-6.1c-0.3,0-0.5-0.1-0.6-0.2C21,11.9,21,11.7,21,11.6s0.1-0.3,0.2-0.4s0.3-0.2,0.6-0.2h6.1
		c0.3,0,0.5,0.1,0.6,0.2s0.2,0.2,0.2,0.4c0,0.2-0.1,0.3-0.2,0.4C28.3,12.1,28.1,12.1,27.8,12.1z"/>
	<path class="st1" d="M34.5,12.1h-6.1c-0.3,0-0.5-0.1-0.6-0.2c-0.1-0.1-0.2-0.2-0.2-0.4s0.1-0.3,0.2-0.4s0.3-0.2,0.6-0.2h6.1
		c0.3,0,0.5,0.1,0.6,0.2c0.1,0.1,0.2,0.2,0.2,0.4c0,0.2-0.1,0.3-0.2,0.4C35,12.1,34.8,12.1,34.5,12.1z"/>
	<path class="st1" d="M41.2,12.1h-6.1c-0.3,0-0.5-0.1-0.6-0.2c-0.1-0.1-0.2-0.2-0.2-0.4s0.1-0.3,0.2-0.4c0.1-0.1,0.3-0.2,0.6-0.2
		h6.1c0.3,0,0.5,0.1,0.6,0.2c0.1,0.1,0.2,0.2,0.2,0.4c0,0.2-0.1,0.3-0.2,0.4C41.6,12.1,41.4,12.1,41.2,12.1z"/>
	<path class="st1" d="M47.8,12.1h-6.1c-0.3,0-0.5-0.1-0.6-0.2C41,11.9,41,11.7,41,11.6s0.1-0.3,0.2-0.4c0.1-0.1,0.3-0.2,0.6-0.2h6.1
		c0.3,0,0.5,0.1,0.6,0.2c0.1,0.1,0.2,0.2,0.2,0.4c0,0.2-0.1,0.3-0.2,0.4C48.3,12.1,48.1,12.1,47.8,12.1z"/>
	<path class="st1" d="M54.5,12.1h-6.1c-0.3,0-0.5-0.1-0.6-0.2c-0.1-0.1-0.2-0.2-0.2-0.4s0.1-0.3,0.2-0.4c0.1-0.1,0.3-0.2,0.6-0.2
		h6.1c0.3,0,0.5,0.1,0.6,0.2c0.1,0.1,0.2,0.2,0.2,0.4c0,0.2-0.1,0.3-0.2,0.4C55,12.1,54.8,12.1,54.5,12.1z"/>
	<path class="st1" d="M67.8,12.1h-6.1c-0.3,0-0.5-0.1-0.6-0.2C61,11.9,61,11.7,61,11.6s0.1-0.3,0.2-0.4c0.1-0.1,0.3-0.2,0.6-0.2h6.1
		c0.3,0,0.5,0.1,0.6,0.2c0.1,0.1,0.2,0.2,0.2,0.4c0,0.2-0.1,0.3-0.2,0.4C68.3,12.1,68.1,12.1,67.8,12.1z"/>
	<path class="st1" d="M74.5,12.1h-6.1c-0.3,0-0.5-0.1-0.6-0.2c-0.1-0.1-0.2-0.2-0.2-0.4s0.1-0.3,0.2-0.4c0.1-0.1,0.3-0.2,0.6-0.2
		h6.1c0.3,0,0.5,0.1,0.6,0.2c0.1,0.1,0.2,0.2,0.2,0.4c0,0.2-0.1,0.3-0.2,0.4C74.9,12.1,74.8,12.1,74.5,12.1z"/>
	<path class="st1" d="M94.5,12.1h-6.1c-0.3,0-0.5-0.1-0.6-0.2c-0.1-0.1-0.2-0.2-0.2-0.4s0.1-0.3,0.2-0.4s0.3-0.2,0.6-0.2h6.1
		c0.3,0,0.5,0.1,0.6,0.2s0.2,0.2,0.2,0.4c0,0.2-0.1,0.3-0.2,0.4C94.9,12.1,94.8,12.1,94.5,12.1z"/>
	<path class="st1" d="M101.2,12.1H95c-0.3,0-0.5-0.1-0.6-0.2c-0.1-0.1-0.2-0.2-0.2-0.4s0.1-0.3,0.2-0.4S94.8,11,95,11h6.1
		c0.3,0,0.5,0.1,0.6,0.2s0.2,0.2,0.2,0.4c0,0.2-0.1,0.3-0.2,0.4C101.6,12.1,101.4,12.1,101.2,12.1z"/>
	<path class="st1" d="M112.3,8.2c0,0.2-0.1,0.4-0.2,0.5c-0.1,0.1-0.4,0.2-0.6,0.2s-0.5-0.1-0.6-0.2c-0.1-0.1-0.2-0.3-0.2-0.5
		c0-0.2,0.1-0.4,0.2-0.5c0.1-0.1,0.4-0.2,0.6-0.2s0.5,0.1,0.6,0.2S112.3,8,112.3,8.2z"/>
	<path class="st1" d="M121.2,12.1H115c-0.3,0-0.5-0.1-0.6-0.2c-0.1-0.1-0.2-0.2-0.2-0.4s0.1-0.3,0.2-0.4c0.1-0.1,0.3-0.2,0.6-0.2
		h6.1c0.3,0,0.5,0.1,0.6,0.2c0.1,0.1,0.2,0.2,0.2,0.4c0,0.2-0.1,0.3-0.2,0.4C121.6,12.1,121.4,12.1,121.2,12.1z"/>
	<path class="st1" d="M127.8,12.1h-6.1c-0.3,0-0.5-0.1-0.6-0.2c-0.1-0.1-0.2-0.2-0.2-0.4s0.1-0.3,0.2-0.4c0.1-0.1,0.3-0.2,0.6-0.2
		h6.1c0.3,0,0.5,0.1,0.6,0.2c0.1,0.1,0.2,0.2,0.2,0.4c0,0.2-0.1,0.3-0.2,0.4C128.3,12.1,128.1,12.1,127.8,12.1z"/>
	<path class="st1" d="M134.5,12.1h-6.1c-0.3,0-0.5-0.1-0.6-0.2c-0.1-0.1-0.2-0.2-0.2-0.4s0.1-0.3,0.2-0.4c0.1-0.1,0.3-0.2,0.6-0.2
		h6.1c0.3,0,0.5,0.1,0.6,0.2c0.1,0.1,0.2,0.2,0.2,0.4c0,0.2-0.1,0.3-0.2,0.4C134.9,12.1,134.8,12.1,134.5,12.1z"/>
	<path class="st1" d="M141.2,12.1H135c-0.3,0-0.5-0.1-0.6-0.2c-0.1-0.1-0.2-0.2-0.2-0.4s0.1-0.3,0.2-0.4c0.1-0.1,0.3-0.2,0.6-0.2
		h6.1c0.3,0,0.5,0.1,0.6,0.2c0.1,0.1,0.2,0.2,0.2,0.4c0,0.2-0.1,0.3-0.2,0.4C141.6,12.1,141.4,12.1,141.2,12.1z"/>
	<path class="st1" d="M207.8,12.1h-6.1c-0.3,0-0.5-0.1-0.6-0.2c-0.1-0.1-0.2-0.2-0.2-0.4s0.1-0.3,0.2-0.4s0.3-0.2,0.6-0.2h6.1
		c0.3,0,0.5,0.1,0.6,0.2s0.2,0.2,0.2,0.4c0,0.2-0.1,0.3-0.2,0.4C208.3,12.1,208.1,12.1,207.8,12.1z"/>
	<path class="st1" d="M214.5,12.1h-6.1c-0.3,0-0.5-0.1-0.6-0.2c-0.1-0.1-0.2-0.2-0.2-0.4s0.1-0.3,0.2-0.4s0.3-0.2,0.6-0.2h6.1
		c0.3,0,0.5,0.1,0.6,0.2s0.2,0.2,0.2,0.4c0,0.2-0.1,0.3-0.2,0.4C214.9,12.1,214.7,12.1,214.5,12.1z"/>
	<path class="st1" d="M221.1,12.1H215c-0.3,0-0.5-0.1-0.6-0.2c-0.1-0.1-0.2-0.2-0.2-0.4s0.1-0.3,0.2-0.4s0.3-0.2,0.6-0.2h6.1
		c0.3,0,0.5,0.1,0.6,0.2c0.1,0.1,0.2,0.2,0.2,0.4c0,0.2-0.1,0.3-0.2,0.4C221.6,12.1,221.4,12.1,221.1,12.1z"/>
	<path class="st1" d="M227.8,12.1h-6.1c-0.3,0-0.5-0.1-0.6-0.2c-0.1-0.1-0.2-0.2-0.2-0.4s0.1-0.3,0.2-0.4c0.1-0.1,0.3-0.2,0.6-0.2
		h6.1c0.3,0,0.5,0.1,0.6,0.2c0.1,0.1,0.2,0.2,0.2,0.4c0,0.2-0.1,0.3-0.2,0.4C228.3,12.1,228.1,12.1,227.8,12.1z"/>
	<path class="st1" d="M234.5,12.1h-6.1c-0.3,0-0.5-0.1-0.6-0.2c-0.1-0.1-0.2-0.2-0.2-0.4s0.1-0.3,0.2-0.4c0.1-0.1,0.3-0.2,0.6-0.2
		h6.1c0.3,0,0.5,0.1,0.6,0.2c0.1,0.1,0.2,0.2,0.2,0.4c0,0.2-0.1,0.3-0.2,0.4C234.9,12.1,234.7,12.1,234.5,12.1z"/>
	<path class="st1" d="M245.6,8.2c0,0.2-0.1,0.4-0.2,0.5C245.2,8.9,245,9,244.7,9s-0.5-0.1-0.6-0.2c-0.1-0.1-0.2-0.3-0.2-0.5
		c0-0.2,0.1-0.4,0.2-0.5s0.4-0.2,0.6-0.2s0.5,0.1,0.6,0.2S245.6,8,245.6,8.2z"/>
	<path class="st1" d="M285.6,8.2c0,0.2-0.1,0.4-0.2,0.5C285.2,8.9,285,9,284.7,9s-0.5-0.1-0.6-0.2c-0.1-0.1-0.2-0.3-0.2-0.5
		c0-0.2,0.1-0.4,0.2-0.5s0.4-0.2,0.6-0.2s0.5,0.1,0.6,0.2C285.5,7.8,285.6,8,285.6,8.2z"/>
	<path class="st1" d="M301.1,12.1H295c-0.3,0-0.5-0.1-0.6-0.2c-0.1-0.1-0.2-0.2-0.2-0.4s0.1-0.3,0.2-0.4c0.1-0.1,0.3-0.2,0.6-0.2
		h6.1c0.3,0,0.5,0.1,0.6,0.2c0.1,0.1,0.2,0.2,0.2,0.4c0,0.2-0.1,0.3-0.2,0.4C301.6,12.1,301.4,12.1,301.1,12.1z"/>
	<path class="st1" d="M307.8,12.1h-6.1c-0.3,0-0.5-0.1-0.6-0.2c-0.1-0.1-0.2-0.2-0.2-0.4s0.1-0.3,0.2-0.4c0.1-0.1,0.3-0.2,0.6-0.2
		h6.1c0.3,0,0.5,0.1,0.6,0.2c0.1,0.1,0.2,0.2,0.2,0.4c0,0.2-0.1,0.3-0.2,0.4C308.3,12.1,308.1,12.1,307.8,12.1z"/>
	<path class="st1" d="M334.5,12.1h-6.1c-0.3,0-0.5-0.1-0.6-0.2c-0.1-0.1-0.2-0.2-0.2-0.4s0.1-0.3,0.2-0.4c0.1-0.1,0.3-0.2,0.6-0.2
		h6.1c0.3,0,0.5,0.1,0.6,0.2c0.1,0.1,0.2,0.2,0.2,0.4c0,0.2-0.1,0.3-0.2,0.4C334.9,12.1,334.7,12.1,334.5,12.1z"/>
	<path class="st1" d="M341.1,12.1H335c-0.3,0-0.5-0.1-0.6-0.2c-0.1-0.1-0.2-0.2-0.2-0.4s0.1-0.3,0.2-0.4c0.1-0.1,0.3-0.2,0.6-0.2
		h6.1c0.3,0,0.5,0.1,0.6,0.2c0.1,0.1,0.2,0.2,0.2,0.4c0,0.2-0.1,0.3-0.2,0.4C341.6,12.1,341.4,12.1,341.1,12.1z"/>
	<path class="st1" d="M354.5,12.1h-6.1c-0.3,0-0.5-0.1-0.6-0.2c-0.1-0.1-0.2-0.2-0.2-0.4s0.1-0.3,0.2-0.4c0.1-0.1,0.3-0.2,0.6-0.2
		h6.1c0.3,0,0.5,0.1,0.6,0.2c0.1,0.1,0.2,0.2,0.2,0.4c0,0.2-0.1,0.3-0.2,0.4C354.9,12.1,354.7,12.1,354.5,12.1z"/>
	<path class="st1" d="M361.1,12.1H355c-0.3,0-0.5-0.1-0.6-0.2c-0.1-0.1-0.2-0.2-0.2-0.4s0.1-0.3,0.2-0.4c0.1-0.1,0.3-0.2,0.6-0.2
		h6.1c0.3,0,0.5,0.1,0.6,0.2c0.1,0.1,0.2,0.2,0.2,0.4c0,0.2-0.1,0.3-0.2,0.4C361.6,12.1,361.4,12.1,361.1,12.1z"/>
	<path class="st1" d="M387.8,12.1h-6.1c-0.3,0-0.5-0.1-0.6-0.2c-0.1-0.1-0.2-0.2-0.2-0.4s0.1-0.3,0.2-0.4c0.1-0.1,0.3-0.2,0.6-0.2
		h6.1c0.3,0,0.5,0.1,0.6,0.2c0.1,0.1,0.2,0.2,0.2,0.4c0,0.2-0.1,0.3-0.2,0.4C388.2,12.1,388.1,12.1,387.8,12.1z"/>
	<path class="st1" d="M394.5,12.1h-6.1c-0.3,0-0.5-0.1-0.6-0.2c-0.1-0.1-0.2-0.2-0.2-0.4s0.1-0.3,0.2-0.4c0.1-0.1,0.3-0.2,0.6-0.2
		h6.1c0.3,0,0.5,0.1,0.6,0.2c0.1,0.1,0.2,0.2,0.2,0.4c0,0.2-0.1,0.3-0.2,0.4C394.9,12.1,394.7,12.1,394.5,12.1z"/>
	<path class="st1" d="M407.8,12.1h-6.1c-0.3,0-0.5-0.1-0.6-0.2c-0.1-0.1-0.2-0.2-0.2-0.4s0.1-0.3,0.2-0.4c0.1-0.1,0.3-0.2,0.6-0.2
		h6.1c0.3,0,0.5,0.1,0.6,0.2c0.1,0.1,0.2,0.2,0.2,0.4c0,0.2-0.1,0.3-0.2,0.4C408.2,12.1,408.1,12.1,407.8,12.1z"/>
	<path class="st1" d="M427.8,12.1h-6.1c-0.3,0-0.5-0.1-0.6-0.2c-0.1-0.1-0.2-0.2-0.2-0.4s0.1-0.3,0.2-0.4c0.1-0.1,0.3-0.2,0.6-0.2
		h6.1c0.3,0,0.5,0.1,0.6,0.2s0.2,0.2,0.2,0.4c0,0.2-0.1,0.3-0.2,0.4C428.2,12.1,428.1,12.1,427.8,12.1z"/>
	<path class="st1" d="M434.5,12.1h-6.1c-0.3,0-0.5-0.1-0.6-0.2c-0.1-0.1-0.2-0.2-0.2-0.4s0.1-0.3,0.2-0.4s0.3-0.2,0.6-0.2h6.1
		c0.3,0,0.5,0.1,0.6,0.2s0.2,0.2,0.2,0.4c0,0.2-0.1,0.3-0.2,0.4C434.9,12.1,434.7,12.1,434.5,12.1z"/>
	<path class="st1" d="M441.1,12.1H435c-0.3,0-0.5-0.1-0.6-0.2c-0.1-0.1-0.2-0.2-0.2-0.4s0.1-0.3,0.2-0.4s0.3-0.2,0.6-0.2h6.1
		c0.3,0,0.5,0.1,0.6,0.2s0.2,0.2,0.2,0.4c0,0.2-0.1,0.3-0.2,0.4C441.6,12.1,441.4,12.1,441.1,12.1z"/>
	<path class="st1" d="M447.8,12.1h-6.1c-0.3,0-0.5-0.1-0.6-0.2c-0.1-0.1-0.2-0.2-0.2-0.4s0.1-0.3,0.2-0.4s0.3-0.2,0.6-0.2h6.1
		c0.3,0,0.5,0.1,0.6,0.2s0.2,0.2,0.2,0.4c0,0.2-0.1,0.3-0.2,0.4C448.2,12.1,448.1,12.1,447.8,12.1z"/>
	<path class="st1" d="M454.5,12.1h-6.1c-0.3,0-0.5-0.1-0.6-0.2c-0.1-0.1-0.2-0.2-0.2-0.4s0.1-0.3,0.2-0.4s0.3-0.2,0.6-0.2h6.1
		c0.3,0,0.5,0.1,0.6,0.2s0.2,0.2,0.2,0.4c0,0.2-0.1,0.3-0.2,0.4C454.9,12.1,454.7,12.1,454.5,12.1z"/>
	<path class="st1" d="M461.1,12.1H455c-0.3,0-0.5-0.1-0.6-0.2c-0.1-0.1-0.2-0.2-0.2-0.4s0.1-0.3,0.2-0.4s0.3-0.2,0.6-0.2h6.1
		c0.3,0,0.5,0.1,0.6,0.2s0.2,0.2,0.2,0.4c0,0.2-0.1,0.3-0.2,0.4C461.6,12.1,461.4,12.1,461.1,12.1z"/>
	<path class="st1" d="M467.8,12.1h-6.1c-0.3,0-0.5-0.1-0.6-0.2c-0.1-0.1-0.2-0.2-0.2-0.4s0.1-0.3,0.2-0.4s0.3-0.2,0.6-0.2h6.1
		c0.3,0,0.5,0.1,0.6,0.2s0.2,0.2,0.2,0.4c0,0.2-0.1,0.3-0.2,0.4C468.2,12.1,468,12.1,467.8,12.1z"/>
	<path class="st1" d="M512.2,8.2c0,0.2-0.1,0.4-0.2,0.5c-0.1,0.1-0.4,0.2-0.6,0.2s-0.5-0.1-0.6-0.2c-0.1-0.1-0.2-0.3-0.2-0.5
		c0-0.2,0.1-0.4,0.2-0.5c0.1-0.1,0.4-0.2,0.6-0.2s0.5,0.1,0.6,0.2S512.2,8,512.2,8.2z"/>
	<path class="st1" d="M567.8,12.1h-6.1c-0.3,0-0.5-0.1-0.6-0.2c-0.1-0.1-0.2-0.2-0.2-0.4s0.1-0.3,0.2-0.4s0.3-0.2,0.6-0.2h6.1
		c0.3,0,0.5,0.1,0.6,0.2s0.2,0.2,0.2,0.4c0,0.2-0.1,0.3-0.2,0.4C568.2,12.1,568,12.1,567.8,12.1z"/>
	<path class="st1" d="M574.4,12.1h-6.1c-0.3,0-0.5-0.1-0.6-0.2c-0.1-0.1-0.2-0.2-0.2-0.4s0.1-0.3,0.2-0.4s0.3-0.2,0.6-0.2h6.1
		c0.3,0,0.5,0.1,0.6,0.2s0.2,0.2,0.2,0.4c0,0.2-0.1,0.3-0.2,0.4C574.9,12.1,574.7,12.1,574.4,12.1z"/>
	<path class="st1" d="M585.5,8.2c0,0.2-0.1,0.4-0.2,0.5C585.2,8.9,585,9,584.7,9c-0.3,0-0.5-0.1-0.6-0.2c-0.1-0.1-0.2-0.3-0.2-0.5
		c0-0.2,0.1-0.4,0.2-0.5s0.4-0.2,0.6-0.2c0.3,0,0.5,0.1,0.6,0.2S585.5,8,585.5,8.2z"/>
	<path class="st1" d="M594.4,12.1h-6.1c-0.3,0-0.5-0.1-0.6-0.2c-0.1-0.1-0.2-0.2-0.2-0.4s0.1-0.3,0.2-0.4s0.3-0.2,0.6-0.2h6.1
		c0.3,0,0.5,0.1,0.6,0.2s0.2,0.2,0.2,0.4c0,0.2-0.1,0.3-0.2,0.4C594.9,12.1,594.7,12.1,594.4,12.1z"/>
	<path class="st1" d="M601.1,12.1H595c-0.3,0-0.5-0.1-0.6-0.2c-0.1-0.1-0.2-0.2-0.2-0.4s0.1-0.3,0.2-0.4s0.3-0.2,0.6-0.2h6.1
		c0.3,0,0.5,0.1,0.6,0.2s0.2,0.2,0.2,0.4c0,0.2-0.1,0.3-0.2,0.4C601.6,12.1,601.4,12.1,601.1,12.1z"/>
	<path class="st1" d="M607.8,12.1h-6.1c-0.3,0-0.5-0.1-0.6-0.2c-0.1-0.1-0.2-0.2-0.2-0.4s0.1-0.3,0.2-0.4s0.3-0.2,0.6-0.2h6.1
		c0.3,0,0.5,0.1,0.6,0.2s0.2,0.2,0.2,0.4c0,0.2-0.1,0.3-0.2,0.4C608.2,12.1,608,12.1,607.8,12.1z"/>
	<path class="st1" d="M614.4,12.1h-6.1c-0.3,0-0.5-0.1-0.6-0.2c-0.1-0.1-0.2-0.2-0.2-0.4s0.1-0.3,0.2-0.4s0.3-0.2,0.6-0.2h6.1
		c0.3,0,0.5,0.1,0.6,0.2s0.2,0.2,0.2,0.4c0,0.2-0.1,0.3-0.2,0.4C614.9,12.1,614.7,12.1,614.4,12.1z"/>
	<path class="st1" d="M665.5,8.2c0,0.2-0.1,0.4-0.2,0.5C665.2,8.9,665,9,664.7,9c-0.3,0-0.5-0.1-0.6-0.2c-0.1-0.1-0.2-0.3-0.2-0.5
		c0-0.2,0.1-0.4,0.2-0.5s0.4-0.2,0.6-0.2c0.3,0,0.5,0.1,0.6,0.2S665.5,8,665.5,8.2z"/>
	<path class="st1" d="M721.1,12.1H715c-0.3,0-0.5-0.1-0.6-0.2c-0.1-0.1-0.2-0.2-0.2-0.4s0.1-0.3,0.2-0.4c0.1-0.1,0.3-0.2,0.6-0.2
		h6.1c0.3,0,0.5,0.1,0.6,0.2c0.1,0.1,0.2,0.2,0.2,0.4c0,0.2-0.1,0.3-0.2,0.4C721.5,12.1,721.4,12.1,721.1,12.1z"/>
	<path class="st1" d="M727.8,12.1h-6.1c-0.3,0-0.5-0.1-0.6-0.2c-0.1-0.1-0.2-0.2-0.2-0.4s0.1-0.3,0.2-0.4s0.3-0.2,0.6-0.2h6.1
		c0.3,0,0.5,0.1,0.6,0.2s0.2,0.2,0.2,0.4c0,0.2-0.1,0.3-0.2,0.4C728.2,12.1,728,12.1,727.8,12.1z"/>
	<path class="st1" d="M765.5,8.2c0,0.2-0.1,0.4-0.2,0.5c-0.1,0.1-0.4,0.2-0.6,0.2c-0.3,0-0.5-0.1-0.6-0.2c-0.1-0.1-0.2-0.3-0.2-0.5
		c0-0.2,0.1-0.4,0.2-0.5s0.4-0.2,0.6-0.2c0.3,0,0.5,0.1,0.6,0.2S765.5,8,765.5,8.2z"/>
	<path class="st1" d="M801.1,12.1H795c-0.3,0-0.5-0.1-0.6-0.2c-0.1-0.1-0.2-0.2-0.2-0.4s0.1-0.3,0.2-0.4s0.3-0.2,0.6-0.2h6.1
		c0.3,0,0.5,0.1,0.6,0.2s0.2,0.2,0.2,0.4c0,0.2-0.1,0.3-0.2,0.4C801.5,12.1,801.3,12.1,801.1,12.1z"/>
	<path class="st1" d="M807.7,12.1h-6.1c-0.3,0-0.5-0.1-0.6-0.2c-0.1-0.1-0.2-0.2-0.2-0.4s0.1-0.3,0.2-0.4s0.3-0.2,0.6-0.2h6.1
		c0.3,0,0.5,0.1,0.6,0.2s0.2,0.2,0.2,0.4c0,0.2-0.1,0.3-0.2,0.4C808.2,12.1,808,12.1,807.7,12.1z"/>
	<path class="st1" d="M841.1,12.1H835c-0.3,0-0.5-0.1-0.6-0.2c-0.1-0.1-0.2-0.2-0.2-0.4s0.1-0.3,0.2-0.4s0.3-0.2,0.6-0.2h6.1
		c0.3,0,0.5,0.1,0.6,0.2s0.2,0.2,0.2,0.4c0,0.2-0.1,0.3-0.2,0.4C841.5,12.1,841.3,12.1,841.1,12.1z"/>
	<path class="st1" d="M861.1,12.1H855c-0.3,0-0.5-0.1-0.6-0.2c-0.1-0.1-0.2-0.2-0.2-0.4s0.1-0.3,0.2-0.4c0.1-0.1,0.3-0.2,0.6-0.2
		h6.1c0.3,0,0.5,0.1,0.6,0.2c0.1,0.1,0.2,0.2,0.2,0.4c0,0.2-0.1,0.3-0.2,0.4C861.5,12.1,861.3,12.1,861.1,12.1z"/>
	<path class="st1" d="M867.7,12.1h-6.1c-0.3,0-0.5-0.1-0.6-0.2c-0.1-0.1-0.2-0.2-0.2-0.4s0.1-0.3,0.2-0.4s0.3-0.2,0.6-0.2h6.1
		c0.3,0,0.5,0.1,0.6,0.2s0.2,0.2,0.2,0.4c0,0.2-0.1,0.3-0.2,0.4C868.2,12.1,868,12.1,867.7,12.1z"/>
	<path class="st1" d="M874.4,12.1h-6.1c-0.3,0-0.5-0.1-0.6-0.2c-0.1-0.1-0.2-0.2-0.2-0.4s0.1-0.3,0.2-0.4c0.1-0.1,0.3-0.2,0.6-0.2
		h6.1c0.3,0,0.5,0.1,0.6,0.2c0.1,0.1,0.2,0.2,0.2,0.4c0,0.2-0.1,0.3-0.2,0.4C874.9,12.1,874.7,12.1,874.4,12.1z"/>
	<path class="st1" d="M881.1,12.1H875c-0.3,0-0.5-0.1-0.6-0.2c-0.1-0.1-0.2-0.2-0.2-0.4s0.1-0.3,0.2-0.4s0.3-0.2,0.6-0.2h6.1
		c0.3,0,0.5,0.1,0.6,0.2s0.2,0.2,0.2,0.4c0,0.2-0.1,0.3-0.2,0.4C881.5,12.1,881.3,12.1,881.1,12.1z"/>
	<path class="st1" d="M887.7,12.1h-6.1c-0.3,0-0.5-0.1-0.6-0.2c-0.1-0.1-0.2-0.2-0.2-0.4s0.1-0.3,0.2-0.4c0.1-0.1,0.3-0.2,0.6-0.2
		h6.1c0.3,0,0.5,0.1,0.6,0.2c0.1,0.1,0.2,0.2,0.2,0.4c0,0.2-0.1,0.3-0.2,0.4C888.2,12.1,888,12.1,887.7,12.1z"/>
	<path class="st1" d="M894.4,12.1h-6.1c-0.3,0-0.5-0.1-0.6-0.2c-0.1-0.1-0.2-0.2-0.2-0.4s0.1-0.3,0.2-0.4s0.3-0.2,0.6-0.2h6.1
		c0.3,0,0.5,0.1,0.6,0.2s0.2,0.2,0.2,0.4c0,0.2-0.1,0.3-0.2,0.4C894.9,12.1,894.7,12.1,894.4,12.1z"/>
	<path class="st1" d="M901.1,12.1H895c-0.3,0-0.5-0.1-0.6-0.2c-0.1-0.1-0.2-0.2-0.2-0.4s0.1-0.3,0.2-0.4c0.1-0.1,0.3-0.2,0.6-0.2
		h6.1c0.3,0,0.5,0.1,0.6,0.2c0.1,0.1,0.2,0.2,0.2,0.4c0,0.2-0.1,0.3-0.2,0.4C901.5,12.1,901.3,12.1,901.1,12.1z"/>
	<path class="st1" d="M4,15h1.4l-0.4,2.9c0,0.2-0.1,0.3-0.1,0.3c-0.1,0.1-0.1,0.1-0.2,0.1c-0.1,0-0.2,0-0.2-0.1
		c-0.1-0.1-0.1-0.2-0.1-0.3L4,15z"/>
	<path class="st1" d="M33.7,14.9l-3.6,7.7c-0.1,0.2-0.2,0.3-0.2,0.4C29.8,23,29.7,23,29.6,23c-0.2,0-0.3-0.1-0.4-0.2
		S29,22.6,29,22.5c0-0.1,0-0.2,0.1-0.4l3.6-7.7c0.1-0.2,0.2-0.3,0.2-0.4c0.1-0.1,0.2-0.1,0.3-0.1c0.2,0,0.3,0.1,0.4,0.2
		c0.1,0.1,0.2,0.2,0.2,0.4C33.8,14.5,33.8,14.7,33.7,14.9z"/>
	<path class="st1" d="M65.3,15.8v6.6c0,0.4,0,0.6,0,0.7c0,0.1-0.1,0.2-0.2,0.3c-0.1,0.1-0.2,0.1-0.3,0.1c-0.1,0-0.2,0-0.3-0.1
		c-0.1-0.1-0.2-0.2-0.2-0.3c0-0.1,0-0.3,0-0.7v-6.6c0-0.4,0-0.6,0-0.7c0-0.1,0.1-0.2,0.2-0.3c0.1-0.1,0.2-0.1,0.3-0.1
		c0.1,0,0.2,0,0.3,0.1c0.1,0.1,0.2,0.2,0.2,0.3C65.3,15.2,65.3,15.4,65.3,15.8z"/>
	<path class="st1" d="M92,15.8v6.6c0,0.4,0,0.6,0,0.7c0,0.1-0.1,0.2-0.2,0.3c-0.1,0.1-0.2,0.1-0.3,0.1c-0.1,0-0.2,0-0.3-0.1
		c-0.1-0.1-0.2-0.2-0.2-0.3c0-0.1,0-0.3,0-0.7v-6.6c0-0.4,0-0.6,0-0.7c0-0.1,0.1-0.2,0.2-0.3c0.1-0.1,0.2-0.1,0.3-0.1
		c0.1,0,0.2,0,0.3,0.1c0.1,0.1,0.2,0.2,0.2,0.3C92,15.2,92,15.4,92,15.8z"/>
	<path class="st1" d="M113.7,14.9l-3.6,7.7c-0.1,0.2-0.2,0.3-0.2,0.4c-0.1,0.1-0.2,0.1-0.3,0.1c-0.2,0-0.3-0.1-0.4-0.2
		s-0.2-0.2-0.2-0.4c0-0.1,0-0.2,0.1-0.4l3.6-7.7c0.1-0.2,0.2-0.3,0.2-0.4c0.1-0.1,0.2-0.1,0.3-0.1c0.2,0,0.3,0.1,0.4,0.2
		c0.1,0.1,0.2,0.2,0.2,0.4C113.8,14.5,113.8,14.7,113.7,14.9z"/>
	<path class="st1" d="M197.7,19c0-0.6,0.1-1.3,0.3-1.9c0.2-0.5,0.4-1,0.7-1.6c0.2-0.4,0.4-0.7,0.5-0.8c0.1-0.1,0.2-0.1,0.4-0.1
		c0.2,0,0.3,0.1,0.4,0.2c0.1,0.1,0.2,0.2,0.2,0.4c0,0.1,0,0.2-0.1,0.4c-0.4,0.6-0.7,1.2-0.9,1.8c-0.2,0.6-0.3,1.1-0.3,1.7
		c0,0.6,0.1,1.1,0.3,1.7c0.2,0.6,0.5,1.2,0.9,1.8c0.1,0.1,0.1,0.3,0.1,0.4c0,0.2-0.1,0.3-0.2,0.4s-0.2,0.2-0.4,0.2
		c-0.1,0-0.3,0-0.4-0.1c-0.1-0.1-0.3-0.4-0.6-0.9c-0.3-0.6-0.6-1.2-0.7-1.6C197.8,20.3,197.7,19.7,197.7,19z"/>
	<path class="st1" d="M247,14.9l-3.6,7.7c-0.1,0.2-0.2,0.3-0.2,0.4c-0.1,0.1-0.2,0.1-0.3,0.1c-0.2,0-0.3-0.1-0.4-0.2
		c-0.1-0.1-0.2-0.2-0.2-0.4c0-0.1,0-0.2,0.1-0.4l3.6-7.7c0.1-0.2,0.2-0.3,0.2-0.4c0.1-0.1,0.2-0.1,0.3-0.1c0.2,0,0.3,0.1,0.4,0.2
		c0.1,0.1,0.2,0.2,0.2,0.4C247.1,14.5,247.1,14.7,247,14.9z"/>
	<path class="st1" d="M287,14.9l-3.6,7.7c-0.1,0.2-0.2,0.3-0.2,0.4c-0.1,0.1-0.2,0.1-0.3,0.1c-0.2,0-0.3-0.1-0.4-0.2
		s-0.2-0.2-0.2-0.4c0-0.1,0-0.2,0.1-0.4l3.6-7.7c0.1-0.2,0.2-0.3,0.2-0.4c0.1-0.1,0.2-0.1,0.3-0.1c0.2,0,0.3,0.1,0.4,0.2
		c0.1,0.1,0.2,0.2,0.2,0.4C287.1,14.5,287.1,14.7,287,14.9z"/>
	<path class="st1" d="M298.6,15.8v6.6c0,0.4,0,0.6,0,0.7c0,0.1-0.1,0.2-0.2,0.3c-0.1,0.1-0.2,0.1-0.3,0.1c-0.1,0-0.2,0-0.3-0.1
		c-0.1-0.1-0.2-0.2-0.2-0.3c0-0.1,0-0.3,0-0.7v-6.6c0-0.4,0-0.6,0-0.7c0-0.1,0.1-0.2,0.2-0.3c0.1-0.1,0.2-0.1,0.3-0.1
		c0.1,0,0.2,0,0.3,0.1c0.1,0.1,0.2,0.2,0.2,0.3C298.6,15.2,298.6,15.4,298.6,15.8z"/>
	<path class="st1" d="M331.9,15.8v6.6c0,0.4,0,0.6,0,0.7c0,0.1-0.1,0.2-0.2,0.3c-0.1,0.1-0.2,0.1-0.3,0.1c-0.1,0-0.2,0-0.3-0.1
		c-0.1-0.1-0.2-0.2-0.2-0.3c0-0.1,0-0.3,0-0.7v-6.6c0-0.4,0-0.6,0-0.7c0-0.1,0.1-0.2,0.2-0.3c0.1-0.1,0.2-0.1,0.3-0.1
		c0.1,0,0.2,0,0.3,0.1c0.1,0.1,0.2,0.2,0.2,0.3C331.9,15.2,331.9,15.4,331.9,15.8z"/>
	<path class="st1" d="M351.9,15.8v6.6c0,0.4,0,0.6,0,0.7c0,0.1-0.1,0.2-0.2,0.3c-0.1,0.1-0.2,0.1-0.3,0.1c-0.1,0-0.2,0-0.3-0.1
		c-0.1-0.1-0.2-0.2-0.2-0.3c0-0.1,0-0.3,0-0.7v-6.6c0-0.4,0-0.6,0-0.7c0-0.1,0.1-0.2,0.2-0.3c0.1-0.1,0.2-0.1,0.3-0.1
		c0.1,0,0.2,0,0.3,0.1c0.1,0.1,0.2,0.2,0.2,0.3C351.9,15.2,351.9,15.4,351.9,15.8z"/>
	<path class="st1" d="M385.3,15.8v6.6c0,0.4,0,0.6,0,0.7c0,0.1-0.1,0.2-0.2,0.3c-0.1,0.1-0.2,0.1-0.3,0.1c-0.1,0-0.2,0-0.3-0.1
		s-0.2-0.2-0.2-0.3c0-0.1,0-0.3,0-0.7v-6.6c0-0.4,0-0.6,0-0.7c0-0.1,0.1-0.2,0.2-0.3s0.2-0.1,0.3-0.1c0.1,0,0.2,0,0.3,0.1
		c0.1,0.1,0.2,0.2,0.2,0.3C385.3,15.2,385.3,15.4,385.3,15.8z"/>
	<path class="st1" d="M405.3,15.8v6.6c0,0.4,0,0.6,0,0.7c0,0.1-0.1,0.2-0.2,0.3c-0.1,0.1-0.2,0.1-0.3,0.1c-0.1,0-0.2,0-0.3-0.1
		s-0.2-0.2-0.2-0.3c0-0.1,0-0.3,0-0.7v-6.6c0-0.4,0-0.6,0-0.7c0-0.1,0.1-0.2,0.2-0.3s0.2-0.1,0.3-0.1c0.1,0,0.2,0,0.3,0.1
		c0.1,0.1,0.2,0.2,0.2,0.3C405.3,15.2,405.3,15.4,405.3,15.8z"/>
	<path class="st1" d="M417.3,15h1.4l-0.4,2.9c0,0.2-0.1,0.3-0.1,0.3c-0.1,0.1-0.1,0.1-0.2,0.1c-0.1,0-0.2,0-0.2-0.1
		c-0.1-0.1-0.1-0.2-0.1-0.3L417.3,15z"/>
	<path class="st1" d="M447,14.9l-3.6,7.7c-0.1,0.2-0.2,0.3-0.2,0.4c-0.1,0.1-0.2,0.1-0.3,0.1c-0.2,0-0.3-0.1-0.4-0.2
		c-0.1-0.1-0.2-0.2-0.2-0.4c0-0.1,0-0.2,0.1-0.4l3.6-7.7c0.1-0.2,0.2-0.3,0.2-0.4c0.1-0.1,0.2-0.1,0.3-0.1c0.2,0,0.3,0.1,0.4,0.2
		c0.1,0.1,0.2,0.2,0.2,0.4C447.1,14.5,447.1,14.7,447,14.9z"/>
	<path class="st1" d="M513.7,14.9l-3.6,7.7c-0.1,0.2-0.2,0.3-0.2,0.4c-0.1,0.1-0.2,0.1-0.3,0.1c-0.2,0-0.3-0.1-0.4-0.2
		c-0.1-0.1-0.2-0.2-0.2-0.4c0-0.1,0-0.2,0.1-0.4l3.6-7.7c0.1-0.2,0.2-0.3,0.2-0.4c0.1-0.1,0.2-0.1,0.3-0.1c0.2,0,0.3,0.1,0.4,0.2
		c0.1,0.1,0.2,0.2,0.2,0.4C513.8,14.5,513.7,14.7,513.7,14.9z"/>
	<path class="st1" d="M565.3,15.8v6.6c0,0.4,0,0.6,0,0.7c0,0.1-0.1,0.2-0.2,0.3s-0.2,0.1-0.3,0.1c-0.1,0-0.2,0-0.3-0.1
		c-0.1-0.1-0.2-0.2-0.2-0.3c0-0.1,0-0.3,0-0.7v-6.6c0-0.4,0-0.6,0-0.7c0-0.1,0.1-0.2,0.2-0.3c0.1-0.1,0.2-0.1,0.3-0.1
		c0.1,0,0.2,0,0.3,0.1s0.2,0.2,0.2,0.3C565.2,15.2,565.3,15.4,565.3,15.8z"/>
	<path class="st1" d="M587,14.9l-3.6,7.7c-0.1,0.2-0.2,0.3-0.2,0.4c-0.1,0.1-0.2,0.1-0.3,0.1c-0.2,0-0.3-0.1-0.4-0.2
		s-0.2-0.2-0.2-0.4c0-0.1,0-0.2,0.1-0.4l3.6-7.7c0.1-0.2,0.2-0.3,0.2-0.4c0.1-0.1,0.2-0.1,0.3-0.1c0.2,0,0.3,0.1,0.4,0.2
		c0.1,0.1,0.2,0.2,0.2,0.4C587.1,14.5,587.1,14.7,587,14.9z"/>
	<path class="st1" d="M667,14.9l-3.6,7.7c-0.1,0.2-0.2,0.3-0.2,0.4c-0.1,0.1-0.2,0.1-0.3,0.1c-0.2,0-0.3-0.1-0.4-0.2
		s-0.2-0.2-0.2-0.4c0-0.1,0-0.2,0.1-0.4l3.6-7.7c0.1-0.2,0.2-0.3,0.2-0.4c0.1-0.1,0.2-0.1,0.3-0.1c0.2,0,0.3,0.1,0.4,0.2
		c0.1,0.1,0.2,0.2,0.2,0.4C667.1,14.5,667.1,14.7,667,14.9z"/>
	<path class="st1" d="M718.6,15.8v6.6c0,0.4,0,0.6,0,0.7c0,0.1-0.1,0.2-0.2,0.3s-0.2,0.1-0.3,0.1c-0.1,0-0.2,0-0.3-0.1
		s-0.2-0.2-0.2-0.3c0-0.1,0-0.3,0-0.7v-6.6c0-0.4,0-0.6,0-0.7c0-0.1,0.1-0.2,0.2-0.3s0.2-0.1,0.3-0.1c0.1,0,0.2,0,0.3,0.1
		s0.2,0.2,0.2,0.3C718.6,15.2,718.6,15.4,718.6,15.8z"/>
	<path class="st1" d="M760.3,14.9l-3.6,7.7c-0.1,0.2-0.2,0.3-0.2,0.4c-0.1,0.1-0.2,0.1-0.3,0.1c-0.2,0-0.3-0.1-0.4-0.2
		s-0.2-0.2-0.2-0.4c0-0.1,0-0.2,0.1-0.4l3.6-7.7c0.1-0.2,0.2-0.3,0.2-0.4c0.1-0.1,0.2-0.1,0.3-0.1c0.2,0,0.3,0.1,0.4,0.2
		c0.1,0.1,0.2,0.2,0.2,0.4C760.4,14.5,760.4,14.7,760.3,14.9z"/>
	<path class="st1" d="M765.2,15.8v6.6c0,0.4,0,0.6,0,0.7c0,0.1-0.1,0.2-0.2,0.3c-0.1,0.1-0.2,0.1-0.3,0.1c-0.1,0-0.2,0-0.3-0.1
		s-0.2-0.2-0.2-0.3c0-0.1,0-0.3,0-0.7v-6.6c0-0.4,0-0.6,0-0.7c0-0.1,0.1-0.2,0.2-0.3s0.2-0.1,0.3-0.1c0.1,0,0.2,0,0.3,0.1
		c0.1,0.1,0.2,0.2,0.2,0.3C765.2,15.2,765.2,15.4,765.2,15.8z"/>
	<path class="st1" d="M798.6,15.8v6.6c0,0.4,0,0.6,0,0.7c0,0.1-0.1,0.2-0.2,0.3s-0.2,0.1-0.3,0.1c-0.1,0-0.2,0-0.3-0.1
		c-0.1-0.1-0.2-0.2-0.2-0.3c0-0.1,0-0.3,0-0.7v-6.6c0-0.4,0-0.6,0-0.7c0-0.1,0.1-0.2,0.2-0.3c0.1-0.1,0.2-0.1,0.3-0.1
		c0.1,0,0.2,0,0.3,0.1s0.2,0.2,0.2,0.3C798.6,15.2,798.6,15.4,798.6,15.8z"/>
	<path class="st1" d="M803.4,14.4L807,22c0,0,0,0.1,0.1,0.3c0,0.1,0,0.1,0,0.2c0,0.1-0.1,0.2-0.2,0.3c-0.1,0.1-0.2,0.1-0.4,0.1
		c-0.1,0-0.3,0-0.3-0.1c-0.1-0.1-0.2-0.2-0.3-0.4l-3.6-7.7c-0.1-0.2-0.1-0.3-0.1-0.4c0-0.1,0.1-0.3,0.2-0.4s0.2-0.2,0.4-0.2
		c0.1,0,0.2,0,0.3,0.1C803.2,14.1,803.3,14.2,803.4,14.4z"/>
	<path class="st1" d="M831.9,15.8v6.6c0,0.4,0,0.6,0,0.7c0,0.1-0.1,0.2-0.2,0.3s-0.2,0.1-0.3,0.1c-0.1,0-0.2,0-0.3-0.1
		s-0.2-0.2-0.2-0.3c0-0.1,0-0.3,0-0.7v-6.6c0-0.4,0-0.6,0-0.7c0-0.1,0.1-0.2,0.2-0.3s0.2-0.1,0.3-0.1c0.1,0,0.2,0,0.3,0.1
		s0.2,0.2,0.2,0.3C831.9,15.2,831.9,15.4,831.9,15.8z"/>
	<path class="st1" d="M850.6,15h1.4l-0.4,2.9c0,0.2-0.1,0.3-0.1,0.3c-0.1,0.1-0.1,0.1-0.2,0.1c-0.1,0-0.2,0-0.2-0.1
		c-0.1-0.1-0.1-0.2-0.1-0.3L850.6,15z"/>
	<path class="st1" d="M880.3,14.9l-3.6,7.7c-0.1,0.2-0.2,0.3-0.2,0.4c-0.1,0.1-0.2,0.1-0.3,0.1c-0.2,0-0.3-0.1-0.4-0.2
		s-0.2-0.2-0.2-0.4c0-0.1,0-0.2,0.1-0.4l3.6-7.7c0.1-0.2,0.2-0.3,0.2-0.4c0.1-0.1,0.2-0.1,0.3-0.1c0.2,0,0.3,0.1,0.4,0.2
		c0.1,0.1,0.2,0.2,0.2,0.4C880.4,14.5,880.4,14.7,880.3,14.9z"/>
	<path class="st1" d="M32,28.8v6.6c0,0.4,0,0.6,0,0.7c0,0.1-0.1,0.2-0.2,0.3c-0.1,0.1-0.2,0.1-0.3,0.1c-0.1,0-0.2,0-0.3-0.1
		c-0.1-0.1-0.2-0.2-0.2-0.3c0-0.1,0-0.3,0-0.7v-6.6c0-0.4,0-0.6,0-0.7c0-0.1,0.1-0.2,0.2-0.3c0.1-0.1,0.2-0.1,0.3-0.1
		c0.1,0,0.2,0,0.3,0.1c0.1,0.1,0.2,0.2,0.2,0.3C32,28.2,32,28.4,32,28.8z"/>
	<path class="st1" d="M65.3,28.8v6.6c0,0.4,0,0.6,0,0.7c0,0.1-0.1,0.2-0.2,0.3c-0.1,0.1-0.2,0.1-0.3,0.1c-0.1,0-0.2,0-0.3-0.1
		c-0.1-0.1-0.2-0.2-0.2-0.3c0-0.1,0-0.3,0-0.7v-6.6c0-0.4,0-0.6,0-0.7c0-0.1,0.1-0.2,0.2-0.3c0.1-0.1,0.2-0.1,0.3-0.1
		c0.1,0,0.2,0,0.3,0.1c0.1,0.1,0.2,0.2,0.2,0.3C65.3,28.2,65.3,28.4,65.3,28.8z"/>
	<path class="st1" d="M74.5,38h-6.1c-0.3,0-0.5-0.1-0.6-0.2c-0.1-0.1-0.2-0.2-0.2-0.4c0-0.2,0.1-0.3,0.2-0.4
		c0.1-0.1,0.3-0.2,0.6-0.2h6.1c0.3,0,0.5,0.1,0.6,0.2c0.1,0.1,0.2,0.2,0.2,0.4c0,0.2-0.1,0.3-0.2,0.4S74.8,38,74.5,38z"/>
	<path class="st1" d="M81.2,38h-6.1c-0.3,0-0.5-0.1-0.6-0.2c-0.1-0.1-0.2-0.2-0.2-0.4c0-0.2,0.1-0.3,0.2-0.4
		c0.1-0.1,0.3-0.2,0.6-0.2h6.1c0.3,0,0.5,0.1,0.6,0.2s0.2,0.2,0.2,0.4c0,0.2-0.1,0.3-0.2,0.4C81.6,38,81.4,38,81.2,38z"/>
	<path class="st1" d="M87.8,38h-6.1c-0.3,0-0.5-0.1-0.6-0.2S81,37.7,81,37.5c0-0.2,0.1-0.3,0.2-0.4s0.3-0.2,0.6-0.2h6.1
		c0.3,0,0.5,0.1,0.6,0.2s0.2,0.2,0.2,0.4c0,0.2-0.1,0.3-0.2,0.4C88.3,38,88.1,38,87.8,38z"/>
	<path class="st1" d="M92,28.8v6.6c0,0.4,0,0.6,0,0.7c0,0.1-0.1,0.2-0.2,0.3c-0.1,0.1-0.2,0.1-0.3,0.1c-0.1,0-0.2,0-0.3-0.1
		c-0.1-0.1-0.2-0.2-0.2-0.3c0-0.1,0-0.3,0-0.7v-6.6c0-0.4,0-0.6,0-0.7c0-0.1,0.1-0.2,0.2-0.3c0.1-0.1,0.2-0.1,0.3-0.1
		c0.1,0,0.2,0,0.3,0.1c0.1,0.1,0.2,0.2,0.2,0.3C92,28.2,92,28.4,92,28.8z"/>
	<path class="st1" d="M112,28.8v6.6c0,0.4,0,0.6,0,0.7c0,0.1-0.1,0.2-0.2,0.3c-0.1,0.1-0.2,0.1-0.3,0.1c-0.1,0-0.2,0-0.3-0.1
		c-0.1-0.1-0.2-0.2-0.2-0.3c0-0.1,0-0.3,0-0.7v-6.6c0-0.4,0-0.6,0-0.7c0-0.1,0.1-0.2,0.2-0.3c0.1-0.1,0.2-0.1,0.3-0.1
		c0.1,0,0.2,0,0.3,0.1c0.1,0.1,0.2,0.2,0.2,0.3C112,28.2,112,28.4,112,28.8z"/>
	<path class="st1" d="M121.2,38H115c-0.3,0-0.5-0.1-0.6-0.2c-0.1-0.1-0.2-0.2-0.2-0.4c0-0.2,0.1-0.3,0.2-0.4
		c0.1-0.1,0.3-0.2,0.6-0.2h6.1c0.3,0,0.5,0.1,0.6,0.2c0.1,0.1,0.2,0.2,0.2,0.4c0,0.2-0.1,0.3-0.2,0.4S121.4,38,121.2,38z"/>
	<path class="st1" d="M127.8,38h-6.1c-0.3,0-0.5-0.1-0.6-0.2c-0.1-0.1-0.2-0.2-0.2-0.4c0-0.2,0.1-0.3,0.2-0.4
		c0.1-0.1,0.3-0.2,0.6-0.2h6.1c0.3,0,0.5,0.1,0.6,0.2c0.1,0.1,0.2,0.2,0.2,0.4c0,0.2-0.1,0.3-0.2,0.4C128.3,38,128.1,38,127.8,38z"
		/>
	<path class="st1" d="M132.3,34.1c0,0.2-0.1,0.4-0.2,0.5c-0.1,0.1-0.4,0.2-0.6,0.2s-0.5-0.1-0.6-0.2c-0.1-0.1-0.2-0.3-0.2-0.5
		c0-0.2,0.1-0.4,0.2-0.5c0.1-0.1,0.4-0.2,0.6-0.2s0.5,0.1,0.6,0.2C132.2,33.8,132.3,33.9,132.3,34.1z"/>
	<path class="st1" d="M204.4,27.4l1.2,1c0.1,0.1,0.2,0.2,0.2,0.3c0,0.1,0,0.2-0.1,0.3c-0.1,0.1-0.2,0.1-0.3,0.1
		c-0.1,0-0.2,0-0.3-0.1l-1.2-1c-0.1-0.1-0.2-0.2-0.2-0.3c0-0.1,0-0.2,0.1-0.3s0.2-0.1,0.3-0.1C204.1,27.3,204.2,27.3,204.4,27.4z"/>
	<path class="st1" d="M213.7,32.1h-4.6v-1h4.6V32.1z"/>
	<path class="st1" d="M220.4,32.1h-4.6v-1h4.6V32.1z"/>
	<path class="st1" d="M225.6,34.1c0,0.2-0.1,0.4-0.2,0.5c-0.1,0.1-0.4,0.2-0.6,0.2s-0.5-0.1-0.6-0.2c-0.1-0.1-0.2-0.3-0.2-0.5
		c0-0.2,0.1-0.4,0.2-0.5c0.1-0.1,0.4-0.2,0.6-0.2s0.5,0.1,0.6,0.2C225.5,33.8,225.6,33.9,225.6,34.1z"/>
	<path class="st1" d="M245.3,28.8v6.6c0,0.4,0,0.6,0,0.7c0,0.1-0.1,0.2-0.2,0.3c-0.1,0.1-0.2,0.1-0.3,0.1c-0.1,0-0.2,0-0.3-0.1
		c-0.1-0.1-0.2-0.2-0.2-0.3c0-0.1,0-0.3,0-0.7v-6.6c0-0.4,0-0.6,0-0.7c0-0.1,0.1-0.2,0.2-0.3c0.1-0.1,0.2-0.1,0.3-0.1
		c0.1,0,0.2,0,0.3,0.1c0.1,0.1,0.2,0.2,0.2,0.3C245.3,28.2,245.3,28.4,245.3,28.8z"/>
	<path class="st1" d="M285.3,28.8v6.6c0,0.4,0,0.6,0,0.7c0,0.1-0.1,0.2-0.2,0.3c-0.1,0.1-0.2,0.1-0.3,0.1c-0.1,0-0.2,0-0.3-0.1
		c-0.1-0.1-0.2-0.2-0.2-0.3c0-0.1,0-0.3,0-0.7v-6.6c0-0.4,0-0.6,0-0.7c0-0.1,0.1-0.2,0.2-0.3c0.1-0.1,0.2-0.1,0.3-0.1
		c0.1,0,0.2,0,0.3,0.1c0.1,0.1,0.2,0.2,0.2,0.3C285.3,28.2,285.3,28.4,285.3,28.8z"/>
	<path class="st1" d="M298.6,28.8v6.6c0,0.4,0,0.6,0,0.7c0,0.1-0.1,0.2-0.2,0.3c-0.1,0.1-0.2,0.1-0.3,0.1c-0.1,0-0.2,0-0.3-0.1
		c-0.1-0.1-0.2-0.2-0.2-0.3c0-0.1,0-0.3,0-0.7v-6.6c0-0.4,0-0.6,0-0.7c0-0.1,0.1-0.2,0.2-0.3c0.1-0.1,0.2-0.1,0.3-0.1
		c0.1,0,0.2,0,0.3,0.1c0.1,0.1,0.2,0.2,0.2,0.3C298.6,28.2,298.6,28.4,298.6,28.8z"/>
	<path class="st1" d="M303.4,27.3L307,35c0,0,0,0.1,0.1,0.3c0,0.1,0,0.1,0,0.2c0,0.1-0.1,0.2-0.2,0.3c-0.1,0.1-0.2,0.1-0.4,0.1
		c-0.1,0-0.3,0-0.3-0.1s-0.2-0.2-0.3-0.4l-3.6-7.7c-0.1-0.2-0.1-0.3-0.1-0.4c0-0.1,0.1-0.3,0.2-0.4c0.1-0.1,0.2-0.2,0.4-0.2
		c0.1,0,0.2,0,0.3,0.1S303.4,27.2,303.4,27.3z"/>
	<path class="st1" d="M327,27.8l-3.6,7.7c-0.1,0.2-0.2,0.3-0.2,0.4c-0.1,0.1-0.2,0.1-0.3,0.1c-0.2,0-0.3-0.1-0.4-0.2
		s-0.2-0.2-0.2-0.4c0-0.1,0-0.2,0.1-0.4l3.6-7.7c0.1-0.2,0.2-0.3,0.2-0.4c0.1-0.1,0.2-0.1,0.3-0.1c0.2,0,0.3,0.1,0.4,0.2
		c0.1,0.1,0.2,0.2,0.2,0.4C327.1,27.5,327.1,27.6,327,27.8z"/>
	<path class="st1" d="M331.9,28.8v6.6c0,0.4,0,0.6,0,0.7c0,0.1-0.1,0.2-0.2,0.3c-0.1,0.1-0.2,0.1-0.3,0.1c-0.1,0-0.2,0-0.3-0.1
		c-0.1-0.1-0.2-0.2-0.2-0.3c0-0.1,0-0.3,0-0.7v-6.6c0-0.4,0-0.6,0-0.7c0-0.1,0.1-0.2,0.2-0.3c0.1-0.1,0.2-0.1,0.3-0.1
		c0.1,0,0.2,0,0.3,0.1c0.1,0.1,0.2,0.2,0.2,0.3C331.9,28.2,331.9,28.4,331.9,28.8z"/>
	<path class="st1" d="M351.9,28.8v6.6c0,0.4,0,0.6,0,0.7c0,0.1-0.1,0.2-0.2,0.3c-0.1,0.1-0.2,0.1-0.3,0.1c-0.1,0-0.2,0-0.3-0.1
		c-0.1-0.1-0.2-0.2-0.2-0.3c0-0.1,0-0.3,0-0.7v-6.6c0-0.4,0-0.6,0-0.7c0-0.1,0.1-0.2,0.2-0.3c0.1-0.1,0.2-0.1,0.3-0.1
		c0.1,0,0.2,0,0.3,0.1c0.1,0.1,0.2,0.2,0.2,0.3C351.9,28.2,351.9,28.4,351.9,28.8z"/>
	<path class="st1" d="M356.8,27.3l3.6,7.6c0,0,0,0.1,0.1,0.3c0,0.1,0,0.1,0,0.2c0,0.1-0.1,0.2-0.2,0.3s-0.2,0.1-0.4,0.1
		c-0.1,0-0.3,0-0.3-0.1s-0.2-0.2-0.3-0.4l-3.6-7.7c-0.1-0.2-0.1-0.3-0.1-0.4c0-0.1,0.1-0.3,0.2-0.4c0.1-0.1,0.2-0.2,0.4-0.2
		c0.1,0,0.2,0,0.3,0.1S356.7,27.2,356.8,27.3z"/>
	<path class="st1" d="M380.3,27.8l-3.6,7.7c-0.1,0.2-0.2,0.3-0.2,0.4c-0.1,0.1-0.2,0.1-0.3,0.1c-0.2,0-0.3-0.1-0.4-0.2
		s-0.2-0.2-0.2-0.4c0-0.1,0-0.2,0.1-0.4l3.6-7.7c0.1-0.2,0.2-0.3,0.2-0.4c0.1-0.1,0.2-0.1,0.3-0.1c0.2,0,0.3,0.1,0.4,0.2
		c0.1,0.1,0.2,0.2,0.2,0.4C380.5,27.5,380.4,27.6,380.3,27.8z"/>
	<path class="st1" d="M385.3,28.8v6.6c0,0.4,0,0.6,0,0.7c0,0.1-0.1,0.2-0.2,0.3c-0.1,0.1-0.2,0.1-0.3,0.1c-0.1,0-0.2,0-0.3-0.1
		c-0.1-0.1-0.2-0.2-0.2-0.3c0-0.1,0-0.3,0-0.7v-6.6c0-0.4,0-0.6,0-0.7c0-0.1,0.1-0.2,0.2-0.3c0.1-0.1,0.2-0.1,0.3-0.1
		c0.1,0,0.2,0,0.3,0.1c0.1,0.1,0.2,0.2,0.2,0.3C385.3,28.2,385.3,28.4,385.3,28.8z"/>
	<path class="st1" d="M405.3,28.8v6.6c0,0.4,0,0.6,0,0.7c0,0.1-0.1,0.2-0.2,0.3c-0.1,0.1-0.2,0.1-0.3,0.1c-0.1,0-0.2,0-0.3-0.1
		c-0.1-0.1-0.2-0.2-0.2-0.3c0-0.1,0-0.3,0-0.7v-6.6c0-0.4,0-0.6,0-0.7c0-0.1,0.1-0.2,0.2-0.3c0.1-0.1,0.2-0.1,0.3-0.1
		c0.1,0,0.2,0,0.3,0.1c0.1,0.1,0.2,0.2,0.2,0.3C405.3,28.2,405.3,28.4,405.3,28.8z"/>
	<path class="st1" d="M445.3,28.8v6.6c0,0.4,0,0.6,0,0.7c0,0.1-0.1,0.2-0.2,0.3c-0.1,0.1-0.2,0.1-0.3,0.1c-0.1,0-0.2,0-0.3-0.1
		c-0.1-0.1-0.2-0.2-0.2-0.3c0-0.1,0-0.3,0-0.7v-6.6c0-0.4,0-0.6,0-0.7c0-0.1,0.1-0.2,0.2-0.3c0.1-0.1,0.2-0.1,0.3-0.1
		c0.1,0,0.2,0,0.3,0.1c0.1,0.1,0.2,0.2,0.2,0.3C445.3,28.2,445.3,28.4,445.3,28.8z"/>
	<path class="st1" d="M511.9,28.8v6.6c0,0.4,0,0.6,0,0.7c0,0.1-0.1,0.2-0.2,0.3c-0.1,0.1-0.2,0.1-0.3,0.1c-0.1,0-0.2,0-0.3-0.1
		c-0.1-0.1-0.2-0.2-0.2-0.3c0-0.1,0-0.3,0-0.7v-6.6c0-0.4,0-0.6,0-0.7c0-0.1,0.1-0.2,0.2-0.3c0.1-0.1,0.2-0.1,0.3-0.1
		c0.1,0,0.2,0,0.3,0.1c0.1,0.1,0.2,0.2,0.2,0.3C511.9,28.2,511.9,28.4,511.9,28.8z"/>
	<path class="st1" d="M565.3,28.8v6.6c0,0.4,0,0.6,0,0.7c0,0.1-0.1,0.2-0.2,0.3c-0.1,0.1-0.2,0.1-0.3,0.1c-0.1,0-0.2,0-0.3-0.1
		c-0.1-0.1-0.2-0.2-0.2-0.3c0-0.1,0-0.3,0-0.7v-6.6c0-0.4,0-0.6,0-0.7c0-0.1,0.1-0.2,0.2-0.3c0.1-0.1,0.2-0.1,0.3-0.1
		c0.1,0,0.2,0,0.3,0.1c0.1,0.1,0.2,0.2,0.2,0.3C565.2,28.2,565.3,28.4,565.3,28.8z"/>
	<path class="st1" d="M585.3,28.8v6.6c0,0.4,0,0.6,0,0.7c0,0.1-0.1,0.2-0.2,0.3c-0.1,0.1-0.2,0.1-0.3,0.1c-0.1,0-0.2,0-0.3-0.1
		c-0.1-0.1-0.2-0.2-0.2-0.3c0-0.1,0-0.3,0-0.7v-6.6c0-0.4,0-0.6,0-0.7c0-0.1,0.1-0.2,0.2-0.3c0.1-0.1,0.2-0.1,0.3-0.1
		c0.1,0,0.2,0,0.3,0.1c0.1,0.1,0.2,0.2,0.2,0.3C585.2,28.2,585.3,28.4,585.3,28.8z"/>
	<path class="st1" d="M594.4,38h-6.1c-0.3,0-0.5-0.1-0.6-0.2s-0.2-0.2-0.2-0.4c0-0.2,0.1-0.3,0.2-0.4s0.3-0.2,0.6-0.2h6.1
		c0.3,0,0.5,0.1,0.6,0.2s0.2,0.2,0.2,0.4c0,0.2-0.1,0.3-0.2,0.4C594.9,38,594.7,38,594.4,38z"/>
	<path class="st1" d="M601.1,38H595c-0.3,0-0.5-0.1-0.6-0.2s-0.2-0.2-0.2-0.4c0-0.2,0.1-0.3,0.2-0.4s0.3-0.2,0.6-0.2h6.1
		c0.3,0,0.5,0.1,0.6,0.2s0.2,0.2,0.2,0.4c0,0.2-0.1,0.3-0.2,0.4C601.6,38,601.4,38,601.1,38z"/>
	<path class="st1" d="M605.5,34.1c0,0.2-0.1,0.4-0.2,0.5c-0.1,0.1-0.4,0.2-0.6,0.2c-0.3,0-0.5-0.1-0.6-0.2c-0.1-0.1-0.2-0.3-0.2-0.5
		c0-0.2,0.1-0.4,0.2-0.5c0.1-0.1,0.4-0.2,0.6-0.2c0.3,0,0.5,0.1,0.6,0.2C605.5,33.8,605.5,33.9,605.5,34.1z"/>
	<path class="st1" d="M665.2,28.8v6.6c0,0.4,0,0.6,0,0.7c0,0.1-0.1,0.2-0.2,0.3c-0.1,0.1-0.2,0.1-0.3,0.1c-0.1,0-0.2,0-0.3-0.1
		c-0.1-0.1-0.2-0.2-0.2-0.3c0-0.1,0-0.3,0-0.7v-6.6c0-0.4,0-0.6,0-0.7c0-0.1,0.1-0.2,0.2-0.3c0.1-0.1,0.2-0.1,0.3-0.1
		c0.1,0,0.2,0,0.3,0.1c0.1,0.1,0.2,0.2,0.2,0.3C665.2,28.2,665.2,28.4,665.2,28.8z"/>
	<path class="st1" d="M718.6,28.8v6.6c0,0.4,0,0.6,0,0.7c0,0.1-0.1,0.2-0.2,0.3c-0.1,0.1-0.2,0.1-0.3,0.1c-0.1,0-0.2,0-0.3-0.1
		c-0.1-0.1-0.2-0.2-0.2-0.3c0-0.1,0-0.3,0-0.7v-6.6c0-0.4,0-0.6,0-0.7c0-0.1,0.1-0.2,0.2-0.3c0.1-0.1,0.2-0.1,0.3-0.1
		c0.1,0,0.2,0,0.3,0.1c0.1,0.1,0.2,0.2,0.2,0.3C718.6,28.2,718.6,28.4,718.6,28.8z"/>
	<path class="st1" d="M753.6,27.8l-3.6,7.7c-0.1,0.2-0.2,0.3-0.2,0.4c-0.1,0.1-0.2,0.1-0.3,0.1c-0.2,0-0.3-0.1-0.4-0.2
		s-0.2-0.2-0.2-0.4c0-0.1,0-0.2,0.1-0.4l3.6-7.7c0.1-0.2,0.2-0.3,0.2-0.4c0.1-0.1,0.2-0.1,0.3-0.1c0.2,0,0.3,0.1,0.4,0.2
		c0.1,0.1,0.2,0.2,0.2,0.4C753.8,27.5,753.7,27.6,753.6,27.8z"/>
	<path class="st1" d="M770.1,27.3l3.6,7.6c0,0,0,0.1,0.1,0.3c0,0.1,0,0.1,0,0.2c0,0.1-0.1,0.2-0.2,0.3c-0.1,0.1-0.2,0.1-0.4,0.1
		c-0.1,0-0.3,0-0.3-0.1s-0.2-0.2-0.3-0.4l-3.6-7.7c-0.1-0.2-0.1-0.3-0.1-0.4c0-0.1,0.1-0.3,0.2-0.4c0.1-0.1,0.2-0.2,0.4-0.2
		c0.1,0,0.2,0,0.3,0.1S770,27.2,770.1,27.3z"/>
	<path class="st1" d="M798.6,28.8v6.6c0,0.4,0,0.6,0,0.7c0,0.1-0.1,0.2-0.2,0.3c-0.1,0.1-0.2,0.1-0.3,0.1c-0.1,0-0.2,0-0.3-0.1
		c-0.1-0.1-0.2-0.2-0.2-0.3c0-0.1,0-0.3,0-0.7v-6.6c0-0.4,0-0.6,0-0.7c0-0.1,0.1-0.2,0.2-0.3c0.1-0.1,0.2-0.1,0.3-0.1
		c0.1,0,0.2,0,0.3,0.1c0.1,0.1,0.2,0.2,0.2,0.3C798.6,28.2,798.6,28.4,798.6,28.8z"/>
	<path class="st1" d="M810.1,27.3l3.6,7.6c0,0,0,0.1,0.1,0.3c0,0.1,0,0.1,0,0.2c0,0.1-0.1,0.2-0.2,0.3c-0.1,0.1-0.2,0.1-0.4,0.1
		c-0.1,0-0.3,0-0.3-0.1c-0.1-0.1-0.2-0.2-0.3-0.4l-3.6-7.7c-0.1-0.2-0.1-0.3-0.1-0.4c0-0.1,0.1-0.3,0.2-0.4c0.1-0.1,0.2-0.2,0.4-0.2
		c0.1,0,0.2,0,0.3,0.1C809.9,27,810,27.2,810.1,27.3z"/>
	<path class="st1" d="M831.9,28.8v6.6c0,0.4,0,0.6,0,0.7c0,0.1-0.1,0.2-0.2,0.3c-0.1,0.1-0.2,0.1-0.3,0.1c-0.1,0-0.2,0-0.3-0.1
		c-0.1-0.1-0.2-0.2-0.2-0.3c0-0.1,0-0.3,0-0.7v-6.6c0-0.4,0-0.6,0-0.7c0-0.1,0.1-0.2,0.2-0.3c0.1-0.1,0.2-0.1,0.3-0.1
		c0.1,0,0.2,0,0.3,0.1c0.1,0.1,0.2,0.2,0.2,0.3C831.9,28.2,831.9,28.4,831.9,28.8z"/>
	<path class="st1" d="M878.6,28.8v6.6c0,0.4,0,0.6,0,0.7c0,0.1-0.1,0.2-0.2,0.3c-0.1,0.1-0.2,0.1-0.3,0.1c-0.1,0-0.2,0-0.3-0.1
		c-0.1-0.1-0.2-0.2-0.2-0.3c0-0.1,0-0.3,0-0.7v-6.6c0-0.4,0-0.6,0-0.7c0-0.1,0.1-0.2,0.2-0.3c0.1-0.1,0.2-0.1,0.3-0.1
		c0.1,0,0.2,0,0.3,0.1c0.1,0.1,0.2,0.2,0.2,0.3C878.5,28.2,878.6,28.4,878.6,28.8z"/>
	<path class="st1" d="M32,41.7v6.6c0,0.4,0,0.6,0,0.7c0,0.1-0.1,0.2-0.2,0.3c-0.1,0.1-0.2,0.1-0.3,0.1c-0.1,0-0.2,0-0.3-0.1
		c-0.1-0.1-0.2-0.2-0.2-0.3c0-0.1,0-0.3,0-0.7v-6.6c0-0.4,0-0.6,0-0.7c0-0.1,0.1-0.2,0.2-0.3c0.1-0.1,0.2-0.1,0.3-0.1
		c0.1,0,0.2,0,0.3,0.1c0.1,0.1,0.2,0.2,0.2,0.3C32,41.1,32,41.3,32,41.7z"/>
	<path class="st1" d="M65.3,41.7v6.6c0,0.4,0,0.6,0,0.7c0,0.1-0.1,0.2-0.2,0.3c-0.1,0.1-0.2,0.1-0.3,0.1c-0.1,0-0.2,0-0.3-0.1
		c-0.1-0.1-0.2-0.2-0.2-0.3c0-0.1,0-0.3,0-0.7v-6.6c0-0.4,0-0.6,0-0.7c0-0.1,0.1-0.2,0.2-0.3c0.1-0.1,0.2-0.1,0.3-0.1
		c0.1,0,0.2,0,0.3,0.1c0.1,0.1,0.2,0.2,0.2,0.3C65.3,41.1,65.3,41.3,65.3,41.7z"/>
	<path class="st1" d="M92,41.7v6.6c0,0.4,0,0.6,0,0.7c0,0.1-0.1,0.2-0.2,0.3c-0.1,0.1-0.2,0.1-0.3,0.1c-0.1,0-0.2,0-0.3-0.1
		c-0.1-0.1-0.2-0.2-0.2-0.3c0-0.1,0-0.3,0-0.7v-6.6c0-0.4,0-0.6,0-0.7c0-0.1,0.1-0.2,0.2-0.3c0.1-0.1,0.2-0.1,0.3-0.1
		c0.1,0,0.2,0,0.3,0.1c0.1,0.1,0.2,0.2,0.2,0.3C92,41.1,92,41.3,92,41.7z"/>
	<path class="st1" d="M112,41.7v6.6c0,0.4,0,0.6,0,0.7c0,0.1-0.1,0.2-0.2,0.3c-0.1,0.1-0.2,0.1-0.3,0.1c-0.1,0-0.2,0-0.3-0.1
		c-0.1-0.1-0.2-0.2-0.2-0.3c0-0.1,0-0.3,0-0.7v-6.6c0-0.4,0-0.6,0-0.7c0-0.1,0.1-0.2,0.2-0.3c0.1-0.1,0.2-0.1,0.3-0.1
		c0.1,0,0.2,0,0.3,0.1c0.1,0.1,0.2,0.2,0.2,0.3C112,41.1,112,41.3,112,41.7z"/>
	<path class="st1" d="M225.3,41.7v6.6c0,0.4,0,0.6,0,0.7c0,0.1-0.1,0.2-0.2,0.3c-0.1,0.1-0.2,0.1-0.3,0.1c-0.1,0-0.2,0-0.3-0.1
		c-0.1-0.1-0.2-0.2-0.2-0.3c0-0.1,0-0.3,0-0.7v-6.6c0-0.4,0-0.6,0-0.7c0-0.1,0.1-0.2,0.2-0.3c0.1-0.1,0.2-0.1,0.3-0.1
		c0.1,0,0.2,0,0.3,0.1c0.1,0.1,0.2,0.2,0.2,0.3C225.3,41.1,225.3,41.3,225.3,41.7z"/>
	<path class="st1" d="M245.3,41.7v6.6c0,0.4,0,0.6,0,0.7c0,0.1-0.1,0.2-0.2,0.3c-0.1,0.1-0.2,0.1-0.3,0.1c-0.1,0-0.2,0-0.3-0.1
		c-0.1-0.1-0.2-0.2-0.2-0.3c0-0.1,0-0.3,0-0.7v-6.6c0-0.4,0-0.6,0-0.7c0-0.1,0.1-0.2,0.2-0.3c0.1-0.1,0.2-0.1,0.3-0.1
		c0.1,0,0.2,0,0.3,0.1c0.1,0.1,0.2,0.2,0.2,0.3C245.3,41.1,245.3,41.3,245.3,41.7z"/>
	<path class="st1" d="M285.3,41.7v6.6c0,0.4,0,0.6,0,0.7c0,0.1-0.1,0.2-0.2,0.3c-0.1,0.1-0.2,0.1-0.3,0.1c-0.1,0-0.2,0-0.3-0.1
		c-0.1-0.1-0.2-0.2-0.2-0.3c0-0.1,0-0.3,0-0.7v-6.6c0-0.4,0-0.6,0-0.7c0-0.1,0.1-0.2,0.2-0.3c0.1-0.1,0.2-0.1,0.3-0.1
		c0.1,0,0.2,0,0.3,0.1c0.1,0.1,0.2,0.2,0.2,0.3C285.3,41.1,285.3,41.3,285.3,41.7z"/>
	<path class="st1" d="M298.6,41.7v6.6c0,0.4,0,0.6,0,0.7c0,0.1-0.1,0.2-0.2,0.3c-0.1,0.1-0.2,0.1-0.3,0.1c-0.1,0-0.2,0-0.3-0.1
		c-0.1-0.1-0.2-0.2-0.2-0.3c0-0.1,0-0.3,0-0.7v-6.6c0-0.4,0-0.6,0-0.7c0-0.1,0.1-0.2,0.2-0.3c0.1-0.1,0.2-0.1,0.3-0.1
		c0.1,0,0.2,0,0.3,0.1c0.1,0.1,0.2,0.2,0.2,0.3C298.6,41.1,298.6,41.3,298.6,41.7z"/>
	<path class="st1" d="M310.1,40.3l3.6,7.6c0,0,0,0.1,0.1,0.3c0,0.1,0,0.1,0,0.2c0,0.1-0.1,0.2-0.2,0.3c-0.1,0.1-0.2,0.1-0.4,0.1
		c-0.1,0-0.3,0-0.3-0.1s-0.2-0.2-0.3-0.4l-3.6-7.7c-0.1-0.2-0.1-0.3-0.1-0.4c0-0.1,0.1-0.3,0.2-0.4c0.1-0.1,0.2-0.2,0.4-0.2
		c0.1,0,0.2,0,0.3,0.1S310,40.1,310.1,40.3z"/>
	<path class="st1" d="M320.3,40.8l-3.6,7.7c-0.1,0.2-0.2,0.3-0.2,0.4c-0.1,0.1-0.2,0.1-0.3,0.1c-0.2,0-0.3-0.1-0.4-0.2
		c-0.1-0.1-0.2-0.2-0.2-0.4c0-0.1,0-0.2,0.1-0.4l3.6-7.7c0.1-0.2,0.2-0.3,0.2-0.4c0.1-0.1,0.2-0.1,0.3-0.1c0.2,0,0.3,0.1,0.4,0.2
		c0.1,0.1,0.2,0.2,0.2,0.4C320.5,40.4,320.4,40.6,320.3,40.8z"/>
	<path class="st1" d="M331.9,41.7v6.6c0,0.4,0,0.6,0,0.7c0,0.1-0.1,0.2-0.2,0.3c-0.1,0.1-0.2,0.1-0.3,0.1c-0.1,0-0.2,0-0.3-0.1
		c-0.1-0.1-0.2-0.2-0.2-0.3c0-0.1,0-0.3,0-0.7v-6.6c0-0.4,0-0.6,0-0.7c0-0.1,0.1-0.2,0.2-0.3c0.1-0.1,0.2-0.1,0.3-0.1
		c0.1,0,0.2,0,0.3,0.1c0.1,0.1,0.2,0.2,0.2,0.3C331.9,41.1,331.9,41.3,331.9,41.7z"/>
	<path class="st1" d="M351.9,41.7v6.6c0,0.4,0,0.6,0,0.7c0,0.1-0.1,0.2-0.2,0.3c-0.1,0.1-0.2,0.1-0.3,0.1c-0.1,0-0.2,0-0.3-0.1
		c-0.1-0.1-0.2-0.2-0.2-0.3c0-0.1,0-0.3,0-0.7v-6.6c0-0.4,0-0.6,0-0.7c0-0.1,0.1-0.2,0.2-0.3c0.1-0.1,0.2-0.1,0.3-0.1
		c0.1,0,0.2,0,0.3,0.1c0.1,0.1,0.2,0.2,0.2,0.3C351.9,41.1,351.9,41.3,351.9,41.7z"/>
	<path class="st1" d="M363.4,40.3L367,48c0,0,0,0.1,0.1,0.3c0,0.1,0,0.1,0,0.2c0,0.1-0.1,0.2-0.2,0.3s-0.2,0.1-0.4,0.1
		c-0.1,0-0.3,0-0.3-0.1s-0.2-0.2-0.3-0.4l-3.6-7.7c-0.1-0.2-0.1-0.3-0.1-0.4c0-0.1,0.1-0.3,0.2-0.4c0.1-0.1,0.2-0.2,0.4-0.2
		c0.1,0,0.2,0,0.3,0.1S363.4,40.1,363.4,40.3z"/>
	<path class="st1" d="M373.7,40.8l-3.6,7.7c-0.1,0.2-0.2,0.3-0.2,0.4c-0.1,0.1-0.2,0.1-0.3,0.1c-0.2,0-0.3-0.1-0.4-0.2
		c-0.1-0.1-0.2-0.2-0.2-0.4c0-0.1,0-0.2,0.1-0.4l3.6-7.7c0.1-0.2,0.2-0.3,0.2-0.4c0.1-0.1,0.2-0.1,0.3-0.1c0.2,0,0.3,0.1,0.4,0.2
		c0.1,0.1,0.2,0.2,0.2,0.4C373.8,40.4,373.8,40.6,373.7,40.8z"/>
	<path class="st1" d="M385.3,41.7v6.6c0,0.4,0,0.6,0,0.7c0,0.1-0.1,0.2-0.2,0.3c-0.1,0.1-0.2,0.1-0.3,0.1c-0.1,0-0.2,0-0.3-0.1
		c-0.1-0.1-0.2-0.2-0.2-0.3c0-0.1,0-0.3,0-0.7v-6.6c0-0.4,0-0.6,0-0.7c0-0.1,0.1-0.2,0.2-0.3c0.1-0.1,0.2-0.1,0.3-0.1
		c0.1,0,0.2,0,0.3,0.1c0.1,0.1,0.2,0.2,0.2,0.3C385.3,41.1,385.3,41.3,385.3,41.7z"/>
	<path class="st1" d="M405.3,41.7v6.6c0,0.4,0,0.6,0,0.7c0,0.1-0.1,0.2-0.2,0.3c-0.1,0.1-0.2,0.1-0.3,0.1c-0.1,0-0.2,0-0.3-0.1
		c-0.1-0.1-0.2-0.2-0.2-0.3c0-0.1,0-0.3,0-0.7v-6.6c0-0.4,0-0.6,0-0.7c0-0.1,0.1-0.2,0.2-0.3c0.1-0.1,0.2-0.1,0.3-0.1
		c0.1,0,0.2,0,0.3,0.1c0.1,0.1,0.2,0.2,0.2,0.3C405.3,41.1,405.3,41.3,405.3,41.7z"/>
	<path class="st1" d="M445.3,41.7v6.6c0,0.4,0,0.6,0,0.7c0,0.1-0.1,0.2-0.2,0.3c-0.1,0.1-0.2,0.1-0.3,0.1c-0.1,0-0.2,0-0.3-0.1
		c-0.1-0.1-0.2-0.2-0.2-0.3c0-0.1,0-0.3,0-0.7v-6.6c0-0.4,0-0.6,0-0.7c0-0.1,0.1-0.2,0.2-0.3c0.1-0.1,0.2-0.1,0.3-0.1
		c0.1,0,0.2,0,0.3,0.1c0.1,0.1,0.2,0.2,0.2,0.3C445.3,41.1,445.3,41.3,445.3,41.7z"/>
	<path class="st1" d="M511.9,41.7v6.6c0,0.4,0,0.6,0,0.7c0,0.1-0.1,0.2-0.2,0.3c-0.1,0.1-0.2,0.1-0.3,0.1c-0.1,0-0.2,0-0.3-0.1
		c-0.1-0.1-0.2-0.2-0.2-0.3c0-0.1,0-0.3,0-0.7v-6.6c0-0.4,0-0.6,0-0.7c0-0.1,0.1-0.2,0.2-0.3c0.1-0.1,0.2-0.1,0.3-0.1
		c0.1,0,0.2,0,0.3,0.1c0.1,0.1,0.2,0.2,0.2,0.3C511.9,41.1,511.9,41.3,511.9,41.7z"/>
	<path class="st1" d="M533.7,40.8l-3.6,7.7c-0.1,0.2-0.2,0.3-0.2,0.4c-0.1,0.1-0.2,0.1-0.3,0.1c-0.2,0-0.3-0.1-0.4-0.2
		c-0.1-0.1-0.2-0.2-0.2-0.4c0-0.1,0-0.2,0.1-0.4l3.6-7.7c0.1-0.2,0.2-0.3,0.2-0.4c0.1-0.1,0.2-0.1,0.3-0.1c0.2,0,0.3,0.1,0.4,0.2
		c0.1,0.1,0.2,0.2,0.2,0.4C533.8,40.4,533.7,40.6,533.7,40.8z"/>
	<path class="st1" d="M536.8,40.3l3.6,7.6c0,0,0,0.1,0.1,0.3c0,0.1,0,0.1,0,0.2c0,0.1-0.1,0.2-0.2,0.3c-0.1,0.1-0.2,0.1-0.4,0.1
		c-0.1,0-0.3,0-0.3-0.1s-0.2-0.2-0.3-0.4l-3.6-7.7c-0.1-0.2-0.1-0.3-0.1-0.4c0-0.1,0.1-0.3,0.2-0.4c0.1-0.1,0.2-0.2,0.4-0.2
		c0.1,0,0.2,0,0.3,0.1S536.7,40.1,536.8,40.3z"/>
	<path class="st1" d="M567,40.8l-3.6,7.7c-0.1,0.2-0.2,0.3-0.2,0.4c-0.1,0.1-0.2,0.1-0.3,0.1c-0.2,0-0.3-0.1-0.4-0.2
		c-0.1-0.1-0.2-0.2-0.2-0.4c0-0.1,0-0.2,0.1-0.4l3.6-7.7c0.1-0.2,0.2-0.3,0.2-0.4c0.1-0.1,0.2-0.1,0.3-0.1c0.2,0,0.3,0.1,0.4,0.2
		c0.1,0.1,0.2,0.2,0.2,0.4C567.1,40.4,567.1,40.6,567,40.8z"/>
	<path class="st1" d="M585.3,41.7v6.6c0,0.4,0,0.6,0,0.7c0,0.1-0.1,0.2-0.2,0.3c-0.1,0.1-0.2,0.1-0.3,0.1c-0.1,0-0.2,0-0.3-0.1
		c-0.1-0.1-0.2-0.2-0.2-0.3c0-0.1,0-0.3,0-0.7v-6.6c0-0.4,0-0.6,0-0.7c0-0.1,0.1-0.2,0.2-0.3c0.1-0.1,0.2-0.1,0.3-0.1
		c0.1,0,0.2,0,0.3,0.1c0.1,0.1,0.2,0.2,0.2,0.3C585.2,41.1,585.3,41.3,585.3,41.7z"/>
	<path class="st1" d="M665.2,41.7v6.6c0,0.4,0,0.6,0,0.7c0,0.1-0.1,0.2-0.2,0.3c-0.1,0.1-0.2,0.1-0.3,0.1c-0.1,0-0.2,0-0.3-0.1
		c-0.1-0.1-0.2-0.2-0.2-0.3c0-0.1,0-0.3,0-0.7v-6.6c0-0.4,0-0.6,0-0.7c0-0.1,0.1-0.2,0.2-0.3c0.1-0.1,0.2-0.1,0.3-0.1
		c0.1,0,0.2,0,0.3,0.1c0.1,0.1,0.2,0.2,0.2,0.3C665.2,41.1,665.2,41.3,665.2,41.7z"/>
	<path class="st1" d="M687,40.8l-3.6,7.7c-0.1,0.2-0.2,0.3-0.2,0.4c-0.1,0.1-0.2,0.1-0.3,0.1c-0.2,0-0.3-0.1-0.4-0.2
		c-0.1-0.1-0.2-0.2-0.2-0.4c0-0.1,0-0.2,0.1-0.4l3.6-7.7c0.1-0.2,0.2-0.3,0.2-0.4c0.1-0.1,0.2-0.1,0.3-0.1c0.2,0,0.3,0.1,0.4,0.2
		c0.1,0.1,0.2,0.2,0.2,0.4C687.1,40.4,687.1,40.6,687,40.8z"/>
	<path class="st1" d="M690.1,40.3l3.6,7.6c0,0,0,0.1,0.1,0.3c0,0.1,0,0.1,0,0.2c0,0.1-0.1,0.2-0.2,0.3c-0.1,0.1-0.2,0.1-0.4,0.1
		c-0.1,0-0.3,0-0.3-0.1c-0.1-0.1-0.2-0.2-0.3-0.4l-3.6-7.7c-0.1-0.2-0.1-0.3-0.1-0.4c0-0.1,0.1-0.3,0.2-0.4c0.1-0.1,0.2-0.2,0.4-0.2
		c0.1,0,0.2,0,0.3,0.1C689.9,40,690,40.1,690.1,40.3z"/>
	<path class="st1" d="M720.3,40.8l-3.6,7.7c-0.1,0.2-0.2,0.3-0.2,0.4c-0.1,0.1-0.2,0.1-0.3,0.1c-0.2,0-0.3-0.1-0.4-0.2
		c-0.1-0.1-0.2-0.2-0.2-0.4c0-0.1,0-0.2,0.1-0.4l3.6-7.7c0.1-0.2,0.2-0.3,0.2-0.4c0.1-0.1,0.2-0.1,0.3-0.1c0.2,0,0.3,0.1,0.4,0.2
		c0.1,0.1,0.2,0.2,0.2,0.4C720.4,40.4,720.4,40.6,720.3,40.8z"/>
	<path class="st1" d="M747,40.8l-3.6,7.7c-0.1,0.2-0.2,0.3-0.2,0.4c-0.1,0.1-0.2,0.1-0.3,0.1c-0.2,0-0.3-0.1-0.4-0.2
		c-0.1-0.1-0.2-0.2-0.2-0.4c0-0.1,0-0.2,0.1-0.4l3.6-7.7c0.1-0.2,0.2-0.3,0.2-0.4c0.1-0.1,0.2-0.1,0.3-0.1c0.2,0,0.3,0.1,0.4,0.2
		c0.1,0.1,0.2,0.2,0.2,0.4C747.1,40.4,747.1,40.6,747,40.8z"/>
	<path class="st1" d="M753.7,45H749v-1h4.6V45z"/>
	<path class="st1" d="M760.3,45h-4.6v-1h4.6V45z"/>
	<path class="st1" d="M767,45h-4.6v-1h4.6V45z"/>
	<path class="st1" d="M770.6,40.9h1.4l-0.4,2.9c0,0.2-0.1,0.3-0.1,0.3c-0.1,0.1-0.1,0.1-0.2,0.1c-0.1,0-0.2,0-0.2-0.1
		c-0.1-0.1-0.1-0.2-0.1-0.3L770.6,40.9z"/>
	<path class="st1" d="M776.7,40.3l3.6,7.6c0,0,0,0.1,0.1,0.3c0,0.1,0,0.1,0,0.2c0,0.1-0.1,0.2-0.2,0.3c-0.1,0.1-0.2,0.1-0.4,0.1
		c-0.1,0-0.3,0-0.3-0.1c-0.1-0.1-0.2-0.2-0.3-0.4l-3.6-7.7c-0.1-0.2-0.1-0.3-0.1-0.4c0-0.1,0.1-0.3,0.2-0.4c0.1-0.1,0.2-0.2,0.4-0.2
		c0.1,0,0.2,0,0.3,0.1C776.6,40,776.6,40.1,776.7,40.3z"/>
	<path class="st1" d="M798.6,41.7v6.6c0,0.4,0,0.6,0,0.7c0,0.1-0.1,0.2-0.2,0.3c-0.1,0.1-0.2,0.1-0.3,0.1c-0.1,0-0.2,0-0.3-0.1
		c-0.1-0.1-0.2-0.2-0.2-0.3c0-0.1,0-0.3,0-0.7v-6.6c0-0.4,0-0.6,0-0.7c0-0.1,0.1-0.2,0.2-0.3c0.1-0.1,0.2-0.1,0.3-0.1
		c0.1,0,0.2,0,0.3,0.1c0.1,0.1,0.2,0.2,0.2,0.3C798.6,41.1,798.6,41.3,798.6,41.7z"/>
	<path class="st1" d="M816.7,40.3l3.6,7.6c0,0,0,0.1,0.1,0.3c0,0.1,0,0.1,0,0.2c0,0.1-0.1,0.2-0.2,0.3c-0.1,0.1-0.2,0.1-0.4,0.1
		c-0.1,0-0.3,0-0.3-0.1c-0.1-0.1-0.2-0.2-0.3-0.4l-3.6-7.7c-0.1-0.2-0.1-0.3-0.1-0.4c0-0.1,0.1-0.3,0.2-0.4c0.1-0.1,0.2-0.2,0.4-0.2
		c0.1,0,0.2,0,0.3,0.1C816.5,40,816.6,40.1,816.7,40.3z"/>
	<path class="st1" d="M831.9,41.7v6.6c0,0.4,0,0.6,0,0.7c0,0.1-0.1,0.2-0.2,0.3c-0.1,0.1-0.2,0.1-0.3,0.1c-0.1,0-0.2,0-0.3-0.1
		c-0.1-0.1-0.2-0.2-0.2-0.3c0-0.1,0-0.3,0-0.7v-6.6c0-0.4,0-0.6,0-0.7c0-0.1,0.1-0.2,0.2-0.3c0.1-0.1,0.2-0.1,0.3-0.1
		c0.1,0,0.2,0,0.3,0.1c0.1,0.1,0.2,0.2,0.2,0.3C831.9,41.1,831.9,41.3,831.9,41.7z"/>
	<path class="st1" d="M878.6,41.7v6.6c0,0.4,0,0.6,0,0.7c0,0.1-0.1,0.2-0.2,0.3c-0.1,0.1-0.2,0.1-0.3,0.1c-0.1,0-0.2,0-0.3-0.1
		c-0.1-0.1-0.2-0.2-0.2-0.3c0-0.1,0-0.3,0-0.7v-6.6c0-0.4,0-0.6,0-0.7c0-0.1,0.1-0.2,0.2-0.3c0.1-0.1,0.2-0.1,0.3-0.1
		c0.1,0,0.2,0,0.3,0.1c0.1,0.1,0.2,0.2,0.2,0.3C878.5,41.1,878.6,41.3,878.6,41.7z"/>
	<path class="st1" d="M33.7,53.7l-3.6,7.7c-0.1,0.2-0.2,0.3-0.2,0.4c-0.1,0.1-0.2,0.1-0.3,0.1c-0.2,0-0.3-0.1-0.4-0.2
		c-0.1-0.1-0.2-0.2-0.2-0.4c0-0.1,0-0.2,0.1-0.4l3.6-7.7c0.1-0.2,0.2-0.3,0.2-0.4c0.1-0.1,0.2-0.1,0.3-0.1c0.2,0,0.3,0.1,0.4,0.2
		c0.1,0.1,0.2,0.2,0.2,0.4C33.8,53.4,33.8,53.5,33.7,53.7z"/>
	<path class="st1" d="M67,53.7l-3.6,7.7c-0.1,0.2-0.2,0.3-0.2,0.4c-0.1,0.1-0.2,0.1-0.3,0.1c-0.2,0-0.3-0.1-0.4-0.2
		c-0.1-0.1-0.2-0.2-0.2-0.4c0-0.1,0-0.2,0.1-0.4l3.6-7.7c0.1-0.2,0.2-0.3,0.2-0.4c0.1-0.1,0.2-0.1,0.3-0.1c0.2,0,0.3,0.1,0.4,0.2
		c0.1,0.1,0.2,0.2,0.2,0.4C67.2,53.4,67.1,53.5,67,53.7z"/>
	<path class="st1" d="M93.7,53.7l-3.6,7.7c-0.1,0.2-0.2,0.3-0.2,0.4c-0.1,0.1-0.2,0.1-0.3,0.1c-0.2,0-0.3-0.1-0.4-0.2
		c-0.1-0.1-0.2-0.2-0.2-0.4c0-0.1,0-0.2,0.1-0.4l3.6-7.7c0.1-0.2,0.2-0.3,0.2-0.4c0.1-0.1,0.2-0.1,0.3-0.1c0.2,0,0.3,0.1,0.4,0.2
		c0.1,0.1,0.2,0.2,0.2,0.4C93.8,53.4,93.8,53.5,93.7,53.7z"/>
	<path class="st1" d="M113.7,53.7l-3.6,7.7c-0.1,0.2-0.2,0.3-0.2,0.4c-0.1,0.1-0.2,0.1-0.3,0.1c-0.2,0-0.3-0.1-0.4-0.2
		c-0.1-0.1-0.2-0.2-0.2-0.4c0-0.1,0-0.2,0.1-0.4l3.6-7.7c0.1-0.2,0.2-0.3,0.2-0.4c0.1-0.1,0.2-0.1,0.3-0.1c0.2,0,0.3,0.1,0.4,0.2
		c0.1,0.1,0.2,0.2,0.2,0.4C113.8,53.4,113.8,53.5,113.7,53.7z"/>
	<path class="st1" d="M120.4,58h-4.6v-1h4.6V58z"/>
	<path class="st1" d="M127.1,58h-4.6v-1h4.6V58z"/>
	<path class="st1" d="M133.7,58h-4.6v-1h4.6V58z"/>
	<path class="st1" d="M140.4,58h-4.6v-1h4.6V58z"/>
	<path class="st1" d="M147,53.7l-3.6,7.7c-0.1,0.2-0.2,0.3-0.2,0.4c-0.1,0.1-0.2,0.1-0.3,0.1c-0.2,0-0.3-0.1-0.4-0.2
		c-0.1-0.1-0.2-0.2-0.2-0.4c0-0.1,0-0.2,0.1-0.4l3.6-7.7c0.1-0.2,0.2-0.3,0.2-0.4c0.1-0.1,0.2-0.1,0.3-0.1c0.2,0,0.3,0.1,0.4,0.2
		c0.1,0.1,0.2,0.2,0.2,0.4C147.2,53.4,147.1,53.5,147,53.7z"/>
	<path class="st1" d="M190.1,53.3l3.6,7.6c0,0,0,0.1,0.1,0.3c0,0.1,0,0.1,0,0.2c0,0.1-0.1,0.2-0.2,0.3c-0.1,0.1-0.2,0.1-0.4,0.1
		c-0.1,0-0.3,0-0.3-0.1c-0.1-0.1-0.2-0.2-0.3-0.4l-3.6-7.7c-0.1-0.2-0.1-0.3-0.1-0.4c0-0.1,0.1-0.3,0.2-0.4c0.1-0.1,0.2-0.2,0.4-0.2
		c0.1,0,0.2,0,0.3,0.1C190,52.9,190,53.1,190.1,53.3z"/>
	<path class="st1" d="M201.1,64H195c-0.3,0-0.5-0.1-0.6-0.2s-0.2-0.2-0.2-0.4s0.1-0.3,0.2-0.4s0.3-0.2,0.6-0.2h6.1
		c0.3,0,0.5,0.1,0.6,0.2s0.2,0.2,0.2,0.4c0,0.2-0.1,0.3-0.2,0.4C201.6,63.9,201.4,64,201.1,64z"/>
	<path class="st1" d="M207.8,64h-6.1c-0.3,0-0.5-0.1-0.6-0.2s-0.2-0.2-0.2-0.4s0.1-0.3,0.2-0.4s0.3-0.2,0.6-0.2h6.1
		c0.3,0,0.5,0.1,0.6,0.2s0.2,0.2,0.2,0.4c0,0.2-0.1,0.3-0.2,0.4C208.3,63.9,208.1,64,207.8,64z"/>
	<path class="st1" d="M214.5,64h-6.1c-0.3,0-0.5-0.1-0.6-0.2s-0.2-0.2-0.2-0.4s0.1-0.3,0.2-0.4s0.3-0.2,0.6-0.2h6.1
		c0.3,0,0.5,0.1,0.6,0.2s0.2,0.2,0.2,0.4c0,0.2-0.1,0.3-0.2,0.4C214.9,63.9,214.7,64,214.5,64z"/>
	<path class="st1" d="M218.9,60.1c0,0.2-0.1,0.4-0.2,0.5c-0.1,0.1-0.4,0.2-0.6,0.2s-0.5-0.1-0.6-0.2c-0.1-0.1-0.2-0.3-0.2-0.5
		c0-0.2,0.1-0.4,0.2-0.5c0.1-0.1,0.4-0.2,0.6-0.2s0.5,0.1,0.6,0.2C218.8,59.7,218.9,59.9,218.9,60.1z"/>
	<path class="st1" d="M224,53.8h1.4l-0.4,2.9c0,0.2-0.1,0.3-0.1,0.3c-0.1,0.1-0.1,0.1-0.2,0.1c-0.1,0-0.2,0-0.2-0.1
		c-0.1-0.1-0.1-0.2-0.1-0.3L224,53.8z"/>
	<path class="st1" d="M251,53.4l1.2,1c0.1,0.1,0.2,0.2,0.2,0.3c0,0.1,0,0.2-0.1,0.3s-0.2,0.1-0.3,0.1c-0.1,0-0.2,0-0.3-0.1l-1.2-1
		c-0.1-0.1-0.2-0.2-0.2-0.3c0-0.1,0-0.2,0.1-0.3s0.2-0.1,0.3-0.1C250.8,53.2,250.9,53.3,251,53.4z"/>
	<path class="st1" d="M258.9,60.1c0,0.2-0.1,0.4-0.2,0.5c-0.1,0.1-0.4,0.2-0.6,0.2s-0.5-0.1-0.6-0.2c-0.1-0.1-0.2-0.3-0.2-0.5
		c0-0.2,0.1-0.4,0.2-0.5c0.1-0.1,0.4-0.2,0.6-0.2s0.5,0.1,0.6,0.2C258.8,59.7,258.9,59.9,258.9,60.1z"/>
	<path class="st1" d="M267.8,64h-6.1c-0.3,0-0.5-0.1-0.6-0.2c-0.1-0.1-0.2-0.2-0.2-0.4s0.1-0.3,0.2-0.4c0.1-0.1,0.3-0.2,0.6-0.2h6.1
		c0.3,0,0.5,0.1,0.6,0.2c0.1,0.1,0.2,0.2,0.2,0.4c0,0.2-0.1,0.3-0.2,0.4C268.3,63.9,268.1,64,267.8,64z"/>
	<path class="st1" d="M272.2,60.1c0,0.2-0.1,0.4-0.2,0.5c-0.1,0.1-0.4,0.2-0.6,0.2s-0.5-0.1-0.6-0.2c-0.1-0.1-0.2-0.3-0.2-0.5
		c0-0.2,0.1-0.4,0.2-0.5c0.1-0.1,0.4-0.2,0.6-0.2s0.5,0.1,0.6,0.2C272.2,59.7,272.2,59.9,272.2,60.1z"/>
	<path class="st1" d="M277.3,53.8h1.4l-0.4,2.9c0,0.2-0.1,0.3-0.1,0.3c-0.1,0.1-0.1,0.1-0.2,0.1c-0.1,0-0.2,0-0.2-0.1
		c-0.1-0.1-0.1-0.2-0.1-0.3L277.3,53.8z"/>
	<path class="st1" d="M300.3,53.7l-3.6,7.7c-0.1,0.2-0.2,0.3-0.2,0.4c-0.1,0.1-0.2,0.1-0.3,0.1c-0.2,0-0.3-0.1-0.4-0.2
		c-0.1-0.1-0.2-0.2-0.2-0.4c0-0.1,0-0.2,0.1-0.4l3.6-7.7c0.1-0.2,0.2-0.3,0.2-0.4c0.1-0.1,0.2-0.1,0.3-0.1c0.2,0,0.3,0.1,0.4,0.2
		c0.1,0.1,0.2,0.2,0.2,0.4C300.5,53.4,300.4,53.5,300.3,53.7z"/>
	<path class="st1" d="M333.7,53.7l-3.6,7.7c-0.1,0.2-0.2,0.3-0.2,0.4c-0.1,0.1-0.2,0.1-0.3,0.1c-0.2,0-0.3-0.1-0.4-0.2
		c-0.1-0.1-0.2-0.2-0.2-0.4c0-0.1,0-0.2,0.1-0.4l3.6-7.7c0.1-0.2,0.2-0.3,0.2-0.4c0.1-0.1,0.2-0.1,0.3-0.1c0.2,0,0.3,0.1,0.4,0.2
		c0.1,0.1,0.2,0.2,0.2,0.4C333.8,53.4,333.8,53.5,333.7,53.7z"/>
	<path class="st1" d="M353.7,53.7l-3.6,7.7c-0.1,0.2-0.2,0.3-0.2,0.4c-0.1,0.1-0.2,0.1-0.3,0.1c-0.2,0-0.3-0.1-0.4-0.2
		c-0.1-0.1-0.2-0.2-0.2-0.4c0-0.1,0-0.2,0.1-0.4l3.6-7.7c0.1-0.2,0.2-0.3,0.2-0.4c0.1-0.1,0.2-0.1,0.3-0.1c0.2,0,0.3,0.1,0.4,0.2
		c0.1,0.1,0.2,0.2,0.2,0.4C353.8,53.4,353.8,53.5,353.7,53.7z"/>
	<path class="st1" d="M387,53.7l-3.6,7.7c-0.1,0.2-0.2,0.3-0.2,0.4c-0.1,0.1-0.2,0.1-0.3,0.1c-0.2,0-0.3-0.1-0.4-0.2
		c-0.1-0.1-0.2-0.2-0.2-0.4c0-0.1,0-0.2,0.1-0.4l3.6-7.7c0.1-0.2,0.2-0.3,0.2-0.4c0.1-0.1,0.2-0.1,0.3-0.1c0.2,0,0.3,0.1,0.4,0.2
		c0.1,0.1,0.2,0.2,0.2,0.4C387.1,53.4,387.1,53.5,387,53.7z"/>
	<path class="st1" d="M407,53.7l-3.6,7.7c-0.1,0.2-0.2,0.3-0.2,0.4c-0.1,0.1-0.2,0.1-0.3,0.1c-0.2,0-0.3-0.1-0.4-0.2
		c-0.1-0.1-0.2-0.2-0.2-0.4c0-0.1,0-0.2,0.1-0.4l3.6-7.7c0.1-0.2,0.2-0.3,0.2-0.4c0.1-0.1,0.2-0.1,0.3-0.1c0.2,0,0.3,0.1,0.4,0.2
		c0.1,0.1,0.2,0.2,0.2,0.4C407.1,53.4,407.1,53.5,407,53.7z"/>
	<path class="st1" d="M447,53.7l-3.6,7.7c-0.1,0.2-0.2,0.3-0.2,0.4c-0.1,0.1-0.2,0.1-0.3,0.1c-0.2,0-0.3-0.1-0.4-0.2
		c-0.1-0.1-0.2-0.2-0.2-0.4c0-0.1,0-0.2,0.1-0.4l3.6-7.7c0.1-0.2,0.2-0.3,0.2-0.4c0.1-0.1,0.2-0.1,0.3-0.1c0.2,0,0.3,0.1,0.4,0.2
		c0.1,0.1,0.2,0.2,0.2,0.4C447.1,53.4,447.1,53.5,447,53.7z"/>
	<path class="st1" d="M511.9,54.7v6.6c0,0.4,0,0.6,0,0.7c0,0.1-0.1,0.2-0.2,0.3c-0.1,0.1-0.2,0.1-0.3,0.1c-0.1,0-0.2,0-0.3-0.1
		c-0.1-0.1-0.2-0.2-0.2-0.3c0-0.1,0-0.3,0-0.7v-6.6c0-0.4,0-0.6,0-0.7c0-0.1,0.1-0.2,0.2-0.3c0.1-0.1,0.2-0.1,0.3-0.1
		c0.1,0,0.2,0,0.3,0.1c0.1,0.1,0.2,0.2,0.2,0.3C511.9,54.1,511.9,54.3,511.9,54.7z"/>
	<path class="st1" d="M517.8,59.1h1.5l-1.6,3c-0.1,0.2-0.2,0.3-0.4,0.3c-0.1,0-0.2,0-0.2-0.1c-0.1-0.1-0.1-0.1-0.1-0.2
		c0-0.1,0-0.1,0-0.2L517.8,59.1z"/>
	<path class="st1" d="M524,53.8h1.4l-0.4,2.9c0,0.2-0.1,0.3-0.1,0.3c-0.1,0.1-0.1,0.1-0.2,0.1c-0.1,0-0.2,0-0.2-0.1
		c-0.1-0.1-0.1-0.2-0.1-0.3L524,53.8z"/>
	<path class="st1" d="M543.4,53.3l3.6,7.6c0,0,0,0.1,0.1,0.3c0,0.1,0,0.1,0,0.2c0,0.1-0.1,0.2-0.2,0.3c-0.1,0.1-0.2,0.1-0.4,0.1
		c-0.1,0-0.3,0-0.3-0.1c-0.1-0.1-0.2-0.2-0.3-0.4l-3.6-7.7c-0.1-0.2-0.1-0.3-0.1-0.4c0-0.1,0.1-0.3,0.2-0.4c0.1-0.1,0.2-0.2,0.4-0.2
		c0.1,0,0.2,0,0.3,0.1C543.2,52.9,543.3,53.1,543.4,53.3z"/>
	<path class="st1" d="M551.1,59.1h1.5l-1.6,3c-0.1,0.2-0.2,0.3-0.4,0.3c-0.1,0-0.2,0-0.2-0.1c-0.1-0.1-0.1-0.1-0.1-0.2
		c0-0.1,0-0.1,0-0.2L551.1,59.1z"/>
	<path class="st1" d="M557.3,53.8h1.4l-0.4,2.9c0,0.2-0.1,0.3-0.1,0.3c-0.1,0.1-0.1,0.1-0.2,0.1c-0.1,0-0.2,0-0.2-0.1
		c-0.1-0.1-0.1-0.2-0.1-0.3L557.3,53.8z"/>
	<path class="st1" d="M587,53.7l-3.6,7.7c-0.1,0.2-0.2,0.3-0.2,0.4c-0.1,0.1-0.2,0.1-0.3,0.1c-0.2,0-0.3-0.1-0.4-0.2
		c-0.1-0.1-0.2-0.2-0.2-0.4c0-0.1,0-0.2,0.1-0.4l3.6-7.7c0.1-0.2,0.2-0.3,0.2-0.4c0.1-0.1,0.2-0.1,0.3-0.1c0.2,0,0.3,0.1,0.4,0.2
		c0.1,0.1,0.2,0.2,0.2,0.4C587.1,53.4,587.1,53.5,587,53.7z"/>
	<path class="st1" d="M593.7,58H589v-1h4.6V58z"/>
	<path class="st1" d="M600.4,58h-4.6v-1h4.6V58z"/>
	<path class="st1" d="M607,58h-4.6v-1h4.6V58z"/>
	<path class="st1" d="M613.7,58H609v-1h4.6V58z"/>
	<path class="st1" d="M620.3,53.7l-3.6,7.7c-0.1,0.2-0.2,0.3-0.2,0.4c-0.1,0.1-0.2,0.1-0.3,0.1c-0.2,0-0.3-0.1-0.4-0.2
		c-0.1-0.1-0.2-0.2-0.2-0.4c0-0.1,0-0.2,0.1-0.4l3.6-7.7c0.1-0.2,0.2-0.3,0.2-0.4c0.1-0.1,0.2-0.1,0.3-0.1c0.2,0,0.3,0.1,0.4,0.2
		c0.1,0.1,0.2,0.2,0.2,0.4C620.4,53.4,620.4,53.5,620.3,53.7z"/>
	<path class="st1" d="M665.2,54.7v6.6c0,0.4,0,0.6,0,0.7c0,0.1-0.1,0.2-0.2,0.3c-0.1,0.1-0.2,0.1-0.3,0.1c-0.1,0-0.2,0-0.3-0.1
		c-0.1-0.1-0.2-0.2-0.2-0.3c0-0.1,0-0.3,0-0.7v-6.6c0-0.4,0-0.6,0-0.7c0-0.1,0.1-0.2,0.2-0.3c0.1-0.1,0.2-0.1,0.3-0.1
		c0.1,0,0.2,0,0.3,0.1c0.1,0.1,0.2,0.2,0.2,0.3C665.2,54.1,665.2,54.3,665.2,54.7z"/>
	<path class="st1" d="M671.1,59.1h1.5l-1.6,3c-0.1,0.2-0.2,0.3-0.4,0.3c-0.1,0-0.2,0-0.2-0.1c-0.1-0.1-0.1-0.1-0.1-0.2
		c0-0.1,0-0.1,0-0.2L671.1,59.1z"/>
	<path class="st1" d="M677.3,53.8h1.4l-0.4,2.9c0,0.2-0.1,0.3-0.1,0.3c-0.1,0.1-0.1,0.1-0.2,0.1c-0.1,0-0.2,0-0.2-0.1
		c-0.1-0.1-0.1-0.2-0.1-0.3L677.3,53.8z"/>
	<path class="st1" d="M696.7,53.3l3.6,7.6c0,0,0,0.1,0.1,0.3c0,0.1,0,0.1,0,0.2c0,0.1-0.1,0.2-0.2,0.3c-0.1,0.1-0.2,0.1-0.4,0.1
		c-0.1,0-0.3,0-0.3-0.1c-0.1-0.1-0.2-0.2-0.3-0.4l-3.6-7.7c-0.1-0.2-0.1-0.3-0.1-0.4c0-0.1,0.1-0.3,0.2-0.4c0.1-0.1,0.2-0.2,0.4-0.2
		c0.1,0,0.2,0,0.3,0.1C696.6,52.9,696.6,53.1,696.7,53.3z"/>
	<path class="st1" d="M704.4,59.1h1.5l-1.6,3c-0.1,0.2-0.2,0.3-0.4,0.3c-0.1,0-0.2,0-0.2-0.1c-0.1-0.1-0.1-0.1-0.1-0.2
		c0-0.1,0-0.1,0-0.2L704.4,59.1z"/>
	<path class="st1" d="M710.6,53.8h1.4l-0.4,2.9c0,0.2-0.1,0.3-0.1,0.3c-0.1,0.1-0.1,0.1-0.2,0.1c-0.1,0-0.2,0-0.2-0.1
		c-0.1-0.1-0.1-0.2-0.1-0.3L710.6,53.8z"/>
	<path class="st1" d="M731.1,59.1h1.5l-1.6,3c-0.1,0.2-0.2,0.3-0.4,0.3c-0.1,0-0.2,0-0.2-0.1c-0.1-0.1-0.1-0.1-0.1-0.2
		c0-0.1,0-0.1,0-0.2L731.1,59.1z"/>
	<path class="st1" d="M737.3,53.8h1.4l-0.4,2.9c0,0.2-0.1,0.3-0.1,0.3c-0.1,0.1-0.1,0.1-0.2,0.1c-0.1,0-0.2,0-0.2-0.1
		c-0.1-0.1-0.1-0.2-0.1-0.3L737.3,53.8z"/>
	<path class="st1" d="M783.4,53.3l3.6,7.6c0,0,0,0.1,0.1,0.3c0,0.1,0,0.1,0,0.2c0,0.1-0.1,0.2-0.2,0.3c-0.1,0.1-0.2,0.1-0.4,0.1
		c-0.1,0-0.3,0-0.3-0.1s-0.2-0.2-0.3-0.4l-3.6-7.7c-0.1-0.2-0.1-0.3-0.1-0.4c0-0.1,0.1-0.3,0.2-0.4c0.1-0.1,0.2-0.2,0.4-0.2
		c0.1,0,0.2,0,0.3,0.1S783.3,53.1,783.4,53.3z"/>
	<path class="st1" d="M798.6,54.7v6.6c0,0.4,0,0.6,0,0.7c0,0.1-0.1,0.2-0.2,0.3c-0.1,0.1-0.2,0.1-0.3,0.1c-0.1,0-0.2,0-0.3-0.1
		c-0.1-0.1-0.2-0.2-0.2-0.3c0-0.1,0-0.3,0-0.7v-6.6c0-0.4,0-0.6,0-0.7c0-0.1,0.1-0.2,0.2-0.3c0.1-0.1,0.2-0.1,0.3-0.1
		c0.1,0,0.2,0,0.3,0.1c0.1,0.1,0.2,0.2,0.2,0.3C798.6,54.1,798.6,54.3,798.6,54.7z"/>
	<path class="st1" d="M823.4,53.3l3.6,7.6c0,0,0,0.1,0.1,0.3c0,0.1,0,0.1,0,0.2c0,0.1-0.1,0.2-0.2,0.3c-0.1,0.1-0.2,0.1-0.4,0.1
		c-0.1,0-0.3,0-0.3-0.1c-0.1-0.1-0.2-0.2-0.3-0.4l-3.6-7.7c-0.1-0.2-0.1-0.3-0.1-0.4c0-0.1,0.1-0.3,0.2-0.4c0.1-0.1,0.2-0.2,0.4-0.2
		c0.1,0,0.2,0,0.3,0.1C823.2,52.9,823.3,53.1,823.4,53.3z"/>
	<path class="st1" d="M831.9,54.7v6.6c0,0.4,0,0.6,0,0.7c0,0.1-0.1,0.2-0.2,0.3c-0.1,0.1-0.2,0.1-0.3,0.1c-0.1,0-0.2,0-0.3-0.1
		c-0.1-0.1-0.2-0.2-0.2-0.3c0-0.1,0-0.3,0-0.7v-6.6c0-0.4,0-0.6,0-0.7c0-0.1,0.1-0.2,0.2-0.3c0.1-0.1,0.2-0.1,0.3-0.1
		c0.1,0,0.2,0,0.3,0.1c0.1,0.1,0.2,0.2,0.2,0.3C831.9,54.1,831.9,54.3,831.9,54.7z"/>
	<path class="st1" d="M880.3,53.7l-3.6,7.7c-0.1,0.2-0.2,0.3-0.2,0.4c-0.1,0.1-0.2,0.1-0.3,0.1c-0.2,0-0.3-0.1-0.4-0.2
		c-0.1-0.1-0.2-0.2-0.2-0.4c0-0.1,0-0.2,0.1-0.4l3.6-7.7c0.1-0.2,0.2-0.3,0.2-0.4c0.1-0.1,0.2-0.1,0.3-0.1c0.2,0,0.3,0.1,0.4,0.2
		c0.1,0.1,0.2,0.2,0.2,0.4C880.4,53.4,880.4,53.5,880.3,53.7z"/>
</g>
</svg>
