<?xml version="1.0" encoding="utf-8"?>
<!-- Generator: Adobe Illustrator 25.2.3, SVG Export Plug-In . SVG Version: 6.00 Build 0)  -->
<svg version="1.1" id="Layer_1" xmlns="http://www.w3.org/2000/svg" xmlns:xlink="http://www.w3.org/1999/xlink" x="0px" y="0px"
	 viewBox="0 0 348 139.3" style="enable-background:new 0 0 348 139.3;" xml:space="preserve">
<style type="text/css">
	.st0{fill:#FFFFFF;stroke:#FFFFFF;stroke-miterlimit:10;}
</style>
<g>
	<path class="st0" d="M224.1,18h-7.8c-0.1,0-0.2,0-0.3-0.1c-0.1-0.1-0.1-0.1-0.1-0.2s0-0.2,0.1-0.2c0.1-0.1,0.2-0.1,0.3-0.1h7.8
		c0.1,0,0.2,0,0.3,0.1s0.1,0.1,0.1,0.2s0,0.2-0.1,0.2C224.3,18,224.2,18,224.1,18z"/>
	<path class="st0" d="M228.7,12.4h0.3c0.3,0,0.5,0.1,0.7,0.3c0.2,0.2,0.3,0.4,0.3,0.7c0,0.3-0.1,0.5-0.3,0.7s-0.4,0.3-0.7,0.3h-0.3
		c-0.3,0-0.5-0.1-0.7-0.3c-0.2-0.2-0.3-0.4-0.3-0.7c0-0.3,0.1-0.5,0.3-0.7S228.4,12.4,228.7,12.4z"/>
	<path class="st0" d="M240.4,9.6v0.8h-6V9.6H240.4z"/>
	<path class="st0" d="M246.1,5.1l2.6,3.2c0.1,0.1,0.1,0.2,0.1,0.3c0,0.1,0,0.2-0.1,0.2c-0.1,0.1-0.1,0.1-0.2,0.1s-0.2-0.1-0.3-0.2
		L246.1,6L244,8.7c-0.1,0.1-0.2,0.2-0.3,0.2c-0.1,0-0.2,0-0.2-0.1c-0.1-0.1-0.1-0.1-0.1-0.2s0-0.2,0.1-0.3L246.1,5.1z"/>
	<path class="st0" d="M257.7,9.6v0.8h-6V9.6H257.7z"/>
	<path class="st0" d="M263.2,12.4h0.3c0.3,0,0.5,0.1,0.7,0.3c0.2,0.2,0.3,0.4,0.3,0.7c0,0.3-0.1,0.5-0.3,0.7s-0.4,0.3-0.7,0.3h-0.3
		c-0.3,0-0.5-0.1-0.7-0.3c-0.2-0.2-0.3-0.4-0.3-0.7c0-0.3,0.1-0.5,0.3-0.7S262.9,12.4,263.2,12.4z"/>
	<path class="st0" d="M275.9,18H268c-0.1,0-0.2,0-0.3-0.1c-0.1-0.1-0.1-0.1-0.1-0.2s0-0.2,0.1-0.2c0.1-0.1,0.2-0.1,0.3-0.1h7.8
		c0.1,0,0.2,0,0.3,0.1c0.1,0.1,0.1,0.1,0.1,0.2s0,0.2-0.1,0.2C276.1,18,276,18,275.9,18z"/>
	<path class="st0" d="M314.9,12.4h0.3c0.3,0,0.5,0.1,0.7,0.3c0.2,0.2,0.3,0.4,0.3,0.7c0,0.3-0.1,0.5-0.3,0.7s-0.4,0.3-0.7,0.3h-0.3
		c-0.3,0-0.5-0.1-0.7-0.3c-0.2-0.2-0.3-0.4-0.3-0.7c0-0.3,0.1-0.5,0.3-0.7S314.7,12.4,314.9,12.4z"/>
	<path class="st0" d="M326.7,9.6v0.8h-6V9.6H326.7z"/>
	<path class="st0" d="M335.3,9.6v0.8h-6V9.6H335.3z"/>
	<path class="st0" d="M340.8,12.4h0.3c0.3,0,0.5,0.1,0.7,0.3c0.2,0.2,0.3,0.4,0.3,0.7c0,0.3-0.1,0.5-0.3,0.7s-0.4,0.3-0.7,0.3h-0.3
		c-0.3,0-0.5-0.1-0.7-0.3c-0.2-0.2-0.3-0.4-0.3-0.7c0-0.3,0.1-0.5,0.3-0.7S340.6,12.4,340.8,12.4z"/>
	<path class="st0" d="M194.2,29.7h0.3c0.3,0,0.5,0.1,0.7,0.3c0.2,0.2,0.3,0.4,0.3,0.7c0,0.3-0.1,0.5-0.3,0.7s-0.4,0.3-0.7,0.3h-0.3
		c-0.3,0-0.5-0.1-0.7-0.3c-0.2-0.2-0.3-0.4-0.3-0.7c0-0.3,0.1-0.5,0.3-0.7S193.9,29.7,194.2,29.7z"/>
	<path class="st0" d="M205.9,26.9v0.8h-6v-0.8H205.9z"/>
	<path class="st0" d="M210.6,22.5h1.9l-0.5,3.7c0,0.2-0.1,0.3-0.2,0.4c-0.1,0.1-0.2,0.1-0.3,0.1s-0.2,0-0.3-0.1s-0.1-0.2-0.2-0.4
		L210.6,22.5z"/>
	<path class="st0" d="M250,35.3h-7.8c-0.1,0-0.2,0-0.3-0.1s-0.1-0.1-0.1-0.2s0-0.2,0.1-0.2c0.1-0.1,0.2-0.1,0.3-0.1h7.8
		c0.1,0,0.2,0,0.3,0.1c0.1,0.1,0.1,0.1,0.1,0.2s0,0.2-0.1,0.2C250.2,35.3,250.1,35.3,250,35.3z"/>
	<path class="st0" d="M279.6,22.5h1.9l-0.5,3.7c0,0.2-0.1,0.3-0.2,0.4s-0.2,0.1-0.3,0.1c-0.1,0-0.2,0-0.3-0.1
		c-0.1-0.1-0.1-0.2-0.2-0.4L279.6,22.5z"/>
	<path class="st0" d="M292.2,26.9v0.8h-6v-0.8H292.2z"/>
	<path class="st0" d="M297.7,29.7h0.3c0.3,0,0.5,0.1,0.7,0.3c0.2,0.2,0.3,0.4,0.3,0.7c0,0.3-0.1,0.5-0.3,0.7s-0.4,0.3-0.7,0.3h-0.3
		c-0.3,0-0.5-0.1-0.7-0.3c-0.2-0.2-0.3-0.4-0.3-0.7c0-0.3,0.1-0.5,0.3-0.7S297.4,29.7,297.7,29.7z"/>
	<path class="st0" d="M315.4,22.9v9.8c0,0.1,0,0.2-0.1,0.3c-0.1,0.1-0.1,0.1-0.2,0.1s-0.2,0-0.2-0.1s-0.1-0.2-0.1-0.3v-9.8
		c0-0.1,0-0.2,0.1-0.3s0.1-0.1,0.2-0.1s0.2,0,0.2,0.1S315.4,22.8,315.4,22.9z"/>
	<path class="st0" d="M327.6,35.3h-7.8c-0.1,0-0.2,0-0.3-0.1c-0.1-0.1-0.1-0.1-0.1-0.2s0-0.2,0.1-0.2c0.1-0.1,0.2-0.1,0.3-0.1h7.8
		c0.1,0,0.2,0,0.3,0.1c0.1,0.1,0.1,0.1,0.1,0.2s0,0.2-0.1,0.2C327.9,35.3,327.8,35.3,327.6,35.3z"/>
	<path class="st0" d="M336.2,35.3h-7.8c-0.1,0-0.2,0-0.3-0.1c-0.1-0.1-0.1-0.1-0.1-0.2s0-0.2,0.1-0.2c0.1-0.1,0.2-0.1,0.3-0.1h7.8
		c0.1,0,0.2,0,0.3,0.1c0.1,0.1,0.1,0.1,0.1,0.2s0,0.2-0.1,0.2C336.5,35.3,336.4,35.3,336.2,35.3z"/>
	<path class="st0" d="M341.2,22.9v9.8c0,0.1,0,0.2-0.1,0.3s-0.1,0.1-0.2,0.1s-0.2,0-0.2-0.1s-0.1-0.2-0.1-0.3v-9.8
		c0-0.1,0-0.2,0.1-0.3s0.1-0.1,0.2-0.1s0.2,0,0.2,0.1S341.2,22.8,341.2,22.9z"/>
	<path class="st0" d="M188.3,39.4l-4.7,10.2c-0.1,0.2-0.2,0.3-0.3,0.3s-0.1,0-0.2-0.1c-0.1-0.1-0.1-0.1-0.1-0.2c0-0.1,0-0.1,0.1-0.2
		l4.7-10.2c0.1-0.1,0.1-0.2,0.1-0.2s0.1,0,0.2,0c0.1,0,0.1,0,0.2,0.1c0.1,0.1,0.1,0.1,0.1,0.2C188.4,39.2,188.4,39.3,188.3,39.4z"/>
	<path class="st0" d="M237.7,40.2V50c0,0.1,0,0.2-0.1,0.3s-0.1,0.1-0.2,0.1s-0.2,0-0.2-0.1c-0.1-0.1-0.1-0.2-0.1-0.3v-9.8
		c0-0.1,0-0.2,0.1-0.3s0.1-0.1,0.2-0.1s0.2,0,0.2,0.1S237.7,40,237.7,40.2z"/>
	<path class="st0" d="M250,52.5h-7.8c-0.1,0-0.2,0-0.3-0.1s-0.1-0.1-0.1-0.2s0-0.2,0.1-0.2s0.2-0.1,0.3-0.1h7.8c0.1,0,0.2,0,0.3,0.1
		c0.1,0.1,0.1,0.1,0.1,0.2s0,0.2-0.1,0.2C250.2,52.5,250.1,52.5,250,52.5z"/>
	<path class="st0" d="M255,40.2V50c0,0.1,0,0.2-0.1,0.3s-0.1,0.1-0.2,0.1s-0.2,0-0.2-0.1c-0.1-0.1-0.1-0.2-0.1-0.3v-9.8
		c0-0.1,0-0.2,0.1-0.3s0.1-0.1,0.2-0.1s0.2,0,0.2,0.1S255,40,255,40.2z"/>
	<path class="st0" d="M304.3,39.1l4.7,10.2c0,0.1,0.1,0.2,0.1,0.2c0,0.1,0,0.1-0.1,0.2c-0.1,0.1-0.1,0.1-0.2,0.1s-0.2-0.1-0.3-0.3
		l-4.7-10.2c0-0.1-0.1-0.2-0.1-0.2c0-0.1,0-0.1,0.1-0.2s0.1-0.1,0.2-0.1C304.1,38.9,304.2,39,304.3,39.1z"/>
	<path class="st0" d="M315.4,40.2V50c0,0.1,0,0.2-0.1,0.3s-0.1,0.1-0.2,0.1s-0.2,0-0.2-0.1c-0.1-0.1-0.1-0.2-0.1-0.3v-9.8
		c0-0.1,0-0.2,0.1-0.3s0.1-0.1,0.2-0.1s0.2,0,0.2,0.1S315.4,40,315.4,40.2z"/>
	<path class="st0" d="M341.2,40.2V50c0,0.1,0,0.2-0.1,0.3s-0.1,0.1-0.2,0.1s-0.2,0-0.2-0.1c-0.1-0.1-0.1-0.2-0.1-0.3v-9.8
		c0-0.1,0-0.2,0.1-0.3s0.1-0.1,0.2-0.1s0.2,0,0.2,0.1S341.2,40,341.2,40.2z"/>
	<path class="st0" d="M179.7,56.6L175,66.8c-0.1,0.2-0.2,0.3-0.3,0.3s-0.1,0-0.2-0.1c-0.1-0.1-0.1-0.1-0.1-0.2c0-0.1,0-0.1,0.1-0.2
		l4.7-10.2c0.1-0.1,0.1-0.2,0.1-0.2s0.1,0,0.2,0c0.1,0,0.1,0,0.2,0.1s0.1,0.1,0.1,0.2C179.8,56.4,179.7,56.5,179.7,56.6z"/>
	<path class="st0" d="M313,56.4l4.7,10.2c0,0.1,0.1,0.2,0.1,0.2c0,0.1,0,0.1-0.1,0.2c-0.1,0.1-0.1,0.1-0.2,0.1s-0.2-0.1-0.3-0.3
		l-4.7-10.2c0-0.1-0.1-0.2-0.1-0.2c0-0.1,0-0.1,0.1-0.2s0.1-0.1,0.2-0.1C312.8,56.1,312.9,56.2,313,56.4z"/>
	<path class="st0" d="M341.2,57.4v9.8c0,0.1,0,0.2-0.1,0.3s-0.1,0.1-0.2,0.1s-0.2,0-0.2-0.1c-0.1-0.1-0.1-0.2-0.1-0.3v-9.8
		c0-0.1,0-0.2,0.1-0.3s0.1-0.1,0.2-0.1s0.2,0,0.2,0.1C341.2,57.2,341.2,57.3,341.2,57.4z"/>
	<path class="st0" d="M171.1,73.9l-4.7,10.2c-0.1,0.2-0.2,0.3-0.3,0.3s-0.1,0-0.2-0.1c-0.1-0.1-0.1-0.1-0.1-0.2c0-0.1,0-0.1,0.1-0.2
		l4.7-10.2c0.1-0.1,0.1-0.2,0.1-0.2s0.1,0,0.2,0c0.1,0,0.1,0,0.2,0.1c0.1,0.1,0.1,0.1,0.1,0.2C171.1,73.7,171.1,73.8,171.1,73.9z"/>
	<path class="st0" d="M177.3,74.7v9.8c0,0.1,0,0.2-0.1,0.3s-0.1,0.1-0.2,0.1c-0.1,0-0.2,0-0.2-0.1c-0.1-0.1-0.1-0.2-0.1-0.3v-9.8
		c0-0.1,0-0.2,0.1-0.3s0.1-0.1,0.2-0.1c0.1,0,0.2,0,0.2,0.1C177.3,74.4,177.3,74.5,177.3,74.7z"/>
	<path class="st0" d="M232.7,87h-7.8c-0.1,0-0.2,0-0.3-0.1c-0.1-0.1-0.1-0.1-0.1-0.2c0-0.1,0-0.2,0.1-0.2c0.1-0.1,0.2-0.1,0.3-0.1
		h7.8c0.1,0,0.2,0,0.3,0.1c0.1,0.1,0.1,0.1,0.1,0.2c0,0.1,0,0.2-0.1,0.2C233,87,232.9,87,232.7,87z"/>
	<path class="st0" d="M241.3,87h-7.8c-0.1,0-0.2,0-0.3-0.1c-0.1-0.1-0.1-0.1-0.1-0.2c0-0.1,0-0.2,0.1-0.2c0.1-0.1,0.2-0.1,0.3-0.1
		h7.8c0.1,0,0.2,0,0.3,0.1c0.1,0.1,0.1,0.1,0.1,0.2c0,0.1,0,0.2-0.1,0.2C241.6,87,241.5,87,241.3,87z"/>
	<path class="st0" d="M250,87h-7.8c-0.1,0-0.2,0-0.3-0.1c-0.1-0.1-0.1-0.1-0.1-0.2c0-0.1,0-0.2,0.1-0.2c0.1-0.1,0.2-0.1,0.3-0.1h7.8
		c0.1,0,0.2,0,0.3,0.1c0.1,0.1,0.1,0.1,0.1,0.2c0,0.1,0,0.2-0.1,0.2C250.2,87,250.1,87,250,87z"/>
	<path class="st0" d="M258.6,87h-7.8c-0.1,0-0.2,0-0.3-0.1c-0.1-0.1-0.1-0.1-0.1-0.2c0-0.1,0-0.2,0.1-0.2c0.1-0.1,0.2-0.1,0.3-0.1
		h7.8c0.1,0,0.2,0,0.3,0.1c0.1,0.1,0.1,0.1,0.1,0.2c0,0.1,0,0.2-0.1,0.2C258.8,87,258.7,87,258.6,87z"/>
	<path class="st0" d="M267.2,87h-7.8c-0.1,0-0.2,0-0.3-0.1c-0.1-0.1-0.1-0.1-0.1-0.2c0-0.1,0-0.2,0.1-0.2c0.1-0.1,0.2-0.1,0.3-0.1
		h7.8c0.1,0,0.2,0,0.3,0.1c0.1,0.1,0.1,0.1,0.1,0.2c0,0.1,0,0.2-0.1,0.2C267.5,87,267.4,87,267.2,87z"/>
	<path class="st0" d="M315.4,74.7v9.8c0,0.1,0,0.2-0.1,0.3s-0.1,0.1-0.2,0.1s-0.2,0-0.2-0.1c-0.1-0.1-0.1-0.2-0.1-0.3v-9.8
		c0-0.1,0-0.2,0.1-0.3s0.1-0.1,0.2-0.1s0.2,0,0.2,0.1C315.3,74.4,315.4,74.5,315.4,74.7z"/>
	<path class="st0" d="M321.6,73.6l4.7,10.2c0,0.1,0.1,0.2,0.1,0.2c0,0.1,0,0.1-0.1,0.2c-0.1,0.1-0.1,0.1-0.2,0.1s-0.2-0.1-0.3-0.3
		l-4.7-10.2c0-0.1-0.1-0.2-0.1-0.2c0-0.1,0-0.1,0.1-0.2s0.1-0.1,0.2-0.1C321.4,73.4,321.5,73.5,321.6,73.6z"/>
	<path class="st0" d="M341.2,74.7v9.8c0,0.1,0,0.2-0.1,0.3s-0.1,0.1-0.2,0.1s-0.2,0-0.2-0.1c-0.1-0.1-0.1-0.2-0.1-0.3v-9.8
		c0-0.1,0-0.2,0.1-0.3s0.1-0.1,0.2-0.1s0.2,0,0.2,0.1C341.2,74.4,341.2,74.5,341.2,74.7z"/>
	<path class="st0" d="M177.3,91.9v9.8c0,0.1,0,0.2-0.1,0.3s-0.1,0.1-0.2,0.1c-0.1,0-0.2,0-0.2-0.1c-0.1-0.1-0.1-0.2-0.1-0.3v-9.8
		c0-0.1,0-0.2,0.1-0.3s0.1-0.1,0.2-0.1c0.1,0,0.2,0,0.2,0.1C177.3,91.7,177.3,91.8,177.3,91.9z"/>
	<path class="st0" d="M220.5,91.9v9.8c0,0.1,0,0.2-0.1,0.3s-0.1,0.1-0.2,0.1s-0.2,0-0.2-0.1c-0.1-0.1-0.1-0.2-0.1-0.3v-9.8
		c0-0.1,0-0.2,0.1-0.3s0.1-0.1,0.2-0.1s0.2,0,0.2,0.1S220.5,91.8,220.5,91.9z"/>
	<path class="st0" d="M232,95.5h-6.4c-0.1,0-0.2,0-0.3-0.1c-0.1-0.1-0.1-0.1-0.1-0.2c0-0.1,0-0.2,0.1-0.2c0.1-0.1,0.2-0.1,0.3-0.1
		h6.4c0.1,0,0.2,0,0.3,0.1s0.1,0.1,0.1,0.2c0,0.1,0,0.2-0.1,0.2S232.2,95.5,232,95.5z M232,97.6h-6.4c-0.1,0-0.2,0-0.3-0.1
		c-0.1-0.1-0.1-0.1-0.1-0.2c0-0.1,0-0.2,0.1-0.2c0.1-0.1,0.2-0.1,0.3-0.1h6.4c0.1,0,0.2,0,0.3,0.1c0.1,0.1,0.1,0.1,0.1,0.2
		c0,0.1,0,0.2-0.1,0.2C232.3,97.6,232.2,97.6,232,97.6z"/>
	<path class="st0" d="M240.6,95.5h-6.4c-0.1,0-0.2,0-0.3-0.1s-0.1-0.1-0.1-0.2c0-0.1,0-0.2,0.1-0.2s0.2-0.1,0.3-0.1h6.4
		c0.1,0,0.2,0,0.3,0.1c0.1,0.1,0.1,0.1,0.1,0.2c0,0.1,0,0.2-0.1,0.2C240.9,95.4,240.8,95.5,240.6,95.5z M240.6,97.6h-6.4
		c-0.1,0-0.2,0-0.3-0.1c-0.1-0.1-0.1-0.1-0.1-0.2c0-0.1,0-0.2,0.1-0.2c0.1-0.1,0.2-0.1,0.3-0.1h6.4c0.1,0,0.2,0,0.3,0.1
		c0.1,0.1,0.1,0.1,0.1,0.2c0,0.1,0,0.2-0.1,0.2C240.9,97.6,240.8,97.6,240.6,97.6z"/>
	<path class="st0" d="M246.4,91.9v9.8c0,0.1,0,0.2-0.1,0.3s-0.1,0.1-0.2,0.1s-0.2,0-0.2-0.1c-0.1-0.1-0.1-0.2-0.1-0.3v-9.8
		c0-0.1,0-0.2,0.1-0.3s0.1-0.1,0.2-0.1s0.2,0,0.2,0.1S246.4,91.8,246.4,91.9z"/>
	<path class="st0" d="M257.9,95.5h-6.4c-0.1,0-0.2,0-0.3-0.1c-0.1-0.1-0.1-0.1-0.1-0.2c0-0.1,0-0.2,0.1-0.2c0.1-0.1,0.2-0.1,0.3-0.1
		h6.4c0.1,0,0.2,0,0.3,0.1c0.1,0.1,0.1,0.1,0.1,0.2c0,0.1,0,0.2-0.1,0.2C258.1,95.4,258,95.5,257.9,95.5z M257.9,97.6h-6.4
		c-0.1,0-0.2,0-0.3-0.1c-0.1-0.1-0.1-0.1-0.1-0.2c0-0.1,0-0.2,0.1-0.2c0.1-0.1,0.2-0.1,0.3-0.1h6.4c0.1,0,0.2,0,0.3,0.1
		c0.1,0.1,0.1,0.1,0.1,0.2c0,0.1,0,0.2-0.1,0.2C258.1,97.6,258,97.6,257.9,97.6z"/>
	<path class="st0" d="M266.5,95.5h-6.4c-0.1,0-0.2,0-0.3-0.1c-0.1-0.1-0.1-0.1-0.1-0.2c0-0.1,0-0.2,0.1-0.2c0.1-0.1,0.2-0.1,0.3-0.1
		h6.4c0.1,0,0.2,0,0.3,0.1c0.1,0.1,0.1,0.1,0.1,0.2c0,0.1,0,0.2-0.1,0.2C266.8,95.4,266.7,95.5,266.5,95.5z M266.5,97.6h-6.4
		c-0.1,0-0.2,0-0.3-0.1c-0.1-0.1-0.1-0.1-0.1-0.2c0-0.1,0-0.2,0.1-0.2c0.1-0.1,0.2-0.1,0.3-0.1h6.4c0.1,0,0.2,0,0.3,0.1
		c0.1,0.1,0.1,0.1,0.1,0.2c0,0.1,0,0.2-0.1,0.2C266.8,97.6,266.7,97.6,266.5,97.6z"/>
	<path class="st0" d="M272.2,91.9v9.8c0,0.1,0,0.2-0.1,0.3s-0.1,0.1-0.2,0.1s-0.2,0-0.2-0.1c-0.1-0.1-0.1-0.2-0.1-0.3v-9.8
		c0-0.1,0-0.2,0.1-0.3s0.1-0.1,0.2-0.1s0.2,0,0.2,0.1C272.2,91.7,272.2,91.8,272.2,91.9z"/>
	<path class="st0" d="M315.4,91.9v9.8c0,0.1,0,0.2-0.1,0.3s-0.1,0.1-0.2,0.1s-0.2,0-0.2-0.1c-0.1-0.1-0.1-0.2-0.1-0.3v-9.8
		c0-0.1,0-0.2,0.1-0.3s0.1-0.1,0.2-0.1s0.2,0,0.2,0.1S315.4,91.8,315.4,91.9z"/>
	<path class="st0" d="M341.2,91.9v9.8c0,0.1,0,0.2-0.1,0.3s-0.1,0.1-0.2,0.1s-0.2,0-0.2-0.1c-0.1-0.1-0.1-0.2-0.1-0.3v-9.8
		c0-0.1,0-0.2,0.1-0.3s0.1-0.1,0.2-0.1s0.2,0,0.2,0.1C341.2,91.7,341.2,91.8,341.2,91.9z"/>
	<path class="st0" d="M4.8,109.2v9.8c0,0.1,0,0.2-0.1,0.3s-0.1,0.1-0.2,0.1c-0.1,0-0.2,0-0.2-0.1c-0.1-0.1-0.1-0.2-0.1-0.3v-9.8
		c0-0.1,0-0.2,0.1-0.3s0.1-0.1,0.2-0.1c0.1,0,0.2,0,0.2,0.1C4.8,108.9,4.8,109,4.8,109.2z"/>
	<path class="st0" d="M16.2,113.1v0.8h-6v-0.8H16.2z"/>
	<path class="st0" d="M24.8,113.1v0.8h-6v-0.8H24.8z"/>
	<path class="st0" d="M33.4,113.1v0.8h-6v-0.8H33.4z"/>
	<path class="st0" d="M39.3,109.2v9.8c0,0.1,0,0.2-0.1,0.3s-0.1,0.1-0.2,0.1s-0.2,0-0.2-0.1c-0.1-0.1-0.1-0.2-0.1-0.3v-9.8
		c0-0.1,0-0.2,0.1-0.3s0.1-0.1,0.2-0.1s0.2,0,0.2,0.1C39.3,108.9,39.3,109,39.3,109.2z"/>
	<path class="st0" d="M50.7,113.1v0.8h-6v-0.8H50.7z"/>
	<path class="st0" d="M59.3,113.1v0.8h-6v-0.8H59.3z"/>
	<path class="st0" d="M67.9,113.1v0.8h-6v-0.8H67.9z"/>
	<path class="st0" d="M73.8,109.2v9.8c0,0.1,0,0.2-0.1,0.3s-0.1,0.1-0.2,0.1s-0.2,0-0.2-0.1c-0.1-0.1-0.1-0.2-0.1-0.3v-9.8
		c0-0.1,0-0.2,0.1-0.3s0.1-0.1,0.2-0.1s0.2,0,0.2,0.1C73.8,108.9,73.8,109,73.8,109.2z"/>
	<path class="st0" d="M85.2,113.1v0.8h-6v-0.8H85.2z"/>
	<path class="st0" d="M93.8,113.1v0.8h-6v-0.8H93.8z"/>
	<path class="st0" d="M102.4,113.1v0.8h-6v-0.8H102.4z"/>
	<path class="st0" d="M108.3,109.2v9.8c0,0.1,0,0.2-0.1,0.3s-0.1,0.1-0.2,0.1c-0.1,0-0.2,0-0.2-0.1c-0.1-0.1-0.1-0.2-0.1-0.3v-9.8
		c0-0.1,0-0.2,0.1-0.3s0.1-0.1,0.2-0.1c0.1,0,0.2,0,0.2,0.1C108.3,108.9,108.3,109,108.3,109.2z"/>
	<path class="st0" d="M119.7,113.1v0.8h-6v-0.8H119.7z"/>
	<path class="st0" d="M128.3,113.1v0.8h-6v-0.8H128.3z"/>
	<path class="st0" d="M136.9,113.1v0.8h-6v-0.8H136.9z"/>
	<path class="st0" d="M142.8,109.2v9.8c0,0.1,0,0.2-0.1,0.3s-0.1,0.1-0.2,0.1c-0.1,0-0.2,0-0.2-0.1c-0.1-0.1-0.1-0.2-0.1-0.3v-9.8
		c0-0.1,0-0.2,0.1-0.3s0.1-0.1,0.2-0.1c0.1,0,0.2,0,0.2,0.1C142.8,108.9,142.8,109,142.8,109.2z"/>
	<path class="st0" d="M154.2,113.1v0.8h-6v-0.8H154.2z"/>
	<path class="st0" d="M162.8,113.1v0.8h-6v-0.8H162.8z"/>
	<path class="st0" d="M171.4,113.1v0.8h-6v-0.8H171.4z"/>
	<path class="st0" d="M177.3,109.2v9.8c0,0.1,0,0.2-0.1,0.3s-0.1,0.1-0.2,0.1c-0.1,0-0.2,0-0.2-0.1c-0.1-0.1-0.1-0.2-0.1-0.3v-9.8
		c0-0.1,0-0.2,0.1-0.3s0.1-0.1,0.2-0.1c0.1,0,0.2,0,0.2,0.1C177.3,108.9,177.3,109,177.3,109.2z"/>
	<path class="st0" d="M220.5,109.2v9.8c0,0.1,0,0.2-0.1,0.3s-0.1,0.1-0.2,0.1s-0.2,0-0.2-0.1c-0.1-0.1-0.1-0.2-0.1-0.3v-9.8
		c0-0.1,0-0.2,0.1-0.3s0.1-0.1,0.2-0.1s0.2,0,0.2,0.1C220.4,108.9,220.5,109,220.5,109.2z"/>
	<path class="st0" d="M231.8,113.1v0.8h-6v-0.8H231.8z"/>
	<path class="st0" d="M240.4,113.1v0.8h-6v-0.8H240.4z"/>
	<path class="st0" d="M246.4,109.2v9.8c0,0.1,0,0.2-0.1,0.3s-0.1,0.1-0.2,0.1s-0.2,0-0.2-0.1c-0.1-0.1-0.1-0.2-0.1-0.3v-9.8
		c0-0.1,0-0.2,0.1-0.3s0.1-0.1,0.2-0.1s0.2,0,0.2,0.1C246.3,108.9,246.4,109,246.4,109.2z"/>
	<path class="st0" d="M257.7,113.1v0.8h-6v-0.8H257.7z"/>
	<path class="st0" d="M266.3,113.1v0.8h-6v-0.8H266.3z"/>
	<path class="st0" d="M272.2,109.2v9.8c0,0.1,0,0.2-0.1,0.3s-0.1,0.1-0.2,0.1s-0.2,0-0.2-0.1c-0.1-0.1-0.1-0.2-0.1-0.3v-9.8
		c0-0.1,0-0.2,0.1-0.3s0.1-0.1,0.2-0.1s0.2,0,0.2,0.1C272.2,108.9,272.2,109,272.2,109.2z"/>
	<path class="st0" d="M315.4,109.2v9.8c0,0.1,0,0.2-0.1,0.3s-0.1,0.1-0.2,0.1s-0.2,0-0.2-0.1c-0.1-0.1-0.1-0.2-0.1-0.3v-9.8
		c0-0.1,0-0.2,0.1-0.3s0.1-0.1,0.2-0.1s0.2,0,0.2,0.1C315.3,108.9,315.4,109,315.4,109.2z"/>
	<path class="st0" d="M341.2,109.2v9.8c0,0.1,0,0.2-0.1,0.3s-0.1,0.1-0.2,0.1s-0.2,0-0.2-0.1c-0.1-0.1-0.1-0.2-0.1-0.3v-9.8
		c0-0.1,0-0.2,0.1-0.3s0.1-0.1,0.2-0.1s0.2,0,0.2,0.1C341.2,108.9,341.2,109,341.2,109.2z"/>
	<path class="st0" d="M4.8,126.4v9.8c0,0.1,0,0.2-0.1,0.3s-0.1,0.1-0.2,0.1c-0.1,0-0.2,0-0.2-0.1s-0.1-0.2-0.1-0.3v-9.8
		c0-0.1,0-0.2,0.1-0.3s0.1-0.1,0.2-0.1c0.1,0,0.2,0,0.2,0.1S4.8,126.3,4.8,126.4z"/>
	<path class="st0" d="M16.2,130.4v0.8h-6v-0.8H16.2z"/>
	<path class="st0" d="M24.8,130.4v0.8h-6v-0.8H24.8z"/>
	<path class="st0" d="M33.4,130.4v0.8h-6v-0.8H33.4z"/>
	<path class="st0" d="M39.3,126.4v9.8c0,0.1,0,0.2-0.1,0.3s-0.1,0.1-0.2,0.1s-0.2,0-0.2-0.1s-0.1-0.2-0.1-0.3v-9.8
		c0-0.1,0-0.2,0.1-0.3s0.1-0.1,0.2-0.1s0.2,0,0.2,0.1S39.3,126.3,39.3,126.4z"/>
	<path class="st0" d="M50.7,130.4v0.8h-6v-0.8H50.7z"/>
	<path class="st0" d="M59.3,130.4v0.8h-6v-0.8H59.3z"/>
	<path class="st0" d="M67.9,130.4v0.8h-6v-0.8H67.9z"/>
	<path class="st0" d="M73.8,126.4v9.8c0,0.1,0,0.2-0.1,0.3s-0.1,0.1-0.2,0.1s-0.2,0-0.2-0.1s-0.1-0.2-0.1-0.3v-9.8
		c0-0.1,0-0.2,0.1-0.3s0.1-0.1,0.2-0.1s0.2,0,0.2,0.1S73.8,126.3,73.8,126.4z"/>
	<path class="st0" d="M85.2,130.4v0.8h-6v-0.8H85.2z"/>
	<path class="st0" d="M93.8,130.4v0.8h-6v-0.8H93.8z"/>
	<path class="st0" d="M102.4,130.4v0.8h-6v-0.8H102.4z"/>
	<path class="st0" d="M108.3,126.4v9.8c0,0.1,0,0.2-0.1,0.3s-0.1,0.1-0.2,0.1c-0.1,0-0.2,0-0.2-0.1s-0.1-0.2-0.1-0.3v-9.8
		c0-0.1,0-0.2,0.1-0.3s0.1-0.1,0.2-0.1c0.1,0,0.2,0,0.2,0.1S108.3,126.3,108.3,126.4z"/>
	<path class="st0" d="M119.7,130.4v0.8h-6v-0.8H119.7z"/>
	<path class="st0" d="M128.3,130.4v0.8h-6v-0.8H128.3z"/>
	<path class="st0" d="M136.9,130.4v0.8h-6v-0.8H136.9z"/>
	<path class="st0" d="M142.8,126.4v9.8c0,0.1,0,0.2-0.1,0.3s-0.1,0.1-0.2,0.1c-0.1,0-0.2,0-0.2-0.1s-0.1-0.2-0.1-0.3v-9.8
		c0-0.1,0-0.2,0.1-0.3s0.1-0.1,0.2-0.1c0.1,0,0.2,0,0.2,0.1S142.8,126.3,142.8,126.4z"/>
	<path class="st0" d="M154.2,130.4v0.8h-6v-0.8H154.2z"/>
	<path class="st0" d="M162.8,130.4v0.8h-6v-0.8H162.8z"/>
	<path class="st0" d="M171.4,130.4v0.8h-6v-0.8H171.4z"/>
	<path class="st0" d="M177.3,126.4v9.8c0,0.1,0,0.2-0.1,0.3s-0.1,0.1-0.2,0.1c-0.1,0-0.2,0-0.2-0.1s-0.1-0.2-0.1-0.3v-9.8
		c0-0.1,0-0.2,0.1-0.3s0.1-0.1,0.2-0.1c0.1,0,0.2,0,0.2,0.1S177.3,126.3,177.3,126.4z"/>
	<path class="st0" d="M220.5,126.4v9.8c0,0.1,0,0.2-0.1,0.3s-0.1,0.1-0.2,0.1s-0.2,0-0.2-0.1s-0.1-0.2-0.1-0.3v-9.8
		c0-0.1,0-0.2,0.1-0.3s0.1-0.1,0.2-0.1s0.2,0,0.2,0.1S220.5,126.3,220.5,126.4z"/>
	<path class="st0" d="M232,130h-6.4c-0.1,0-0.2,0-0.3-0.1c-0.1-0.1-0.1-0.1-0.1-0.2c0-0.1,0-0.2,0.1-0.2c0.1-0.1,0.2-0.1,0.3-0.1
		h6.4c0.1,0,0.2,0,0.3,0.1s0.1,0.1,0.1,0.2c0,0.1,0,0.2-0.1,0.2S232.2,130,232,130z M232,132.1h-6.4c-0.1,0-0.2,0-0.3-0.1
		c-0.1-0.1-0.1-0.1-0.1-0.2s0-0.2,0.1-0.2c0.1-0.1,0.2-0.1,0.3-0.1h6.4c0.1,0,0.2,0,0.3,0.1s0.1,0.1,0.1,0.2s0,0.2-0.1,0.2
		S232.2,132.1,232,132.1z"/>
	<path class="st0" d="M240.6,130h-6.4c-0.1,0-0.2,0-0.3-0.1s-0.1-0.1-0.1-0.2c0-0.1,0-0.2,0.1-0.2s0.2-0.1,0.3-0.1h6.4
		c0.1,0,0.2,0,0.3,0.1c0.1,0.1,0.1,0.1,0.1,0.2c0,0.1,0,0.2-0.1,0.2C240.9,129.9,240.8,130,240.6,130z M240.6,132.1h-6.4
		c-0.1,0-0.2,0-0.3-0.1s-0.1-0.1-0.1-0.2s0-0.2,0.1-0.2s0.2-0.1,0.3-0.1h6.4c0.1,0,0.2,0,0.3,0.1c0.1,0.1,0.1,0.1,0.1,0.2
		s0,0.2-0.1,0.2C240.9,132.1,240.8,132.1,240.6,132.1z"/>
	<path class="st0" d="M246.4,126.4v9.8c0,0.1,0,0.2-0.1,0.3s-0.1,0.1-0.2,0.1s-0.2,0-0.2-0.1s-0.1-0.2-0.1-0.3v-9.8
		c0-0.1,0-0.2,0.1-0.3s0.1-0.1,0.2-0.1s0.2,0,0.2,0.1S246.4,126.3,246.4,126.4z"/>
	<path class="st0" d="M257.9,130h-6.4c-0.1,0-0.2,0-0.3-0.1c-0.1-0.1-0.1-0.1-0.1-0.2c0-0.1,0-0.2,0.1-0.2c0.1-0.1,0.2-0.1,0.3-0.1
		h6.4c0.1,0,0.2,0,0.3,0.1c0.1,0.1,0.1,0.1,0.1,0.2c0,0.1,0,0.2-0.1,0.2C258.1,129.9,258,130,257.9,130z M257.9,132.1h-6.4
		c-0.1,0-0.2,0-0.3-0.1c-0.1-0.1-0.1-0.1-0.1-0.2s0-0.2,0.1-0.2c0.1-0.1,0.2-0.1,0.3-0.1h6.4c0.1,0,0.2,0,0.3,0.1
		c0.1,0.1,0.1,0.1,0.1,0.2s0,0.2-0.1,0.2C258.1,132.1,258,132.1,257.9,132.1z"/>
	<path class="st0" d="M266.5,130h-6.4c-0.1,0-0.2,0-0.3-0.1c-0.1-0.1-0.1-0.1-0.1-0.2c0-0.1,0-0.2,0.1-0.2c0.1-0.1,0.2-0.1,0.3-0.1
		h6.4c0.1,0,0.2,0,0.3,0.1c0.1,0.1,0.1,0.1,0.1,0.2c0,0.1,0,0.2-0.1,0.2C266.8,129.9,266.7,130,266.5,130z M266.5,132.1h-6.4
		c-0.1,0-0.2,0-0.3-0.1c-0.1-0.1-0.1-0.1-0.1-0.2s0-0.2,0.1-0.2c0.1-0.1,0.2-0.1,0.3-0.1h6.4c0.1,0,0.2,0,0.3,0.1
		c0.1,0.1,0.1,0.1,0.1,0.2s0,0.2-0.1,0.2C266.8,132.1,266.7,132.1,266.5,132.1z"/>
	<path class="st0" d="M272.2,126.4v9.8c0,0.1,0,0.2-0.1,0.3s-0.1,0.1-0.2,0.1s-0.2,0-0.2-0.1s-0.1-0.2-0.1-0.3v-9.8
		c0-0.1,0-0.2,0.1-0.3s0.1-0.1,0.2-0.1s0.2,0,0.2,0.1S272.2,126.3,272.2,126.4z"/>
	<path class="st0" d="M315.4,126.4v9.8c0,0.1,0,0.2-0.1,0.3s-0.1,0.1-0.2,0.1s-0.2,0-0.2-0.1s-0.1-0.2-0.1-0.3v-9.8
		c0-0.1,0-0.2,0.1-0.3s0.1-0.1,0.2-0.1s0.2,0,0.2,0.1S315.4,126.3,315.4,126.4z"/>
	<path class="st0" d="M341.2,126.4v9.8c0,0.1,0,0.2-0.1,0.3s-0.1,0.1-0.2,0.1s-0.2,0-0.2-0.1s-0.1-0.2-0.1-0.3v-9.8
		c0-0.1,0-0.2,0.1-0.3s0.1-0.1,0.2-0.1s0.2,0,0.2,0.1S341.2,126.3,341.2,126.4z"/>
</g>
</svg>
