<?xml version="1.0" encoding="utf-8"?>
<!-- Generator: Adobe Illustrator 25.2.3, SVG Export Plug-In . SVG Version: 6.00 Build 0)  -->
<svg version="1.1" id="Layer_1" xmlns="http://www.w3.org/2000/svg" xmlns:xlink="http://www.w3.org/1999/xlink" x="0px" y="0px"
	 viewBox="0 0 110 173.3" style="enable-background:new 0 0 110 173.3;" xml:space="preserve">
<style type="text/css">
	.st0{fill:#FFFFFF;stroke:#FFFFFF;stroke-miterlimit:10;}
</style>
<g>
	<path class="st0" d="M27.6,7.8h0.3c0.3,0,0.5,0.1,0.8,0.3C28.9,8.3,29,8.6,29,8.9s-0.1,0.6-0.3,0.8c-0.2,0.2-0.5,0.3-0.8,0.3h-0.3
		c-0.3,0-0.5-0.1-0.8-0.3c-0.2-0.2-0.3-0.5-0.3-0.8s0.1-0.6,0.3-0.8S27.3,7.8,27.6,7.8z"/>
	<path class="st0" d="M40.8,4.7v0.9H34V4.7C34,4.7,40.8,4.7,40.8,4.7z"/>
	<path class="st0" d="M47,7.8h0.3c0.3,0,0.5,0.1,0.8,0.3c0.2,0.2,0.3,0.5,0.3,0.8s-0.1,0.6-0.3,0.8c-0.2,0.2-0.5,0.3-0.8,0.3H47
		c-0.3,0-0.5-0.1-0.8-0.3c-0.2-0.2-0.3-0.5-0.3-0.8s0.1-0.6,0.3-0.8C46.5,7.9,46.7,7.8,47,7.8z"/>
	<path class="st0" d="M61.3,14.1h-8.8c-0.2,0-0.3,0-0.3-0.1c-0.1-0.1-0.1-0.1-0.1-0.2s0-0.2,0.1-0.2c0.1-0.1,0.2-0.1,0.3-0.1h8.8
		c0.2,0,0.3,0,0.3,0.1s0.1,0.1,0.1,0.2s0,0.2-0.1,0.2C61.5,14.1,61.4,14.1,61.3,14.1z"/>
	<path class="st0" d="M28.1,19.7v11.1c0,0.2,0,0.3-0.1,0.3c-0.1,0.1-0.1,0.1-0.2,0.1c-0.1,0-0.2,0-0.2-0.1c-0.1-0.1-0.1-0.2-0.1-0.3
		V19.7c0-0.2,0-0.3,0.1-0.3c0.1-0.1,0.1-0.1,0.2-0.1c0.1,0,0.2,0,0.2,0.1S28.1,19.5,28.1,19.7z"/>
	<path class="st0" d="M47.5,19.7v11.1c0,0.2,0,0.3-0.1,0.3c-0.1,0.1-0.1,0.1-0.2,0.1c-0.1,0-0.2,0-0.2-0.1c-0.1-0.1-0.1-0.2-0.1-0.3
		V19.7c0-0.2,0-0.3,0.1-0.3c0.1-0.1,0.1-0.1,0.2-0.1c0.1,0,0.2,0,0.2,0.1C47.4,19.4,47.5,19.5,47.5,19.7z"/>
	<path class="st0" d="M66.9,19.7v11.1c0,0.2,0,0.3-0.1,0.3c-0.1,0.1-0.1,0.1-0.2,0.1c-0.1,0-0.2,0-0.2-0.1c-0.1-0.1-0.1-0.2-0.1-0.3
		V19.7c0-0.2,0-0.3,0.1-0.3s0.1-0.1,0.2-0.1c0.1,0,0.2,0,0.2,0.1C66.9,19.4,66.9,19.5,66.9,19.7z"/>
	<path class="st0" d="M86.3,19.7v11.1c0,0.2,0,0.3-0.1,0.3c-0.1,0.1-0.1,0.1-0.2,0.1c-0.1,0-0.2,0-0.2-0.1c-0.1-0.1-0.1-0.2-0.1-0.3
		V19.7c0-0.2,0-0.3,0.1-0.3s0.1-0.1,0.2-0.1c0.1,0,0.2,0,0.2,0.1S86.3,19.5,86.3,19.7z"/>
	<path class="st0" d="M100.1,33.6h-8.8c-0.2,0-0.3,0-0.3-0.1c-0.1-0.1-0.1-0.1-0.1-0.2s0-0.2,0.1-0.2c0.1-0.1,0.2-0.1,0.3-0.1h8.8
		c0.2,0,0.3,0,0.3,0.1c0.1,0.1,0.1,0.1,0.1,0.2s0,0.2-0.1,0.2C100.4,33.5,100.2,33.6,100.1,33.6z"/>
	<path class="st0" d="M28.1,39.1v11.1c0,0.2,0,0.3-0.1,0.3s-0.1,0.1-0.2,0.1c-0.1,0-0.2,0-0.2-0.1c-0.1-0.1-0.1-0.2-0.1-0.3V39.1
		c0-0.2,0-0.3,0.1-0.3c0.1-0.1,0.1-0.1,0.2-0.1c0.1,0,0.2,0,0.2,0.1C28,38.8,28.1,38.9,28.1,39.1z"/>
	<path class="st0" d="M47.5,39.1v11.1c0,0.2,0,0.3-0.1,0.3s-0.1,0.1-0.2,0.1c-0.1,0-0.2,0-0.2-0.1c-0.1-0.1-0.1-0.2-0.1-0.3V39.1
		c0-0.2,0-0.3,0.1-0.3c0.1-0.1,0.1-0.1,0.2-0.1c0.1,0,0.2,0,0.2,0.1C47.4,38.8,47.5,38.9,47.5,39.1z"/>
	<path class="st0" d="M66.9,39.1v11.1c0,0.2,0,0.3-0.1,0.3c-0.1,0.1-0.1,0.1-0.2,0.1c-0.1,0-0.2,0-0.2-0.1s-0.1-0.2-0.1-0.3V39.1
		c0-0.2,0-0.3,0.1-0.3c0.1-0.1,0.1-0.1,0.2-0.1c0.1,0,0.2,0,0.2,0.1C66.9,38.8,66.9,38.9,66.9,39.1z"/>
	<path class="st0" d="M86.3,39.1v11.1c0,0.2,0,0.3-0.1,0.3c-0.1,0.1-0.1,0.1-0.2,0.1c-0.1,0-0.2,0-0.2-0.1s-0.1-0.2-0.1-0.3V39.1
		c0-0.2,0-0.3,0.1-0.3c0.1-0.1,0.1-0.1,0.2-0.1c0.1,0,0.2,0,0.2,0.1C86.3,38.8,86.3,38.9,86.3,39.1z"/>
	<path class="st0" d="M105.7,39.1v11.1c0,0.2,0,0.3-0.1,0.3c-0.1,0.1-0.1,0.1-0.2,0.1s-0.2,0-0.2-0.1c-0.1-0.1-0.1-0.2-0.1-0.3V39.1
		c0-0.2,0-0.3,0.1-0.3c0.1-0.1,0.1-0.1,0.2-0.1s0.2,0,0.2,0.1C105.7,38.8,105.7,38.9,105.7,39.1z"/>
	<path class="st0" d="M28.1,58.5v11.1c0,0.2,0,0.3-0.1,0.3C27.9,70,27.9,70,27.8,70c-0.1,0-0.2,0-0.2-0.1c-0.1-0.1-0.1-0.2-0.1-0.3
		V58.5c0-0.2,0-0.3,0.1-0.3c0.1-0.1,0.1-0.1,0.2-0.1c0.1,0,0.2,0,0.2,0.1S28.1,58.3,28.1,58.5z"/>
	<path class="st0" d="M47.5,58.5v11.1c0,0.2,0,0.3-0.1,0.3C47.3,70,47.3,70,47.2,70c-0.1,0-0.2,0-0.2-0.1c-0.1-0.1-0.1-0.2-0.1-0.3
		V58.5c0-0.2,0-0.3,0.1-0.3c0.1-0.1,0.1-0.1,0.2-0.1c0.1,0,0.2,0,0.2,0.1C47.4,58.2,47.5,58.3,47.5,58.5z"/>
	<path class="st0" d="M66.9,58.5v11.1c0,0.2,0,0.3-0.1,0.3C66.7,70,66.7,70,66.6,70c-0.1,0-0.2,0-0.2-0.1c-0.1-0.1-0.1-0.2-0.1-0.3
		V58.5c0-0.2,0-0.3,0.1-0.3s0.1-0.1,0.2-0.1c0.1,0,0.2,0,0.2,0.1C66.9,58.2,66.9,58.3,66.9,58.5z"/>
	<path class="st0" d="M86.3,58.5v11.1c0,0.2,0,0.3-0.1,0.3C86.1,70,86.1,70,86,70c-0.1,0-0.2,0-0.2-0.1c-0.1-0.1-0.1-0.2-0.1-0.3
		V58.5c0-0.2,0-0.3,0.1-0.3s0.1-0.1,0.2-0.1c0.1,0,0.2,0,0.2,0.1S86.3,58.3,86.3,58.5z"/>
	<path class="st0" d="M105.7,58.5v11.1c0,0.2,0,0.3-0.1,0.3c-0.1,0.1-0.1,0.1-0.2,0.1s-0.2,0-0.2-0.1c-0.1-0.1-0.1-0.2-0.1-0.3V58.5
		c0-0.2,0-0.3,0.1-0.3c0.1-0.1,0.1-0.1,0.2-0.1s0.2,0,0.2,0.1S105.7,58.3,105.7,58.5z"/>
	<path class="st0" d="M28.1,77.9V89c0,0.2,0,0.3-0.1,0.3s-0.1,0.1-0.2,0.1c-0.1,0-0.2,0-0.2-0.1c-0.1-0.1-0.1-0.2-0.1-0.3V77.9
		c0-0.2,0-0.3,0.1-0.3c0.1-0.1,0.1-0.1,0.2-0.1c0.1,0,0.2,0,0.2,0.1C28,77.6,28.1,77.7,28.1,77.9z"/>
	<path class="st0" d="M85.3,77l1.9,1.6l0.2,0.2v0.1c0,0.1,0,0.2-0.1,0.2c-0.1,0.1-0.1,0.1-0.2,0.1c-0.1,0-0.2-0.1-0.3-0.2l-1.9-1.6
		c-0.1-0.1-0.2-0.2-0.2-0.3s0-0.2,0.1-0.2s0.1-0.1,0.2-0.1C85,76.9,85.1,76.9,85.3,77z"/>
	<path class="st0" d="M105.7,77.9V89c0,0.2,0,0.3-0.1,0.3c-0.1,0.1-0.1,0.1-0.2,0.1s-0.2,0-0.2-0.1c-0.1-0.1-0.1-0.2-0.1-0.3V77.9
		c0-0.2,0-0.3,0.1-0.3c0.1-0.1,0.1-0.1,0.2-0.1s0.2,0,0.2,0.1C105.7,77.6,105.7,77.7,105.7,77.9z"/>
	<path class="st0" d="M5.9,96.1l5.3,11.4c0.1,0.1,0.1,0.2,0.1,0.3s0,0.2-0.1,0.2c-0.1,0.1-0.1,0.1-0.2,0.1c-0.1,0-0.3-0.1-0.4-0.3
		L5.3,96.4c-0.1-0.1-0.1-0.2-0.1-0.3s0-0.2,0.1-0.2c0.1-0.1,0.1-0.1,0.2-0.1C5.7,95.9,5.8,96,5.9,96.1z"/>
	<path class="st0" d="M17.3,96.4l1.9,1.6l0.2,0.2v0.1c0,0.1,0,0.2-0.1,0.2c-0.1,0.1-0.1,0.1-0.2,0.1c-0.1,0-0.2-0.1-0.3-0.2
		l-1.9-1.6c-0.1-0.1-0.2-0.2-0.2-0.3s0-0.2,0.1-0.2s0.1-0.1,0.2-0.1C17.1,96.3,17.2,96.3,17.3,96.4z"/>
	<path class="st0" d="M25.3,96.1l5.3,11.4c0.1,0.1,0.1,0.2,0.1,0.3s0,0.2-0.1,0.2c-0.1,0.1-0.1,0.1-0.2,0.1c-0.1,0-0.3-0.1-0.4-0.3
		l-5.3-11.4c-0.1-0.1-0.1-0.2-0.1-0.3s0-0.2,0.1-0.2c0.1-0.1,0.1-0.1,0.2-0.1C25.1,95.9,25.2,96,25.3,96.1z"/>
	<path class="st0" d="M104.1,104.4h2.1l-2.2,3.7c-0.1,0.2-0.2,0.3-0.3,0.3c-0.1,0-0.1,0.1-0.2,0.1s-0.2,0-0.3-0.1
		c-0.1-0.1-0.1-0.2-0.1-0.3s0-0.1,0-0.2L104.1,104.4z M105.2,99.9h0.3c0.3,0,0.5,0.1,0.8,0.3s0.3,0.5,0.3,0.8s-0.1,0.6-0.3,0.8
		s-0.5,0.3-0.8,0.3h-0.3c-0.3,0-0.5-0.1-0.8-0.3c-0.2-0.2-0.3-0.5-0.3-0.8s0.1-0.6,0.3-0.8C104.7,100,104.9,99.9,105.2,99.9z"/>
	<path class="st0" d="M15.6,115.6L21,127c0.1,0.1,0.1,0.2,0.1,0.3s0,0.2-0.1,0.2s-0.1,0.1-0.2,0.1c-0.1,0-0.3-0.1-0.4-0.3l-5.3-11.4
		c-0.1-0.1-0.1-0.2-0.1-0.3s0-0.2,0.1-0.2c0.1-0.1,0.1-0.1,0.2-0.1S15.5,115.4,15.6,115.6z"/>
	<path class="st0" d="M105.7,116.7v11.1c0,0.2,0,0.3-0.1,0.3c-0.1,0.1-0.1,0.1-0.2,0.1s-0.2,0-0.2-0.1c-0.1-0.1-0.1-0.2-0.1-0.3
		v-11.1c0-0.2,0-0.3,0.1-0.3c0.1-0.1,0.1-0.1,0.2-0.1s0.2,0,0.2,0.1C105.7,116.5,105.7,116.6,105.7,116.7z"/>
	<path class="st0" d="M25.3,135l5.3,11.4c0.1,0.1,0.1,0.2,0.1,0.3s0,0.2-0.1,0.2s-0.1,0.1-0.2,0.1c-0.1,0-0.3-0.1-0.4-0.3l-5.3-11.4
		c-0.1-0.1-0.1-0.2-0.1-0.3s0-0.2,0.1-0.2c0.1-0.1,0.1-0.1,0.2-0.1C25.1,134.7,25.2,134.8,25.3,135z"/>
	<path class="st0" d="M98.7,135.2l-5.3,11.4c-0.1,0.2-0.2,0.3-0.3,0.3s-0.2,0-0.2-0.1s-0.1-0.1-0.1-0.2c0-0.1,0-0.2,0.1-0.3
		l5.3-11.4c0.1-0.1,0.1-0.2,0.2-0.2s0.1-0.1,0.2-0.1c0.1,0,0.2,0,0.2,0.1s0.1,0.1,0.1,0.2C98.7,135,98.7,135.1,98.7,135.2z"/>
	<path class="st0" d="M37.8,155.6v11.1c0,0.2,0,0.3-0.1,0.3c-0.1,0.1-0.1,0.1-0.2,0.1c-0.1,0-0.2,0-0.2-0.1
		c-0.1-0.1-0.1-0.2-0.1-0.3v-11.1c0-0.2,0-0.3,0.1-0.3c0.1-0.1,0.1-0.1,0.2-0.1c0.1,0,0.2,0,0.2,0.1
		C37.7,155.3,37.8,155.4,37.8,155.6z"/>
	<path class="st0" d="M86.3,155.6v11.1c0,0.2,0,0.3-0.1,0.3c-0.1,0.1-0.1,0.1-0.2,0.1c-0.1,0-0.2,0-0.2-0.1
		c-0.1-0.1-0.1-0.2-0.1-0.3v-11.1c0-0.2,0-0.3,0.1-0.3c0.1-0.1,0.1-0.1,0.2-0.1c0.1,0,0.2,0,0.2,0.1
		C86.3,155.3,86.3,155.4,86.3,155.6z"/>
</g>
</svg>
