<?xml version="1.0" encoding="utf-8"?>
<!-- Generator: Adobe Illustrator 25.2.3, SVG Export Plug-In . SVG Version: 6.00 Build 0)  -->
<svg version="1.1" id="Layer_1" xmlns="http://www.w3.org/2000/svg" xmlns:xlink="http://www.w3.org/1999/xlink" x="0px" y="0px"
	 viewBox="0 0 401 112.3" style="enable-background:new 0 0 401 112.3;" xml:space="preserve">
<style type="text/css">
	.st0{fill:#FFFFFF;stroke:#FFFFFF;stroke-miterlimit:10;}
</style>
<g>
	<path class="st0" d="M62,6.6l-4,8.5c-0.1,0.1-0.2,0.2-0.3,0.2c-0.1,0-0.1,0-0.2-0.1s-0.1-0.1-0.1-0.2c0,0,0-0.1,0.1-0.2l4-8.5
		c0-0.1,0.1-0.1,0.1-0.2s0.1,0,0.1,0c0.1,0,0.1,0,0.2,0.1S62,6.3,62,6.4C62.1,6.5,62,6.5,62,6.6z"/>
	<path class="st0" d="M72.4,6.5l4,8.5c0,0.1,0.1,0.1,0.1,0.2s0,0.1-0.1,0.2s-0.1,0.1-0.2,0.1s-0.2-0.1-0.3-0.2l-4-8.5
		c0-0.1-0.1-0.1-0.1-0.2s0-0.1,0.1-0.2s0.1-0.1,0.2-0.1C72.3,6.2,72.4,6.3,72.4,6.5z"/>
	<path class="st0" d="M84.7,17.6h-6.5c-0.1,0-0.2,0-0.3-0.1s-0.1-0.1-0.1-0.2s0-0.1,0.1-0.2S78,17,78.2,17h6.5c0.1,0,0.2,0,0.3,0.1
		s0.1,0.1,0.1,0.2s0,0.1-0.1,0.2S84.8,17.6,84.7,17.6z"/>
	<path class="st0" d="M119.6,6.6l-4,8.5c-0.1,0.1-0.2,0.2-0.3,0.2c-0.1,0-0.1,0-0.2-0.1S115,15.1,115,15c0,0,0-0.1,0.1-0.2l4-8.5
		c0-0.1,0.1-0.1,0.1-0.2s0.1,0,0.1,0c0.1,0,0.1,0,0.2,0.1s0.1,0.1,0.1,0.2C119.7,6.5,119.6,6.5,119.6,6.6z"/>
	<path class="st0" d="M130,6.5l4,8.5c0,0.1,0.1,0.1,0.1,0.2s0,0.1-0.1,0.2s-0.1,0.1-0.2,0.1c-0.1,0-0.2-0.1-0.3-0.2l-4-8.5
		c0-0.1-0.1-0.1-0.1-0.2s0-0.1,0.1-0.2s0.1-0.1,0.2-0.1C129.9,6.2,130,6.3,130,6.5z"/>
	<path class="st0" d="M142.3,17.6h-6.5c-0.1,0-0.2,0-0.3-0.1s-0.1-0.1-0.1-0.2s0-0.1,0.1-0.2s0.1-0.1,0.3-0.1h6.5
		c0.1,0,0.2,0,0.3,0.1s0.1,0.1,0.1,0.2s0,0.1-0.1,0.2S142.4,17.6,142.3,17.6z"/>
	<path class="st0" d="M306.8,6.6l-4,8.5c-0.1,0.1-0.2,0.2-0.3,0.2c-0.1,0-0.1,0-0.2-0.1s-0.1-0.1-0.1-0.2c0,0,0-0.1,0.1-0.2l4-8.5
		c0-0.1,0.1-0.1,0.1-0.2s0.1,0,0.1,0c0.1,0,0.1,0,0.2,0.1s0.1,0.1,0.1,0.2C306.9,6.5,306.9,6.5,306.8,6.6z"/>
	<path class="st0" d="M310.1,6.5l4,8.5c0,0.1,0.1,0.1,0.1,0.2s0,0.1-0.1,0.2s-0.1,0.1-0.2,0.1s-0.2-0.1-0.3-0.2l-4-8.5
		c0-0.1-0.1-0.1-0.1-0.2s0-0.1,0.1-0.2s0.1-0.1,0.2-0.1C309.9,6.2,310,6.3,310.1,6.5z"/>
	<path class="st0" d="M329.5,17.6H323c-0.1,0-0.2,0-0.3-0.1s-0.1-0.1-0.1-0.2s0-0.1,0.1-0.2s0.1-0.1,0.3-0.1h6.5
		c0.1,0,0.2,0,0.3,0.1s0.1,0.1,0.1,0.2s0,0.1-0.1,0.2S329.6,17.6,329.5,17.6z"/>
	<path class="st0" d="M336.7,17.6h-6.5c-0.1,0-0.2,0-0.3-0.1s-0.1-0.1-0.1-0.2s0-0.1,0.1-0.2s0.1-0.1,0.3-0.1h6.5
		c0.1,0,0.2,0,0.3,0.1s0.1,0.1,0.1,0.2s0,0.1-0.1,0.2S336.8,17.6,336.7,17.6z"/>
	<path class="st0" d="M54.8,21l-4,8.5c-0.1,0.1-0.2,0.2-0.3,0.2s-0.1,0-0.2-0.1s-0.1-0.1-0.1-0.2c0,0,0-0.1,0.1-0.2l4-8.5
		c0-0.1,0.1-0.1,0.1-0.2s0.1,0,0.1,0c0.1,0,0.1,0,0.2,0.1s0.1,0.1,0.1,0.2C54.9,20.9,54.8,20.9,54.8,21z"/>
	<path class="st0" d="M86.8,20.9l4,8.5c0,0.1,0.1,0.1,0.1,0.2s0,0.1-0.1,0.2s-0.1,0.1-0.2,0.1s-0.2-0.1-0.3-0.2l-4-8.5
		c0-0.1-0.1-0.1-0.1-0.2s0-0.1,0.1-0.2s0.1-0.1,0.2-0.1C86.7,20.6,86.8,20.7,86.8,20.9z"/>
	<path class="st0" d="M112.4,21l-4,8.5c-0.1,0.1-0.2,0.2-0.3,0.2c-0.1,0-0.1,0-0.2-0.1s-0.1-0.1-0.1-0.2c0,0,0-0.1,0.1-0.2l4-8.5
		c0-0.1,0.1-0.1,0.1-0.2s0.1,0,0.1,0c0.1,0,0.1,0,0.2,0.1s0.1,0.1,0.1,0.2C112.5,20.9,112.4,20.9,112.4,21z"/>
	<path class="st0" d="M144.4,20.9l4,8.5c0,0.1,0.1,0.1,0.1,0.2s0,0.1-0.1,0.2s-0.1,0.1-0.2,0.1c-0.1,0-0.2-0.1-0.3-0.2l-4-8.5
		c0-0.1-0.1-0.1-0.1-0.2s0-0.1,0.1-0.2s0.1-0.1,0.2-0.1C144.3,20.6,144.4,20.7,144.4,20.9z"/>
	<path class="st0" d="M152.4,27h1.6l-1.7,3.2c-0.1,0.2-0.2,0.3-0.4,0.3c-0.1,0-0.2,0-0.2-0.1s-0.1-0.2-0.1-0.2v-0.1L152.4,27z"/>
	<path class="st0" d="M293.5,32H287c-0.1,0-0.2,0-0.3-0.1s-0.1-0.1-0.1-0.2s0-0.1,0.1-0.2s0.1-0.1,0.3-0.1h6.5c0.1,0,0.2,0,0.3,0.1
		s0.1,0.1,0.1,0.2s0,0.1-0.1,0.2S293.6,32,293.5,32z"/>
	<path class="st0" d="M299.6,21l-4,8.5c-0.1,0.1-0.2,0.2-0.3,0.2c-0.1,0-0.1,0-0.2-0.1s-0.1-0.1-0.1-0.2c0,0,0-0.1,0.1-0.2l4-8.5
		c0-0.1,0.1-0.1,0.1-0.2s0.1,0,0.1,0c0.1,0,0.1,0,0.2,0.1s0.1,0.1,0.1,0.2C299.7,20.9,299.7,20.9,299.6,21z"/>
	<path class="st0" d="M321.2,21l-4,8.5c-0.1,0.1-0.2,0.2-0.3,0.2c-0.1,0-0.1,0-0.2-0.1s-0.1-0.1-0.1-0.2c0,0,0-0.1,0.1-0.2l4-8.5
		c0-0.1,0.1-0.1,0.1-0.2s0.1,0,0.1,0c0.1,0,0.1,0,0.2,0.1s0.1,0.1,0.1,0.2C321.3,20.9,321.3,20.9,321.2,21z"/>
	<path class="st0" d="M338.9,20.9l4,8.5c0,0.1,0.1,0.1,0.1,0.2s0,0.1-0.1,0.2s-0.1,0.1-0.2,0.1s-0.2-0.1-0.3-0.2l-4-8.5
		c0-0.1-0.1-0.1-0.1-0.2s0-0.1,0.1-0.2s0.1-0.1,0.2-0.1C338.7,20.6,338.8,20.7,338.9,20.9z"/>
	<path class="st0" d="M47.6,35.4l-4,8.5c-0.1,0.1-0.2,0.2-0.3,0.2s-0.1,0-0.2-0.1S43,43.9,43,43.8c0,0,0-0.1,0.1-0.2l4-8.5
		c0-0.1,0.1-0.1,0.1-0.2s0.1,0,0.1,0c0.1,0,0.1,0,0.2,0.1s0.1,0.1,0.1,0.2C47.7,35.3,47.6,35.3,47.6,35.4z"/>
	<path class="st0" d="M50.8,35.3l4,8.5c0,0.1,0.1,0.1,0.1,0.2s0,0.1-0.1,0.2s-0.1,0.1-0.2,0.1s-0.2-0.1-0.3-0.2l-4-8.5
		c0-0.1-0.1-0.1-0.1-0.2s0-0.1,0.1-0.2s0.1-0.1,0.2-0.1C50.7,35,50.8,35.1,50.8,35.3z"/>
	<path class="st0" d="M62,35.4l-4,8.5c-0.1,0.1-0.2,0.2-0.3,0.2c-0.1,0-0.1,0-0.2-0.1s-0.1-0.1-0.1-0.2c0,0,0-0.1,0.1-0.2l4-8.5
		c0-0.1,0.1-0.1,0.1-0.2s0.1,0,0.1,0c0.1,0,0.1,0,0.2,0.1s0.1,0.1,0.1,0.2C62.1,35.3,62,35.3,62,35.4z"/>
	<path class="st0" d="M65.2,35.3l4,8.5c0,0.1,0.1,0.1,0.1,0.2s0,0.1-0.1,0.2s-0.1,0.1-0.2,0.1s-0.2-0.1-0.3-0.2l-4-8.5
		c0-0.1-0.1-0.1-0.1-0.2s0-0.1,0.1-0.2s0.1-0.1,0.2-0.1C65.1,35,65.2,35.1,65.2,35.3z"/>
	<path class="st0" d="M90.8,35.4l-4,8.5c-0.1,0.1-0.2,0.2-0.3,0.2c-0.1,0-0.1,0-0.2-0.1s-0.1-0.1-0.1-0.2c0,0,0-0.1,0.1-0.2l4-8.5
		c0-0.1,0.1-0.1,0.1-0.2s0.1,0,0.1,0c0.1,0,0.1,0,0.2,0.1s0.1,0.1,0.1,0.2C90.9,35.3,90.8,35.3,90.8,35.4z"/>
	<path class="st0" d="M94,35.3l4,8.5c0,0.1,0.1,0.1,0.1,0.2s0,0.1-0.1,0.2s-0.1,0.1-0.2,0.1s-0.2-0.1-0.3-0.2l-4-8.5
		c0-0.1-0.1-0.1-0.1-0.2s0-0.1,0.1-0.2s0.1-0.1,0.2-0.1C93.9,35,94,35.1,94,35.3z"/>
	<path class="st0" d="M105.2,35.4l-4,8.5c-0.1,0.1-0.2,0.2-0.3,0.2c-0.1,0-0.1,0-0.2-0.1s-0.1-0.1-0.1-0.2c0,0,0-0.1,0.1-0.2l4-8.5
		c0-0.1,0.1-0.1,0.1-0.2s0.1,0,0.1,0c0.1,0,0.1,0,0.2,0.1s0.1,0.1,0.1,0.2C105.3,35.3,105.2,35.3,105.2,35.4z"/>
	<path class="st0" d="M142.3,46.4h-6.5c-0.1,0-0.2,0-0.3-0.1s-0.1-0.1-0.1-0.2s0-0.1,0.1-0.2s0.1-0.1,0.3-0.1h6.5
		c0.1,0,0.2,0,0.3,0.1s0.1,0.1,0.1,0.2s0,0.1-0.1,0.2S142.4,46.4,142.3,46.4z"/>
	<path class="st0" d="M149.5,46.4H143c-0.1,0-0.2,0-0.3-0.1s-0.1-0.1-0.1-0.2s0-0.1,0.1-0.2s0.1-0.1,0.3-0.1h6.5
		c0.1,0,0.2,0,0.3,0.1s0.1,0.1,0.1,0.2s0,0.1-0.1,0.2S149.6,46.4,149.5,46.4z"/>
	<path class="st0" d="M158.8,35.3l4,8.5c0,0.1,0.1,0.1,0.1,0.2s0,0.1-0.1,0.2s-0.1,0.1-0.2,0.1c-0.1,0-0.2-0.1-0.3-0.2l-4-8.5
		c0-0.1-0.1-0.1-0.1-0.2s0-0.1,0.1-0.2s0.1-0.1,0.2-0.1C158.7,35,158.8,35.1,158.8,35.3z"/>
	<path class="st0" d="M171.1,46.4h-6.5c-0.1,0-0.2,0-0.3-0.1s-0.1-0.1-0.1-0.2s0-0.1,0.1-0.2s0.1-0.1,0.3-0.1h6.5
		c0.1,0,0.2,0,0.3,0.1s0.1,0.1,0.1,0.2s0,0.1-0.1,0.2S171.2,46.4,171.1,46.4z"/>
	<path class="st0" d="M271.9,46.4h-6.5c-0.1,0-0.2,0-0.3-0.1s-0.1-0.1-0.1-0.2s0-0.1,0.1-0.2s0.1-0.1,0.3-0.1h6.5
		c0.1,0,0.2,0,0.3,0.1s0.1,0.1,0.1,0.2s0,0.1-0.1,0.2S272,46.4,271.9,46.4z"/>
	<path class="st0" d="M285.2,35.4l-4,8.5c-0.1,0.1-0.2,0.2-0.3,0.2c-0.1,0-0.1,0-0.2-0.1s-0.1-0.1-0.1-0.2c0,0,0-0.1,0.1-0.2l4-8.5
		c0-0.1,0.1-0.1,0.1-0.2s0.1,0,0.1,0c0.1,0,0.1,0,0.2,0.1s0.1,0.1,0.1,0.2C285.3,35.3,285.3,35.3,285.2,35.4z"/>
	<path class="st0" d="M314,35.4l-4,8.5c-0.1,0.1-0.2,0.2-0.3,0.2c-0.1,0-0.1,0-0.2-0.1s-0.1-0.1-0.1-0.2c0,0,0-0.1,0.1-0.2l4-8.5
		c0-0.1,0.1-0.1,0.1-0.2s0.1,0,0.1,0c0.1,0,0.1,0,0.2,0.1s0.1,0.1,0.1,0.2C314.1,35.3,314.1,35.3,314,35.4z"/>
	<path class="st0" d="M347.3,35.5l1.4,1.2l0.1,0.1v0.1c0,0.1,0,0.1-0.1,0.2s-0.1,0.1-0.2,0.1s-0.1,0-0.2-0.1l-1.4-1.2
		c-0.1-0.1-0.1-0.2-0.1-0.2c0-0.1,0-0.1,0.1-0.2s0.1-0.1,0.2-0.1C347.1,35.4,347.2,35.4,347.3,35.5z"/>
	<path class="st0" d="M357.5,39.4v0.7h-5v-0.7H357.5z"/>
	<path class="st0" d="M364.7,39.4v0.7h-5v-0.7H364.7z"/>
	<path class="st0" d="M369.3,41.7h0.2c0.2,0,0.4,0.1,0.6,0.2s0.2,0.3,0.2,0.6c0,0.2-0.1,0.4-0.2,0.6s-0.3,0.2-0.6,0.2h-0.2
		c-0.2,0-0.4-0.1-0.6-0.2s-0.2-0.3-0.2-0.6c0-0.2,0.1-0.4,0.2-0.6S369.1,41.7,369.3,41.7z"/>
	<path class="st0" d="M40.4,49.8l-4,8.5c-0.1,0.1-0.2,0.2-0.3,0.2s-0.1,0-0.2-0.1s-0.1-0.1-0.1-0.2c0,0,0-0.1,0.1-0.2l4-8.5
		c0-0.1,0.1-0.1,0.1-0.2s0.1,0,0.1,0c0.1,0,0.1,0,0.2,0.1s0.1,0.1,0.1,0.2C40.5,49.7,40.4,49.7,40.4,49.8z"/>
	<path class="st0" d="M72.4,49.7l4,8.5c0,0.1,0.1,0.1,0.1,0.2c0,0.1,0,0.1-0.1,0.2s-0.1,0.1-0.2,0.1s-0.2-0.1-0.3-0.2l-4-8.5
		c0-0.1-0.1-0.1-0.1-0.2s0-0.1,0.1-0.2s0.1-0.1,0.2-0.1C72.3,49.4,72.4,49.5,72.4,49.7z"/>
	<path class="st0" d="M83.6,49.8l-4,8.5c-0.1,0.1-0.2,0.2-0.3,0.2c-0.1,0-0.1,0-0.2-0.1S79,58.3,79,58.2c0,0,0-0.1,0.1-0.2l4-8.5
		c0-0.1,0.1-0.1,0.1-0.2s0.1,0,0.1,0c0.1,0,0.1,0,0.2,0.1s0.1,0.1,0.1,0.2C83.7,49.7,83.6,49.7,83.6,49.8z"/>
	<path class="st0" d="M101.2,49.7l4,8.5c0,0.1,0.1,0.1,0.1,0.2c0,0.1,0,0.1-0.1,0.2s-0.1,0.1-0.2,0.1s-0.2-0.1-0.3-0.2l-4-8.5
		c0-0.1-0.1-0.1-0.1-0.2s0-0.1,0.1-0.2s0.1-0.1,0.2-0.1C101.1,49.4,101.2,49.5,101.2,49.7z"/>
	<path class="st0" d="M127.9,60.8h-6.5c-0.1,0-0.2,0-0.3-0.1s-0.1-0.1-0.1-0.2s0-0.1,0.1-0.2s0.1-0.1,0.3-0.1h6.5
		c0.1,0,0.2,0,0.3,0.1s0.1,0.1,0.1,0.2s0,0.1-0.1,0.2S128,60.8,127.9,60.8z"/>
	<path class="st0" d="M134,49.8l-4,8.5c-0.1,0.1-0.2,0.2-0.3,0.2s-0.1,0-0.2-0.1s-0.1-0.1-0.1-0.2c0,0,0-0.1,0.1-0.2l4-8.5
		c0-0.1,0.1-0.1,0.1-0.2s0.1,0,0.1,0c0.1,0,0.1,0,0.2,0.1s0.1,0.1,0.1,0.2C134.1,49.7,134,49.7,134,49.8z"/>
	<path class="st0" d="M151.6,49.7l4,8.5c0,0.1,0.1,0.1,0.1,0.2c0,0.1,0,0.1-0.1,0.2s-0.1,0.1-0.2,0.1c-0.1,0-0.2-0.1-0.3-0.2l-4-8.5
		c0-0.1-0.1-0.1-0.1-0.2s0-0.1,0.1-0.2s0.1-0.1,0.2-0.1C151.5,49.4,151.6,49.5,151.6,49.7z"/>
	<path class="st0" d="M163.1,53.8v0.7h-5v-0.7H163.1z"/>
	<path class="st0" d="M167,50.2h1.6l-0.4,3.1c0,0.2-0.1,0.3-0.1,0.3s-0.1,0.1-0.2,0.1c-0.1,0-0.2,0-0.2-0.1s-0.1-0.2-0.1-0.3
		L167,50.2z"/>
	<path class="st0" d="M173.2,49.7l4,8.5c0,0.1,0.1,0.1,0.1,0.2c0,0.1,0,0.1-0.1,0.2s-0.1,0.1-0.2,0.1c-0.1,0-0.2-0.1-0.3-0.2l-4-8.5
		c0-0.1-0.1-0.1-0.1-0.2s0-0.1,0.1-0.2s0.1-0.1,0.2-0.1C173.1,49.4,173.2,49.5,173.2,49.7z"/>
	<path class="st0" d="M263.6,49.8l-4,8.5c-0.1,0.1-0.2,0.2-0.3,0.2c-0.1,0-0.1,0-0.2-0.1s-0.1-0.1-0.1-0.2c0,0,0-0.1,0.1-0.2l4-8.5
		c0-0.1,0.1-0.1,0.1-0.2s0.1,0,0.1,0c0.1,0,0.1,0,0.2,0.1s0.1,0.1,0.1,0.2C263.7,49.7,263.7,49.7,263.6,49.8z"/>
	<path class="st0" d="M300.7,60.8h-6.5c-0.1,0-0.2,0-0.3-0.1s-0.1-0.1-0.1-0.2s0-0.1,0.1-0.2s0.1-0.1,0.3-0.1h6.5
		c0.1,0,0.2,0,0.3,0.1s0.1,0.1,0.1,0.2s0,0.1-0.1,0.2S300.8,60.8,300.7,60.8z"/>
	<path class="st0" d="M324.5,49.7l4,8.5c0,0.1,0.1,0.1,0.1,0.2c0,0.1,0,0.1-0.1,0.2s-0.1,0.1-0.2,0.1s-0.2-0.1-0.3-0.2l-4-8.5
		c0-0.1-0.1-0.1-0.1-0.2s0-0.1,0.1-0.2s0.1-0.1,0.2-0.1C324.3,49.4,324.4,49.5,324.5,49.7z"/>
	<path class="st0" d="M336.7,60.8h-6.5c-0.1,0-0.2,0-0.3-0.1s-0.1-0.1-0.1-0.2s0-0.1,0.1-0.2s0.1-0.1,0.3-0.1h6.5
		c0.1,0,0.2,0,0.3,0.1s0.1,0.1,0.1,0.2s0,0.1-0.1,0.2S336.8,60.8,336.7,60.8z"/>
	<path class="st0" d="M374.9,49.7l4,8.5c0,0.1,0.1,0.1,0.1,0.2c0,0.1,0,0.1-0.1,0.2s-0.1,0.1-0.2,0.1s-0.2-0.1-0.3-0.2l-4-8.5
		c0-0.1-0.1-0.1-0.1-0.2s0-0.1,0.1-0.2s0.1-0.1,0.2-0.1C374.7,49.4,374.8,49.5,374.9,49.7z"/>
	<path class="st0" d="M26,64.2l-4,8.5c-0.1,0.1-0.2,0.2-0.3,0.2s-0.1,0-0.2-0.1s-0.1-0.1-0.1-0.2c0,0,0-0.1,0.1-0.2l4-8.5
		c0-0.1,0.1-0.1,0.1-0.2s0.1,0,0.1,0c0.1,0,0.1,0,0.2,0.1S26,64,26,64C26,64.1,26,64.1,26,64.2z"/>
	<path class="st0" d="M29.2,64.1l4,8.5c0,0.1,0.1,0.1,0.1,0.2c0,0.1,0,0.1-0.1,0.2s-0.1,0-0.2,0s-0.2-0.1-0.3-0.2l-4-8.5
		c0-0.1-0.1-0.1-0.1-0.2c0-0.1,0-0.1,0.1-0.2s0.1-0.1,0.2-0.1C29.1,63.8,29.1,63.9,29.2,64.1z"/>
	<path class="st0" d="M108.4,64.1l4,8.5c0,0.1,0.1,0.1,0.1,0.2c0,0.1,0,0.1-0.1,0.2s-0.1,0.1-0.2,0.1s-0.2-0.1-0.3-0.2l-4-8.5
		c0-0.1-0.1-0.1-0.1-0.2c0-0.1,0-0.1,0.1-0.2s0.1-0.1,0.2-0.1C108.3,63.8,108.4,63.9,108.4,64.1z"/>
	<path class="st0" d="M119.6,64.2l-4,8.5c-0.1,0.1-0.2,0.2-0.3,0.2c-0.1,0-0.1,0-0.2-0.1s-0.1-0.1-0.1-0.2c0,0,0-0.1,0.1-0.2l4-8.5
		c0-0.1,0.1-0.1,0.1-0.2s0.1,0,0.1,0c0.1,0,0.1,0,0.2,0.1s0.1,0.1,0.1,0.2C119.7,64.1,119.6,64.1,119.6,64.2z"/>
	<path class="st0" d="M158.8,64.1l4,8.5c0,0.1,0.1,0.1,0.1,0.2c0,0.1,0,0.1-0.1,0.2s-0.1,0.1-0.2,0.1c-0.1,0-0.2-0.1-0.3-0.2l-4-8.5
		c0-0.1-0.1-0.1-0.1-0.2c0-0.1,0-0.1,0.1-0.2s0.1-0.1,0.2-0.1C158.7,63.8,158.8,63.9,158.8,64.1z"/>
	<path class="st0" d="M177.2,64.2l-4,8.5c-0.1,0.1-0.2,0.2-0.3,0.2s-0.1,0-0.2-0.1s-0.1-0.1-0.1-0.2c0,0,0-0.1,0.1-0.2l4-8.5
		c0-0.1,0.1-0.1,0.1-0.2s0.1,0,0.1,0c0.1,0,0.1,0,0.2,0.1s0.1,0.1,0.1,0.2C177.3,64.1,177.3,64.1,177.2,64.2z"/>
	<path class="st0" d="M184.9,67.9h-5.4c-0.1,0-0.2,0-0.3-0.1s-0.1-0.1-0.1-0.2c0-0.1,0-0.1,0.1-0.2s0.1-0.1,0.3-0.1h5.4
		c0.1,0,0.2,0,0.3,0.1s0.1,0.1,0.1,0.2c0,0.1,0,0.1-0.1,0.2S185,67.9,184.9,67.9z M184.9,69.6h-5.4c-0.1,0-0.2,0-0.3-0.1
		s-0.1-0.1-0.1-0.2s0-0.1,0.1-0.2s0.1-0.1,0.3-0.1h5.4c0.1,0,0.2,0,0.3,0.1s0.1,0.1,0.1,0.2s0,0.1-0.1,0.2S185,69.6,184.9,69.6z"/>
	<path class="st0" d="M192.1,67.9h-5.4c-0.1,0-0.2,0-0.3-0.1s-0.1-0.1-0.1-0.2c0-0.1,0-0.1,0.1-0.2s0.1-0.1,0.3-0.1h5.4
		c0.1,0,0.2,0,0.3,0.1s0.1,0.1,0.1,0.2c0,0.1,0,0.1-0.1,0.2S192.2,67.9,192.1,67.9z M192.1,69.6h-5.4c-0.1,0-0.2,0-0.3-0.1
		s-0.1-0.1-0.1-0.2s0-0.1,0.1-0.2s0.1-0.1,0.3-0.1h5.4c0.1,0,0.2,0,0.3,0.1s0.1,0.1,0.1,0.2s0,0.1-0.1,0.2S192.2,69.6,192.1,69.6z"
		/>
	<path class="st0" d="M198.9,68c0.1,0,0.1,0,0.2,0.1s0.1,0.1,0.1,0.2c0,0.1-0.2,0.4-0.5,0.7s-0.7,0.5-0.9,0.5s-0.4,0-0.5-0.1
		s-0.4-0.3-0.8-0.6c-0.2-0.2-0.4-0.3-0.5-0.4s-0.2-0.1-0.3-0.1s-0.2,0-0.3,0.1s-0.3,0.3-0.6,0.5c-0.1,0.1-0.2,0.2-0.2,0.2h-0.1
		c-0.1,0-0.1,0-0.2-0.1s-0.1-0.1-0.1-0.2c0-0.1,0.1-0.2,0.2-0.3c0.3-0.3,0.5-0.5,0.7-0.7s0.4-0.2,0.6-0.2c0.2,0,0.3,0,0.5,0.1
		s0.4,0.2,0.6,0.4c0.4,0.4,0.6,0.6,0.7,0.6s0.2,0.1,0.3,0.1c0.3,0,0.6-0.2,0.9-0.6c0.1-0.1,0.2-0.2,0.2-0.3S198.8,68,198.9,68z"/>
	<path class="st0" d="M206.5,67.9h-5.4c-0.1,0-0.2,0-0.3-0.1s-0.1-0.1-0.1-0.2c0-0.1,0-0.1,0.1-0.2s0.1-0.1,0.3-0.1h5.4
		c0.1,0,0.2,0,0.3,0.1s0.1,0.1,0.1,0.2c0,0.1,0,0.1-0.1,0.2S206.6,67.9,206.5,67.9z M206.5,69.6h-5.4c-0.1,0-0.2,0-0.3-0.1
		s-0.1-0.1-0.1-0.2s0-0.1,0.1-0.2s0.1-0.1,0.3-0.1h5.4c0.1,0,0.2,0,0.3,0.1s0.1,0.1,0.1,0.2s0,0.1-0.1,0.2S206.6,69.6,206.5,69.6z"
		/>
	<path class="st0" d="M213.5,68.2v0.7h-5v-0.7H213.5z"/>
	<path class="st0" d="M220.9,67.9h-5.4c-0.1,0-0.2,0-0.3-0.1s-0.1-0.1-0.1-0.2c0-0.1,0-0.1,0.1-0.2s0.1-0.1,0.3-0.1h5.4
		c0.1,0,0.2,0,0.3,0.1s0.1,0.1,0.1,0.2c0,0.1,0,0.1-0.1,0.2S221,67.9,220.9,67.9z M220.9,69.6h-5.4c-0.1,0-0.2,0-0.3-0.1
		s-0.1-0.1-0.1-0.2s0-0.1,0.1-0.2s0.1-0.1,0.3-0.1h5.4c0.1,0,0.2,0,0.3,0.1s0.1,0.1,0.1,0.2s0,0.1-0.1,0.2S221,69.6,220.9,69.6z"/>
	<path class="st0" d="M227.7,68c0.1,0,0.1,0,0.2,0.1s0.1,0.1,0.1,0.2c0,0.1-0.2,0.4-0.5,0.7s-0.7,0.5-0.9,0.5s-0.4,0-0.5-0.1
		s-0.4-0.3-0.8-0.6c-0.2-0.2-0.4-0.3-0.5-0.4s-0.2-0.1-0.3-0.1s-0.2,0-0.3,0.1s-0.3,0.3-0.6,0.5c-0.1,0.1-0.2,0.2-0.2,0.2h-0.1
		c-0.1,0-0.1,0-0.2-0.1s-0.1-0.1-0.1-0.2c0-0.1,0.1-0.2,0.2-0.3c0.3-0.3,0.5-0.5,0.7-0.7s0.4-0.2,0.6-0.2c0.2,0,0.3,0,0.5,0.1
		s0.4,0.2,0.6,0.4c0.4,0.4,0.6,0.6,0.7,0.6s0.2,0.1,0.3,0.1c0.3,0,0.6-0.2,0.9-0.6c0.1-0.1,0.2-0.2,0.2-0.3S227.6,68,227.7,68z"/>
	<path class="st0" d="M235.3,67.9h-5.4c-0.1,0-0.2,0-0.3-0.1s-0.1-0.1-0.1-0.2c0-0.1,0-0.1,0.1-0.2s0.1-0.1,0.3-0.1h5.4
		c0.1,0,0.2,0,0.3,0.1s0.1,0.1,0.1,0.2c0,0.1,0,0.1-0.1,0.2S235.4,67.9,235.3,67.9z M235.3,69.6h-5.4c-0.1,0-0.2,0-0.3-0.1
		s-0.1-0.1-0.1-0.2s0-0.1,0.1-0.2s0.1-0.1,0.3-0.1h5.4c0.1,0,0.2,0,0.3,0.1s0.1,0.1,0.1,0.2s0,0.1-0.1,0.2S235.4,69.6,235.3,69.6z"
		/>
	<path class="st0" d="M242.3,68.2v0.7h-5v-0.7H242.3z"/>
	<path class="st0" d="M249.7,67.9h-5.4c-0.1,0-0.2,0-0.3-0.1s-0.1-0.1-0.1-0.2c0-0.1,0-0.1,0.1-0.2s0.1-0.1,0.3-0.1h5.4
		c0.1,0,0.2,0,0.3,0.1s0.1,0.1,0.1,0.2c0,0.1,0,0.1-0.1,0.2S249.8,67.9,249.7,67.9z M249.7,69.6h-5.4c-0.1,0-0.2,0-0.3-0.1
		s-0.1-0.1-0.1-0.2s0-0.1,0.1-0.2s0.1-0.1,0.3-0.1h5.4c0.1,0,0.2,0,0.3,0.1s0.1,0.1,0.1,0.2s0,0.1-0.1,0.2S249.8,69.6,249.7,69.6z"
		/>
	<path class="st0" d="M256.7,68.2v0.7h-5v-0.7H256.7z"/>
	<path class="st0" d="M260.5,70.2h1.5l-1.7,2.7c-0.1,0.1-0.1,0.2-0.2,0.3s-0.1,0.1-0.2,0.1s-0.2,0-0.2-0.1s-0.1-0.1-0.1-0.2
		c0,0,0-0.1,0-0.2L260.5,70.2z M261.3,66.9h0.2c0.2,0,0.4,0.1,0.6,0.2s0.2,0.3,0.2,0.6c0,0.2-0.1,0.4-0.2,0.6s-0.3,0.2-0.6,0.2h-0.2
		c-0.2,0-0.4-0.1-0.6-0.2s-0.2-0.3-0.2-0.6c0-0.2,0.1-0.4,0.2-0.6S261.1,66.9,261.3,66.9z"/>
	<path class="st0" d="M293.5,75.2H287c-0.1,0-0.2,0-0.3-0.1s-0.1-0.1-0.1-0.2s0-0.1,0.1-0.2s0.1-0.1,0.3-0.1h6.5
		c0.1,0,0.2,0,0.3,0.1s0.1,0.1,0.1,0.2s0,0.1-0.1,0.2S293.6,75.2,293.5,75.2z"/>
	<path class="st0" d="M299.6,64.2l-4,8.5c-0.1,0.1-0.2,0.2-0.3,0.2c-0.1,0-0.1,0-0.2-0.1s-0.1-0.1-0.1-0.2c0,0,0-0.1,0.1-0.2l4-8.5
		c0-0.1,0.1-0.1,0.1-0.2s0.1,0,0.1,0c0.1,0,0.1,0,0.2,0.1s0.1,0.1,0.1,0.2C299.7,64.1,299.7,64.1,299.6,64.2z"/>
	<path class="st0" d="M310.1,64.1l4,8.5c0,0.1,0.1,0.1,0.1,0.2c0,0.1,0,0.1-0.1,0.2s-0.1,0.1-0.2,0.1s-0.2-0.1-0.3-0.2l-4-8.5
		c0-0.1-0.1-0.1-0.1-0.2c0-0.1,0-0.1,0.1-0.2s0.1-0.1,0.2-0.1C309.9,63.8,310,63.9,310.1,64.1z"/>
	<path class="st0" d="M328.7,68.2v0.7h-5v-0.7H328.7z"/>
	<path class="st0" d="M358.3,75.2h-6.5c-0.1,0-0.2,0-0.3-0.1s-0.1-0.1-0.1-0.2s0-0.1,0.1-0.2s0.1-0.1,0.3-0.1h6.5
		c0.1,0,0.2,0,0.3,0.1s0.1,0.1,0.1,0.2s0,0.1-0.1,0.2S358.4,75.2,358.3,75.2z"/>
	<path class="st0" d="M364.4,64.2l-4,8.5c-0.1,0.1-0.2,0.2-0.3,0.2c-0.1,0-0.1,0-0.2-0.1s-0.1-0.1-0.1-0.2c0,0,0-0.1,0.1-0.2l4-8.5
		c0-0.1,0.1-0.1,0.1-0.2s0.1,0,0.1,0c0.1,0,0.1,0,0.2,0.1s0.1,0.1,0.1,0.2C364.5,64.1,364.5,64.1,364.4,64.2z"/>
	<path class="st0" d="M389.3,64.1l4,8.5c0,0.1,0.1,0.1,0.1,0.2c0,0.1,0,0.1-0.1,0.2s-0.1,0.1-0.2,0.1s-0.2-0.1-0.3-0.2l-4-8.5
		c0-0.1-0.1-0.1-0.1-0.2c0-0.1,0-0.1,0.1-0.2s0.1-0.1,0.2-0.1C389.1,63.8,389.2,63.9,389.3,64.1z"/>
	<path class="st0" d="M18.8,78.6l-4,8.5c-0.1,0.1-0.2,0.2-0.3,0.2c-0.1,0-0.1,0-0.2-0.1s-0.1-0.1-0.1-0.2c0,0,0-0.1,0.1-0.2l4-8.5
		c0-0.1,0.1-0.1,0.1-0.2s0.1,0,0.1,0c0.1,0,0.1,0,0.2,0.1s0.1,0.1,0.1,0.2C18.8,78.5,18.8,78.5,18.8,78.6z"/>
	<path class="st0" d="M37.7,78.7l1.4,1.2l0.1,0.1v0.1c0,0.1,0,0.1-0.1,0.2s-0.1,0.1-0.2,0.1c-0.1,0-0.1,0-0.2-0.1l-1.4-1.2
		c-0.1-0.1-0.1-0.2-0.1-0.2c0-0.1,0-0.1,0.1-0.2s0.1-0.1,0.2-0.1C37.5,78.6,37.6,78.6,37.7,78.7z"/>
	<path class="st0" d="M47.9,82.6v0.7h-5v-0.7H47.9z"/>
	<path class="st0" d="M52.5,84.9h0.2c0.2,0,0.4,0.1,0.6,0.2s0.2,0.3,0.2,0.6c0,0.2-0.1,0.4-0.2,0.6s-0.3,0.2-0.6,0.2h-0.2
		c-0.2,0-0.4-0.1-0.6-0.2s-0.2-0.3-0.2-0.6c0-0.2,0.1-0.4,0.2-0.6S52.3,84.9,52.5,84.9z"/>
	<path class="st0" d="M63.1,89.6h-6.5c-0.1,0-0.2,0-0.3-0.1s-0.1-0.1-0.1-0.2s0-0.1,0.1-0.2s0.1-0.1,0.3-0.1h6.5
		c0.1,0,0.2,0,0.3,0.1s0.1,0.1,0.1,0.2s0,0.1-0.1,0.2S63.2,89.6,63.1,89.6z"/>
	<path class="st0" d="M70.3,89.6h-6.5c-0.1,0-0.2,0-0.3-0.1s-0.1-0.1-0.1-0.2s0-0.1,0.1-0.2s0.1-0.1,0.3-0.1h6.5
		c0.1,0,0.2,0,0.3,0.1s0.1,0.1,0.1,0.2s0,0.1-0.1,0.2S70.4,89.6,70.3,89.6z"/>
	<path class="st0" d="M112.4,78.6l-4,8.5c-0.1,0.1-0.2,0.2-0.3,0.2c-0.1,0-0.1,0-0.2-0.1s-0.1-0.1-0.1-0.2c0,0,0-0.1,0.1-0.2l4-8.5
		c0-0.1,0.1-0.1,0.1-0.2s0.1,0,0.1,0c0.1,0,0.1,0,0.2,0.1s0.1,0.1,0.1,0.2C112.5,78.5,112.4,78.5,112.4,78.6z"/>
	<path class="st0" d="M124.5,84.9h0.2c0.2,0,0.4,0.1,0.6,0.2s0.2,0.3,0.2,0.6c0,0.2-0.1,0.4-0.2,0.6s-0.3,0.2-0.6,0.2h-0.2
		c-0.2,0-0.4-0.1-0.6-0.2s-0.2-0.3-0.2-0.6c0-0.2,0.1-0.4,0.2-0.6S124.3,84.9,124.5,84.9z"/>
	<path class="st0" d="M134.3,82.6v0.7h-5v-0.7H134.3z"/>
	<path class="st0" d="M155.9,82.6v0.7h-5v-0.7H155.9z"/>
	<path class="st0" d="M163.1,82.6v0.7h-5v-0.7H163.1z"/>
	<path class="st0" d="M166,78.5l4,8.5c0,0.1,0.1,0.1,0.1,0.2c0,0.1,0,0.1-0.1,0.2s-0.1,0.1-0.2,0.1c-0.1,0-0.2-0.1-0.3-0.2l-4-8.5
		c0-0.1-0.1-0.1-0.1-0.2c0-0.1,0-0.1,0.1-0.2s0.1-0.1,0.2-0.1C165.9,78.2,166,78.3,166,78.5z"/>
	<path class="st0" d="M184.9,82.3h-5.4c-0.1,0-0.2,0-0.3-0.1s-0.1-0.1-0.1-0.2c0-0.1,0-0.1,0.1-0.2s0.1-0.1,0.3-0.1h5.4
		c0.1,0,0.2,0,0.3,0.1s0.1,0.1,0.1,0.2c0,0.1,0,0.1-0.1,0.2S185,82.3,184.9,82.3z M184.9,84h-5.4c-0.1,0-0.2,0-0.3-0.1
		s-0.1-0.1-0.1-0.2s0-0.1,0.1-0.2s0.1-0.1,0.3-0.1h5.4c0.1,0,0.2,0,0.3,0.1s0.1,0.1,0.1,0.2s0,0.1-0.1,0.2S185,84,184.9,84z"/>
	<path class="st0" d="M191.9,82.6v0.7h-5v-0.7H191.9z"/>
	<path class="st0" d="M199.3,82.3h-5.4c-0.1,0-0.2,0-0.3-0.1s-0.1-0.1-0.1-0.2c0-0.1,0-0.1,0.1-0.2s0.1-0.1,0.3-0.1h5.4
		c0.1,0,0.2,0,0.3,0.1s0.1,0.1,0.1,0.2c0,0.1,0,0.1-0.1,0.2S199.4,82.3,199.3,82.3z M199.3,84h-5.4c-0.1,0-0.2,0-0.3-0.1
		s-0.1-0.1-0.1-0.2s0-0.1,0.1-0.2s0.1-0.1,0.3-0.1h5.4c0.1,0,0.2,0,0.3,0.1s0.1,0.1,0.1,0.2s0,0.1-0.1,0.2S199.4,84,199.3,84z"/>
	<path class="st0" d="M206.1,82.4c0.1,0,0.1,0,0.2,0.1s0.1,0.1,0.1,0.2c0,0.1-0.2,0.4-0.5,0.7s-0.7,0.5-0.9,0.5s-0.4,0-0.5-0.1
		s-0.4-0.3-0.8-0.6c-0.2-0.2-0.4-0.3-0.5-0.4s-0.2-0.1-0.3-0.1s-0.2,0-0.3,0.1s-0.3,0.3-0.6,0.5c-0.1,0.1-0.2,0.2-0.2,0.2h-0.1
		c-0.1,0-0.1,0-0.2-0.1s-0.1-0.1-0.1-0.2c0-0.1,0.1-0.2,0.2-0.3c0.3-0.3,0.5-0.5,0.7-0.7s0.4-0.2,0.6-0.2c0.2,0,0.3,0,0.5,0.1
		s0.4,0.2,0.6,0.4c0.4,0.4,0.6,0.6,0.7,0.6s0.2,0.1,0.3,0.1c0.3,0,0.6-0.2,0.9-0.6c0.1-0.1,0.2-0.2,0.2-0.3S206,82.4,206.1,82.4z"/>
	<path class="st0" d="M214.3,89.6h-6.5c-0.1,0-0.2,0-0.3-0.1s-0.1-0.1-0.1-0.2s0-0.1,0.1-0.2s0.1-0.1,0.3-0.1h6.5
		c0.1,0,0.2,0,0.3,0.1s0.1,0.1,0.1,0.2s0,0.1-0.1,0.2S214.4,89.6,214.3,89.6z"/>
	<path class="st0" d="M220.9,82.3h-5.4c-0.1,0-0.2,0-0.3-0.1s-0.1-0.1-0.1-0.2c0-0.1,0-0.1,0.1-0.2s0.1-0.1,0.3-0.1h5.4
		c0.1,0,0.2,0,0.3,0.1s0.1,0.1,0.1,0.2c0,0.1,0,0.1-0.1,0.2S221,82.3,220.9,82.3z M220.9,84h-5.4c-0.1,0-0.2,0-0.3-0.1
		s-0.1-0.1-0.1-0.2s0-0.1,0.1-0.2s0.1-0.1,0.3-0.1h5.4c0.1,0,0.2,0,0.3,0.1s0.1,0.1,0.1,0.2s0,0.1-0.1,0.2S221,84,220.9,84z"/>
	<path class="st0" d="M227.9,82.6v0.7h-5v-0.7H227.9z"/>
	<path class="st0" d="M235.3,82.3h-5.4c-0.1,0-0.2,0-0.3-0.1s-0.1-0.1-0.1-0.2c0-0.1,0-0.1,0.1-0.2s0.1-0.1,0.3-0.1h5.4
		c0.1,0,0.2,0,0.3,0.1s0.1,0.1,0.1,0.2c0,0.1,0,0.1-0.1,0.2S235.4,82.3,235.3,82.3z M235.3,84h-5.4c-0.1,0-0.2,0-0.3-0.1
		s-0.1-0.1-0.1-0.2s0-0.1,0.1-0.2s0.1-0.1,0.3-0.1h5.4c0.1,0,0.2,0,0.3,0.1s0.1,0.1,0.1,0.2s0,0.1-0.1,0.2S235.4,84,235.3,84z"/>
	<path class="st0" d="M242.1,82.4c0.1,0,0.1,0,0.2,0.1s0.1,0.1,0.1,0.2c0,0.1-0.2,0.4-0.5,0.7s-0.7,0.5-0.9,0.5s-0.4,0-0.5-0.1
		s-0.4-0.3-0.8-0.6c-0.2-0.2-0.4-0.3-0.5-0.4s-0.2-0.1-0.3-0.1s-0.2,0-0.3,0.1s-0.3,0.3-0.6,0.5c-0.1,0.1-0.2,0.2-0.2,0.2h-0.1
		c-0.1,0-0.1,0-0.2-0.1s-0.1-0.1-0.1-0.2c0-0.1,0.1-0.2,0.2-0.3c0.3-0.3,0.5-0.5,0.7-0.7s0.4-0.2,0.6-0.2c0.2,0,0.3,0,0.5,0.1
		s0.4,0.2,0.6,0.4c0.4,0.4,0.6,0.6,0.7,0.6s0.2,0.1,0.3,0.1c0.3,0,0.6-0.2,0.9-0.6c0.1-0.1,0.2-0.2,0.2-0.3S242,82.4,242.1,82.4z"/>
	<path class="st0" d="M249.7,82.3h-5.4c-0.1,0-0.2,0-0.3-0.1s-0.1-0.1-0.1-0.2c0-0.1,0-0.1,0.1-0.2s0.1-0.1,0.3-0.1h5.4
		c0.1,0,0.2,0,0.3,0.1s0.1,0.1,0.1,0.2c0,0.1,0,0.1-0.1,0.2S249.8,82.3,249.7,82.3z M249.7,84h-5.4c-0.1,0-0.2,0-0.3-0.1
		s-0.1-0.1-0.1-0.2s0-0.1,0.1-0.2s0.1-0.1,0.3-0.1h5.4c0.1,0,0.2,0,0.3,0.1s0.1,0.1,0.1,0.2s0,0.1-0.1,0.2S249.8,84,249.7,84z"/>
	<path class="st0" d="M254.2,78.9l2.2,2.7c0.1,0.1,0.1,0.2,0.1,0.2c0,0.1,0,0.1-0.1,0.2s-0.1,0.1-0.2,0.1S256,82,256,81.9l-1.8-2.3
		l-1.8,2.3c-0.1,0.1-0.2,0.2-0.2,0.2c-0.1,0-0.1,0-0.2-0.1s-0.1-0.1-0.1-0.2c0-0.1,0-0.1,0.1-0.2L254.2,78.9z"/>
	<path class="st0" d="M263.6,78.6l-4,8.5c-0.1,0.1-0.2,0.2-0.3,0.2c-0.1,0-0.1,0-0.2-0.1S259,87.1,259,87c0,0,0-0.1,0.1-0.2l4-8.5
		c0-0.1,0.1-0.1,0.1-0.2s0.1,0,0.1,0c0.1,0,0.1,0,0.2,0.1s0.1,0.1,0.1,0.2C263.7,78.5,263.7,78.5,263.6,78.6z"/>
	<path class="st0" d="M286.3,89.6h-6.5c-0.1,0-0.2,0-0.3-0.1s-0.1-0.1-0.1-0.2s0-0.1,0.1-0.2s0.1-0.1,0.3-0.1h6.5
		c0.1,0,0.2,0,0.3,0.1s0.1,0.1,0.1,0.2s0,0.1-0.1,0.2S286.4,89.6,286.3,89.6z"/>
	<path class="st0" d="M296.9,78.7l1.4,1.2l0.1,0.1v0.1c0,0.1,0,0.1-0.1,0.2s-0.1,0.1-0.2,0.1s-0.1,0-0.2-0.1l-1.4-1.2
		c-0.1-0.1-0.1-0.2-0.1-0.2c0-0.1,0-0.1,0.1-0.2s0.1-0.1,0.2-0.1C296.7,78.6,296.8,78.6,296.9,78.7z"/>
	<path class="st0" d="M307.1,82.6v0.7h-5v-0.7H307.1z"/>
	<path class="st0" d="M314.3,82.6v0.7h-5v-0.7H314.3z"/>
	<path class="st0" d="M318.9,84.9h0.2c0.2,0,0.4,0.1,0.6,0.2s0.2,0.3,0.2,0.6c0,0.2-0.1,0.4-0.2,0.6s-0.3,0.2-0.6,0.2h-0.2
		c-0.2,0-0.4-0.1-0.6-0.2s-0.2-0.3-0.2-0.6c0-0.2,0.1-0.4,0.2-0.6S318.7,84.9,318.9,84.9z"/>
	<path class="st0" d="M328.4,78.6l-4,8.5c-0.1,0.1-0.2,0.2-0.3,0.2c-0.1,0-0.1,0-0.2-0.1s-0.1-0.1-0.1-0.2c0,0,0-0.1,0.1-0.2l4-8.5
		c0-0.1,0.1-0.1,0.1-0.2s0.1,0,0.1,0c0.1,0,0.1,0,0.2,0.1s0.1,0.1,0.1,0.2C328.5,78.5,328.5,78.5,328.4,78.6z"/>
	<path class="st0" d="M340.5,84.9h0.2c0.2,0,0.4,0.1,0.6,0.2s0.2,0.3,0.2,0.6c0,0.2-0.1,0.4-0.2,0.6s-0.3,0.2-0.6,0.2h-0.2
		c-0.2,0-0.4-0.1-0.6-0.2s-0.2-0.3-0.2-0.6c0-0.2,0.1-0.4,0.2-0.6S340.3,84.9,340.5,84.9z"/>
	<path class="st0" d="M350.3,82.6v0.7h-5v-0.7H350.3z"/>
	<path class="st0" d="M354.3,79h1.6l-0.4,3.1c0,0.2-0.1,0.3-0.1,0.3s-0.1,0.1-0.2,0.1s-0.2,0-0.2-0.1s-0.1-0.2-0.1-0.3L354.3,79z"/>
	<path class="st0" d="M386.3,82.6v0.7h-5v-0.7H386.3z"/>
	<path class="st0" d="M11.6,93l-4,8.5c-0.1,0.1-0.2,0.2-0.3,0.2c-0.1,0-0.1,0-0.2-0.1S7,101.5,7,101.4c0,0,0-0.1,0.1-0.2l4-8.5
		c0-0.1,0.1-0.1,0.1-0.2s0.1,0,0.1,0c0.1,0,0.1,0,0.2,0.1s0.1,0.1,0.1,0.2C11.6,92.9,11.6,92.9,11.6,93z"/>
	<path class="st0" d="M73.7,93.1l1.4,1.2l0.1,0.1v0.1c0,0.1,0,0.1-0.1,0.2s-0.1,0.1-0.2,0.1s-0.1,0-0.2-0.1l-1.4-1.2
		c-0.1-0.1-0.1-0.2-0.1-0.2c0-0.1,0-0.1,0.1-0.2s0.1-0.1,0.2-0.1C73.5,93,73.6,93,73.7,93.1z"/>
	<path class="st0" d="M81.3,99.3h0.2c0.2,0,0.4,0.1,0.6,0.2s0.2,0.3,0.2,0.6c0,0.2-0.1,0.4-0.2,0.6s-0.3,0.2-0.6,0.2h-0.2
		c-0.2,0-0.4-0.1-0.6-0.2s-0.2-0.3-0.2-0.6c0-0.2,0.1-0.4,0.2-0.6S81.1,99.3,81.3,99.3z"/>
	<path class="st0" d="M105.2,93l-4,8.5c-0.1,0.1-0.2,0.2-0.3,0.2c-0.1,0-0.1,0-0.2-0.1s-0.1-0.1-0.1-0.2c0,0,0-0.1,0.1-0.2l4-8.5
		c0-0.1,0.1-0.1,0.1-0.2s0.1,0,0.1,0c0.1,0,0.1,0,0.2,0.1s0.1,0.1,0.1,0.2C105.3,92.9,105.2,92.9,105.2,93z"/>
	<path class="st0" d="M119.6,93l-4,8.5c-0.1,0.1-0.2,0.2-0.3,0.2c-0.1,0-0.1,0-0.2-0.1s-0.1-0.1-0.1-0.2c0,0,0-0.1,0.1-0.2l4-8.5
		c0-0.1,0.1-0.1,0.1-0.2s0.1,0,0.1,0c0.1,0,0.1,0,0.2,0.1s0.1,0.1,0.1,0.2C119.7,92.9,119.6,92.9,119.6,93z"/>
	<path class="st0" d="M174.5,93.1l1.4,1.2l0.1,0.1v0.1c0,0.1,0,0.1-0.1,0.2s-0.1,0.1-0.2,0.1c-0.1,0-0.1,0-0.2-0.1l-1.4-1.2
		c-0.1-0.1-0.1-0.2-0.1-0.2c0-0.1,0-0.1,0.1-0.2s0.1-0.1,0.2-0.1C174.3,93,174.4,93,174.5,93.1z"/>
	<path class="st0" d="M182.1,99.3h0.2c0.2,0,0.4,0.1,0.6,0.2s0.2,0.3,0.2,0.6c0,0.2-0.1,0.4-0.2,0.6s-0.3,0.2-0.6,0.2h-0.2
		c-0.2,0-0.4-0.1-0.6-0.2s-0.2-0.3-0.2-0.6c0-0.2,0.1-0.4,0.2-0.6S181.9,99.3,182.1,99.3z"/>
	<path class="st0" d="M191.7,96.8c0.1,0,0.1,0,0.2,0.1s0.1,0.1,0.1,0.2c0,0.1-0.2,0.4-0.5,0.7s-0.7,0.5-0.9,0.5s-0.4,0-0.5-0.1
		s-0.4-0.3-0.8-0.6c-0.2-0.2-0.4-0.3-0.5-0.4s-0.2-0.1-0.3-0.1s-0.2,0-0.3,0.1s-0.3,0.3-0.6,0.5c-0.1,0.1-0.2,0.2-0.2,0.2h-0.1
		c-0.1,0-0.1,0-0.2-0.1s-0.1-0.1-0.1-0.2c0-0.1,0.1-0.2,0.2-0.3c0.3-0.3,0.5-0.5,0.7-0.7s0.4-0.2,0.6-0.2c0.2,0,0.3,0,0.5,0.1
		s0.4,0.2,0.6,0.4c0.4,0.4,0.6,0.6,0.7,0.6s0.2,0.1,0.3,0.1c0.3,0,0.6-0.2,0.9-0.6c0.1-0.1,0.2-0.2,0.2-0.3S191.6,96.8,191.7,96.8z"
		/>
	<path class="st0" d="M199.1,97v0.7h-5V97H199.1z"/>
	<path class="st0" d="M203.8,93.3L206,96c0.1,0.1,0.1,0.2,0.1,0.2c0,0.1,0,0.1-0.1,0.2s-0.1,0.1-0.2,0.1c-0.1,0-0.2-0.1-0.2-0.2
		l-1.8-2.3l-1.8,2.3c-0.1,0.1-0.2,0.2-0.2,0.2c-0.1,0-0.1,0-0.2-0.1s-0.1-0.1-0.1-0.2c0-0.1,0-0.1,0.1-0.2L203.8,93.3z"/>
	<path class="st0" d="M213.7,96.7h-5.4c-0.1,0-0.2,0-0.3-0.1s-0.1-0.1-0.1-0.2c0-0.1,0-0.1,0.1-0.2s0.1-0.1,0.3-0.1h5.4
		c0.1,0,0.2,0,0.3,0.1s0.1,0.1,0.1,0.2c0,0.1,0,0.1-0.1,0.2S213.8,96.7,213.7,96.7z M213.7,98.4h-5.4c-0.1,0-0.2,0-0.3-0.1
		s-0.1-0.1-0.1-0.2s0-0.1,0.1-0.2s0.1-0.1,0.3-0.1h5.4c0.1,0,0.2,0,0.3,0.1s0.1,0.1,0.1,0.2s0,0.1-0.1,0.2S213.8,98.4,213.7,98.4z"
		/>
	<path class="st0" d="M220.7,97v0.7h-5V97H220.7z"/>
	<path class="st0" d="M228.1,96.7h-5.4c-0.1,0-0.2,0-0.3-0.1s-0.1-0.1-0.1-0.2c0-0.1,0-0.1,0.1-0.2s0.1-0.1,0.3-0.1h5.4
		c0.1,0,0.2,0,0.3,0.1s0.1,0.1,0.1,0.2c0,0.1,0,0.1-0.1,0.2S228.2,96.7,228.1,96.7z M228.1,98.4h-5.4c-0.1,0-0.2,0-0.3-0.1
		s-0.1-0.1-0.1-0.2s0-0.1,0.1-0.2s0.1-0.1,0.3-0.1h5.4c0.1,0,0.2,0,0.3,0.1s0.1,0.1,0.1,0.2s0,0.1-0.1,0.2S228.2,98.4,228.1,98.4z"
		/>
	<path class="st0" d="M234.9,96.8c0.1,0,0.1,0,0.2,0.1s0.1,0.1,0.1,0.2c0,0.1-0.2,0.4-0.5,0.7s-0.7,0.5-0.9,0.5s-0.4,0-0.5-0.1
		s-0.4-0.3-0.8-0.6c-0.2-0.2-0.4-0.3-0.5-0.4s-0.2-0.1-0.3-0.1s-0.2,0-0.3,0.1s-0.3,0.3-0.6,0.5c-0.1,0.1-0.2,0.2-0.2,0.2h-0.1
		c-0.1,0-0.1,0-0.2-0.1s-0.1-0.1-0.1-0.2c0-0.1,0.1-0.2,0.2-0.3c0.3-0.3,0.5-0.5,0.7-0.7s0.4-0.2,0.6-0.2c0.2,0,0.3,0,0.5,0.1
		s0.4,0.2,0.6,0.4c0.4,0.4,0.6,0.6,0.7,0.6s0.2,0.1,0.3,0.1c0.3,0,0.6-0.2,0.9-0.6c0.1-0.1,0.2-0.2,0.2-0.3S234.8,96.8,234.9,96.8z"
		/>
	<path class="st0" d="M242.5,96.7h-5.4c-0.1,0-0.2,0-0.3-0.1s-0.1-0.1-0.1-0.2c0-0.1,0-0.1,0.1-0.2s0.1-0.1,0.3-0.1h5.4
		c0.1,0,0.2,0,0.3,0.1s0.1,0.1,0.1,0.2c0,0.1,0,0.1-0.1,0.2S242.6,96.7,242.5,96.7z M242.5,98.4h-5.4c-0.1,0-0.2,0-0.3-0.1
		s-0.1-0.1-0.1-0.2s0-0.1,0.1-0.2s0.1-0.1,0.3-0.1h5.4c0.1,0,0.2,0,0.3,0.1s0.1,0.1,0.1,0.2s0,0.1-0.1,0.2S242.6,98.4,242.5,98.4z"
		/>
	<path class="st0" d="M247,93.3l2.2,2.7c0.1,0.1,0.1,0.2,0.1,0.2c0,0.1,0,0.1-0.1,0.2s-0.1,0.1-0.2,0.1s-0.2-0.1-0.2-0.2L247,94
		l-1.8,2.3c-0.1,0.1-0.2,0.2-0.2,0.2c-0.1,0-0.1,0-0.2-0.1s-0.1-0.1-0.1-0.2c0-0.1,0-0.1,0.1-0.2L247,93.3z"/>
	<path class="st0" d="M256.9,96.7h-5.4c-0.1,0-0.2,0-0.3-0.1s-0.1-0.1-0.1-0.2c0-0.1,0-0.1,0.1-0.2s0.1-0.1,0.3-0.1h5.4
		c0.1,0,0.2,0,0.3,0.1s0.1,0.1,0.1,0.2c0,0.1,0,0.1-0.1,0.2S257,96.7,256.9,96.7z M256.9,98.4h-5.4c-0.1,0-0.2,0-0.3-0.1
		s-0.1-0.1-0.1-0.2s0-0.1,0.1-0.2s0.1-0.1,0.3-0.1h5.4c0.1,0,0.2,0,0.3,0.1s0.1,0.1,0.1,0.2s0,0.1-0.1,0.2S257,98.4,256.9,98.4z"/>
	<path class="st0" d="M261.3,99.3h0.2c0.2,0,0.4,0.1,0.6,0.2s0.2,0.3,0.2,0.6c0,0.2-0.1,0.4-0.2,0.6s-0.3,0.2-0.6,0.2h-0.2
		c-0.2,0-0.4-0.1-0.6-0.2s-0.2-0.3-0.2-0.6c0-0.2,0.1-0.4,0.2-0.6S261.1,99.3,261.3,99.3z"/>
	<path class="st0" d="M271.1,97v0.7h-5V97H271.1z"/>
	<path class="st0" d="M275,93.4h1.6l-0.4,3.1c0,0.2-0.1,0.3-0.1,0.3s-0.1,0.1-0.2,0.1s-0.2,0-0.2-0.1s-0.1-0.2-0.1-0.3L275,93.4z"/>
	<path class="st0" d="M325.4,93.4h1.6l-0.4,3.1c0,0.2-0.1,0.3-0.1,0.3s-0.1,0.1-0.2,0.1s-0.2,0-0.2-0.1s-0.1-0.2-0.1-0.3L325.4,93.4
		z"/>
	<path class="st0" d="M335.9,97v0.7h-5V97H335.9z"/>
	<path class="st0" d="M340.5,99.3h0.2c0.2,0,0.4,0.1,0.6,0.2s0.2,0.3,0.2,0.6c0,0.2-0.1,0.4-0.2,0.6s-0.3,0.2-0.6,0.2h-0.2
		c-0.2,0-0.4-0.1-0.6-0.2s-0.2-0.3-0.2-0.6c0-0.2,0.1-0.4,0.2-0.6S340.3,99.3,340.5,99.3z"/>
	<path class="st0" d="M351.1,104h-6.5c-0.1,0-0.2,0-0.3-0.1s-0.1-0.1-0.1-0.2s0-0.1,0.1-0.2s0.1-0.1,0.3-0.1h6.5
		c0.1,0,0.2,0,0.3,0.1s0.1,0.1,0.1,0.2s0,0.1-0.1,0.2S351.2,104,351.1,104z"/>
	<path class="st0" d="M369.3,99.3h0.2c0.2,0,0.4,0.1,0.6,0.2s0.2,0.3,0.2,0.6c0,0.2-0.1,0.4-0.2,0.6s-0.3,0.2-0.6,0.2h-0.2
		c-0.2,0-0.4-0.1-0.6-0.2s-0.2-0.3-0.2-0.6c0-0.2,0.1-0.4,0.2-0.6S369.1,99.3,369.3,99.3z"/>
	<path class="st0" d="M379.9,104h-6.5c-0.1,0-0.2,0-0.3-0.1s-0.1-0.1-0.1-0.2s0-0.1,0.1-0.2s0.1-0.1,0.3-0.1h6.5
		c0.1,0,0.2,0,0.3,0.1s0.1,0.1,0.1,0.2s0,0.1-0.1,0.2S380,104,379.9,104z"/>
</g>
</svg>
