<?xml version="1.0" encoding="utf-8"?>
<!-- Generator: Adobe Illustrator 25.2.3, SVG Export Plug-In . SVG Version: 6.00 Build 0)  -->
<svg version="1.1" id="Layer_1" xmlns="http://www.w3.org/2000/svg" xmlns:xlink="http://www.w3.org/1999/xlink" x="0px" y="0px"
	 viewBox="0 0 270 165.3" style="enable-background:new 0 0 270 165.3;" xml:space="preserve">
<style type="text/css">
	.st0{fill:#FFFFFF;stroke:#FFFFFF;stroke-miterlimit:10;}
</style>
<g>
	<path class="st0" d="M24.9,9.6c0-0.4,0.1-0.9,0.2-1.4s0.3-1.1,0.7-1.7s0.6-1.1,0.7-1.2c0,0,0.1-0.1,0.2-0.1s0.1,0,0.2,0.1
		S27,5.4,27,5.5v0.1c-0.4,0.8-0.7,1.5-0.9,2.1S25.8,9,25.8,9.6s0.1,1.3,0.3,1.9s0.5,1.4,0.9,2.1v0.1c0,0.1,0,0.1-0.1,0.2
		S26.8,14,26.7,14s-0.1,0-0.2-0.1s-0.4-0.5-0.7-1.2s-0.6-1.2-0.7-1.7S24.9,10.1,24.9,9.6z"/>
	<path class="st0" d="M30.4,4.7l4,8.5c0,0.1,0.1,0.1,0.1,0.2s0,0.1-0.1,0.2s-0.1,0.1-0.2,0.1s-0.2-0.1-0.3-0.2l-4-8.5
		c0-0.1-0.1-0.1-0.1-0.2c0-0.1,0-0.1,0.1-0.2s0.1-0.1,0.2-0.1C30.3,4.4,30.4,4.5,30.4,4.7z"/>
	<path class="st0" d="M37.6,19.1l4,8.5c0,0.1,0.1,0.1,0.1,0.2s0,0.1-0.1,0.2s-0.1,0.1-0.2,0.1s-0.2-0.1-0.3-0.2l-4-8.5
		c0-0.1-0.1-0.1-0.1-0.2s0-0.1,0.1-0.2s0.1-0.1,0.2-0.1C37.5,18.8,37.6,18.9,37.6,19.1z"/>
	<path class="st0" d="M52,19.1l4,8.5c0,0.1,0.1,0.1,0.1,0.2s0,0.1-0.1,0.2s-0.1,0.1-0.2,0.1c-0.1,0-0.2-0.1-0.3-0.2l-4-8.5
		c0-0.1-0.1-0.1-0.1-0.2s0-0.1,0.1-0.2s0.1-0.1,0.2-0.1C51.9,18.8,52,18.9,52,19.1z"/>
	<path class="st0" d="M13.9,44.6H7.4c-0.1,0-0.2,0-0.3-0.1S7,44.4,7,44.3s0-0.1,0.1-0.2S7.2,44,7.4,44h6.5c0.1,0,0.2,0,0.3,0.1
		s0.1,0.1,0.1,0.2s0,0.1-0.1,0.2S14,44.6,13.9,44.6z"/>
	<path class="st0" d="M21.1,44.6h-6.5c-0.1,0-0.2,0-0.3-0.1s-0.1-0.1-0.1-0.2s0-0.1,0.1-0.2s0.1-0.1,0.3-0.1h6.5
		c0.1,0,0.2,0,0.3,0.1s0.1,0.1,0.1,0.2s0,0.1-0.1,0.2S21.2,44.6,21.1,44.6z"/>
	<path class="st0" d="M52,33.5l4,8.5c0,0.1,0.1,0.1,0.1,0.2s0,0.1-0.1,0.2s-0.1,0.1-0.2,0.1c-0.1,0-0.2-0.1-0.3-0.2l-4-8.5
		c0-0.1-0.1-0.1-0.1-0.2s0-0.1,0.1-0.2s0.1-0.1,0.2-0.1C51.9,33.2,52,33.3,52,33.5z"/>
	<path class="st0" d="M63.2,33.6l-4,8.5c-0.1,0.1-0.2,0.2-0.3,0.2s-0.1,0-0.2-0.1s-0.1-0.1-0.1-0.2c0,0,0-0.1,0.1-0.2l4-8.5
		c0-0.1,0.1-0.1,0.1-0.2s0.1,0,0.1,0c0.1,0,0.1,0,0.2,0.1s0.1,0.1,0.1,0.2C63.3,33.5,63.3,33.5,63.2,33.6z"/>
	<path class="st0" d="M78.7,44.6h-6.5c-0.1,0-0.2,0-0.3-0.1s-0.1-0.1-0.1-0.2s0-0.1,0.1-0.2S72,44,72.2,44h6.5c0.1,0,0.2,0,0.3,0.1
		s0.1,0.1,0.1,0.2s0,0.1-0.1,0.2S78.8,44.6,78.7,44.6z"/>
	<path class="st0" d="M85.9,44.6h-6.5c-0.1,0-0.2,0-0.3-0.1S79,44.4,79,44.3s0-0.1,0.1-0.2s0.1-0.1,0.3-0.1h6.5c0.1,0,0.2,0,0.3,0.1
		s0.1,0.1,0.1,0.2s0,0.1-0.1,0.2S86,44.6,85.9,44.6z"/>
	<path class="st0" d="M93.1,44.6h-6.5c-0.1,0-0.2,0-0.3-0.1s-0.1-0.1-0.1-0.2s0-0.1,0.1-0.2s0.1-0.1,0.3-0.1h6.5
		c0.1,0,0.2,0,0.3,0.1s0.1,0.1,0.1,0.2s0,0.1-0.1,0.2S93.2,44.6,93.1,44.6z"/>
	<path class="st0" d="M96,39.6h1.6l-1.7,3.2c-0.1,0.2-0.2,0.3-0.4,0.3c-0.1,0-0.2,0-0.2-0.1s-0.1-0.2-0.1-0.2v-0.1L96,39.6z"/>
	<path class="st0" d="M104.1,39.9h0.2c0.2,0,0.4,0.1,0.6,0.2s0.2,0.3,0.2,0.6c0,0.2-0.1,0.4-0.2,0.6s-0.3,0.2-0.6,0.2h-0.2
		c-0.2,0-0.4-0.1-0.6-0.2s-0.2-0.3-0.2-0.6c0-0.2,0.1-0.4,0.2-0.6S103.9,39.9,104.1,39.9z"/>
	<path class="st0" d="M113.9,37.6v0.7h-5v-0.7H113.9z"/>
	<path class="st0" d="M121.1,37.6v0.7h-5v-0.7H121.1z"/>
	<path class="st0" d="M128.3,37.6v0.7h-5v-0.7H128.3z"/>
	<path class="st0" d="M135.5,37.6v0.7h-5v-0.7H135.5z"/>
	<path class="st0" d="M142.7,37.6v0.7h-5v-0.7H142.7z"/>
	<path class="st0" d="M149.9,37.6v0.7h-5v-0.7H149.9z"/>
	<path class="st0" d="M157.1,37.6v0.7h-5v-0.7H157.1z"/>
	<path class="st0" d="M161.7,39.9h0.2c0.2,0,0.4,0.1,0.6,0.2s0.2,0.3,0.2,0.6c0,0.2-0.1,0.4-0.2,0.6s-0.3,0.2-0.6,0.2h-0.2
		c-0.2,0-0.4-0.1-0.6-0.2s-0.2-0.3-0.2-0.6c0-0.2,0.1-0.4,0.2-0.6S161.5,39.9,161.7,39.9z"/>
	<path class="st0" d="M168.9,39.9h0.2c0.2,0,0.4,0.1,0.6,0.2s0.2,0.3,0.2,0.6c0,0.2-0.1,0.4-0.2,0.6s-0.3,0.2-0.6,0.2h-0.2
		c-0.2,0-0.4-0.1-0.6-0.2s-0.2-0.3-0.2-0.6c0-0.2,0.1-0.4,0.2-0.6S168.7,39.9,168.9,39.9z"/>
	<path class="st0" d="M179.5,44.6H173c-0.1,0-0.2,0-0.3-0.1s-0.1-0.1-0.1-0.2s0-0.1,0.1-0.2s0.1-0.1,0.3-0.1h6.5
		c0.1,0,0.2,0,0.3,0.1s0.1,0.1,0.1,0.2s0,0.1-0.1,0.2S179.6,44.6,179.5,44.6z"/>
	<path class="st0" d="M186.7,44.6h-6.5c-0.1,0-0.2,0-0.3-0.1s-0.1-0.1-0.1-0.2s0-0.1,0.1-0.2s0.1-0.1,0.3-0.1h6.5
		c0.1,0,0.2,0,0.3,0.1s0.1,0.1,0.1,0.2s0,0.1-0.1,0.2S186.8,44.6,186.7,44.6z"/>
	<path class="st0" d="M251.5,44.6H245c-0.1,0-0.2,0-0.3-0.1s-0.1-0.1-0.1-0.2s0-0.1,0.1-0.2s0.1-0.1,0.3-0.1h6.5
		c0.1,0,0.2,0,0.3,0.1s0.1,0.1,0.1,0.2s0,0.1-0.1,0.2S251.6,44.6,251.5,44.6z"/>
	<path class="st0" d="M258.7,44.6h-6.5c-0.1,0-0.2,0-0.3-0.1s-0.1-0.1-0.1-0.2s0-0.1,0.1-0.2s0.1-0.1,0.3-0.1h6.5
		c0.1,0,0.2,0,0.3,0.1s0.1,0.1,0.1,0.2s0,0.1-0.1,0.2S258.8,44.6,258.7,44.6z"/>
	<path class="st0" d="M5.6,48l-4,8.5c-0.1,0.1-0.2,0.2-0.3,0.2c-0.1,0-0.1,0-0.2-0.1S1,56.5,1,56.4c0,0,0-0.1,0.1-0.2l4-8.5
		c0-0.1,0.1-0.1,0.1-0.2s0.1,0,0.1,0c0.1,0,0.1,0,0.2,0.1s0.1,0.1,0.1,0.2C5.7,47.9,5.7,47.9,5.6,48z"/>
	<path class="st0" d="M12.8,48l-4,8.5c-0.1,0.1-0.2,0.2-0.3,0.2c-0.1,0-0.1,0-0.2-0.1s-0.1-0.1-0.1-0.2c0,0,0-0.1,0.1-0.2l4-8.5
		c0-0.1,0.1-0.1,0.1-0.2s0.1,0,0.1,0c0.1,0,0.1,0,0.2,0.1s0.1,0.1,0.1,0.2C12.9,47.9,12.9,47.9,12.8,48z"/>
	<path class="st0" d="M16,47.9l4,8.5c0,0.1,0.1,0.1,0.1,0.2s0,0.1-0.1,0.2s-0.1,0.1-0.2,0.1s-0.2-0.1-0.3-0.2l-4-8.5
		c0-0.1-0.1-0.1-0.1-0.2s0-0.1,0.1-0.2s0.1-0.1,0.2-0.1C15.9,47.6,16,47.7,16,47.9z"/>
	<path class="st0" d="M23.2,47.9l4,8.5c0,0.1,0.1,0.1,0.1,0.2s0,0.1-0.1,0.2s-0.1,0.1-0.2,0.1s-0.2-0.1-0.3-0.2l-4-8.5
		c0-0.1-0.1-0.1-0.1-0.2s0-0.1,0.1-0.2s0.1-0.1,0.2-0.1C23.1,47.6,23.2,47.7,23.2,47.9z"/>
	<path class="st0" d="M42.7,59h-6.5c-0.1,0-0.2,0-0.3-0.1s-0.1-0.1-0.1-0.2s0-0.1,0.1-0.2s0.1-0.1,0.3-0.1h6.5c0.1,0,0.2,0,0.3,0.1
		s0.1,0.1,0.1,0.2s0,0.1-0.1,0.2S42.8,59,42.7,59z"/>
	<path class="st0" d="M45.6,54h1.6l-1.7,3.2c-0.1,0.2-0.2,0.3-0.4,0.3c-0.1,0-0.2,0-0.2-0.1s-0.1-0.2-0.1-0.2v-0.1L45.6,54z"/>
	<path class="st0" d="M56.3,52v0.7h-5V52H56.3z"/>
	<path class="st0" d="M60.2,48.4h1.6l-0.4,3.1c0,0.2-0.1,0.3-0.1,0.3s-0.1,0.1-0.2,0.1c-0.1,0-0.2,0-0.2-0.1s-0.1-0.2-0.1-0.3
		L60.2,48.4z"/>
	<path class="st0" d="M66.4,47.9l4,8.5c0,0.1,0.1,0.1,0.1,0.2s0,0.1-0.1,0.2s-0.1,0.1-0.2,0.1c-0.1,0-0.2-0.1-0.3-0.2l-4-8.5
		c0-0.1-0.1-0.1-0.1-0.2s0-0.1,0.1-0.2s0.1-0.1,0.2-0.1C66.3,47.6,66.4,47.7,66.4,47.9z"/>
	<path class="st0" d="M73.7,47.9l4,8.5c0,0.1,0.1,0.1,0.1,0.2s0,0.1-0.1,0.2s-0.1,0.1-0.2,0.1c-0.1,0-0.2-0.1-0.3-0.2l-4-8.5
		c0-0.1-0.1-0.1-0.1-0.2s0-0.1,0.1-0.2s0.1-0.1,0.2-0.1C73.5,47.6,73.6,47.7,73.7,47.9z"/>
	<path class="st0" d="M190.1,48.1l1.4,1.2l0.1,0.1v0.1c0,0.1,0,0.1-0.1,0.2s-0.1,0.1-0.2,0.1s-0.1,0-0.2-0.1l-1.4-1.2
		c-0.1-0.1-0.1-0.2-0.1-0.2c0-0.1,0-0.1,0.1-0.2s0.1-0.1,0.2-0.1C189.9,48,190,48,190.1,48.1z"/>
	<path class="st0" d="M197,48.4h1.6l-0.4,3.1c0,0.2-0.1,0.3-0.1,0.3s-0.1,0.1-0.2,0.1s-0.2,0-0.2-0.1s-0.1-0.2-0.1-0.3L197,48.4z"/>
	<path class="st0" d="M207.5,52v0.7h-5V52H207.5z"/>
	<path class="st0" d="M214.7,52v0.7h-5V52H214.7z"/>
	<path class="st0" d="M219.3,54.3h0.2c0.2,0,0.4,0.1,0.6,0.2s0.2,0.3,0.2,0.6c0,0.2-0.1,0.4-0.2,0.6s-0.3,0.2-0.6,0.2h-0.2
		c-0.2,0-0.4-0.1-0.6-0.2s-0.2-0.3-0.2-0.6c0-0.2,0.1-0.4,0.2-0.6S219.1,54.3,219.3,54.3z"/>
	<path class="st0" d="M229.9,59h-6.5c-0.1,0-0.2,0-0.3-0.1s-0.1-0.1-0.1-0.2s0-0.1,0.1-0.2s0.1-0.1,0.3-0.1h6.5c0.1,0,0.2,0,0.3,0.1
		s0.1,0.1,0.1,0.2s0,0.1-0.1,0.2S230,59,229.9,59z"/>
	<path class="st0" d="M243.3,48l-4,8.5c-0.1,0.1-0.2,0.2-0.3,0.2c-0.1,0-0.1,0-0.2-0.1s-0.1-0.1-0.1-0.2c0,0,0-0.1,0.1-0.2l4-8.5
		c0-0.1,0.1-0.1,0.1-0.2s0.1,0,0.1,0c0.1,0,0.1,0,0.2,0.1s0.1,0.1,0.1,0.2C243.3,47.9,243.3,47.9,243.3,48z"/>
	<path class="st0" d="M250.5,48l-4,8.5c-0.1,0.1-0.2,0.2-0.3,0.2c-0.1,0-0.1,0-0.2-0.1s-0.1-0.1-0.1-0.2c0,0,0-0.1,0.1-0.2l4-8.5
		c0-0.1,0.1-0.1,0.1-0.2s0.1,0,0.1,0c0.1,0,0.1,0,0.2,0.1s0.1,0.1,0.1,0.2C250.5,47.9,250.5,47.9,250.5,48z"/>
	<path class="st0" d="M253.7,47.9l4,8.5c0,0.1,0.1,0.1,0.1,0.2s0,0.1-0.1,0.2s-0.1,0.1-0.2,0.1s-0.2-0.1-0.3-0.2l-4-8.5
		c0-0.1-0.1-0.1-0.1-0.2s0-0.1,0.1-0.2s0.1-0.1,0.2-0.1C253.5,47.6,253.6,47.7,253.7,47.9z"/>
	<path class="st0" d="M260.9,47.9l4,8.5c0,0.1,0.1,0.1,0.1,0.2s0,0.1-0.1,0.2s-0.1,0.1-0.2,0.1s-0.2-0.1-0.3-0.2l-4-8.5
		c0-0.1-0.1-0.1-0.1-0.2s0-0.1,0.1-0.2s0.1-0.1,0.2-0.1C260.7,47.6,260.8,47.7,260.9,47.9z"/>
	<path class="st0" d="M1.6,62.3l4,8.5c0,0.1,0.1,0.1,0.1,0.2c0,0.1,0,0.1-0.1,0.2s-0.1,0.1-0.2,0.1s-0.2-0.1-0.3-0.2l-4-8.5
		c0-0.1-0.1-0.1-0.1-0.2s0-0.1,0.1-0.2s0.1-0.1,0.2-0.1C1.5,62,1.6,62.1,1.6,62.3z"/>
	<path class="st0" d="M8.8,62.3l4,8.5c0,0.1,0.1,0.1,0.1,0.2c0,0.1,0,0.1-0.1,0.2s-0.1,0.1-0.2,0.1s-0.2-0.1-0.3-0.2l-4-8.5
		c0-0.1-0.1-0.1-0.1-0.2s0-0.1,0.1-0.2s0.1-0.1,0.2-0.1C8.7,62,8.8,62.1,8.8,62.3z"/>
	<path class="st0" d="M24,68.4h1.5l-1.7,2.7c-0.1,0.1-0.1,0.2-0.2,0.3s-0.1,0.1-0.2,0.1s-0.2,0-0.2-0.1s-0.1-0.1-0.1-0.2
		c0,0,0-0.1,0-0.2L24,68.4z M24.9,65.1h0.2c0.2,0,0.4,0.1,0.6,0.2s0.2,0.3,0.2,0.6c0,0.2-0.1,0.4-0.2,0.6s-0.3,0.2-0.6,0.2h-0.2
		c-0.2,0-0.4-0.1-0.6-0.2s-0.2-0.3-0.2-0.6c0-0.2,0.1-0.4,0.2-0.6S24.7,65.1,24.9,65.1z"/>
	<path class="st0" d="M31.4,62.8H33l-0.4,3.1c0,0.2-0.1,0.3-0.1,0.3s-0.1,0.1-0.2,0.1s-0.2,0-0.2-0.1S32,66,32,65.9L31.4,62.8z"/>
	<path class="st0" d="M80.9,62.3l4,8.5c0,0.1,0.1,0.1,0.1,0.2c0,0.1,0,0.1-0.1,0.2s-0.1,0.1-0.2,0.1c-0.1,0-0.2-0.1-0.3-0.2l-4-8.5
		c0-0.1-0.1-0.1-0.1-0.2s0-0.1,0.1-0.2s0.1-0.1,0.2-0.1C80.7,62,80.8,62.1,80.9,62.3z"/>
	<path class="st0" d="M88.1,62.3l4,8.5c0,0.1,0.1,0.1,0.1,0.2c0,0.1,0,0.1-0.1,0.2s-0.1,0.1-0.2,0.1c-0.1,0-0.2-0.1-0.3-0.2l-4-8.5
		c0-0.1-0.1-0.1-0.1-0.2s0-0.1,0.1-0.2s0.1-0.1,0.2-0.1C87.9,62,88,62.1,88.1,62.3z"/>
	<path class="st0" d="M233.3,62.5l1.4,1.2l0.1,0.1v0.1c0,0.1,0,0.1-0.1,0.2s-0.1,0.1-0.2,0.1s-0.1,0-0.2-0.1l-1.4-1.2
		c-0.1-0.1-0.1-0.2-0.1-0.2c0-0.1,0-0.1,0.1-0.2s0.1-0.1,0.2-0.1C233.1,62.4,233.2,62.4,233.3,62.5z"/>
	<path class="st0" d="M240.9,65.1h0.2c0.2,0,0.4,0.1,0.6,0.2s0.2,0.3,0.2,0.6c0,0.2-0.1,0.4-0.2,0.6s-0.3,0.2-0.6,0.2h-0.2
		c-0.2,0-0.4-0.1-0.6-0.2s-0.2-0.3-0.2-0.6c0-0.2,0.1-0.4,0.2-0.6S240.7,65.1,240.9,65.1z M240.9,68.7h0.2c0.2,0,0.4,0.1,0.6,0.2
		c0.2,0.2,0.2,0.3,0.2,0.6c0,0.2-0.1,0.4-0.2,0.6s-0.3,0.2-0.6,0.2h-0.2c-0.2,0-0.4-0.1-0.6-0.2s-0.2-0.3-0.2-0.6
		c0-0.2,0.1-0.4,0.2-0.6C240.5,68.8,240.7,68.7,240.9,68.7z"/>
	<path class="st0" d="M257.7,62.4l-4,8.5c-0.1,0.1-0.2,0.2-0.3,0.2c-0.1,0-0.1,0-0.2-0.1s-0.1-0.1-0.1-0.2c0,0,0-0.1,0.1-0.2l4-8.5
		c0-0.1,0.1-0.1,0.1-0.2s0.1,0,0.1,0c0.1,0,0.1,0,0.2,0.1s0.1,0.1,0.1,0.2C257.7,62.3,257.7,62.3,257.7,62.4z"/>
	<path class="st0" d="M264.9,62.4l-4,8.5c-0.1,0.1-0.2,0.2-0.3,0.2c-0.1,0-0.1,0-0.2-0.1s-0.1-0.1-0.1-0.2c0,0,0-0.1,0.1-0.2l4-8.5
		c0-0.1,0.1-0.1,0.1-0.2s0.1,0,0.1,0c0.1,0,0.1,0,0.2,0.1s0.1,0.1,0.1,0.2C264.9,62.3,264.9,62.3,264.9,62.4z"/>
	<path class="st0" d="M10.1,76.9l1.4,1.2l0.1,0.1v0.1c0,0.1,0,0.1-0.1,0.2s-0.1,0.1-0.2,0.1s-0.1,0-0.2-0.1l-1.4-1.2
		c-0.1-0.1-0.1-0.2-0.1-0.2c0-0.1,0-0.1,0.1-0.2s0.1-0.1,0.2-0.1C9.9,76.8,10,76.8,10.1,76.9z"/>
	<path class="st0" d="M17.7,81.6c0-0.4,0.1-0.9,0.2-1.4s0.3-1.1,0.7-1.7s0.6-1.1,0.7-1.2c0,0,0.1-0.1,0.2-0.1s0.1,0,0.2,0.1
		s0.1,0.1,0.1,0.2v0.1c-0.4,0.8-0.7,1.5-0.9,2.1s-0.3,1.3-0.3,1.9c0,0.6,0.1,1.3,0.3,1.9s0.5,1.4,0.9,2.1v0.1c0,0.1,0,0.1-0.1,0.2
		S19.6,86,19.5,86s-0.1,0-0.2-0.1s-0.4-0.5-0.7-1.2S18,83.5,17.9,83S17.7,82.1,17.7,81.6z"/>
	<path class="st0" d="M95.3,76.7l4,8.5c0,0.1,0.1,0.1,0.1,0.2c0,0.1,0,0.1-0.1,0.2s-0.1,0.1-0.2,0.1c-0.1,0-0.2-0.1-0.3-0.2l-4-8.5
		c0-0.1-0.1-0.1-0.1-0.2c0-0.1,0-0.1,0.1-0.2s0.1-0.1,0.2-0.1C95.1,76.4,95.2,76.5,95.3,76.7z"/>
	<path class="st0" d="M102.5,76.7l4,8.5c0,0.1,0.1,0.1,0.1,0.2c0,0.1,0,0.1-0.1,0.2s-0.1,0.1-0.2,0.1c-0.1,0-0.2-0.1-0.3-0.2l-4-8.5
		c0-0.1-0.1-0.1-0.1-0.2c0-0.1,0-0.1,0.1-0.2s0.1-0.1,0.2-0.1C102.3,76.4,102.4,76.5,102.5,76.7z"/>
	<path class="st0" d="M248.4,81.6c0,0.4-0.1,0.9-0.2,1.4s-0.3,1.1-0.7,1.7s-0.6,1.1-0.7,1.2c0,0-0.1,0.1-0.2,0.1s-0.1,0-0.2-0.1
		s-0.1-0.1-0.1-0.2v-0.1c0.4-0.8,0.7-1.5,0.9-2.1s0.3-1.3,0.3-1.9c0-0.6-0.1-1.3-0.3-1.9s-0.5-1.4-0.9-2.1v-0.1c0-0.1,0-0.1,0.1-0.2
		s0.1-0.1,0.2-0.1s0.1,0,0.2,0.1s0.4,0.5,0.7,1.2s0.6,1.2,0.7,1.7S248.4,81.1,248.4,81.6z"/>
	<path class="st0" d="M254.7,77.2h1.6l-0.4,3.1c0,0.2-0.1,0.3-0.1,0.3s-0.1,0.1-0.2,0.1s-0.2,0-0.2-0.1s-0.1-0.2-0.1-0.3L254.7,77.2
		z"/>
	<path class="st0" d="M24.9,93.9h0.2c0.2,0,0.4,0.1,0.6,0.2s0.2,0.3,0.2,0.6c0,0.2-0.1,0.4-0.2,0.6s-0.3,0.2-0.6,0.2h-0.2
		c-0.2,0-0.4-0.1-0.6-0.2s-0.2-0.3-0.2-0.6c0-0.2,0.1-0.4,0.2-0.6S24.7,93.9,24.9,93.9z M24.9,97.5h0.2c0.2,0,0.4,0.1,0.6,0.2
		s0.2,0.3,0.2,0.6c0,0.2-0.1,0.4-0.2,0.6s-0.3,0.2-0.6,0.2h-0.2c-0.2,0-0.4-0.1-0.6-0.2s-0.2-0.3-0.2-0.6c0-0.2,0.1-0.4,0.2-0.6
		S24.7,97.5,24.9,97.5z"/>
	<path class="st0" d="M32.1,97.5h0.2c0.2,0,0.4,0.1,0.6,0.2s0.2,0.3,0.2,0.6c0,0.2-0.1,0.4-0.2,0.6s-0.3,0.2-0.6,0.2h-0.2
		c-0.2,0-0.4-0.1-0.6-0.2s-0.2-0.3-0.2-0.6c0-0.2,0.1-0.4,0.2-0.6S31.9,97.5,32.1,97.5z"/>
	<path class="st0" d="M109.7,91.1l4,8.5c0,0.1,0.1,0.1,0.1,0.2c0,0.1,0,0.1-0.1,0.2s-0.1,0.1-0.2,0.1c-0.1,0-0.2-0.1-0.3-0.2l-4-8.5
		c0-0.1-0.1-0.1-0.1-0.2c0-0.1,0-0.1,0.1-0.2s0.1-0.1,0.2-0.1C109.5,90.8,109.6,90.9,109.7,91.1z"/>
	<path class="st0" d="M116.9,91.1l4,8.5c0,0.1,0.1,0.1,0.1,0.2c0,0.1,0,0.1-0.1,0.2s-0.1,0.1-0.2,0.1c-0.1,0-0.2-0.1-0.3-0.2l-4-8.5
		c0-0.1-0.1-0.1-0.1-0.2c0-0.1,0-0.1,0.1-0.2s0.1-0.1,0.2-0.1C116.7,90.8,116.8,90.9,116.9,91.1z"/>
	<path class="st0" d="M124.8,97.2h1.6l-1.7,3.2c-0.1,0.2-0.2,0.3-0.4,0.3c-0.1,0-0.2,0-0.2-0.1s-0.1-0.2-0.1-0.2v-0.1L124.8,97.2z"
		/>
	<path class="st0" d="M135.5,95.2v0.7h-5v-0.7H135.5z"/>
	<path class="st0" d="M142.7,95.2v0.7h-5v-0.7H142.7z"/>
	<path class="st0" d="M149.9,95.2v0.7h-5v-0.7H149.9z"/>
	<path class="st0" d="M157.1,95.2v0.7h-5v-0.7H157.1z"/>
	<path class="st0" d="M160.8,97.2h1.6l-1.7,3.2c-0.1,0.2-0.2,0.3-0.4,0.3c-0.1,0-0.2,0-0.2-0.1s-0.1-0.2-0.1-0.2v-0.1L160.8,97.2z"
		/>
	<path class="st0" d="M232.9,97.2h1.6l-1.7,3.2c-0.1,0.2-0.2,0.3-0.4,0.3c-0.1,0-0.2,0-0.2-0.1s-0.1-0.2-0.1-0.2v-0.1L232.9,97.2z"
		/>
	<path class="st0" d="M240.1,97.2h1.5l-1.7,2.7c-0.1,0.1-0.1,0.2-0.2,0.3s-0.1,0.1-0.2,0.1s-0.2,0-0.2-0.1s-0.1-0.1-0.1-0.2
		c0,0,0-0.1,0-0.2L240.1,97.2z M240.9,93.9h0.2c0.2,0,0.4,0.1,0.6,0.2s0.2,0.3,0.2,0.6c0,0.2-0.1,0.4-0.2,0.6s-0.3,0.2-0.6,0.2h-0.2
		c-0.2,0-0.4-0.1-0.6-0.2s-0.2-0.3-0.2-0.6c0-0.2,0.1-0.4,0.2-0.6S240.7,93.9,240.9,93.9z"/>
	<path class="st0" d="M31.7,105.7l1.4,1.2l0.1,0.1v0.1c0,0.1,0,0.1-0.1,0.2s-0.1,0.1-0.2,0.1s-0.1,0-0.2-0.1l-1.4-1.2
		c-0.1-0.1-0.1-0.2-0.1-0.2c0-0.1,0-0.1,0.1-0.2s0.1-0.1,0.2-0.1C31.5,105.6,31.6,105.6,31.7,105.7z"/>
	<path class="st0" d="M39.3,111.9h0.2c0.2,0,0.4,0.1,0.6,0.2s0.2,0.3,0.2,0.6c0,0.2-0.1,0.4-0.2,0.6s-0.3,0.2-0.6,0.2h-0.2
		c-0.2,0-0.4-0.1-0.6-0.2s-0.2-0.3-0.2-0.6c0-0.2,0.1-0.4,0.2-0.6S39.1,111.9,39.3,111.9z"/>
	<path class="st0" d="M46.1,105.7l1.4,1.2l0.1,0.1v0.1c0,0.1,0,0.1-0.1,0.2s-0.1,0.1-0.2,0.1s-0.1,0-0.2-0.1l-1.4-1.2
		c-0.1-0.1-0.1-0.2-0.1-0.2c0-0.1,0-0.1,0.1-0.2s0.1-0.1,0.2-0.1C45.9,105.6,46,105.6,46.1,105.7z"/>
	<path class="st0" d="M56.3,109.6v0.7h-5v-0.7H56.3z"/>
	<path class="st0" d="M63.5,109.6v0.7h-5v-0.7H63.5z"/>
	<path class="st0" d="M68.1,111.9h0.2c0.2,0,0.4,0.1,0.6,0.2s0.2,0.3,0.2,0.6c0,0.2-0.1,0.4-0.2,0.6s-0.3,0.2-0.6,0.2h-0.2
		c-0.2,0-0.4-0.1-0.6-0.2s-0.2-0.3-0.2-0.6c0-0.2,0.1-0.4,0.2-0.6S67.9,111.9,68.1,111.9z"/>
	<path class="st0" d="M78.7,116.6h-6.5c-0.1,0-0.2,0-0.3-0.1s-0.1-0.1-0.1-0.2s0-0.1,0.1-0.2s0.1-0.1,0.3-0.1h6.5
		c0.1,0,0.2,0,0.3,0.1s0.1,0.1,0.1,0.2s0,0.1-0.1,0.2S78.8,116.6,78.7,116.6z"/>
	<path class="st0" d="M85.9,116.6h-6.5c-0.1,0-0.2,0-0.3-0.1s-0.1-0.1-0.1-0.2s0-0.1,0.1-0.2s0.1-0.1,0.3-0.1h6.5
		c0.1,0,0.2,0,0.3,0.1s0.1,0.1,0.1,0.2s0,0.1-0.1,0.2S86,116.6,85.9,116.6z"/>
	<path class="st0" d="M93.1,116.6h-6.5c-0.1,0-0.2,0-0.3-0.1s-0.1-0.1-0.1-0.2s0-0.1,0.1-0.2s0.1-0.1,0.3-0.1h6.5
		c0.1,0,0.2,0,0.3,0.1s0.1,0.1,0.1,0.2s0,0.1-0.1,0.2S93.2,116.6,93.1,116.6z"/>
	<path class="st0" d="M118.6,110.4c0-0.4,0.1-0.9,0.2-1.4s0.3-1.1,0.7-1.7s0.6-1.1,0.7-1.2c0,0,0.1-0.1,0.2-0.1c0.1,0,0.1,0,0.2,0.1
		s0.1,0.1,0.1,0.2v0.1c-0.4,0.8-0.7,1.5-0.9,2.1s-0.3,1.3-0.3,1.9c0,0.6,0.1,1.3,0.3,1.9s0.5,1.4,0.9,2.1v0.1c0,0.1,0,0.1-0.1,0.2
		s-0.1,0.1-0.2,0.1c-0.1,0-0.1,0-0.2-0.1c-0.1-0.1-0.4-0.5-0.7-1.2s-0.6-1.2-0.7-1.7S118.6,110.9,118.6,110.4z"/>
	<path class="st0" d="M156.8,105.6l-4,8.5c-0.1,0.1-0.2,0.2-0.3,0.2s-0.1,0-0.2-0.1s-0.1-0.1-0.1-0.2c0,0,0-0.1,0.1-0.2l4-8.5
		c0-0.1,0.1-0.1,0.1-0.2s0.1,0,0.1,0c0.1,0,0.1,0,0.2,0.1s0.1,0.1,0.1,0.2C156.9,105.5,156.9,105.5,156.8,105.6z"/>
	<path class="st0" d="M179.5,116.6H173c-0.1,0-0.2,0-0.3-0.1s-0.1-0.1-0.1-0.2s0-0.1,0.1-0.2s0.1-0.1,0.3-0.1h6.5
		c0.1,0,0.2,0,0.3,0.1s0.1,0.1,0.1,0.2s0,0.1-0.1,0.2S179.6,116.6,179.5,116.6z"/>
	<path class="st0" d="M186.7,116.6h-6.5c-0.1,0-0.2,0-0.3-0.1s-0.1-0.1-0.1-0.2s0-0.1,0.1-0.2s0.1-0.1,0.3-0.1h6.5
		c0.1,0,0.2,0,0.3,0.1s0.1,0.1,0.1,0.2s0,0.1-0.1,0.2S186.8,116.6,186.7,116.6z"/>
	<path class="st0" d="M193.9,116.6h-6.5c-0.1,0-0.2,0-0.3-0.1s-0.1-0.1-0.1-0.2s0-0.1,0.1-0.2s0.1-0.1,0.3-0.1h6.5
		c0.1,0,0.2,0,0.3,0.1s0.1,0.1,0.1,0.2s0,0.1-0.1,0.2S194,116.6,193.9,116.6z"/>
	<path class="st0" d="M197.7,111.9h0.2c0.2,0,0.4,0.1,0.6,0.2s0.2,0.3,0.2,0.6c0,0.2-0.1,0.4-0.2,0.6s-0.3,0.2-0.6,0.2h-0.2
		c-0.2,0-0.4-0.1-0.6-0.2s-0.2-0.3-0.2-0.6c0-0.2,0.1-0.4,0.2-0.6S197.5,111.9,197.7,111.9z"/>
	<path class="st0" d="M207.5,109.6v0.7h-5v-0.7H207.5z"/>
	<path class="st0" d="M214.7,109.6v0.7h-5v-0.7H214.7z"/>
	<path class="st0" d="M218.7,106h1.6l-0.4,3.1c0,0.2-0.1,0.3-0.1,0.3s-0.1,0.1-0.2,0.1s-0.2,0-0.2-0.1s-0.1-0.2-0.1-0.3L218.7,106z"
		/>
	<path class="st0" d="M225.7,111.6h1.6l-1.7,3.2c-0.1,0.2-0.2,0.3-0.4,0.3c-0.1,0-0.2,0-0.2-0.1s-0.1-0.2-0.1-0.2v-0.1L225.7,111.6z
		"/>
	<path class="st0" d="M233.1,106h1.6l-0.4,3.1c0,0.2-0.1,0.3-0.1,0.3s-0.1,0.1-0.2,0.1s-0.2,0-0.2-0.1s-0.1-0.2-0.1-0.3L233.1,106z"
		/>
	<path class="st0" d="M46.1,120.1l1.4,1.2l0.1,0.1v0.1c0,0.1,0,0.1-0.1,0.2s-0.1,0.1-0.2,0.1s-0.1,0-0.2-0.1l-1.4-1.2
		c-0.1-0.1-0.1-0.2-0.1-0.2c0-0.1,0-0.1,0.1-0.2s0.1-0.1,0.2-0.1C45.9,120,46,120,46.1,120.1z"/>
	<path class="st0" d="M53.7,126.3h0.2c0.2,0,0.4,0.1,0.6,0.2s0.2,0.3,0.2,0.6c0,0.2-0.1,0.4-0.2,0.6s-0.3,0.2-0.6,0.2h-0.2
		c-0.2,0-0.4-0.1-0.6-0.2s-0.2-0.3-0.2-0.6c0-0.2,0.1-0.4,0.2-0.6S53.5,126.3,53.7,126.3z"/>
	<path class="st0" d="M96.5,120.1l1.4,1.2l0.1,0.1v0.1c0,0.1,0,0.1-0.1,0.2s-0.1,0.1-0.2,0.1c-0.1,0-0.1,0-0.2-0.1l-1.4-1.2
		c-0.1-0.1-0.1-0.2-0.1-0.2c0-0.1,0-0.1,0.1-0.2s0.1-0.1,0.2-0.1C96.3,120,96.4,120,96.5,120.1z"/>
	<path class="st0" d="M103.7,120.1l1.4,1.2l0.1,0.1v0.1c0,0.1,0,0.1-0.1,0.2s-0.1,0.1-0.2,0.1c-0.1,0-0.1,0-0.2-0.1l-1.4-1.2
		c-0.1-0.1-0.1-0.2-0.1-0.2c0-0.1,0-0.1,0.1-0.2s0.1-0.1,0.2-0.1C103.5,120,103.6,120,103.7,120.1z"/>
	<path class="st0" d="M113.9,124v0.7h-5V124H113.9z"/>
	<path class="st0" d="M121.1,124v0.7h-5V124H121.1z"/>
	<path class="st0" d="M128.3,124v0.7h-5V124H128.3z"/>
	<path class="st0" d="M135.5,124v0.7h-5V124H135.5z"/>
	<path class="st0" d="M142.7,124v0.7h-5V124H142.7z"/>
	<path class="st0" d="M146.6,120.4h1.6l-0.4,3.1c0,0.2-0.1,0.3-0.1,0.3s-0.1,0.1-0.2,0.1c-0.1,0-0.2,0-0.2-0.1s-0.1-0.2-0.1-0.3
		L146.6,120.4z"/>
	<path class="st0" d="M157.1,124v0.7h-5V124H157.1z"/>
	<path class="st0" d="M161,120.4h1.6l-0.4,3.1c0,0.2-0.1,0.3-0.1,0.3s-0.1,0.1-0.2,0.1c-0.1,0-0.2,0-0.2-0.1s-0.1-0.2-0.1-0.3
		L161,120.4z"/>
	<path class="st0" d="M168.2,120.4h1.6l-0.4,3.1c0,0.2-0.1,0.3-0.1,0.3s-0.1,0.1-0.2,0.1c-0.1,0-0.2,0-0.2-0.1s-0.1-0.2-0.1-0.3
		L168.2,120.4z"/>
	<path class="st0" d="M211.3,126h1.6l-1.7,3.2c-0.1,0.2-0.2,0.3-0.4,0.3c-0.1,0-0.2,0-0.2-0.1s-0.1-0.2-0.1-0.2v-0.1L211.3,126z"/>
	<path class="st0" d="M218.7,120.4h1.6l-0.4,3.1c0,0.2-0.1,0.3-0.1,0.3s-0.1,0.1-0.2,0.1s-0.2,0-0.2-0.1s-0.1-0.2-0.1-0.3
		L218.7,120.4z"/>
	<path class="st0" d="M70.7,138.4v0.7h-5v-0.7H70.7z"/>
	<path class="st0" d="M75.3,140.7h0.2c0.2,0,0.4,0.1,0.6,0.2s0.2,0.3,0.2,0.6c0,0.2-0.1,0.4-0.2,0.6s-0.3,0.2-0.6,0.2h-0.2
		c-0.2,0-0.4-0.1-0.6-0.2s-0.2-0.3-0.2-0.6c0-0.2,0.1-0.4,0.2-0.6S75.1,140.7,75.3,140.7z"/>
	<path class="st0" d="M189.7,140.4h1.6l-1.7,3.2c-0.1,0.2-0.2,0.3-0.4,0.3c-0.1,0-0.2,0-0.2-0.1s-0.1-0.2-0.1-0.2v-0.1L189.7,140.4z
		"/>
	<path class="st0" d="M200.3,138.4v0.7h-5v-0.7H200.3z"/>
	<path class="st0" d="M89.3,148.9l1.4,1.2l0.1,0.1v0.1c0,0.1,0,0.1-0.1,0.2s-0.1,0.1-0.2,0.1c-0.1,0-0.1,0-0.2-0.1l-1.4-1.2
		c-0.1-0.1-0.1-0.2-0.1-0.2c0-0.1,0-0.1,0.1-0.2s0.1-0.1,0.2-0.1C89.1,148.8,89.2,148.8,89.3,148.9z"/>
	<path class="st0" d="M99.5,152.8v0.7h-5v-0.7H99.5z"/>
	<path class="st0" d="M104.1,155.1h0.2c0.2,0,0.4,0.1,0.6,0.2s0.2,0.3,0.2,0.6c0,0.2-0.1,0.4-0.2,0.6s-0.3,0.2-0.6,0.2h-0.2
		c-0.2,0-0.4-0.1-0.6-0.2s-0.2-0.3-0.2-0.6c0-0.2,0.1-0.4,0.2-0.6S103.9,155.1,104.1,155.1z"/>
	<path class="st0" d="M114.7,159.8h-6.5c-0.1,0-0.2,0-0.3-0.1s-0.1-0.1-0.1-0.2s0-0.1,0.1-0.2s0.1-0.1,0.3-0.1h6.5
		c0.1,0,0.2,0,0.3,0.1s0.1,0.1,0.1,0.2s0,0.1-0.1,0.2S114.8,159.8,114.7,159.8z"/>
	<path class="st0" d="M121.9,159.8h-6.5c-0.1,0-0.2,0-0.3-0.1s-0.1-0.1-0.1-0.2s0-0.1,0.1-0.2s0.1-0.1,0.3-0.1h6.5
		c0.1,0,0.2,0,0.3,0.1s0.1,0.1,0.1,0.2s0,0.1-0.1,0.2S122,159.8,121.9,159.8z"/>
	<path class="st0" d="M129.1,159.8h-6.5c-0.1,0-0.2,0-0.3-0.1s-0.1-0.1-0.1-0.2s0-0.1,0.1-0.2s0.1-0.1,0.3-0.1h6.5
		c0.1,0,0.2,0,0.3,0.1s0.1,0.1,0.1,0.2s0,0.1-0.1,0.2S129.2,159.8,129.1,159.8z"/>
	<path class="st0" d="M136.3,159.8h-6.5c-0.1,0-0.2,0-0.3-0.1s-0.1-0.1-0.1-0.2s0-0.1,0.1-0.2s0.1-0.1,0.3-0.1h6.5
		c0.1,0,0.2,0,0.3,0.1s0.1,0.1,0.1,0.2s0,0.1-0.1,0.2S136.4,159.8,136.3,159.8z"/>
	<path class="st0" d="M143.5,159.8H137c-0.1,0-0.2,0-0.3-0.1s-0.1-0.1-0.1-0.2s0-0.1,0.1-0.2s0.1-0.1,0.3-0.1h6.5
		c0.1,0,0.2,0,0.3,0.1s0.1,0.1,0.1,0.2s0,0.1-0.1,0.2S143.6,159.8,143.5,159.8z"/>
	<path class="st0" d="M150.7,159.8h-6.5c-0.1,0-0.2,0-0.3-0.1s-0.1-0.1-0.1-0.2s0-0.1,0.1-0.2s0.1-0.1,0.3-0.1h6.5
		c0.1,0,0.2,0,0.3,0.1s0.1,0.1,0.1,0.2s0,0.1-0.1,0.2S150.8,159.8,150.7,159.8z"/>
	<path class="st0" d="M157.9,159.8h-6.5c-0.1,0-0.2,0-0.3-0.1s-0.1-0.1-0.1-0.2s0-0.1,0.1-0.2s0.1-0.1,0.3-0.1h6.5
		c0.1,0,0.2,0,0.3,0.1s0.1,0.1,0.1,0.2s0,0.1-0.1,0.2S158,159.8,157.9,159.8z"/>
	<path class="st0" d="M161.7,155.1h0.2c0.2,0,0.4,0.1,0.6,0.2s0.2,0.3,0.2,0.6c0,0.2-0.1,0.4-0.2,0.6s-0.3,0.2-0.6,0.2h-0.2
		c-0.2,0-0.4-0.1-0.6-0.2s-0.2-0.3-0.2-0.6c0-0.2,0.1-0.4,0.2-0.6S161.5,155.1,161.7,155.1z"/>
	<path class="st0" d="M171.5,152.8v0.7h-5v-0.7H171.5z"/>
	<path class="st0" d="M175.4,149.2h1.6l-0.4,3.1c0,0.2-0.1,0.3-0.1,0.3s-0.1,0.1-0.2,0.1c-0.1,0-0.2,0-0.2-0.1s-0.1-0.2-0.1-0.3
		L175.4,149.2z"/>
</g>
</svg>
