<?xml version="1.0" encoding="utf-8"?>
<!-- Generator: Adobe Illustrator 25.2.3, SVG Export Plug-In . SVG Version: 6.00 Build 0)  -->
<svg version="1.1" id="Layer_1" xmlns="http://www.w3.org/2000/svg" xmlns:xlink="http://www.w3.org/1999/xlink" x="0px" y="0px"
	 viewBox="0 0 897 73" style="enable-background:new 0 0 897 73;" xml:space="preserve">
<style type="text/css">
	.st0{fill:#FFFFFF;stroke:#FFFFFF;stroke-width:2;stroke-miterlimit:10;}
</style>
<g>
	<path class="st0" d="M16.1,9H9.6C9.5,9,9.4,9,9.3,8.9S9.2,8.8,9.2,8.7s0-0.1,0.1-0.2s0.1-0.1,0.3-0.1h6.5c0.1,0,0.2,0,0.3,0.1
		s0.1,0.1,0.1,0.2s0,0.1-0.1,0.2S16.2,9,16.1,9z"/>
	<path class="st0" d="M23.3,9h-6.5c-0.1,0-0.2,0-0.3-0.1s-0.1-0.1-0.1-0.2s0-0.1,0.1-0.2s0.1-0.1,0.3-0.1h6.5c0.1,0,0.2,0,0.3,0.1
		s0.1,0.1,0.1,0.2s0,0.1-0.1,0.2S23.4,9,23.3,9z"/>
	<path class="st0" d="M30.5,9H24c-0.1,0-0.2,0-0.3-0.1s-0.1-0.1-0.1-0.2s0-0.1,0.1-0.2s0.1-0.1,0.3-0.1h6.5c0.1,0,0.2,0,0.3,0.1
		s0.1,0.1,0.1,0.2s0,0.1-0.1,0.2S30.6,9,30.5,9z"/>
	<path class="st0" d="M37.7,9h-6.5c-0.1,0-0.2,0-0.3-0.1s-0.1-0.1-0.1-0.2s0-0.1,0.1-0.2s0.1-0.1,0.3-0.1h6.5c0.1,0,0.2,0,0.3,0.1
		s0.1,0.1,0.1,0.2s0,0.1-0.1,0.2S37.8,9,37.7,9z"/>
	<path class="st0" d="M44.9,9h-6.5c-0.1,0-0.2,0-0.3-0.1S38,8.8,38,8.8s0-0.1,0.1-0.2s0.1-0.1,0.3-0.1h6.5c0.1,0,0.2,0,0.3,0.1
		s0.1,0.1,0.1,0.2s0,0.1-0.1,0.2S45,9,44.9,9z"/>
	<path class="st0" d="M52.1,9h-6.5c-0.1,0-0.2,0-0.3-0.1s-0.1-0.1-0.1-0.2s0-0.1,0.1-0.2s0.1-0.1,0.3-0.1h6.5c0.1,0,0.2,0,0.3,0.1
		s0.1,0.1,0.1,0.2s0,0.1-0.1,0.2S52.2,9,52.1,9z"/>
	<path class="st0" d="M59.3,9h-6.5c-0.1,0-0.2,0-0.3-0.1s-0.1-0.1-0.1-0.2s0-0.1,0.1-0.2s0.1-0.1,0.3-0.1h6.5c0.1,0,0.2,0,0.3,0.1
		s0.1,0.1,0.1,0.2s0,0.1-0.1,0.2S59.4,9,59.3,9z"/>
	<path class="st0" d="M73.7,9h-6.5c-0.1,0-0.2,0-0.3-0.1s-0.1-0.1-0.1-0.2s0-0.1,0.1-0.2s0.1-0.1,0.3-0.1h6.5c0.1,0,0.2,0,0.3,0.1
		s0.1,0.1,0.1,0.2s0,0.1-0.1,0.2S73.8,9,73.7,9z"/>
	<path class="st0" d="M80.9,9h-6.5c-0.1,0-0.2,0-0.3-0.1S74,8.8,74,8.8s0-0.1,0.1-0.2s0.1-0.1,0.3-0.1h6.5c0.1,0,0.2,0,0.3,0.1
		s0.1,0.1,0.1,0.2s0,0.1-0.1,0.2S81,9,80.9,9z"/>
	<path class="st0" d="M102.5,9H96c-0.1,0-0.2,0-0.3-0.1s-0.1-0.1-0.1-0.2s0-0.1,0.1-0.2s0.1-0.1,0.3-0.1h6.5c0.1,0,0.2,0,0.3,0.1
		s0.1,0.1,0.1,0.2s0,0.1-0.1,0.2S102.6,9,102.5,9z"/>
	<path class="st0" d="M109.7,9h-6.5c-0.1,0-0.2,0-0.3-0.1s-0.1-0.1-0.1-0.2s0-0.1,0.1-0.2s0.1-0.1,0.3-0.1h6.5c0.1,0,0.2,0,0.3,0.1
		s0.1,0.1,0.1,0.2s0,0.1-0.1,0.2S109.8,9,109.7,9z"/>
	<path class="st0" d="M120.7,4.3h0.2c0.2,0,0.4,0.1,0.6,0.2s0.2,0.3,0.2,0.6c0,0.2-0.1,0.4-0.2,0.6s-0.3,0.2-0.6,0.2h-0.2
		c-0.2,0-0.4-0.1-0.6-0.2s-0.2-0.3-0.2-0.6c0-0.2,0.1-0.4,0.2-0.6S120.5,4.3,120.7,4.3z"/>
	<path class="st0" d="M131.3,9h-6.5c-0.1,0-0.2,0-0.3-0.1s-0.1-0.1-0.1-0.2s0-0.1,0.1-0.2s0.1-0.1,0.3-0.1h6.5c0.1,0,0.2,0,0.3,0.1
		s0.1,0.1,0.1,0.2s0,0.1-0.1,0.2S131.4,9,131.3,9z"/>
	<path class="st0" d="M138.5,9H132c-0.1,0-0.2,0-0.3-0.1s-0.1-0.1-0.1-0.2s0-0.1,0.1-0.2s0.1-0.1,0.3-0.1h6.5c0.1,0,0.2,0,0.3,0.1
		s0.1,0.1,0.1,0.2s0,0.1-0.1,0.2S138.6,9,138.5,9z"/>
	<path class="st0" d="M145.7,9h-6.5c-0.1,0-0.2,0-0.3-0.1s-0.1-0.1-0.1-0.2s0-0.1,0.1-0.2s0.1-0.1,0.3-0.1h6.5c0.1,0,0.2,0,0.3,0.1
		s0.1,0.1,0.1,0.2s0,0.1-0.1,0.2S145.8,9,145.7,9z"/>
	<path class="st0" d="M152.9,9h-6.5c-0.1,0-0.2,0-0.3-0.1S146,8.8,146,8.7s0-0.1,0.1-0.2s0.1-0.1,0.3-0.1h6.5c0.1,0,0.2,0,0.3,0.1
		s0.1,0.1,0.1,0.2s0,0.1-0.1,0.2S153,9,152.9,9z"/>
	<path class="st0" d="M207.2,4.3h0.2c0.2,0,0.4,0.1,0.6,0.2s0.2,0.3,0.2,0.6c0,0.2-0.1,0.4-0.2,0.6s-0.3,0.2-0.6,0.2h-0.2
		c-0.2,0-0.4-0.1-0.6-0.2s-0.2-0.3-0.2-0.6c0-0.2,0.1-0.4,0.2-0.6S206.9,4.3,207.2,4.3z"/>
	<path class="st0" d="M217.7,9h-6.5c-0.1,0-0.2,0-0.3-0.1s-0.1-0.1-0.1-0.2s0-0.1,0.1-0.2s0.1-0.1,0.3-0.1h6.5c0.1,0,0.2,0,0.3,0.1
		s0.1,0.1,0.1,0.2s0,0.1-0.1,0.2S217.9,9,217.7,9z"/>
	<path class="st0" d="M224.9,9h-6.5c-0.1,0-0.2,0-0.3-0.1S218,8.8,218,8.7s0-0.1,0.1-0.2s0.1-0.1,0.3-0.1h6.5c0.1,0,0.2,0,0.3,0.1
		s0.1,0.1,0.1,0.2s0,0.1-0.1,0.2S225.1,9,224.9,9z"/>
	<path class="st0" d="M232.1,9h-6.5c-0.1,0-0.2,0-0.3-0.1s-0.1-0.1-0.1-0.2s0-0.1,0.1-0.2s0.1-0.1,0.3-0.1h6.5c0.1,0,0.2,0,0.3,0.1
		s0.1,0.1,0.1,0.2s0,0.1-0.1,0.2S232.3,9,232.1,9z"/>
	<path class="st0" d="M250.4,4.3h0.2c0.2,0,0.4,0.1,0.6,0.2s0.2,0.3,0.2,0.6c0,0.2-0.1,0.4-0.2,0.6s-0.3,0.2-0.6,0.2h-0.2
		c-0.2,0-0.4-0.1-0.6-0.2s-0.2-0.3-0.2-0.6c0-0.2,0.1-0.4,0.2-0.6S250.1,4.3,250.4,4.3z"/>
	<path class="st0" d="M260.9,9h-6.5c-0.1,0-0.2,0-0.3-0.1S254,8.8,254,8.7s0-0.1,0.1-0.2s0.1-0.1,0.3-0.1h6.5c0.1,0,0.2,0,0.3,0.1
		s0.1,0.1,0.1,0.2s0,0.1-0.1,0.2S261.1,9,260.9,9z"/>
	<path class="st0" d="M268.1,9h-6.5c-0.1,0-0.2,0-0.3-0.1s-0.1-0.1-0.1-0.2s0-0.1,0.1-0.2s0.1-0.1,0.3-0.1h6.5c0.1,0,0.2,0,0.3,0.1
		s0.1,0.1,0.1,0.2s0,0.1-0.1,0.2S268.3,9,268.1,9z"/>
	<path class="st0" d="M275.3,9h-6.5c-0.1,0-0.2,0-0.3-0.1s-0.1-0.1-0.1-0.2s0-0.1,0.1-0.2s0.1-0.1,0.3-0.1h6.5c0.1,0,0.2,0,0.3,0.1
		s0.1,0.1,0.1,0.2s0,0.1-0.1,0.2S275.5,9,275.3,9z"/>
	<path class="st0" d="M282.5,9H276c-0.1,0-0.2,0-0.3-0.1s-0.1-0.1-0.1-0.2s0-0.1,0.1-0.2s0.1-0.1,0.3-0.1h6.5c0.1,0,0.2,0,0.3,0.1
		s0.1,0.1,0.1,0.2s0,0.1-0.1,0.2S282.7,9,282.5,9z"/>
	<path class="st0" d="M318.5,9H312c-0.1,0-0.2,0-0.3-0.1s-0.1-0.1-0.1-0.2s0-0.1,0.1-0.2s0.1-0.1,0.3-0.1h6.5c0.1,0,0.2,0,0.3,0.1
		s0.1,0.1,0.1,0.2s0,0.1-0.1,0.2S318.7,9,318.5,9z"/>
	<path class="st0" d="M325.7,9h-6.5c-0.1,0-0.2,0-0.3-0.1s-0.1-0.1-0.1-0.2s0-0.1,0.1-0.2s0.1-0.1,0.3-0.1h6.5c0.1,0,0.2,0,0.3,0.1
		s0.1,0.1,0.1,0.2s0,0.1-0.1,0.2S325.9,9,325.7,9z"/>
	<path class="st0" d="M332.9,9h-6.5c-0.1,0-0.2,0-0.3-0.1S326,8.8,326,8.7s0-0.1,0.1-0.2s0.1-0.1,0.3-0.1h6.5c0.1,0,0.2,0,0.3,0.1
		s0.1,0.1,0.1,0.2s0,0.1-0.1,0.2S333.1,9,332.9,9z"/>
	<path class="st0" d="M358.4,4.3h0.2c0.2,0,0.4,0.1,0.6,0.2s0.2,0.3,0.2,0.6c0,0.2-0.1,0.4-0.2,0.6s-0.3,0.2-0.6,0.2h-0.2
		c-0.2,0-0.4-0.1-0.6-0.2s-0.2-0.3-0.2-0.6c0-0.2,0.1-0.4,0.2-0.6S358.2,4.3,358.4,4.3z"/>
	<path class="st0" d="M369,9h-6.5c-0.1,0-0.2,0-0.3-0.1s-0.1-0.1-0.1-0.2s0-0.1,0.1-0.2s0.1-0.1,0.3-0.1h6.5c0.1,0,0.2,0,0.3,0.1
		s0.1,0.1,0.1,0.2s0,0.1-0.1,0.2S369.1,9,369,9z"/>
	<path class="st0" d="M376.2,9h-6.5c-0.1,0-0.2,0-0.3-0.1s-0.1-0.1-0.1-0.2s0-0.1,0.1-0.2s0.1-0.1,0.3-0.1h6.5c0.1,0,0.2,0,0.3,0.1
		s0.1,0.1,0.1,0.2s0,0.1-0.1,0.2S376.3,9,376.2,9z"/>
	<path class="st0" d="M383.4,9h-6.5c-0.1,0-0.2,0-0.3-0.1s-0.1-0.1-0.1-0.2s0-0.1,0.1-0.2s0.1-0.1,0.3-0.1h6.5c0.1,0,0.2,0,0.3,0.1
		s0.1,0.1,0.1,0.2s0,0.1-0.1,0.2S383.5,9,383.4,9z"/>
	<path class="st0" d="M401.6,4.3h0.2c0.2,0,0.4,0.1,0.6,0.2s0.2,0.3,0.2,0.6c0,0.2-0.1,0.4-0.2,0.6s-0.3,0.2-0.6,0.2h-0.2
		c-0.2,0-0.4-0.1-0.6-0.2s-0.2-0.3-0.2-0.6c0-0.2,0.1-0.4,0.2-0.6S401.4,4.3,401.6,4.3z"/>
	<path class="st0" d="M444.8,4.3h0.2c0.2,0,0.4,0.1,0.6,0.2s0.2,0.3,0.2,0.6c0,0.2-0.1,0.4-0.2,0.6s-0.3,0.2-0.6,0.2h-0.2
		c-0.2,0-0.4-0.1-0.6-0.2S444,5.4,444,5.1c0-0.2,0.1-0.4,0.2-0.6S444.6,4.3,444.8,4.3z"/>
	<path class="st0" d="M455.4,9h-6.5c-0.1,0-0.2,0-0.3-0.1s-0.1-0.1-0.1-0.2s0-0.1,0.1-0.2s0.1-0.1,0.3-0.1h6.5c0.1,0,0.2,0,0.3,0.1
		s0.1,0.1,0.1,0.2s0,0.1-0.1,0.2S455.5,9,455.4,9z"/>
	<path class="st0" d="M462.6,9H456c-0.1,0-0.2,0-0.3-0.1s-0.1-0.1-0.1-0.2s0-0.1,0.1-0.2s0.1-0.1,0.3-0.1h6.5c0.1,0,0.2,0,0.3,0.1
		s0.1,0.1,0.1,0.2s0,0.1-0.1,0.2S462.7,9,462.6,9z"/>
	<path class="st0" d="M469.8,9h-6.5c-0.1,0-0.2,0-0.3-0.1s-0.1-0.1-0.1-0.2s0-0.1,0.1-0.2s0.1-0.1,0.3-0.1h6.5c0.1,0,0.2,0,0.3,0.1
		s0.1,0.1,0.1,0.2s0,0.1-0.1,0.2S469.9,9,469.8,9z"/>
	<path class="st0" d="M477,9h-6.5c-0.1,0-0.2,0-0.3-0.1s-0.1-0.1-0.1-0.2s0-0.1,0.1-0.2s0.1-0.1,0.3-0.1h6.5c0.1,0,0.2,0,0.3,0.1
		s0.1,0.1,0.1,0.2s0,0.1-0.1,0.2S477.1,9,477,9z"/>
	<path class="st0" d="M531.2,4.3h0.2c0.2,0,0.4,0.1,0.6,0.2s0.2,0.3,0.2,0.6c0,0.2-0.1,0.4-0.2,0.6s-0.3,0.2-0.6,0.2h-0.2
		c-0.2,0-0.4-0.1-0.6-0.2s-0.2-0.3-0.2-0.6c0-0.2,0.1-0.4,0.2-0.6S531,4.3,531.2,4.3z"/>
	<path class="st0" d="M592.2,9h-6.5c-0.1,0-0.2,0-0.3-0.1s-0.1-0.1-0.1-0.2s0-0.1,0.1-0.2s0.1-0.1,0.3-0.1h6.5c0.1,0,0.2,0,0.3,0.1
		s0.1,0.1,0.1,0.2s0,0.1-0.1,0.2S592.3,9,592.2,9z"/>
	<path class="st0" d="M599.4,9h-6.5c-0.1,0-0.2,0-0.3-0.1s-0.1-0.1-0.1-0.2s0-0.1,0.1-0.2s0.1-0.1,0.3-0.1h6.5c0.1,0,0.2,0,0.3,0.1
		s0.1,0.1,0.1,0.2s0,0.1-0.1,0.2S599.5,9,599.4,9z"/>
	<path class="st0" d="M610.4,4.3h0.2c0.2,0,0.4,0.1,0.6,0.2s0.2,0.3,0.2,0.6c0,0.2-0.1,0.4-0.2,0.6s-0.3,0.2-0.6,0.2h-0.2
		c-0.2,0-0.4-0.1-0.6-0.2s-0.2-0.3-0.2-0.6c0-0.2,0.1-0.4,0.2-0.6S610.2,4.3,610.4,4.3z"/>
	<path class="st0" d="M621,9h-6.5c-0.1,0-0.2,0-0.3-0.1s-0.1-0.1-0.1-0.2s0-0.1,0.1-0.2s0.1-0.1,0.3-0.1h6.5c0.1,0,0.2,0,0.3,0.1
		s0.1,0.1,0.1,0.2s0,0.1-0.1,0.2S621.1,9,621,9z"/>
	<path class="st0" d="M628.2,9h-6.5c-0.1,0-0.2,0-0.3-0.1s-0.1-0.1-0.1-0.2s0-0.1,0.1-0.2s0.1-0.1,0.3-0.1h6.5c0.1,0,0.2,0,0.3,0.1
		s0.1,0.1,0.1,0.2s0,0.1-0.1,0.2S628.3,9,628.2,9z"/>
	<path class="st0" d="M635.4,9h-6.5c-0.1,0-0.2,0-0.3-0.1s-0.1-0.1-0.1-0.2s0-0.1,0.1-0.2s0.1-0.1,0.3-0.1h6.5c0.1,0,0.2,0,0.3,0.1
		s0.1,0.1,0.1,0.2s0,0.1-0.1,0.2S635.5,9,635.4,9z"/>
	<path class="st0" d="M642.6,9h-6.5c-0.1,0-0.2,0-0.3-0.1s-0.1-0.1-0.1-0.2s0-0.1,0.1-0.2s0.1-0.1,0.3-0.1h6.5c0.1,0,0.2,0,0.3,0.1
		s0.1,0.1,0.1,0.2s0,0.1-0.1,0.2S642.7,9,642.6,9z"/>
	<path class="st0" d="M700.2,9h-6.5c-0.1,0-0.2,0-0.3-0.1s-0.1-0.1-0.1-0.2s0-0.1,0.1-0.2s0.1-0.1,0.3-0.1h6.5c0.1,0,0.2,0,0.3,0.1
		s0.1,0.1,0.1,0.2s0,0.1-0.1,0.2S700.3,9,700.2,9z"/>
	<path class="st0" d="M707.4,9h-6.5c-0.1,0-0.2,0-0.3-0.1s-0.1-0.1-0.1-0.2s0-0.1,0.1-0.2s0.1-0.1,0.3-0.1h6.5c0.1,0,0.2,0,0.3,0.1
		s0.1,0.1,0.1,0.2s0,0.1-0.1,0.2S707.5,9,707.4,9z"/>
	<path class="st0" d="M743.4,9h-6.5c-0.1,0-0.2,0-0.3-0.1s-0.1-0.1-0.1-0.2s0-0.1,0.1-0.2s0.1-0.1,0.3-0.1h6.5c0.1,0,0.2,0,0.3,0.1
		s0.1,0.1,0.1,0.2s0,0.1-0.1,0.2S743.5,9,743.4,9z"/>
	<path class="st0" d="M754.4,4.3h0.2c0.2,0,0.4,0.1,0.6,0.2s0.2,0.3,0.2,0.6c0,0.2-0.1,0.4-0.2,0.6s-0.3,0.2-0.6,0.2h-0.2
		c-0.2,0-0.4-0.1-0.6-0.2s-0.2-0.3-0.2-0.6c0-0.2,0.1-0.4,0.2-0.6S754.2,4.3,754.4,4.3z"/>
	<path class="st0" d="M765,9h-6.5c-0.1,0-0.2,0-0.3-0.1s-0.1-0.1-0.1-0.2s0-0.1,0.1-0.2s0.1-0.1,0.3-0.1h6.5c0.1,0,0.2,0,0.3,0.1
		s0.1,0.1,0.1,0.2s0,0.1-0.1,0.2S765.1,9,765,9z"/>
	<path class="st0" d="M772.2,9h-6.5c-0.1,0-0.2,0-0.3-0.1s-0.1-0.1-0.1-0.2s0-0.1,0.1-0.2s0.1-0.1,0.3-0.1h6.5c0.1,0,0.2,0,0.3,0.1
		s0.1,0.1,0.1,0.2s0,0.1-0.1,0.2S772.3,9,772.2,9z"/>
	<path class="st0" d="M779.4,9h-6.5c-0.1,0-0.2,0-0.3-0.1s-0.1-0.1-0.1-0.2s0-0.1,0.1-0.2s0.1-0.1,0.3-0.1h6.5c0.1,0,0.2,0,0.3,0.1
		s0.1,0.1,0.1,0.2s0,0.1-0.1,0.2S779.5,9,779.4,9z"/>
	<path class="st0" d="M786.6,9h-6.5c-0.1,0-0.2,0-0.3-0.1s-0.1-0.1-0.1-0.2s0-0.1,0.1-0.2s0.1-0.1,0.3-0.1h6.5c0.1,0,0.2,0,0.3,0.1
		s0.1,0.1,0.1,0.2s0,0.1-0.1,0.2S786.7,9,786.6,9z"/>
	<path class="st0" d="M804.9,4.3h0.2c0.2,0,0.4,0.1,0.6,0.2s0.2,0.3,0.2,0.6c0,0.2-0.1,0.4-0.2,0.6s-0.3,0.2-0.6,0.2h-0.2
		c-0.2,0-0.4-0.1-0.6-0.2s-0.2-0.3-0.2-0.6c0-0.2,0.1-0.4,0.2-0.6S804.6,4.3,804.9,4.3z"/>
	<path class="st0" d="M815.4,9h-6.5c-0.1,0-0.2,0-0.3-0.1s-0.1-0.1-0.1-0.2s0-0.1,0.1-0.2s0.1-0.1,0.3-0.1h6.5c0.1,0,0.2,0,0.3,0.1
		s0.1,0.1,0.1,0.2s0,0.1-0.1,0.2S815.5,9,815.4,9z"/>
	<path class="st0" d="M822.6,9h-6.5c-0.1,0-0.2,0-0.3-0.1s-0.1-0.1-0.1-0.2s0-0.1,0.1-0.2s0.1-0.1,0.3-0.1h6.5c0.1,0,0.2,0,0.3,0.1
		s0.1,0.1,0.1,0.2s0,0.1-0.1,0.2S822.7,9,822.6,9z"/>
	<path class="st0" d="M829.8,9h-6.5c-0.1,0-0.2,0-0.3-0.1s-0.1-0.1-0.1-0.2s0-0.1,0.1-0.2s0.1-0.1,0.3-0.1h6.5c0.1,0,0.2,0,0.3,0.1
		s0.1,0.1,0.1,0.2s0,0.1-0.1,0.2S830,9,829.8,9z"/>
	<path class="st0" d="M837,9h-6.5c-0.1,0-0.2,0-0.3-0.1s-0.1-0.1-0.1-0.2s0-0.1,0.1-0.2s0.1-0.1,0.3-0.1h6.5c0.1,0,0.2,0,0.3,0.1
		s0.1,0.1,0.1,0.2s0,0.1-0.1,0.2S837.2,9,837,9z"/>
	<path class="st0" d="M855.3,4.3h0.2c0.2,0,0.4,0.1,0.6,0.2s0.2,0.3,0.2,0.6c0,0.2-0.1,0.4-0.2,0.6s-0.3,0.2-0.6,0.2h-0.2
		c-0.2,0-0.4-0.1-0.6-0.2s-0.2-0.3-0.2-0.6c0-0.2,0.1-0.4,0.2-0.6S855,4.3,855.3,4.3z"/>
	<path class="st0" d="M865.8,9h-6.5c-0.1,0-0.2,0-0.3-0.1s-0.1-0.1-0.1-0.2s0-0.1,0.1-0.2s0.1-0.1,0.3-0.1h6.5c0.1,0,0.2,0,0.3,0.1
		s0.1,0.1,0.1,0.2s0,0.1-0.1,0.2S866,9,865.8,9z"/>
	<path class="st0" d="M873,9h-6.5c-0.1,0-0.2,0-0.3-0.1s-0.1-0.1-0.1-0.2s0-0.1,0.1-0.2s0.1-0.1,0.3-0.1h6.5c0.1,0,0.2,0,0.3,0.1
		s0.1,0.1,0.1,0.2s0,0.1-0.1,0.2S873.2,9,873,9z"/>
	<path class="st0" d="M880.2,9h-6.5c-0.1,0-0.2,0-0.3-0.1s-0.1-0.1-0.1-0.2s0-0.1,0.1-0.2s0.1-0.1,0.3-0.1h6.5c0.1,0,0.2,0,0.3,0.1
		s0.1,0.1,0.1,0.2s0,0.1-0.1,0.2S880.4,9,880.2,9z"/>
	<path class="st0" d="M4.8,13.4h1.6l-0.4,3c0,0.2-0.1,0.3-0.1,0.3s-0.1,0.1-0.2,0.1s-0.2,0-0.2-0.1s-0.1-0.2-0.1-0.3L4.8,13.4z"/>
	<path class="st0" d="M36.6,13l-4,8.5c-0.1,0.1-0.2,0.2-0.3,0.2s-0.1,0-0.2-0.1S32,21.5,32,21.4c0,0,0-0.1,0.1-0.2l4-8.5
		c0-0.1,0.1-0.1,0.1-0.2s0.1,0,0.1,0c0.1,0,0.1,0,0.2,0.1s0.1,0.1,0.1,0.2C36.7,12.9,36.7,12.9,36.6,13z"/>
	<path class="st0" d="M70.7,13.7v8.2c0,0.1,0,0.2-0.1,0.3s-0.1,0.1-0.2,0.1s-0.1,0-0.2-0.1s-0.1-0.1-0.1-0.3v-8.2
		c0-0.1,0-0.2,0.1-0.3s0.1-0.1,0.2-0.1s0.1,0,0.2,0.1S70.7,13.6,70.7,13.7z"/>
	<path class="st0" d="M99.5,13.7v8.2c0,0.1,0,0.2-0.1,0.3s-0.1,0.1-0.2,0.1s-0.1,0-0.2-0.1s0-0.2,0-0.3v-8.2c0-0.1,0-0.2,0.1-0.3
		s0.1-0.1,0.2-0.1s0.1,0,0.2,0.1S99.5,13.6,99.5,13.7z"/>
	<path class="st0" d="M123.1,13l-4,8.5c-0.1,0.1-0.2,0.2-0.3,0.2s-0.1,0-0.2-0.1s-0.1-0.1-0.1-0.2c0,0,0-0.1,0.1-0.2l4-8.5
		c0-0.1,0.1-0.1,0.1-0.2s0.1,0,0.1,0c0.1,0,0.1,0,0.2,0.1s0.1,0.1,0.1,0.2C123.1,12.9,123.1,12.9,123.1,13z"/>
	<path class="st0" d="M209.5,13l-4,8.5c-0.1,0.1-0.2,0.2-0.3,0.2s-0.1,0-0.2-0.1s-0.1-0.1-0.1-0.2c0,0,0-0.1,0.1-0.2l4-8.5
		c0-0.1,0.1-0.1,0.1-0.2s0.1,0,0.1,0c0.1,0,0.1,0,0.2,0.1s0.1,0.1,0.1,0.2C209.5,12.9,209.5,12.9,209.5,13z"/>
	<path class="st0" d="M234.3,12.8l4,8.5c0,0.1,0.1,0.1,0.1,0.2s0,0.1-0.1,0.2s-0.1,0.1-0.2,0.1c-0.1,0-0.2-0.1-0.3-0.2l-4-8.5
		c0-0.1-0.1-0.1-0.1-0.2s0-0.1,0.1-0.2s0.1-0.1,0.2-0.1C234.1,12.6,234.2,12.7,234.3,12.8z"/>
	<path class="st0" d="M252.7,13l-4,8.5c-0.1,0.1-0.2,0.2-0.3,0.2c-0.1,0-0.1,0-0.2-0.1s-0.1-0.1-0.1-0.2c0,0,0-0.1,0.1-0.2l4-8.5
		c0-0.1,0.1-0.1,0.1-0.2s0.1,0,0.1,0c0.1,0,0.1,0,0.2,0.1s0.1,0.1,0.1,0.2C252.7,12.9,252.7,12.9,252.7,13z"/>
	<path class="st0" d="M300.8,19.3h0.2c0.2,0,0.4,0.1,0.6,0.2s0.2,0.3,0.2,0.6c0,0.2-0.1,0.4-0.2,0.6s-0.3,0.2-0.6,0.2h-0.2
		c-0.2,0-0.4-0.1-0.6-0.2s-0.2-0.3-0.2-0.6c0-0.2,0.1-0.4,0.2-0.6S300.6,19.3,300.8,19.3z"/>
	<path class="st0" d="M307.3,13.4h1.6l-0.4,3.1c0,0.2-0.1,0.3-0.1,0.3s-0.1,0.1-0.2,0.1s-0.2,0-0.2-0.1s-0.1-0.2-0.1-0.3L307.3,13.4
		z"/>
	<path class="st0" d="M336.4,13.1l1.4,1.2l0.1,0.1v0.1c0,0.1,0,0.1-0.1,0.2s-0.1,0.1-0.2,0.1s-0.1,0-0.2-0.1l-1.4-1.2
		c-0.1-0.1-0.1-0.2-0.1-0.2c0-0.1,0-0.1,0.1-0.2s0.1-0.1,0.2-0.1C336.2,12.9,336.3,13,336.4,13.1z"/>
	<path class="st0" d="M344,19.3h0.2c0.2,0,0.4,0.1,0.6,0.2s0.2,0.3,0.2,0.6c0,0.2-0.1,0.4-0.2,0.6s-0.3,0.2-0.6,0.2H344
		c-0.2,0-0.4-0.1-0.6-0.2s-0.2-0.3-0.2-0.6c0-0.2,0.1-0.4,0.2-0.6S343.8,19.3,344,19.3z"/>
	<path class="st0" d="M360.7,13l-4,8.5c-0.1,0.1-0.2,0.2-0.3,0.2c-0.1,0-0.1,0-0.2-0.1s-0.1-0.1-0.1-0.2c0,0,0-0.1,0.1-0.2l4-8.5
		c0-0.1,0.1-0.1,0.1-0.2s0.1,0,0.1,0c0.1,0,0.1,0,0.2,0.1s0.1,0.1,0.1,0.2C360.8,12.9,360.7,12.9,360.7,13z"/>
	<path class="st0" d="M385.5,12.8l4,8.5c0,0.1,0.1,0.1,0.1,0.2s0,0.1-0.1,0.2s-0.1,0.1-0.2,0.1s-0.2-0.1-0.3-0.2l-4-8.5
		c0-0.1-0.1-0.1-0.1-0.2s0-0.1,0.1-0.2s0.1-0.1,0.2-0.1C385.4,12.6,385.5,12.7,385.5,12.8z"/>
	<path class="st0" d="M403.9,13l-4,8.5c-0.1,0.1-0.2,0.2-0.3,0.2c-0.1,0-0.1,0-0.2-0.1s-0.1-0.1-0.1-0.2c0,0,0-0.1,0.1-0.2l4-8.5
		c0-0.1,0.1-0.1,0.1-0.2s0.1,0,0.1,0c0.1,0,0.1,0,0.2,0.1s0.1,0.1,0.1,0.2C404,12.9,403.9,12.9,403.9,13z"/>
	<path class="st0" d="M447.1,13l-4,8.5c-0.1,0.1-0.2,0.2-0.3,0.2c-0.1,0-0.1,0-0.2-0.1s-0.1-0.1-0.1-0.2c0,0,0-0.1,0.1-0.2l4-8.5
		c0-0.1,0.1-0.1,0.1-0.2s0.1,0,0.1,0c0.1,0,0.1,0,0.2,0.1s0.1,0.1,0.1,0.2C447.2,12.9,447.1,12.9,447.1,13z"/>
	<path class="st0" d="M533.5,13l-4,8.5c-0.1,0.1-0.2,0.2-0.3,0.2s-0.1,0-0.2-0.1s-0.1-0.1-0.1-0.2c0,0,0-0.1,0.1-0.2l4-8.5
		c0-0.1,0.1-0.1,0.1-0.2s0.1,0,0.1,0c0.1,0,0.1,0,0.2,0.1s0.1,0.1,0.1,0.2C533.6,12.9,533.6,12.9,533.5,13z"/>
	<path class="st0" d="M589.2,13.7v8.2c0,0.1,0,0.2-0.1,0.3s-0.1,0.1-0.2,0.1c-0.1,0-0.1,0-0.2-0.1s-0.1-0.1-0.1-0.3v-8.2
		c0-0.1,0-0.2,0.1-0.3s0.1-0.1,0.2-0.1c0.1,0,0.1,0,0.2,0.1S589.2,13.6,589.2,13.7z"/>
	<path class="st0" d="M612.7,13l-4,8.5c-0.1,0.1-0.2,0.2-0.3,0.2s-0.1,0-0.2-0.1s-0.1-0.1-0.1-0.2c0,0,0-0.1,0.1-0.2l4-8.5
		c0-0.1,0.1-0.1,0.1-0.2s0.1,0,0.1,0c0.1,0,0.1,0,0.2,0.1s0.1,0.1,0.1,0.2C612.8,12.9,612.8,12.9,612.7,13z"/>
	<path class="st0" d="M697.2,13.7v8.2c0,0.1,0,0.2-0.1,0.3s-0.1,0.1-0.2,0.1c-0.1,0-0.1,0-0.2-0.1s-0.1-0.1-0.1-0.3v-8.2
		c0-0.1,0-0.2,0.1-0.3s0.1-0.1,0.2-0.1c0.1,0,0.1,0,0.2,0.1S697.2,13.6,697.2,13.7z"/>
	<path class="st0" d="M702.4,12.8l4,8.5c0,0.1,0.1,0.1,0.1,0.2s0,0.1-0.1,0.2s-0.1,0.1-0.2,0.1c-0.1,0-0.2-0.1-0.3-0.2l-4-8.5
		c0-0.1-0.1-0.1-0.1-0.2s0-0.1,0.1-0.2s0.1-0.1,0.2-0.1C702.2,12.6,702.3,12.7,702.4,12.8z"/>
	<path class="st0" d="M733.2,13.7v8.2c0,0.1,0,0.2-0.1,0.3s-0.1,0.1-0.2,0.1c-0.1,0-0.1,0-0.2-0.1s-0.1-0.1-0.1-0.3v-8.2
		c0-0.1,0-0.2,0.1-0.3s0.1-0.1,0.2-0.1c0.1,0,0.1,0,0.2,0.1S733.2,13.6,733.2,13.7z"/>
	<path class="st0" d="M756.8,13l-4,8.5c-0.1,0.1-0.2,0.2-0.3,0.2s-0.1,0-0.2-0.1s-0.1-0.1-0.1-0.2c0,0,0-0.1,0.1-0.2l4-8.5
		c0-0.1,0.1-0.1,0.1-0.2s0.1,0,0.1,0c0.1,0,0.1,0,0.2,0.1s0.1,0.1,0.1,0.2C756.8,12.9,756.8,12.9,756.8,13z"/>
	<path class="st0" d="M807.2,13l-4,8.5c-0.1,0.1-0.2,0.2-0.3,0.2s-0.1,0-0.2-0.1s-0.1-0.1-0.1-0.2c0,0,0-0.1,0.1-0.2l4-8.5
		c0-0.1,0.1-0.1,0.1-0.2s0.1,0,0.1,0c0.1,0,0.1,0,0.2,0.1s0.1,0.1,0.1,0.2C807.2,12.9,807.2,12.9,807.2,13z"/>
	<path class="st0" d="M857.6,13l-4,8.5c-0.1,0.1-0.2,0.2-0.3,0.2s-0.1,0-0.2-0.1s-0.1-0.1-0.1-0.2c0,0,0-0.1,0.1-0.2l4-8.5
		c0-0.1,0.1-0.1,0.1-0.2s0.1,0,0.1,0c0.1,0,0.1,0,0.2,0.1s0.1,0.1,0.1,0.2C857.6,12.9,857.6,12.9,857.6,13z"/>
	<path class="st0" d="M883.6,13.1l1.4,1.2l0.1,0.1v0.1c0,0.1,0,0.1-0.1,0.2s-0.1,0.1-0.2,0.1c-0.1,0-0.1,0-0.2-0.1l-1.4-1.2
		c-0.1-0.1-0.1-0.2-0.1-0.2c0-0.1,0-0.1,0.1-0.2s0.1-0.1,0.2-0.1C883.5,12.9,883.6,13,883.6,13.1z"/>
	<path class="st0" d="M34.7,28.7v8.2c0,0.1,0,0.2-0.1,0.3s-0.1,0.1-0.2,0.1c-0.1,0-0.1,0-0.2-0.1s-0.1-0.1-0.1-0.3v-8.2
		c0-0.1,0-0.2,0.1-0.3s0.1-0.1,0.2-0.1c0.1,0,0.1,0,0.2,0.1S34.7,28.6,34.7,28.7z"/>
	<path class="st0" d="M70.7,28.7v8.2c0,0.1,0,0.2-0.1,0.3s-0.1,0.1-0.2,0.1s-0.1,0-0.2-0.1s-0.1-0.1-0.1-0.3v-8.2
		c0-0.1,0-0.2,0.1-0.3s0.1-0.1,0.2-0.1s0.1,0,0.2,0.1S70.7,28.6,70.7,28.7z"/>
	<path class="st0" d="M80.9,39h-6.5c-0.1,0-0.2,0-0.3-0.1S74,38.8,74,38.7s0-0.1,0.1-0.2s0.1-0.1,0.3-0.1h6.5c0.1,0,0.2,0,0.3,0.1
		s0.1,0.1,0.1,0.2s0,0.1-0.1,0.2S81,39,80.9,39z"/>
	<path class="st0" d="M88.1,39h-6.5c-0.1,0-0.2,0-0.3-0.1s-0.1-0.1-0.1-0.2s0-0.1,0.1-0.2s0.1-0.1,0.3-0.1h6.5c0.1,0,0.2,0,0.3,0.1
		s0.1,0.1,0.1,0.2s0,0.1-0.1,0.2S88.2,39,88.1,39z"/>
	<path class="st0" d="M95.3,39h-6.5c-0.1,0-0.2,0-0.3-0.1s-0.1-0.1-0.1-0.2s0-0.1,0.1-0.2s0.1-0.1,0.3-0.1h6.5c0.1,0,0.2,0,0.3,0.1
		s0.1,0.1,0.1,0.2s0,0.1-0.1,0.2S95.4,39,95.3,39z"/>
	<path class="st0" d="M99.5,28.7v8.2c0,0.1,0,0.2-0.1,0.3s-0.1,0.1-0.2,0.1s-0.1,0-0.2-0.1s-0.1-0.1-0.1-0.3v-8.2
		c0-0.1,0-0.2,0.1-0.3s0.1-0.1,0.2-0.1s0.1,0,0.2,0.1S99.5,28.6,99.5,28.7z"/>
	<path class="st0" d="M121.1,28.7v8.2c0,0.1,0,0.2-0.1,0.3s-0.1,0.1-0.2,0.1c-0.1,0-0.1,0-0.2-0.1s-0.1-0.1-0.1-0.3v-8.2
		c0-0.1,0-0.2,0.1-0.3s0.1-0.1,0.2-0.1c0.1,0,0.1,0,0.2,0.1S121.1,28.6,121.1,28.7z"/>
	<path class="st0" d="M131.3,39h-6.5c-0.1,0-0.2,0-0.3-0.1s-0.1-0.1-0.1-0.2s0-0.1,0.1-0.2s0.1-0.1,0.3-0.1h6.5c0.1,0,0.2,0,0.3,0.1
		s0.1,0.1,0.1,0.2s0,0.1-0.1,0.2S131.4,39,131.3,39z"/>
	<path class="st0" d="M138.5,39H132c-0.1,0-0.2,0-0.3-0.1s-0.1-0.1-0.1-0.2s0-0.1,0.1-0.2s0.1-0.1,0.3-0.1h6.5c0.1,0,0.2,0,0.3,0.1
		s0.1,0.1,0.1,0.2s0,0.1-0.1,0.2S138.6,39,138.5,39z"/>
	<path class="st0" d="M142.3,34.3h0.2c0.2,0,0.4,0.1,0.6,0.2s0.2,0.3,0.2,0.6c0,0.2-0.1,0.4-0.2,0.6s-0.3,0.2-0.6,0.2h-0.2
		c-0.2,0-0.4-0.1-0.6-0.2s-0.2-0.3-0.2-0.6c0-0.2,0.1-0.4,0.2-0.6S142.1,34.3,142.3,34.3z"/>
	<path class="st0" d="M207.5,28.7v8.2c0,0.1,0,0.2-0.1,0.3s-0.1,0.1-0.2,0.1c-0.1,0-0.1,0-0.2-0.1s-0.1-0.1-0.1-0.3v-8.2
		c0-0.1,0-0.2,0.1-0.3s0.1-0.1,0.2-0.1c0.1,0,0.1,0,0.2,0.1S207.5,28.6,207.5,28.7z"/>
	<path class="st0" d="M213.5,34h1.6l-1.7,3.2c-0.1,0.2-0.2,0.3-0.4,0.3c-0.1,0-0.2,0-0.2-0.1s-0.1-0.2-0.1-0.2v-0.1L213.5,34z"/>
	<path class="st0" d="M224.9,39h-6.5c-0.1,0-0.2,0-0.3-0.1s-0.1-0.1-0.1-0.2s0-0.1,0.1-0.2s0.1-0.1,0.3-0.1h6.5c0.1,0,0.2,0,0.3,0.1
		s0.1,0.1,0.1,0.2s0,0.1-0.1,0.2S225.1,39,224.9,39z"/>
	<path class="st0" d="M231.4,32v0.7h-5V32H231.4z"/>
	<path class="st0" d="M235.3,28.4h1.6l-0.4,3.1c0,0.2-0.1,0.3-0.1,0.3s-0.1,0.1-0.2,0.1c-0.1,0-0.2,0-0.2-0.1s-0.1-0.2-0.1-0.3
		L235.3,28.4z"/>
	<path class="st0" d="M250.7,28.7v8.2c0,0.1,0,0.2-0.1,0.3s-0.1,0.1-0.2,0.1s-0.1,0-0.2-0.1s-0.1-0.1-0.1-0.3v-8.2
		c0-0.1,0-0.2,0.1-0.3s0.1-0.1,0.2-0.1s0.1,0,0.2,0.1S250.7,28.6,250.7,28.7z"/>
	<path class="st0" d="M260.9,39h-6.5c-0.1,0-0.2,0-0.3-0.1s-0.1-0.1-0.1-0.2s0-0.1,0.1-0.2s0.1-0.1,0.3-0.1h6.5c0.1,0,0.2,0,0.3,0.1
		s0.1,0.1,0.1,0.2s0,0.1-0.1,0.2S261.1,39,260.9,39z"/>
	<path class="st0" d="M268.1,39h-6.5c-0.1,0-0.2,0-0.3-0.1s-0.1-0.1-0.1-0.2s0-0.1,0.1-0.2s0.1-0.1,0.3-0.1h6.5c0.1,0,0.2,0,0.3,0.1
		s0.1,0.1,0.1,0.2s0,0.1-0.1,0.2S268.3,39,268.1,39z"/>
	<path class="st0" d="M272,34.3h0.2c0.2,0,0.4,0.1,0.6,0.2s0.2,0.3,0.2,0.6c0,0.2-0.1,0.4-0.2,0.6s-0.3,0.2-0.6,0.2H272
		c-0.2,0-0.4-0.1-0.6-0.2s-0.2-0.3-0.2-0.6c0-0.2,0.1-0.4,0.2-0.6S271.7,34.3,272,34.3z"/>
	<path class="st0" d="M301.1,28.7v8.2c0,0.1,0,0.2-0.1,0.3s-0.1,0.1-0.2,0.1s-0.1,0-0.2-0.1s-0.1-0.1-0.1-0.3v-8.2
		c0-0.1,0-0.2,0.1-0.3s0.1-0.1,0.2-0.1s0.1,0,0.2,0.1S301.1,28.6,301.1,28.7z"/>
	<path class="st0" d="M344.3,28.7v8.2c0,0.1,0,0.2-0.1,0.3s-0.1,0.1-0.2,0.1s-0.1,0-0.2-0.1s-0.1-0.1-0.1-0.3v-8.2
		c0-0.1,0-0.2,0.1-0.3s0.1-0.1,0.2-0.1s0.1,0,0.2,0.1S344.3,28.6,344.3,28.7z"/>
	<path class="st0" d="M358.7,28.7v8.2c0,0.1,0,0.2-0.1,0.3s-0.1,0.1-0.2,0.1s-0.1,0-0.2-0.1s-0.1-0.1-0.1-0.3v-8.2
		c0-0.1,0-0.2,0.1-0.3s0.1-0.1,0.2-0.1s0.1,0,0.2,0.1S358.7,28.6,358.7,28.7z"/>
	<path class="st0" d="M364.7,34h1.6l-1.7,3.2c-0.1,0.2-0.2,0.3-0.4,0.3c-0.1,0-0.2,0-0.2-0.1s-0.1-0.2-0.1-0.2v-0.1L364.7,34z"/>
	<path class="st0" d="M376.2,39h-6.5c-0.1,0-0.2,0-0.3-0.1s-0.1-0.1-0.1-0.2s0-0.1,0.1-0.2s0.1-0.1,0.3-0.1h6.5c0.1,0,0.2,0,0.3,0.1
		s0.1,0.1,0.1,0.2s0,0.1-0.1,0.2S376.3,39,376.2,39z"/>
	<path class="st0" d="M382.6,32v0.7h-5V32H382.6z"/>
	<path class="st0" d="M386.5,28.4h1.6l-0.4,3.1c0,0.2-0.1,0.3-0.1,0.3s-0.1,0.1-0.2,0.1s-0.2,0-0.2-0.1s-0.1-0.2-0.1-0.3L386.5,28.4
		z"/>
	<path class="st0" d="M401.9,28.7v8.2c0,0.1,0,0.2-0.1,0.3s-0.1,0.1-0.2,0.1s-0.1,0-0.2-0.1s-0.1-0.1-0.1-0.3v-8.2
		c0-0.1,0-0.2,0.1-0.3s0.1-0.1,0.2-0.1s0.1,0,0.2,0.1S401.9,28.6,401.9,28.7z"/>
	<path class="st0" d="M445.1,28.7v8.2c0,0.1,0,0.2-0.1,0.3s-0.1,0.1-0.2,0.1s-0.1,0-0.2-0.1s-0.1-0.1-0.1-0.3v-8.2
		c0-0.1,0-0.2,0.1-0.3s0.1-0.1,0.2-0.1s0.1,0,0.2,0.1S445.1,28.6,445.1,28.7z"/>
	<path class="st0" d="M455.4,39h-6.5c-0.1,0-0.2,0-0.3-0.1s-0.1-0.1-0.1-0.2s0-0.1,0.1-0.2s0.1-0.1,0.3-0.1h6.5c0.1,0,0.2,0,0.3,0.1
		s0.1,0.1,0.1,0.2s0,0.1-0.1,0.2S455.5,39,455.4,39z"/>
	<path class="st0" d="M462.6,39H456c-0.1,0-0.2,0-0.3-0.1s-0.1-0.1-0.1-0.2s0-0.1,0.1-0.2s0.1-0.1,0.3-0.1h6.5c0.1,0,0.2,0,0.3,0.1
		s0.1,0.1,0.1,0.2s0,0.1-0.1,0.2S462.7,39,462.6,39z"/>
	<path class="st0" d="M466.4,34.3h0.2c0.2,0,0.4,0.1,0.6,0.2s0.2,0.3,0.2,0.6c0,0.2-0.1,0.4-0.2,0.6s-0.3,0.2-0.6,0.2h-0.2
		c-0.2,0-0.4-0.1-0.6-0.2s-0.2-0.3-0.2-0.6c0-0.2,0.1-0.4,0.2-0.6S466.2,34.3,466.4,34.3z"/>
	<path class="st0" d="M531.6,28.7v8.2c0,0.1,0,0.2-0.1,0.3s-0.1,0.1-0.2,0.1c-0.1,0-0.1,0-0.2-0.1s-0.1-0.1-0.1-0.3v-8.2
		c0-0.1,0-0.2,0.1-0.3s0.1-0.1,0.2-0.1c0.1,0,0.1,0,0.2,0.1S531.6,28.6,531.6,28.7z"/>
	<path class="st0" d="M589.2,28.7v8.2c0,0.1,0,0.2-0.1,0.3s-0.1,0.1-0.2,0.1c-0.1,0-0.1,0-0.2-0.1s-0.1-0.1-0.1-0.3v-8.2
		c0-0.1,0-0.2,0.1-0.3s0.1-0.1,0.2-0.1c0.1,0,0.1,0,0.2,0.1S589.2,28.6,589.2,28.7z"/>
	<path class="st0" d="M610.8,28.7v8.2c0,0.1,0,0.2-0.1,0.3s-0.1,0.1-0.2,0.1c-0.1,0-0.1,0-0.2-0.1s-0.1-0.1-0.1-0.3v-8.2
		c0-0.1,0-0.2,0.1-0.3s0.1-0.1,0.2-0.1c0.1,0,0.1,0,0.2,0.1S610.8,28.6,610.8,28.7z"/>
	<path class="st0" d="M621,39h-6.5c-0.1,0-0.2,0-0.3-0.1s-0.1-0.1-0.1-0.2s0-0.1,0.1-0.2s0.1-0.1,0.3-0.1h6.5c0.1,0,0.2,0,0.3,0.1
		s0.1,0.1,0.1,0.2s0,0.1-0.1,0.2S621.1,39,621,39z"/>
	<path class="st0" d="M628.2,39h-6.5c-0.1,0-0.2,0-0.3-0.1s-0.1-0.1-0.1-0.2s0-0.1,0.1-0.2s0.1-0.1,0.3-0.1h6.5c0.1,0,0.2,0,0.3,0.1
		s0.1,0.1,0.1,0.2s0,0.1-0.1,0.2S628.3,39,628.2,39z"/>
	<path class="st0" d="M632,34.3h0.2c0.2,0,0.4,0.1,0.6,0.2s0.2,0.3,0.2,0.6c0,0.2-0.1,0.4-0.2,0.6s-0.3,0.2-0.6,0.2H632
		c-0.2,0-0.4-0.1-0.6-0.2s-0.2-0.3-0.2-0.6c0-0.2,0.1-0.4,0.2-0.6S631.8,34.3,632,34.3z"/>
	<path class="st0" d="M697.2,28.7v8.2c0,0.1,0,0.2-0.1,0.3s-0.1,0.1-0.2,0.1c-0.1,0-0.1,0-0.2-0.1s-0.1-0.1-0.1-0.3v-8.2
		c0-0.1,0-0.2,0.1-0.3s0.1-0.1,0.2-0.1c0.1,0,0.1,0,0.2,0.1S697.2,28.6,697.2,28.7z"/>
	<path class="st0" d="M709.6,27.8l4,8.5c0,0.1,0.1,0.1,0.1,0.2s0,0.1-0.1,0.2s-0.1,0.1-0.2,0.1c-0.1,0-0.2-0.1-0.3-0.2l-4-8.5
		c0-0.1-0.1-0.1-0.1-0.2s0-0.1,0.1-0.2s0.1-0.1,0.2-0.1C709.4,27.6,709.5,27.7,709.6,27.8z"/>
	<path class="st0" d="M733.2,28.7v8.2c0,0.1,0,0.2-0.1,0.3s-0.1,0.1-0.2,0.1c-0.1,0-0.1,0-0.2-0.1s-0.1-0.1-0.1-0.3v-8.2
		c0-0.1,0-0.2,0.1-0.3s0.1-0.1,0.2-0.1c0.1,0,0.1,0,0.2,0.1S733.2,28.6,733.2,28.7z"/>
	<path class="st0" d="M754.8,28.7v8.2c0,0.1,0,0.2-0.1,0.3s-0.1,0.1-0.2,0.1c-0.1,0-0.1,0-0.2-0.1s-0.1-0.1-0.1-0.3v-8.2
		c0-0.1,0-0.2,0.1-0.3s0.1-0.1,0.2-0.1c0.1,0,0.1,0,0.2,0.1S754.8,28.6,754.8,28.7z"/>
	<path class="st0" d="M765,39h-6.5c-0.1,0-0.2,0-0.3-0.1s-0.1-0.1-0.1-0.2s0-0.1,0.1-0.2s0.1-0.1,0.3-0.1h6.5c0.1,0,0.2,0,0.3,0.1
		s0.1,0.1,0.1,0.2s0,0.1-0.1,0.2S765.1,39,765,39z"/>
	<path class="st0" d="M772.2,39h-6.5c-0.1,0-0.2,0-0.3-0.1s-0.1-0.1-0.1-0.2s0-0.1,0.1-0.2s0.1-0.1,0.3-0.1h6.5c0.1,0,0.2,0,0.3,0.1
		s0.1,0.1,0.1,0.2s0,0.1-0.1,0.2S772.3,39,772.2,39z"/>
	<path class="st0" d="M776,34.3h0.2c0.2,0,0.4,0.1,0.6,0.2s0.2,0.3,0.2,0.6c0,0.2-0.1,0.4-0.2,0.6s-0.3,0.2-0.6,0.2H776
		c-0.2,0-0.4-0.1-0.6-0.2s-0.2-0.3-0.2-0.6c0-0.2,0.1-0.4,0.2-0.6S775.8,34.3,776,34.3z"/>
	<path class="st0" d="M805.2,28.7v8.2c0,0.1,0,0.2-0.1,0.3s-0.1,0.1-0.2,0.1c-0.1,0-0.1,0-0.2-0.1s-0.1-0.1-0.1-0.3v-8.2
		c0-0.1,0-0.2,0.1-0.3s0.1-0.1,0.2-0.1c0.1,0,0.1,0,0.2,0.1S805.2,28.6,805.2,28.7z"/>
	<path class="st0" d="M815.4,39h-6.5c-0.1,0-0.2,0-0.3-0.1s-0.1-0.1-0.1-0.2s0-0.1,0.1-0.2s0.1-0.1,0.3-0.1h6.5c0.1,0,0.2,0,0.3,0.1
		s0.1,0.1,0.1,0.2s0,0.1-0.1,0.2S815.5,39,815.4,39z"/>
	<path class="st0" d="M822.6,39h-6.5c-0.1,0-0.2,0-0.3-0.1s-0.1-0.1-0.1-0.2s0-0.1,0.1-0.2s0.1-0.1,0.3-0.1h6.5c0.1,0,0.2,0,0.3,0.1
		s0.1,0.1,0.1,0.2s0,0.1-0.1,0.2S822.7,39,822.6,39z"/>
	<path class="st0" d="M826.5,34.3h0.2c0.2,0,0.4,0.1,0.6,0.2s0.2,0.3,0.2,0.6c0,0.2-0.1,0.4-0.2,0.6s-0.3,0.2-0.6,0.2h-0.2
		c-0.2,0-0.4-0.1-0.6-0.2s-0.2-0.3-0.2-0.6c0-0.2,0.1-0.4,0.2-0.6S826.2,34.3,826.5,34.3z"/>
	<path class="st0" d="M855.6,28.7v8.2c0,0.1,0,0.2-0.1,0.3s-0.1,0.1-0.2,0.1c-0.1,0-0.1,0-0.2-0.1s-0.1-0.1-0.1-0.3v-8.2
		c0-0.1,0-0.2,0.1-0.3s0.1-0.1,0.2-0.1c0.1,0,0.1,0,0.2,0.1S855.6,28.6,855.6,28.7z"/>
	<path class="st0" d="M891.6,28.7v8.2c0,0.1,0,0.2-0.1,0.3s-0.1,0.1-0.2,0.1c-0.1,0-0.1,0-0.2-0.1s-0.1-0.1-0.1-0.3v-8.2
		c0-0.1,0-0.2,0.1-0.3s0.1-0.1,0.2-0.1c0.1,0,0.1,0,0.2,0.1S891.6,28.6,891.6,28.7z"/>
	<path class="st0" d="M34.7,43.7v8.2c0,0.1,0,0.2-0.1,0.3s-0.1,0.1-0.2,0.1c-0.1,0-0.1,0-0.2-0.1s-0.1-0.1-0.1-0.3v-8.2
		c0-0.1,0-0.2,0.1-0.3s0.1-0.1,0.2-0.1c0.1,0,0.1,0,0.2,0.1S34.7,43.6,34.7,43.7z"/>
	<path class="st0" d="M70.7,43.7v8.2c0,0.1,0,0.2-0.1,0.3s-0.1,0.1-0.2,0.1s-0.1,0-0.2-0.1s-0.1-0.1-0.1-0.3v-8.2
		c0-0.1,0-0.2,0.1-0.3s0.1-0.1,0.2-0.1s0.1,0,0.2,0.1S70.7,43.6,70.7,43.7z"/>
	<path class="st0" d="M99.5,43.7v8.2c0,0.1,0,0.2-0.1,0.3s-0.1,0.1-0.2,0.1s-0.1,0-0.2-0.1s-0.1-0.1-0.1-0.3v-8.2
		c0-0.1,0-0.2,0.1-0.3s0.1-0.1,0.2-0.1s0.1,0,0.2,0.1S99.5,43.6,99.5,43.7z"/>
	<path class="st0" d="M121.1,43.7v8.2c0,0.1,0,0.2-0.1,0.3s-0.1,0.1-0.2,0.1c-0.1,0-0.1,0-0.2-0.1s-0.1-0.1-0.1-0.3v-8.2
		c0-0.1,0-0.2,0.1-0.3s0.1-0.1,0.2-0.1c0.1,0,0.1,0,0.2,0.1S121.1,43.6,121.1,43.7z"/>
	<path class="st0" d="M207.5,43.7v8.2c0,0.1,0,0.2-0.1,0.3s-0.1,0.1-0.2,0.1c-0.1,0-0.1,0-0.2-0.1s-0.1-0.1-0.1-0.3v-8.2
		c0-0.1,0-0.2,0.1-0.3s0.1-0.1,0.2-0.1c0.1,0,0.1,0,0.2,0.1S207.5,43.6,207.5,43.7z"/>
	<path class="st0" d="M250.7,43.7v8.2c0,0.1,0,0.2-0.1,0.3s-0.1,0.1-0.2,0.1s-0.1,0-0.2-0.1s-0.1-0.1-0.1-0.3v-8.2
		c0-0.1,0-0.2,0.1-0.3s0.1-0.1,0.2-0.1s0.1,0,0.2,0.1S250.7,43.6,250.7,43.7z"/>
	<path class="st0" d="M301.1,43.7v8.2c0,0.1,0,0.2-0.1,0.3s-0.1,0.1-0.2,0.1s-0.1,0-0.2-0.1s-0.1-0.1-0.1-0.3v-8.2
		c0-0.1,0-0.2,0.1-0.3s0.1-0.1,0.2-0.1s0.1,0,0.2,0.1S301.1,43.6,301.1,43.7z"/>
	<path class="st0" d="M344.3,43.7v8.2c0,0.1,0,0.2-0.1,0.3s-0.1,0.1-0.2,0.1s-0.1,0-0.2-0.1s-0.1-0.1-0.1-0.3v-8.2
		c0-0.1,0-0.2,0.1-0.3s0.1-0.1,0.2-0.1s0.1,0,0.2,0.1S344.3,43.6,344.3,43.7z"/>
	<path class="st0" d="M358.7,43.7v8.2c0,0.1,0,0.2-0.1,0.3s-0.1,0.1-0.2,0.1s-0.1,0-0.2-0.1s-0.1-0.1-0.1-0.3v-8.2
		c0-0.1,0-0.2,0.1-0.3s0.1-0.1,0.2-0.1s0.1,0,0.2,0.1S358.7,43.6,358.7,43.7z"/>
	<path class="st0" d="M401.9,43.7v8.2c0,0.1,0,0.2-0.1,0.3s-0.1,0.1-0.2,0.1s-0.1,0-0.2-0.1s-0.1-0.1-0.1-0.3v-8.2
		c0-0.1,0-0.2,0.1-0.3s0.1-0.1,0.2-0.1s0.1,0,0.2,0.1S401.9,43.6,401.9,43.7z"/>
	<path class="st0" d="M445.1,43.7v8.2c0,0.1,0,0.2-0.1,0.3s-0.1,0.1-0.2,0.1s-0.1,0-0.2-0.1s-0.1-0.1-0.1-0.3v-8.2
		c0-0.1,0-0.2,0.1-0.3s0.1-0.1,0.2-0.1s0.1,0,0.2,0.1S445.1,43.6,445.1,43.7z"/>
	<path class="st0" d="M531.6,43.7v8.2c0,0.1,0,0.2-0.1,0.3s-0.1,0.1-0.2,0.1c-0.1,0-0.1,0-0.2-0.1s-0.1-0.1-0.1-0.3v-8.2
		c0-0.1,0-0.2,0.1-0.3s0.1-0.1,0.2-0.1c0.1,0,0.1,0,0.2,0.1S531.6,43.6,531.6,43.7z"/>
	<path class="st0" d="M555.1,43l-4,8.5c-0.1,0.1-0.2,0.2-0.3,0.2s-0.1,0-0.2-0.1s-0.1-0.1-0.1-0.2c0,0,0-0.1,0.1-0.2l4-8.5
		c0-0.1,0.1-0.1,0.1-0.2s0.1,0,0.1,0c0.1,0,0.1,0,0.2,0.1s0.1,0.1,0.1,0.2C555.2,42.9,555.2,42.9,555.1,43z"/>
	<path class="st0" d="M558.4,42.8l4,8.5c0,0.1,0.1,0.1,0.1,0.2s0,0.1-0.1,0.2s-0.1,0.1-0.2,0.1c-0.1,0-0.2-0.1-0.3-0.2l-4-8.5
		c0-0.1-0.1-0.1-0.1-0.2s0-0.1,0.1-0.2s0.1-0.1,0.2-0.1C558.2,42.6,558.3,42.7,558.4,42.8z"/>
	<path class="st0" d="M591.1,43l-4,8.5c-0.1,0.1-0.2,0.2-0.3,0.2s-0.1,0-0.2-0.1s-0.1-0.1-0.1-0.2c0,0,0-0.1,0.1-0.2l4-8.5
		c0-0.1,0.1-0.1,0.1-0.2s0.1,0,0.1,0c0.1,0,0.1,0,0.2,0.1s0.1,0.1,0.1,0.2C591.2,42.9,591.2,42.9,591.1,43z"/>
	<path class="st0" d="M610.8,43.7v8.2c0,0.1,0,0.2-0.1,0.3s-0.1,0.1-0.2,0.1c-0.1,0-0.1,0-0.2-0.1s-0.1-0.1-0.1-0.3v-8.2
		c0-0.1,0-0.2,0.1-0.3s0.1-0.1,0.2-0.1c0.1,0,0.1,0,0.2,0.1S610.8,43.6,610.8,43.7z"/>
	<path class="st0" d="M697.2,43.7v8.2c0,0.1,0,0.2-0.1,0.3s-0.1,0.1-0.2,0.1c-0.1,0-0.1,0-0.2-0.1s-0.1-0.1-0.1-0.3v-8.2
		c0-0.1,0-0.2,0.1-0.3s0.1-0.1,0.2-0.1c0.1,0,0.1,0,0.2,0.1S697.2,43.6,697.2,43.7z"/>
	<path class="st0" d="M716.8,42.8l4,8.5c0,0.1,0.1,0.1,0.1,0.2s0,0.1-0.1,0.2s-0.1,0.1-0.2,0.1c-0.1,0-0.2-0.1-0.3-0.2l-4-8.5
		c0-0.1-0.1-0.1-0.1-0.2s0-0.1,0.1-0.2s0.1-0.1,0.2-0.1C716.6,42.6,716.7,42.7,716.8,42.8z"/>
	<path class="st0" d="M733.2,43.7v8.2c0,0.1,0,0.2-0.1,0.3s-0.1,0.1-0.2,0.1c-0.1,0-0.1,0-0.2-0.1s-0.1-0.1-0.1-0.3v-8.2
		c0-0.1,0-0.2,0.1-0.3s0.1-0.1,0.2-0.1c0.1,0,0.1,0,0.2,0.1S733.2,43.6,733.2,43.7z"/>
	<path class="st0" d="M754.8,43.7v8.2c0,0.1,0,0.2-0.1,0.3s-0.1,0.1-0.2,0.1c-0.1,0-0.1,0-0.2-0.1s-0.1-0.1-0.1-0.3v-8.2
		c0-0.1,0-0.2,0.1-0.3s0.1-0.1,0.2-0.1c0.1,0,0.1,0,0.2,0.1S754.8,43.6,754.8,43.7z"/>
	<path class="st0" d="M805.2,43.7v8.2c0,0.1,0,0.2-0.1,0.3s-0.1,0.1-0.2,0.1c-0.1,0-0.1,0-0.2-0.1s-0.1-0.1-0.1-0.3v-8.2
		c0-0.1,0-0.2,0.1-0.3s0.1-0.1,0.2-0.1c0.1,0,0.1,0,0.2,0.1S805.2,43.6,805.2,43.7z"/>
	<path class="st0" d="M855.6,43.7v8.2c0,0.1,0,0.2-0.1,0.3s-0.1,0.1-0.2,0.1c-0.1,0-0.1,0-0.2-0.1s-0.1-0.1-0.1-0.3v-8.2
		c0-0.1,0-0.2,0.1-0.3s0.1-0.1,0.2-0.1c0.1,0,0.1,0,0.2,0.1S855.6,43.6,855.6,43.7z"/>
	<path class="st0" d="M891.6,43.7v8.2c0,0.1,0,0.2-0.1,0.3s-0.1,0.1-0.2,0.1c-0.1,0-0.1,0-0.2-0.1s-0.1-0.1-0.1-0.3v-8.2
		c0-0.1,0-0.2,0.1-0.3s0.1-0.1,0.2-0.1c0.1,0,0.1,0,0.2,0.1S891.6,43.6,891.6,43.7z"/>
	<path class="st0" d="M36.6,58l-4,8.5c-0.1,0.1-0.2,0.2-0.3,0.2s-0.1,0-0.2-0.1S32,66.5,32,66.4c0,0,0-0.1,0.1-0.2l4-8.5
		c0-0.1,0.1-0.1,0.1-0.2s0.1,0,0.1,0c0.1,0,0.1,0,0.2,0.1s0.1,0.1,0.1,0.2C36.7,57.9,36.7,57.9,36.6,58z"/>
	<path class="st0" d="M72.6,58l-4,8.5c-0.1,0.1-0.2,0.2-0.3,0.2c-0.1,0-0.1,0-0.2-0.1S68,66.5,68,66.4c0,0,0-0.1,0.1-0.2l4-8.5
		c0-0.1,0.1-0.1,0.1-0.2s0.1,0,0.1,0c0.1,0,0.1,0,0.2,0.1s0.1,0.1,0.1,0.2C72.7,57.9,72.7,57.9,72.6,58z"/>
	<path class="st0" d="M101.5,58l-4,8.5c-0.1,0.1-0.2,0.2-0.3,0.2c-0.1,0-0.1,0-0.2-0.1s-0.1-0.1-0.1-0.2c0,0,0-0.1,0.1-0.2l4-8.5
		c0-0.1,0.1-0.1,0.1-0.2s0.1,0,0.1,0c0.1,0,0.1,0,0.2,0.1s0.1,0.1,0.1,0.2C101.5,57.9,101.5,57.9,101.5,58z"/>
	<path class="st0" d="M123.1,58l-4,8.5c-0.1,0.1-0.2,0.2-0.3,0.2s-0.1,0-0.2-0.1s-0.1-0.1-0.1-0.2c0,0,0-0.1,0.1-0.2l4-8.5
		c0-0.1,0.1-0.1,0.1-0.2s0.1,0,0.1,0c0.1,0,0.1,0,0.2,0.1s0.1,0.1,0.1,0.2C123.1,57.9,123.1,57.9,123.1,58z"/>
	<path class="st0" d="M130.6,62v0.7h-5V62H130.6z"/>
	<path class="st0" d="M137.8,62v0.7h-5V62H137.8z"/>
	<path class="st0" d="M145,62v0.7h-5V62H145z"/>
	<path class="st0" d="M152.2,62v0.7h-5V62H152.2z"/>
	<path class="st0" d="M159.1,58l-4,8.5c-0.1,0.1-0.2,0.2-0.3,0.2s-0.1,0-0.2-0.1s-0.1-0.1-0.1-0.2c0,0,0-0.1,0.1-0.2l4-8.5
		c0-0.1,0.1-0.1,0.1-0.2s0.1,0,0.1,0c0.1,0,0.1,0,0.2,0.1s0.1,0.1,0.1,0.2C159.1,57.9,159.1,57.9,159.1,58z"/>
	<path class="st0" d="M209.5,58l-4,8.5c-0.1,0.1-0.2,0.2-0.3,0.2s-0.1,0-0.2-0.1s-0.1-0.1-0.1-0.2c0,0,0-0.1,0.1-0.2l4-8.5
		c0-0.1,0.1-0.1,0.1-0.2s0.1,0,0.1,0c0.1,0,0.1,0,0.2,0.1s0.1,0.1,0.1,0.2C209.5,57.9,209.5,57.9,209.5,58z"/>
	<path class="st0" d="M252.7,58l-4,8.5c-0.1,0.1-0.2,0.2-0.3,0.2c-0.1,0-0.1,0-0.2-0.1s-0.1-0.1-0.1-0.2c0,0,0-0.1,0.1-0.2l4-8.5
		c0-0.1,0.1-0.1,0.1-0.2s0.1,0,0.1,0c0.1,0,0.1,0,0.2,0.1s0.1,0.1,0.1,0.2C252.7,57.9,252.7,57.9,252.7,58z"/>
	<path class="st0" d="M260.2,62v0.7h-5V62H260.2z"/>
	<path class="st0" d="M267.4,62v0.7h-5V62H267.4z"/>
	<path class="st0" d="M274.6,62v0.7h-5V62H274.6z"/>
	<path class="st0" d="M281.8,62v0.7h-5V62H281.8z"/>
	<path class="st0" d="M288.7,58l-4,8.5c-0.1,0.1-0.2,0.2-0.3,0.2c-0.1,0-0.1,0-0.2-0.1s-0.1-0.1-0.1-0.2c0,0,0-0.1,0.1-0.2l4-8.5
		c0-0.1,0.1-0.1,0.1-0.2s0.1,0,0.1,0c0.1,0,0.1,0,0.2,0.1s0.1,0.1,0.1,0.2C288.7,57.9,288.7,57.9,288.7,58z"/>
	<path class="st0" d="M307.5,58.1l1.4,1.2l0.1,0.1v0.1c0,0.1,0,0.1-0.1,0.2s-0.1,0.1-0.2,0.1s-0.1,0-0.2-0.1l-1.4-1.2
		c-0.1-0.1-0.1-0.2-0.1-0.2c0-0.1,0-0.1,0.1-0.2s0.1-0.1,0.2-0.1C307.4,57.9,307.5,58,307.5,58.1z"/>
	<path class="st0" d="M315.2,64.3h0.2c0.2,0,0.4,0.1,0.6,0.2s0.2,0.3,0.2,0.6c0,0.2-0.1,0.4-0.2,0.6s-0.3,0.2-0.6,0.2h-0.2
		c-0.2,0-0.4-0.1-0.6-0.2s-0.2-0.3-0.2-0.6c0-0.2,0.1-0.4,0.2-0.6S315,64.3,315.2,64.3z"/>
	<path class="st0" d="M325.7,69h-6.5c-0.1,0-0.2,0-0.3-0.1s-0.1-0.1-0.1-0.2s0-0.1,0.1-0.2s0.1-0.1,0.3-0.1h6.5c0.1,0,0.2,0,0.3,0.1
		s0.1,0.1,0.1,0.2s0,0.1-0.1,0.2S325.9,69,325.7,69z"/>
	<path class="st0" d="M332.9,69h-6.5c-0.1,0-0.2,0-0.3-0.1s-0.1-0.1-0.1-0.2s0-0.1,0.1-0.2s0.1-0.1,0.3-0.1h6.5c0.1,0,0.2,0,0.3,0.1
		s0.1,0.1,0.1,0.2s0,0.1-0.1,0.2S333.1,69,332.9,69z"/>
	<path class="st0" d="M336.8,64.3h0.2c0.2,0,0.4,0.1,0.6,0.2s0.2,0.3,0.2,0.6c0,0.2-0.1,0.4-0.2,0.6s-0.3,0.2-0.6,0.2h-0.2
		c-0.2,0-0.4-0.1-0.6-0.2s-0.2-0.3-0.2-0.6c0-0.2,0.1-0.4,0.2-0.6S336.6,64.3,336.8,64.3z"/>
	<path class="st0" d="M343.3,58.4h1.6l-0.4,3.1c0,0.2-0.1,0.3-0.1,0.3s-0.1,0.1-0.2,0.1s-0.2,0-0.2-0.1s-0.1-0.2-0.1-0.3L343.3,58.4
		z"/>
	<path class="st0" d="M360.7,58l-4,8.5c-0.1,0.1-0.2,0.2-0.3,0.2c-0.1,0-0.1,0-0.2-0.1s-0.1-0.1-0.1-0.2c0,0,0-0.1,0.1-0.2l4-8.5
		c0-0.1,0.1-0.1,0.1-0.2s0.1,0,0.1,0c0.1,0,0.1,0,0.2,0.1s0.1,0.1,0.1,0.2C360.8,57.9,360.7,57.9,360.7,58z"/>
	<path class="st0" d="M403.9,58l-4,8.5c-0.1,0.1-0.2,0.2-0.3,0.2c-0.1,0-0.1,0-0.2-0.1s-0.1-0.1-0.1-0.2c0,0,0-0.1,0.1-0.2l4-8.5
		c0-0.1,0.1-0.1,0.1-0.2s0.1,0,0.1,0c0.1,0,0.1,0,0.2,0.1s0.1,0.1,0.1,0.2C404,57.9,403.9,57.9,403.9,58z"/>
	<path class="st0" d="M411.4,62v0.7h-5V62H411.4z"/>
	<path class="st0" d="M418.6,62v0.7h-5V62H418.6z"/>
	<path class="st0" d="M425.8,62v0.7h-5V62H425.8z"/>
	<path class="st0" d="M432.7,58l-4,8.5c-0.1,0.1-0.2,0.2-0.3,0.2c-0.1,0-0.1,0-0.2-0.1s-0.1-0.1-0.1-0.2c0,0,0-0.1,0.1-0.2l4-8.5
		c0-0.1,0.1-0.1,0.1-0.2s0.1,0,0.1,0c0.1,0,0.1,0,0.2,0.1s0.1,0.1,0.1,0.2C432.8,57.9,432.7,57.9,432.7,58z"/>
	<path class="st0" d="M447.1,58l-4,8.5c-0.1,0.1-0.2,0.2-0.3,0.2c-0.1,0-0.1,0-0.2-0.1s-0.1-0.1-0.1-0.2c0,0,0-0.1,0.1-0.2l4-8.5
		c0-0.1,0.1-0.1,0.1-0.2s0.1,0,0.1,0c0.1,0,0.1,0,0.2,0.1s0.1,0.1,0.1,0.2C447.2,57.9,447.1,57.9,447.1,58z"/>
	<path class="st0" d="M454.6,62v0.7h-5V62H454.6z"/>
	<path class="st0" d="M461.8,62v0.7h-5V62H461.8z"/>
	<path class="st0" d="M469,62v0.7h-5V62H469z"/>
	<path class="st0" d="M476.2,62v0.7h-5V62H476.2z"/>
	<path class="st0" d="M483.1,58l-4,8.5c-0.1,0.1-0.2,0.2-0.3,0.2c-0.1,0-0.1,0-0.2-0.1s-0.1-0.1-0.1-0.2c0,0,0-0.1,0.1-0.2l4-8.5
		c0-0.1,0.1-0.1,0.1-0.2s0.1,0,0.1,0c0.1,0,0.1,0,0.2,0.1s0.1,0.1,0.1,0.2C483.2,57.9,483.2,57.9,483.1,58z"/>
	<path class="st0" d="M531.6,58.7v8.2c0,0.1,0,0.2-0.1,0.3s-0.1,0.1-0.2,0.1c-0.1,0-0.1,0-0.2-0.1s-0.1-0.1-0.1-0.3v-8.2
		c0-0.1,0-0.2,0.1-0.3s0.1-0.1,0.2-0.1c0.1,0,0.1,0,0.2,0.1S531.6,58.6,531.6,58.7z"/>
	<path class="st0" d="M537.5,64h1.6l-1.7,3.2c-0.1,0.2-0.2,0.3-0.4,0.3c-0.1,0-0.2,0-0.2-0.1s-0.1-0.2-0.1-0.2v-0.1L537.5,64z"/>
	<path class="st0" d="M544.9,58.4h1.6l-0.4,3.1c0,0.2-0.1,0.3-0.1,0.3s-0.1,0.1-0.2,0.1c-0.1,0-0.2,0-0.2-0.1s-0.1-0.2-0.1-0.3
		L544.9,58.4z"/>
	<path class="st0" d="M565.6,57.8l4,8.5c0,0.1,0.1,0.1,0.1,0.2c0,0.1,0,0.1-0.1,0.2s-0.1,0.1-0.2,0.1c-0.1,0-0.2-0.1-0.3-0.2l-4-8.5
		c0-0.1-0.1-0.1-0.1-0.2c0-0.1,0-0.1,0.1-0.2s0.1-0.1,0.2-0.1S565.5,57.7,565.6,57.8z"/>
	<path class="st0" d="M573.5,64h1.6l-1.7,3.2c-0.1,0.2-0.2,0.3-0.4,0.3c-0.1,0-0.2,0-0.2-0.1s-0.1-0.2-0.1-0.2v-0.1L573.5,64z"/>
	<path class="st0" d="M580.9,58.4h1.6l-0.4,3.1c0,0.2-0.1,0.3-0.1,0.3s-0.1,0.1-0.2,0.1c-0.1,0-0.2,0-0.2-0.1s-0.1-0.2-0.1-0.3
		L580.9,58.4z"/>
	<path class="st0" d="M612.7,58l-4,8.5c-0.1,0.1-0.2,0.2-0.3,0.2s-0.1,0-0.2-0.1s-0.1-0.1-0.1-0.2c0,0,0-0.1,0.1-0.2l4-8.5
		c0-0.1,0.1-0.1,0.1-0.2s0.1,0,0.1,0c0.1,0,0.1,0,0.2,0.1s0.1,0.1,0.1,0.2C612.8,57.9,612.8,57.9,612.7,58z"/>
	<path class="st0" d="M620.2,62v0.7h-5V62H620.2z"/>
	<path class="st0" d="M627.4,62v0.7h-5V62H627.4z"/>
	<path class="st0" d="M634.6,62v0.7h-5V62H634.6z"/>
	<path class="st0" d="M641.8,62v0.7h-5V62H641.8z"/>
	<path class="st0" d="M648.7,58l-4,8.5c-0.1,0.1-0.2,0.2-0.3,0.2s-0.1,0-0.2-0.1s-0.1-0.1-0.1-0.2c0,0,0-0.1,0.1-0.2l4-8.5
		c0-0.1,0.1-0.1,0.1-0.2s0.1,0,0.1,0c0.1,0,0.1,0,0.2,0.1s0.1,0.1,0.1,0.2C648.8,57.9,648.8,57.9,648.7,58z"/>
	<path class="st0" d="M697.2,58.7v8.2c0,0.1,0,0.2-0.1,0.3s-0.1,0.1-0.2,0.1c-0.1,0-0.1,0-0.2-0.1s-0.1-0.1-0.1-0.3v-8.2
		c0-0.1,0-0.2,0.1-0.3s0.1-0.1,0.2-0.1c0.1,0,0.1,0,0.2,0.1S697.2,58.6,697.2,58.7z"/>
	<path class="st0" d="M724,57.8l4,8.5c0,0.1,0.1,0.1,0.1,0.2c0,0.1,0,0.1-0.1,0.2s-0.1,0.1-0.2,0.1c-0.1,0-0.2-0.1-0.3-0.2l-4-8.5
		c0-0.1-0.1-0.1-0.1-0.2c0-0.1,0-0.1,0.1-0.2s0.1-0.1,0.2-0.1C723.8,57.6,723.9,57.7,724,57.8z"/>
	<path class="st0" d="M733.2,58.7v8.2c0,0.1,0,0.2-0.1,0.3s-0.1,0.1-0.2,0.1c-0.1,0-0.1,0-0.2-0.1s-0.1-0.1-0.1-0.3v-8.2
		c0-0.1,0-0.2,0.1-0.3s0.1-0.1,0.2-0.1c0.1,0,0.1,0,0.2,0.1S733.2,58.6,733.2,58.7z"/>
	<path class="st0" d="M756.8,58l-4,8.5c-0.1,0.1-0.2,0.2-0.3,0.2s-0.1,0-0.2-0.1s-0.1-0.1-0.1-0.2c0,0,0-0.1,0.1-0.2l4-8.5
		c0-0.1,0.1-0.1,0.1-0.2s0.1,0,0.1,0c0.1,0,0.1,0,0.2,0.1s0.1,0.1,0.1,0.2C756.8,57.9,756.8,57.9,756.8,58z"/>
	<path class="st0" d="M764.3,62v0.7h-5V62H764.3z"/>
	<path class="st0" d="M771.5,62v0.7h-5V62H771.5z"/>
	<path class="st0" d="M778.7,62v0.7h-5V62H778.7z"/>
	<path class="st0" d="M785.9,62v0.7h-5V62H785.9z"/>
	<path class="st0" d="M792.8,58l-4,8.5c-0.1,0.1-0.2,0.2-0.3,0.2s-0.1,0-0.2-0.1s-0.1-0.1-0.1-0.2c0,0,0-0.1,0.1-0.2l4-8.5
		c0-0.1,0.1-0.1,0.1-0.2s0.1,0,0.1,0c0.1,0,0.1,0,0.2,0.1s0.1,0.1,0.1,0.2C792.8,57.9,792.8,57.9,792.8,58z"/>
	<path class="st0" d="M807.2,58l-4,8.5c-0.1,0.1-0.2,0.2-0.3,0.2s-0.1,0-0.2-0.1s-0.1-0.1-0.1-0.2c0,0,0-0.1,0.1-0.2l4-8.5
		c0-0.1,0.1-0.1,0.1-0.2s0.1,0,0.1,0c0.1,0,0.1,0,0.2,0.1s0.1,0.1,0.1,0.2C807.2,57.9,807.2,57.9,807.2,58z"/>
	<path class="st0" d="M814.7,62v0.7h-5V62H814.7z"/>
	<path class="st0" d="M821.9,62v0.7h-5V62H821.9z"/>
	<path class="st0" d="M829.1,62v0.7h-5V62H829.1z"/>
	<path class="st0" d="M836.3,62v0.7h-5V62H836.3z"/>
	<path class="st0" d="M843.2,58l-4,8.5c-0.1,0.1-0.2,0.2-0.3,0.2s-0.1,0-0.2-0.1s-0.1-0.1-0.1-0.2c0,0,0-0.1,0.1-0.2l4-8.5
		c0-0.1,0.1-0.1,0.1-0.2s0.1,0,0.1,0c0.1,0,0.1,0,0.2,0.1s0.1,0.1,0.1,0.2C843.2,57.9,843.2,57.9,843.2,58z"/>
	<path class="st0" d="M857.6,58l-4,8.5c-0.1,0.1-0.2,0.2-0.3,0.2s-0.1,0-0.2-0.1s-0.1-0.1-0.1-0.2c0,0,0-0.1,0.1-0.2l4-8.5
		c0-0.1,0.1-0.1,0.1-0.2s0.1,0,0.1,0c0.1,0,0.1,0,0.2,0.1s0.1,0.1,0.1,0.2C857.6,57.9,857.6,57.9,857.6,58z"/>
	<path class="st0" d="M865.1,62v0.7h-5V62H865.1z"/>
	<path class="st0" d="M872.3,62v0.7h-5V62H872.3z"/>
	<path class="st0" d="M879.5,62v0.7h-5V62H879.5z"/>
	<path class="st0" d="M886.4,58l-4,8.5c-0.1,0.1-0.2,0.2-0.3,0.2s-0.1,0-0.2-0.1s-0.1-0.1-0.1-0.2c0,0,0-0.1,0.1-0.2l4-8.5
		c0-0.1,0.1-0.1,0.1-0.2s0.1,0,0.1,0c0.1,0,0.1,0,0.2,0.1s0.1,0.1,0.1,0.2C886.4,57.9,886.4,57.9,886.4,58z"/>
</g>
</svg>
