<?xml version="1.0" encoding="utf-8"?>
<!-- Generator: Adobe Illustrator 25.2.3, SVG Export Plug-In . SVG Version: 6.00 Build 0)  -->
<svg version="1.1" id="Layer_1" xmlns="http://www.w3.org/2000/svg" xmlns:xlink="http://www.w3.org/1999/xlink" x="0px" y="0px"
	 viewBox="0 0 334 271.1" style="enable-background:new 0 0 334 271.1;" xml:space="preserve">
<style type="text/css">
	.st0{fill:#FFFFFF;stroke:#FFFFFF;stroke-width:2;stroke-miterlimit:10;}
	.st1{fill:#FFFFFF;stroke:#FFFFFF;stroke-width:1.5;stroke-miterlimit:10;}
	.st2{fill:#FFFFFF;stroke:#FFFFFF;stroke-width:0.5;stroke-miterlimit:10;}
</style>
<g>
	<path class="st2" d="M129.2,12.2l1.5-3.1c-0.4,0-0.6,0-0.7-0.1c-0.2-0.1-0.3-0.3-0.3-0.6c0-0.2,0.1-0.4,0.2-0.5
		c0.1-0.1,0.4-0.2,0.7-0.2h1.9c0.3,0,0.6,0.1,0.7,0.2c0.1,0.1,0.2,0.3,0.2,0.5c0,0.2-0.1,0.4-0.2,0.5c-0.1,0.1-0.4,0.2-0.7,0.2h-0.2
		l-2.4,4.9h-1.5l-2.4-4.9h-0.2c-0.3,0-0.6-0.1-0.7-0.2c-0.1-0.1-0.2-0.3-0.2-0.5c0-0.2,0.1-0.4,0.2-0.5c0.1-0.1,0.4-0.2,0.7-0.2h1.9
		c0.3,0,0.6,0.1,0.7,0.2c0.1,0.1,0.2,0.3,0.2,0.5c0,0.3-0.1,0.5-0.3,0.6c-0.1,0.1-0.4,0.1-0.7,0.1L129.2,12.2z"/>
	<path class="st2" d="M147.3,13.2c0,0.3-0.1,0.5-0.3,0.7c-0.2,0.2-0.5,0.3-0.8,0.3s-0.6-0.1-0.8-0.3s-0.3-0.4-0.3-0.7
		c0-0.3,0.1-0.5,0.3-0.7s0.5-0.3,0.8-0.3s0.6,0.1,0.8,0.3C147.2,12.7,147.3,12.9,147.3,13.2z"/>
	<path class="st2" d="M181.4,13.2c0,0.3-0.1,0.5-0.3,0.7s-0.5,0.3-0.8,0.3s-0.6-0.1-0.8-0.3s-0.3-0.4-0.3-0.7c0-0.3,0.1-0.5,0.3-0.7
		s0.5-0.3,0.8-0.3s0.6,0.1,0.8,0.3S181.4,12.9,181.4,13.2z"/>
	<path class="st2" d="M192.8,18.2H185c-0.3,0-0.6-0.1-0.7-0.2s-0.2-0.3-0.2-0.5c0-0.2,0.1-0.4,0.2-0.5s0.4-0.2,0.7-0.2h7.8
		c0.3,0,0.6,0.1,0.7,0.2c0.1,0.1,0.2,0.3,0.2,0.5c0,0.2-0.1,0.4-0.2,0.5C193.4,18.1,193.2,18.2,192.8,18.2z"/>
	<path class="st2" d="M197.1,12h1.9l-2,3.9c-0.1,0.2-0.3,0.3-0.5,0.3c-0.1,0-0.2,0-0.3-0.1c-0.1-0.1-0.1-0.2-0.1-0.3
		c0-0.1,0-0.2,0-0.3L197.1,12z"/>
	<path class="st2" d="M215.2,6.3v8.5c0,0.5,0,0.8,0,0.9c0,0.1-0.1,0.3-0.2,0.4c-0.1,0.1-0.3,0.1-0.4,0.1c-0.2,0-0.3,0-0.4-0.1
		c-0.1-0.1-0.2-0.2-0.2-0.4c0-0.1,0-0.4,0-0.9V6.3c0-0.5,0-0.8,0-0.9c0-0.1,0.1-0.3,0.2-0.4c0.1-0.1,0.3-0.1,0.4-0.1
		c0.2,0,0.3,0,0.4,0.1c0.1,0.1,0.2,0.2,0.2,0.4C215.2,5.5,215.2,5.8,215.2,6.3z"/>
	<path class="st2" d="M226.9,18.2h-7.8c-0.3,0-0.6-0.1-0.7-0.2c-0.1-0.1-0.2-0.3-0.2-0.5c0-0.2,0.1-0.4,0.2-0.5
		c0.1-0.1,0.4-0.2,0.7-0.2h7.8c0.3,0,0.6,0.1,0.7,0.2s0.2,0.3,0.2,0.5c0,0.2-0.1,0.4-0.2,0.5C227.5,18.1,227.3,18.2,226.9,18.2z"/>
	<path class="st2" d="M249.6,13.2c0,0.3-0.1,0.5-0.3,0.7c-0.2,0.2-0.5,0.3-0.8,0.3c-0.3,0-0.6-0.1-0.8-0.3s-0.3-0.4-0.3-0.7
		c0-0.3,0.1-0.5,0.3-0.7s0.5-0.3,0.8-0.3c0.3,0,0.6,0.1,0.8,0.3C249.5,12.7,249.6,12.9,249.6,13.2z"/>
	<path class="st2" d="M256.7,12h1.9l-2,3.9c-0.1,0.2-0.3,0.3-0.5,0.3c-0.1,0-0.2,0-0.3-0.1s-0.1-0.2-0.1-0.3c0-0.1,0-0.2,0-0.3
		L256.7,12z"/>
	<path class="st2" d="M103.1,25.9l1.6,1.3c0.2,0.1,0.3,0.3,0.3,0.4c0,0.1,0,0.2-0.1,0.3c-0.1,0.1-0.2,0.1-0.3,0.1
		c-0.1,0-0.2-0.1-0.4-0.2l-1.6-1.3c-0.2-0.1-0.3-0.3-0.3-0.4c0-0.1,0-0.2,0.1-0.3c0.1-0.1,0.2-0.1,0.3-0.1
		C102.8,25.8,103,25.8,103.1,25.9z"/>
	<path class="st2" d="M115.1,31.9h-5.9v-1.3h5.9V31.9z"/>
	<path class="st2" d="M121.8,34.5c0,0.3-0.1,0.5-0.3,0.7c-0.2,0.2-0.5,0.3-0.8,0.3c-0.3,0-0.6-0.1-0.8-0.3c-0.2-0.2-0.3-0.4-0.3-0.7
		c0-0.3,0.1-0.5,0.3-0.7c0.2-0.2,0.5-0.3,0.8-0.3c0.3,0,0.6,0.1,0.8,0.3C121.7,34,121.8,34.3,121.8,34.5z"/>
	<path class="st2" d="M133.1,39.5h-7.8c-0.3,0-0.6-0.1-0.7-0.2c-0.1-0.1-0.2-0.3-0.2-0.5c0-0.2,0.1-0.4,0.2-0.5
		c0.1-0.1,0.4-0.2,0.7-0.2h7.8c0.3,0,0.6,0.1,0.7,0.2c0.1,0.1,0.2,0.3,0.2,0.5c0,0.2-0.1,0.4-0.2,0.5
		C133.7,39.4,133.5,39.5,133.1,39.5z"/>
	<path class="st2" d="M136.1,25.8l4.6,9.8c0,0.1,0.1,0.2,0.1,0.4c0,0.1,0,0.2,0,0.2c0,0.2-0.1,0.3-0.2,0.4c-0.1,0.1-0.3,0.2-0.5,0.2
		c-0.2,0-0.3,0-0.4-0.1c-0.1-0.1-0.2-0.2-0.3-0.5l-4.6-9.8c-0.1-0.2-0.2-0.4-0.2-0.5c0-0.2,0.1-0.3,0.2-0.5c0.1-0.1,0.3-0.2,0.5-0.2
		c0.2,0,0.3,0,0.4,0.1C135.9,25.4,136,25.6,136.1,25.8z"/>
	<path class="st2" d="M149.2,26.4l-4.6,9.8c-0.1,0.2-0.2,0.4-0.3,0.5c-0.1,0.1-0.3,0.1-0.4,0.1c-0.2,0-0.4-0.1-0.5-0.2
		s-0.2-0.3-0.2-0.5c0-0.1,0.1-0.3,0.2-0.5l4.6-9.8c0.1-0.2,0.2-0.4,0.3-0.5c0.1-0.1,0.3-0.1,0.4-0.1c0.2,0,0.4,0.1,0.5,0.2
		s0.2,0.3,0.2,0.5C149.3,26,149.3,26.2,149.2,26.4z"/>
	<path class="st2" d="M172.9,34.5c0,0.3-0.1,0.5-0.3,0.7c-0.2,0.2-0.5,0.3-0.8,0.3s-0.6-0.1-0.8-0.3c-0.2-0.2-0.3-0.4-0.3-0.7
		c0-0.3,0.1-0.5,0.3-0.7c0.2-0.2,0.5-0.3,0.8-0.3s0.6,0.1,0.8,0.3C172.8,34,172.9,34.3,172.9,34.5z"/>
	<path class="st2" d="M195.8,25.8l4.6,9.8c0,0.1,0.1,0.2,0.1,0.4c0,0.1,0,0.2,0,0.2c0,0.2-0.1,0.3-0.2,0.4c-0.1,0.1-0.3,0.2-0.5,0.2
		c-0.2,0-0.3,0-0.4-0.1c-0.1-0.1-0.2-0.2-0.3-0.5l-4.6-9.8c-0.1-0.2-0.2-0.4-0.2-0.5c0-0.2,0.1-0.3,0.2-0.5c0.1-0.1,0.3-0.2,0.5-0.2
		c0.2,0,0.3,0,0.4,0.1C195.5,25.4,195.7,25.6,195.8,25.8z"/>
	<path class="st2" d="M217.4,26.4l-4.6,9.8c-0.1,0.2-0.2,0.4-0.3,0.5c-0.1,0.1-0.3,0.1-0.4,0.1c-0.2,0-0.4-0.1-0.5-0.2
		c-0.1-0.1-0.2-0.3-0.2-0.5c0-0.1,0.1-0.3,0.2-0.5l4.6-9.8c0.1-0.2,0.2-0.4,0.3-0.5c0.1-0.1,0.3-0.1,0.4-0.1c0.2,0,0.4,0.1,0.5,0.2
		s0.2,0.3,0.2,0.5C217.5,26,217.5,26.2,217.4,26.4z"/>
	<path class="st2" d="M257.8,27.6v8.5c0,0.5,0,0.8,0,0.9c0,0.1-0.1,0.3-0.2,0.4c-0.1,0.1-0.3,0.1-0.4,0.1c-0.2,0-0.3,0-0.4-0.1
		c-0.1-0.1-0.2-0.2-0.2-0.4c0-0.1,0-0.4,0-0.9v-8.5c0-0.5,0-0.8,0-0.9c0-0.1,0.1-0.3,0.2-0.4c0.1-0.1,0.3-0.1,0.4-0.1
		c0.2,0,0.3,0,0.4,0.1c0.1,0.1,0.2,0.2,0.2,0.4C257.8,26.9,257.8,27.1,257.8,27.6z"/>
	<path class="st2" d="M268.5,26.4l-4.6,9.8c-0.1,0.2-0.2,0.4-0.3,0.5c-0.1,0.1-0.3,0.1-0.4,0.1c-0.2,0-0.4-0.1-0.5-0.2
		s-0.2-0.3-0.2-0.5c0-0.1,0.1-0.3,0.2-0.5l4.6-9.8c0.1-0.2,0.2-0.4,0.3-0.5c0.1-0.1,0.3-0.1,0.4-0.1c0.2,0,0.4,0.1,0.5,0.2
		c0.1,0.1,0.2,0.3,0.2,0.5C268.7,26,268.6,26.2,268.5,26.4z"/>
	<path class="st2" d="M278.1,39.5h-7.8c-0.3,0-0.6-0.1-0.7-0.2c-0.1-0.1-0.2-0.3-0.2-0.5c0-0.2,0.1-0.4,0.2-0.5
		c0.1-0.1,0.4-0.2,0.7-0.2h7.8c0.3,0,0.6,0.1,0.7,0.2c0.1,0.1,0.2,0.3,0.2,0.5c0,0.2-0.1,0.4-0.2,0.5
		C278.6,39.4,278.4,39.5,278.1,39.5z"/>
	<path class="st2" d="M136.1,47.1l4.6,9.8c0,0.1,0.1,0.2,0.1,0.4c0,0.1,0,0.2,0,0.2c0,0.2-0.1,0.3-0.2,0.4c-0.1,0.1-0.3,0.2-0.5,0.2
		c-0.2,0-0.3,0-0.4-0.1c-0.1-0.1-0.2-0.2-0.3-0.5l-4.6-9.8c-0.1-0.2-0.2-0.4-0.2-0.5c0-0.2,0.1-0.3,0.2-0.5c0.1-0.1,0.3-0.2,0.5-0.2
		c0.2,0,0.3,0,0.4,0.1C135.9,46.7,136,46.9,136.1,47.1z"/>
	<path class="st2" d="M144.6,47.1l4.6,9.8c0,0.1,0.1,0.2,0.1,0.4c0,0.1,0,0.2,0,0.2c0,0.2-0.1,0.3-0.2,0.4c-0.1,0.1-0.3,0.2-0.5,0.2
		c-0.2,0-0.3,0-0.4-0.1c-0.1-0.1-0.2-0.2-0.3-0.5l-4.6-9.8c-0.1-0.2-0.2-0.4-0.2-0.5c0-0.2,0.1-0.3,0.2-0.5c0.1-0.1,0.3-0.2,0.5-0.2
		c0.2,0,0.3,0,0.4,0.1C144.4,46.7,144.5,46.9,144.6,47.1z"/>
	<path class="st2" d="M175.8,60.8H168c-0.3,0-0.6-0.1-0.7-0.2c-0.1-0.1-0.2-0.3-0.2-0.5c0-0.2,0.1-0.4,0.2-0.5
		c0.1-0.1,0.4-0.2,0.7-0.2h7.8c0.3,0,0.6,0.1,0.7,0.2c0.1,0.1,0.2,0.3,0.2,0.5c0,0.2-0.1,0.4-0.2,0.5
		C176.3,60.7,176.1,60.8,175.8,60.8z"/>
	<path class="st2" d="M178.7,47.1l4.6,9.8c0,0.1,0.1,0.2,0.1,0.4c0,0.1,0,0.2,0,0.2c0,0.2-0.1,0.3-0.2,0.4c-0.1,0.1-0.3,0.2-0.5,0.2
		c-0.2,0-0.3,0-0.4-0.1c-0.1-0.1-0.2-0.2-0.3-0.5l-4.6-9.8c-0.1-0.2-0.2-0.4-0.2-0.5c0-0.2,0.1-0.3,0.2-0.5c0.1-0.1,0.3-0.2,0.5-0.2
		c0.2,0,0.3,0,0.4,0.1C178.5,46.7,178.6,46.9,178.7,47.1z"/>
	<path class="st2" d="M188.5,54.6h1.9l-2,3.9c-0.1,0.2-0.3,0.3-0.5,0.3c-0.1,0-0.2,0-0.3-0.1c-0.1-0.1-0.1-0.2-0.1-0.3
		c0-0.1,0-0.2,0-0.3L188.5,54.6z"/>
	<path class="st2" d="M205.1,56.5l-2.5-4.8c-0.2,0-0.4-0.1-0.5-0.2c-0.1-0.1-0.2-0.3-0.2-0.5c0-0.2,0.1-0.4,0.2-0.5
		c0.1-0.1,0.4-0.2,0.7-0.2h1.3c0.3,0,0.6,0.1,0.7,0.2c0.1,0.1,0.2,0.3,0.2,0.5c0,0.2-0.1,0.4-0.2,0.5c-0.1,0.1-0.4,0.2-0.7,0.2
		l1.7,3.3l1.7-3.3c-0.3,0-0.5-0.1-0.7-0.2c-0.1-0.1-0.2-0.3-0.2-0.5c0-0.2,0.1-0.4,0.2-0.5c0.1-0.1,0.4-0.2,0.7-0.2h1.3
		c0.3,0,0.6,0.1,0.7,0.2c0.1,0.1,0.2,0.3,0.2,0.5c0,0.2-0.1,0.4-0.2,0.5c-0.1,0.1-0.3,0.2-0.6,0.2l-3.3,6.4c0.4,0,0.6,0,0.7,0.1
		c0.2,0.1,0.3,0.3,0.3,0.6c0,0.2-0.1,0.4-0.2,0.5c-0.1,0.1-0.4,0.2-0.7,0.2h-3.1c-0.3,0-0.6-0.1-0.7-0.2c-0.1-0.1-0.2-0.3-0.2-0.5
		c0-0.2,0.1-0.4,0.2-0.5c0.1-0.1,0.4-0.2,0.7-0.2h1.4L205.1,56.5z"/>
	<path class="st2" d="M223.7,48.9v8.5c0,0.5,0,0.8,0,0.9c0,0.1-0.1,0.3-0.2,0.4c-0.1,0.1-0.3,0.1-0.4,0.1c-0.2,0-0.3,0-0.4-0.1
		c-0.1-0.1-0.2-0.2-0.2-0.4c0-0.1,0-0.4,0-0.9v-8.5c0-0.5,0-0.8,0-0.9c0-0.1,0.1-0.3,0.2-0.4c0.1-0.1,0.3-0.1,0.4-0.1
		c0.2,0,0.3,0,0.4,0.1c0.1,0.1,0.2,0.2,0.2,0.4C223.7,48.2,223.7,48.5,223.7,48.9z"/>
	<path class="st2" d="M238.4,47.1l4.6,9.8c0,0.1,0.1,0.2,0.1,0.4c0,0.1,0,0.2,0,0.2c0,0.2-0.1,0.3-0.2,0.4c-0.1,0.1-0.3,0.2-0.5,0.2
		c-0.2,0-0.3,0-0.4-0.1c-0.1-0.1-0.2-0.2-0.3-0.5l-4.6-9.8c-0.1-0.2-0.2-0.4-0.2-0.5c0-0.2,0.1-0.3,0.2-0.5c0.1-0.1,0.3-0.2,0.5-0.2
		c0.2,0,0.3,0,0.4,0.1C238.2,46.7,238.3,46.9,238.4,47.1z"/>
	<path class="st2" d="M251.5,47.7l-4.6,9.8c-0.1,0.2-0.2,0.4-0.3,0.5c-0.1,0.1-0.3,0.1-0.4,0.1c-0.2,0-0.4-0.1-0.5-0.2
		c-0.1-0.1-0.2-0.3-0.2-0.5c0-0.1,0.1-0.3,0.2-0.5l4.6-9.8c0.1-0.2,0.2-0.4,0.3-0.5c0.1-0.1,0.3-0.1,0.4-0.1c0.2,0,0.4,0.1,0.5,0.2
		s0.2,0.3,0.2,0.5C251.6,47.3,251.6,47.5,251.5,47.7z"/>
	<path class="st2" d="M260,47.7l-4.6,9.8c-0.1,0.2-0.2,0.4-0.3,0.5c-0.1,0.1-0.3,0.1-0.4,0.1c-0.2,0-0.4-0.1-0.5-0.2
		c-0.1-0.1-0.2-0.3-0.2-0.5c0-0.1,0.1-0.3,0.2-0.5l4.6-9.8c0.1-0.2,0.2-0.4,0.3-0.5c0.1-0.1,0.3-0.1,0.4-0.1c0.2,0,0.4,0.1,0.5,0.2
		s0.2,0.3,0.2,0.5C260.2,47.3,260.1,47.5,260,47.7z"/>
	<path class="st2" d="M90.5,82.1h-7.8c-0.3,0-0.6-0.1-0.7-0.2c-0.1-0.1-0.2-0.3-0.2-0.5s0.1-0.4,0.2-0.5c0.1-0.1,0.4-0.2,0.7-0.2
		h7.8c0.3,0,0.6,0.1,0.7,0.2c0.1,0.1,0.2,0.3,0.2,0.5c0,0.2-0.1,0.4-0.2,0.5S90.9,82.1,90.5,82.1z"/>
	<path class="st2" d="M93.5,68.4l4.6,9.8c0,0.1,0.1,0.2,0.1,0.4c0,0.1,0,0.2,0,0.2c0,0.2-0.1,0.3-0.2,0.4c-0.1,0.1-0.3,0.2-0.5,0.2
		c-0.2,0-0.3,0-0.4-0.1c-0.1-0.1-0.2-0.2-0.3-0.5l-4.6-9.8c-0.1-0.2-0.2-0.4-0.2-0.5c0-0.2,0.1-0.3,0.2-0.5c0.1-0.1,0.3-0.2,0.5-0.2
		c0.2,0,0.3,0,0.4,0.1C93.2,68,93.4,68.2,93.5,68.4z"/>
	<path class="st2" d="M107.6,82.1h-7.8c-0.3,0-0.6-0.1-0.7-0.2c-0.1-0.1-0.2-0.3-0.2-0.5s0.1-0.4,0.2-0.5c0.1-0.1,0.4-0.2,0.7-0.2
		h7.8c0.3,0,0.6,0.1,0.7,0.2s0.2,0.3,0.2,0.5c0,0.2-0.1,0.4-0.2,0.5C108.1,82.1,107.9,82.1,107.6,82.1z"/>
	<path class="st2" d="M113.2,77.1c0,0.3-0.1,0.5-0.3,0.7c-0.2,0.2-0.5,0.3-0.8,0.3s-0.6-0.1-0.8-0.3c-0.2-0.2-0.3-0.4-0.3-0.7
		c0-0.3,0.1-0.5,0.3-0.7c0.2-0.2,0.5-0.3,0.8-0.3s0.6,0.1,0.8,0.3C113.1,76.6,113.2,76.9,113.2,77.1z"/>
	<path class="st2" d="M124.6,82.1h-7.8c-0.3,0-0.6-0.1-0.7-0.2c-0.1-0.1-0.2-0.3-0.2-0.5s0.1-0.4,0.2-0.5s0.4-0.2,0.7-0.2h7.8
		c0.3,0,0.6,0.1,0.7,0.2s0.2,0.3,0.2,0.5c0,0.2-0.1,0.4-0.2,0.5S125,82.1,124.6,82.1z"/>
	<path class="st2" d="M133.1,82.1h-7.8c-0.3,0-0.6-0.1-0.7-0.2c-0.1-0.1-0.2-0.3-0.2-0.5s0.1-0.4,0.2-0.5c0.1-0.1,0.4-0.2,0.7-0.2
		h7.8c0.3,0,0.6,0.1,0.7,0.2c0.1,0.1,0.2,0.3,0.2,0.5c0,0.2-0.1,0.4-0.2,0.5S133.5,82.1,133.1,82.1z"/>
	<path class="st2" d="M141.7,82.1h-7.8c-0.3,0-0.6-0.1-0.7-0.2c-0.1-0.1-0.2-0.3-0.2-0.5s0.1-0.4,0.2-0.5c0.1-0.1,0.4-0.2,0.7-0.2
		h7.8c0.3,0,0.6,0.1,0.7,0.2c0.1,0.1,0.2,0.3,0.2,0.5c0,0.2-0.1,0.4-0.2,0.5S142,82.1,141.7,82.1z"/>
	<path class="st2" d="M144.6,68.4l4.6,9.8c0,0.1,0.1,0.2,0.1,0.4c0,0.1,0,0.2,0,0.2c0,0.2-0.1,0.3-0.2,0.4c-0.1,0.1-0.3,0.2-0.5,0.2
		c-0.2,0-0.3,0-0.4-0.1c-0.1-0.1-0.2-0.2-0.3-0.5l-4.6-9.8c-0.1-0.2-0.2-0.4-0.2-0.5c0-0.2,0.1-0.3,0.2-0.5c0.1-0.1,0.3-0.2,0.5-0.2
		c0.2,0,0.3,0,0.4,0.1C144.4,68,144.5,68.2,144.6,68.4z"/>
	<path class="st2" d="M153.1,68.4l4.6,9.8c0,0.1,0.1,0.2,0.1,0.4c0,0.1,0,0.2,0,0.2c0,0.2-0.1,0.3-0.2,0.4c-0.1,0.1-0.3,0.2-0.5,0.2
		c-0.2,0-0.3,0-0.4-0.1c-0.1-0.1-0.2-0.2-0.3-0.5l-4.6-9.8c-0.1-0.2-0.2-0.4-0.2-0.5c0-0.2,0.1-0.3,0.2-0.5c0.1-0.1,0.3-0.2,0.5-0.2
		c0.2,0,0.3,0,0.4,0.1C152.9,68,153,68.2,153.1,68.4z"/>
	<path class="st2" d="M163,75.9h1.9l-2,3.9c-0.1,0.2-0.3,0.3-0.5,0.3c-0.1,0-0.2,0-0.3-0.1c-0.1-0.1-0.1-0.2-0.1-0.3
		c0-0.1,0-0.2,0-0.3L163,75.9z"/>
	<path class="st2" d="M178.7,68.4l4.6,9.8c0,0.1,0.1,0.2,0.1,0.4c0,0.1,0,0.2,0,0.2c0,0.2-0.1,0.3-0.2,0.4c-0.1,0.1-0.3,0.2-0.5,0.2
		c-0.2,0-0.3,0-0.4-0.1c-0.1-0.1-0.2-0.2-0.3-0.5l-4.6-9.8c-0.1-0.2-0.2-0.4-0.2-0.5c0-0.2,0.1-0.3,0.2-0.5c0.1-0.1,0.3-0.2,0.5-0.2
		c0.2,0,0.3,0,0.4,0.1C178.5,68,178.6,68.2,178.7,68.4z"/>
	<path class="st2" d="M187.2,68.4l4.6,9.8c0,0.1,0.1,0.2,0.1,0.4c0,0.1,0,0.2,0,0.2c0,0.2-0.1,0.3-0.2,0.4c-0.1,0.1-0.3,0.2-0.5,0.2
		c-0.2,0-0.3,0-0.4-0.1c-0.1-0.1-0.2-0.2-0.3-0.5l-4.6-9.8c-0.1-0.2-0.2-0.4-0.2-0.5c0-0.2,0.1-0.3,0.2-0.5c0.1-0.1,0.3-0.2,0.5-0.2
		c0.2,0,0.3,0,0.4,0.1C187,68,187.1,68.2,187.2,68.4z"/>
	<path class="st2" d="M200.3,69l-4.6,9.8c-0.1,0.2-0.2,0.4-0.3,0.5c-0.1,0.1-0.3,0.1-0.4,0.1c-0.2,0-0.4-0.1-0.5-0.2
		c-0.1-0.1-0.2-0.3-0.2-0.5c0-0.1,0.1-0.3,0.2-0.5l4.6-9.8c0.1-0.2,0.2-0.4,0.3-0.5c0.1-0.1,0.3-0.1,0.4-0.1c0.2,0,0.4,0.1,0.5,0.2
		c0.1,0.1,0.2,0.3,0.2,0.5C200.5,68.6,200.4,68.8,200.3,69z"/>
	<path class="st2" d="M217.4,74.5h-5.9v-1.3h5.9V74.5z"/>
	<path class="st2" d="M224.1,77.1c0,0.3-0.1,0.5-0.3,0.7c-0.2,0.2-0.5,0.3-0.8,0.3s-0.6-0.1-0.8-0.3s-0.3-0.4-0.3-0.7
		c0-0.3,0.1-0.5,0.3-0.7s0.5-0.3,0.8-0.3s0.6,0.1,0.8,0.3C224,76.6,224.1,76.9,224.1,77.1z"/>
	<path class="st2" d="M229.9,68.4l4.6,9.8c0,0.1,0.1,0.2,0.1,0.4c0,0.1,0,0.2,0,0.2c0,0.2-0.1,0.3-0.2,0.4c-0.1,0.1-0.3,0.2-0.5,0.2
		c-0.2,0-0.3,0-0.4-0.1c-0.1-0.1-0.2-0.2-0.3-0.5l-4.6-9.8c-0.1-0.2-0.2-0.4-0.2-0.5c0-0.2,0.1-0.3,0.2-0.5c0.1-0.1,0.3-0.2,0.5-0.2
		c0.2,0,0.3,0,0.4,0.1C229.6,68,229.8,68.2,229.9,68.4z"/>
	<path class="st2" d="M240.7,70.2v8.5c0,0.5,0,0.8,0,0.9c0,0.1-0.1,0.3-0.2,0.4c-0.1,0.1-0.3,0.1-0.4,0.1c-0.2,0-0.3,0-0.4-0.1
		c-0.1-0.1-0.2-0.2-0.2-0.4c0-0.1,0-0.4,0-0.9v-8.5c0-0.5,0-0.8,0-0.9c0-0.1,0.1-0.3,0.2-0.4c0.1-0.1,0.3-0.1,0.4-0.1
		c0.2,0,0.3,0,0.4,0.1c0.1,0.1,0.2,0.2,0.2,0.4C240.7,69.5,240.7,69.8,240.7,70.2z"/>
	<path class="st2" d="M249.3,70.2v8.5c0,0.5,0,0.8,0,0.9c0,0.1-0.1,0.3-0.2,0.4c-0.1,0.1-0.3,0.1-0.4,0.1c-0.2,0-0.3,0-0.4-0.1
		c-0.1-0.1-0.2-0.2-0.2-0.4c0-0.1,0-0.4,0-0.9v-8.5c0-0.5,0-0.8,0-0.9c0-0.1,0.1-0.3,0.2-0.4c0.1-0.1,0.3-0.1,0.4-0.1
		c0.2,0,0.3,0,0.4,0.1s0.2,0.2,0.2,0.4C249.3,69.5,249.3,69.8,249.3,70.2z"/>
	<path class="st2" d="M103.1,89.9l1.6,1.3c0.2,0.1,0.3,0.3,0.3,0.4c0,0.1,0,0.2-0.1,0.3c-0.1,0.1-0.2,0.1-0.3,0.1
		c-0.1,0-0.2-0.1-0.4-0.2l-1.6-1.3c-0.2-0.1-0.3-0.3-0.3-0.4c0-0.1,0-0.2,0.1-0.3c0.1-0.1,0.2-0.1,0.3-0.1
		C102.8,89.7,103,89.7,103.1,89.9z"/>
	<path class="st2" d="M113.6,91.6h-3.3c0,0.3-0.1,0.5-0.2,0.6c-0.1,0.1-0.3,0.2-0.5,0.2c-0.2,0-0.4-0.1-0.5-0.2
		c-0.1-0.1-0.2-0.4-0.2-0.7v-1.3h6.2v1.4l-2.3,6.9c-0.1,0.3-0.2,0.5-0.3,0.6s-0.3,0.1-0.4,0.1c-0.2,0-0.4-0.1-0.5-0.2
		s-0.2-0.3-0.2-0.5c0-0.1,0-0.3,0.1-0.5L113.6,91.6z"/>
	<path class="st2" d="M123.7,95.8h-5.9v-1.3h5.9V95.8z"/>
	<path class="st2" d="M128.9,97.2h1.9l-2,3.9c-0.1,0.2-0.3,0.3-0.5,0.3c-0.1,0-0.2,0-0.3-0.1c-0.1-0.1-0.1-0.2-0.1-0.3
		c0-0.1,0-0.2,0-0.3L128.9,97.2z"/>
	<path class="st2" d="M140.7,95.8h-5.9v-1.3h5.9V95.8z"/>
	<path class="st2" d="M149.2,95.8h-5.9v-1.3h5.9V95.8z"/>
	<path class="st2" d="M155.9,98.4c0,0.3-0.1,0.5-0.3,0.7s-0.5,0.3-0.8,0.3s-0.6-0.1-0.8-0.3c-0.2-0.2-0.3-0.4-0.3-0.7
		c0-0.3,0.1-0.5,0.3-0.7c0.2-0.2,0.5-0.3,0.8-0.3s0.6,0.1,0.8,0.3S155.9,98.2,155.9,98.4z"/>
	<path class="st2" d="M162.8,89.9l1.6,1.3c0.2,0.1,0.3,0.3,0.3,0.4c0,0.1,0,0.2-0.1,0.3c-0.1,0.1-0.2,0.1-0.3,0.1
		c-0.1,0-0.2-0.1-0.4-0.2l-1.6-1.3c-0.2-0.1-0.3-0.3-0.3-0.4c0-0.1,0-0.2,0.1-0.3c0.1-0.1,0.2-0.1,0.3-0.1
		C162.5,89.7,162.7,89.7,162.8,89.9z"/>
	<path class="st2" d="M172.9,98.4c0,0.3-0.1,0.5-0.3,0.7c-0.2,0.2-0.5,0.3-0.8,0.3s-0.6-0.1-0.8-0.3s-0.3-0.4-0.3-0.7
		c0-0.3,0.1-0.5,0.3-0.7s0.5-0.3,0.8-0.3s0.6,0.1,0.8,0.3C172.8,98,172.9,98.2,172.9,98.4z"/>
	<path class="st2" d="M184.3,103.4h-7.8c-0.3,0-0.6-0.1-0.7-0.2c-0.1-0.1-0.2-0.3-0.2-0.5s0.1-0.4,0.2-0.5c0.1-0.1,0.4-0.2,0.7-0.2
		h7.8c0.3,0,0.6,0.1,0.7,0.2c0.1,0.1,0.2,0.3,0.2,0.5c0,0.2-0.1,0.4-0.2,0.5S184.6,103.4,184.3,103.4z"/>
	<path class="st2" d="M189.6,91.6v8.5c0,0.5,0,0.8,0,0.9c0,0.1-0.1,0.3-0.2,0.4c-0.1,0.1-0.3,0.1-0.4,0.1c-0.2,0-0.3,0-0.4-0.1
		c-0.1-0.1-0.2-0.2-0.2-0.4c0-0.1,0-0.4,0-0.9v-8.5c0-0.5,0-0.8,0-0.9c0-0.1,0.1-0.3,0.2-0.4c0.1-0.1,0.3-0.1,0.4-0.1
		c0.2,0,0.3,0,0.4,0.1c0.1,0.1,0.2,0.2,0.2,0.4C189.6,90.8,189.6,91.1,189.6,91.6z"/>
	<path class="st2" d="M198.1,91.6v8.5c0,0.5,0,0.8,0,0.9c0,0.1-0.1,0.3-0.2,0.4c-0.1,0.1-0.3,0.1-0.4,0.1c-0.2,0-0.3,0-0.4-0.1
		c-0.1-0.1-0.2-0.2-0.2-0.4c0-0.1,0-0.4,0-0.9v-8.5c0-0.5,0-0.8,0-0.9c0-0.1,0.1-0.3,0.2-0.4c0.1-0.1,0.3-0.1,0.4-0.1
		c0.2,0,0.3,0,0.4,0.1s0.2,0.2,0.2,0.4C198.1,90.8,198.1,91.1,198.1,91.6z"/>
	<path class="st2" d="M225.9,90.4l-4.6,9.8c-0.1,0.2-0.2,0.4-0.3,0.5c-0.1,0.1-0.3,0.1-0.4,0.1c-0.2,0-0.4-0.1-0.5-0.2
		c-0.1-0.1-0.2-0.3-0.2-0.5c0-0.1,0.1-0.3,0.2-0.5l4.6-9.8c0.1-0.2,0.2-0.4,0.3-0.5c0.1-0.1,0.3-0.1,0.4-0.1c0.2,0,0.4,0.1,0.5,0.2
		c0.1,0.1,0.2,0.3,0.2,0.5C226.1,89.9,226,90.1,225.9,90.4z"/>
	<path class="st2" d="M243,90.4l-4.6,9.8c-0.1,0.2-0.2,0.4-0.3,0.5c-0.1,0.1-0.3,0.1-0.4,0.1c-0.2,0-0.4-0.1-0.5-0.2
		c-0.1-0.1-0.2-0.3-0.2-0.5c0-0.1,0.1-0.3,0.2-0.5l4.6-9.8c0.1-0.2,0.2-0.4,0.3-0.5c0.1-0.1,0.3-0.1,0.4-0.1c0.2,0,0.4,0.1,0.5,0.2
		c0.1,0.1,0.2,0.3,0.2,0.5C243.1,89.9,243.1,90.1,243,90.4z"/>
	<path class="st2" d="M256.7,97.2h1.9l-2,3.9c-0.1,0.2-0.3,0.3-0.5,0.3c-0.1,0-0.2,0-0.3-0.1c-0.1-0.1-0.1-0.2-0.1-0.3
		c0-0.1,0-0.2,0-0.3L256.7,97.2z"/>
	<path class="st2" d="M106.6,111.7l-4.6,9.8c-0.1,0.2-0.2,0.4-0.3,0.5c-0.1,0.1-0.3,0.1-0.4,0.1c-0.2,0-0.4-0.1-0.5-0.2
		s-0.2-0.3-0.2-0.5c0-0.1,0.1-0.3,0.2-0.5l4.6-9.8c0.1-0.2,0.2-0.4,0.3-0.5c0.1-0.1,0.3-0.1,0.4-0.1c0.2,0,0.4,0.1,0.5,0.2
		c0.1,0.1,0.2,0.3,0.2,0.5C106.7,111.2,106.7,111.4,106.6,111.7z"/>
	<path class="st2" d="M111.2,111.8h1.8l-0.5,3.7c0,0.2-0.1,0.3-0.1,0.4s-0.2,0.1-0.3,0.1c-0.1,0-0.2,0-0.3-0.1s-0.1-0.2-0.1-0.4
		L111.2,111.8z"/>
	<path class="st2" d="M162.8,111.2l1.6,1.3c0.2,0.1,0.3,0.3,0.3,0.4c0,0.1,0,0.2-0.1,0.3c-0.1,0.1-0.2,0.1-0.3,0.1
		c-0.1,0-0.2-0.1-0.4-0.2l-1.6-1.3c-0.2-0.1-0.3-0.3-0.3-0.4c0-0.1,0-0.2,0.1-0.3c0.1-0.1,0.2-0.1,0.3-0.1
		C162.5,111,162.7,111.1,162.8,111.2z"/>
	<path class="st2" d="M174.8,117.1h-5.9v-1.3h5.9V117.1z"/>
	<path class="st2" d="M181.4,119.8c0,0.3-0.1,0.5-0.3,0.7s-0.5,0.3-0.8,0.3s-0.6-0.1-0.8-0.3s-0.3-0.4-0.3-0.7
		c0-0.3,0.1-0.5,0.3-0.7s0.5-0.3,0.8-0.3s0.6,0.1,0.8,0.3S181.4,119.5,181.4,119.8z"/>
	<path class="st2" d="M196.9,111.2l1.6,1.3c0.2,0.1,0.3,0.3,0.3,0.4c0,0.1,0,0.2-0.1,0.3c-0.1,0.1-0.2,0.1-0.3,0.1
		c-0.1,0-0.2-0.1-0.4-0.2l-1.6-1.3c-0.2-0.1-0.3-0.3-0.3-0.4c0-0.1,0-0.2,0.1-0.3c0.1-0.1,0.2-0.1,0.3-0.1
		C196.6,111,196.8,111.1,196.9,111.2z"/>
	<path class="st2" d="M207,119.8c0,0.3-0.1,0.5-0.3,0.7s-0.5,0.3-0.8,0.3s-0.6-0.1-0.8-0.3s-0.3-0.4-0.3-0.7c0-0.3,0.1-0.5,0.3-0.7
		s0.5-0.3,0.8-0.3s0.6,0.1,0.8,0.3S207,119.5,207,119.8z"/>
	<path class="st2" d="M217.4,111.7l-4.6,9.8c-0.1,0.2-0.2,0.4-0.3,0.5c-0.1,0.1-0.3,0.1-0.4,0.1c-0.2,0-0.4-0.1-0.5-0.2
		c-0.1-0.1-0.2-0.3-0.2-0.5c0-0.1,0.1-0.3,0.2-0.5l4.6-9.8c0.1-0.2,0.2-0.4,0.3-0.5c0.1-0.1,0.3-0.1,0.4-0.1c0.2,0,0.4,0.1,0.5,0.2
		c0.1,0.1,0.2,0.3,0.2,0.5C217.5,111.2,217.5,111.4,217.4,111.7z"/>
	<path class="st2" d="M234.4,111.7l-4.6,9.8c-0.1,0.2-0.2,0.4-0.3,0.5c-0.1,0.1-0.3,0.1-0.4,0.1c-0.2,0-0.4-0.1-0.5-0.2
		c-0.1-0.1-0.2-0.3-0.2-0.5c0-0.1,0.1-0.3,0.2-0.5l4.6-9.8c0.1-0.2,0.2-0.4,0.3-0.5c0.1-0.1,0.3-0.1,0.4-0.1c0.2,0,0.4,0.1,0.5,0.2
		c0.1,0.1,0.2,0.3,0.2,0.5C234.6,111.2,234.5,111.4,234.4,111.7z"/>
	<path class="st2" d="M249.3,112.9v8.5c0,0.5,0,0.8,0,0.9c0,0.1-0.1,0.3-0.2,0.4c-0.1,0.1-0.3,0.1-0.4,0.1c-0.2,0-0.3,0-0.4-0.1
		c-0.1-0.1-0.2-0.2-0.2-0.4c0-0.1,0-0.4,0-0.9v-8.5c0-0.5,0-0.8,0-0.9c0-0.1,0.1-0.3,0.2-0.4c0.1-0.1,0.3-0.1,0.4-0.1
		c0.2,0,0.3,0,0.4,0.1s0.2,0.2,0.2,0.4C249.3,112.1,249.3,112.4,249.3,112.9z"/>
	<path class="st2" d="M260,111.7l-4.6,9.8c-0.1,0.2-0.2,0.4-0.3,0.5c-0.1,0.1-0.3,0.1-0.4,0.1c-0.2,0-0.4-0.1-0.5-0.2
		c-0.1-0.1-0.2-0.3-0.2-0.5c0-0.1,0.1-0.3,0.2-0.5l4.6-9.8c0.1-0.2,0.2-0.4,0.3-0.5c0.1-0.1,0.3-0.1,0.4-0.1c0.2,0,0.4,0.1,0.5,0.2
		c0.1,0.1,0.2,0.3,0.2,0.5C260.2,111.2,260.1,111.4,260,111.7z"/>
	<path class="st2" d="M269.5,124.7h-7.8c-0.3,0-0.6-0.1-0.7-0.2c-0.1-0.1-0.2-0.3-0.2-0.5s0.1-0.4,0.2-0.5c0.1-0.1,0.4-0.2,0.7-0.2
		h7.8c0.3,0,0.6,0.1,0.7,0.2c0.1,0.1,0.2,0.3,0.2,0.5c0,0.2-0.1,0.4-0.2,0.5C270.1,124.7,269.9,124.7,269.5,124.7z"/>
	<path class="st2" d="M275.2,119.8c0,0.3-0.1,0.5-0.3,0.7s-0.5,0.3-0.8,0.3c-0.3,0-0.6-0.1-0.8-0.3s-0.3-0.4-0.3-0.7
		c0-0.3,0.1-0.5,0.3-0.7s0.5-0.3,0.8-0.3c0.3,0,0.6,0.1,0.8,0.3S275.2,119.5,275.2,119.8z"/>
	<path class="st2" d="M281.7,111.8h1.8l-0.5,3.7c0,0.2-0.1,0.3-0.1,0.4c-0.1,0.1-0.2,0.1-0.3,0.1c-0.1,0-0.2,0-0.3-0.1
		s-0.1-0.2-0.1-0.4L281.7,111.8z"/>
	<path class="st2" d="M189.6,134.2v8.5c0,0.5,0,0.8,0,0.9c0,0.1-0.1,0.3-0.2,0.4c-0.1,0.1-0.3,0.1-0.4,0.1c-0.2,0-0.3,0-0.4-0.1
		c-0.1-0.1-0.2-0.2-0.2-0.4c0-0.1,0-0.4,0-0.9v-8.5c0-0.5,0-0.8,0-0.9c0-0.1,0.1-0.3,0.2-0.4c0.1-0.1,0.3-0.1,0.4-0.1
		c0.2,0,0.3,0,0.4,0.1c0.1,0.1,0.2,0.2,0.2,0.4C189.6,133.4,189.6,133.7,189.6,134.2z"/>
	<path class="st2" d="M232.2,134.2v8.5c0,0.5,0,0.8,0,0.9c0,0.1-0.1,0.3-0.2,0.4c-0.1,0.1-0.3,0.1-0.4,0.1c-0.2,0-0.3,0-0.4-0.1
		c-0.1-0.1-0.2-0.2-0.2-0.4c0-0.1,0-0.4,0-0.9v-8.5c0-0.5,0-0.8,0-0.9c0-0.1,0.1-0.3,0.2-0.4s0.3-0.1,0.4-0.1c0.2,0,0.3,0,0.4,0.1
		c0.1,0.1,0.2,0.2,0.2,0.4C232.2,133.4,232.2,133.7,232.2,134.2z"/>
	<path class="st2" d="M243,133l-4.6,9.8c-0.1,0.2-0.2,0.4-0.3,0.5c-0.1,0.1-0.3,0.1-0.4,0.1c-0.2,0-0.4-0.1-0.5-0.2
		c-0.1-0.1-0.2-0.3-0.2-0.5c0-0.1,0.1-0.3,0.2-0.5l4.6-9.8c0.1-0.2,0.2-0.4,0.3-0.5c0.1-0.1,0.3-0.1,0.4-0.1c0.2,0,0.4,0.1,0.5,0.2
		c0.1,0.1,0.2,0.3,0.2,0.5C243.1,132.6,243.1,132.7,243,133z"/>
	<path class="st2" d="M251.5,133l-4.6,9.8c-0.1,0.2-0.2,0.4-0.3,0.5c-0.1,0.1-0.3,0.1-0.4,0.1c-0.2,0-0.4-0.1-0.5-0.2
		c-0.1-0.1-0.2-0.3-0.2-0.5c0-0.1,0.1-0.3,0.2-0.5l4.6-9.8c0.1-0.2,0.2-0.4,0.3-0.5c0.1-0.1,0.3-0.1,0.4-0.1c0.2,0,0.4,0.1,0.5,0.2
		c0.1,0.1,0.2,0.3,0.2,0.5C251.6,132.6,251.6,132.7,251.5,133z"/>
	<path class="st2" d="M189.6,155.5v8.5c0,0.5,0,0.8,0,0.9c0,0.1-0.1,0.3-0.2,0.4c-0.1,0.1-0.3,0.1-0.4,0.1c-0.2,0-0.3,0-0.4-0.1
		c-0.1-0.1-0.2-0.2-0.2-0.4c0-0.1,0-0.4,0-0.9v-8.5c0-0.5,0-0.8,0-0.9c0-0.1,0.1-0.3,0.2-0.4c0.1-0.1,0.3-0.1,0.4-0.1
		c0.2,0,0.3,0,0.4,0.1c0.1,0.1,0.2,0.2,0.2,0.4C189.6,154.7,189.6,155,189.6,155.5z"/>
	<path class="st2" d="M201.3,167.4h-7.8c-0.3,0-0.6-0.1-0.7-0.2c-0.1-0.1-0.2-0.3-0.2-0.5s0.1-0.4,0.2-0.5c0.1-0.1,0.4-0.2,0.7-0.2
		h7.8c0.3,0,0.6,0.1,0.7,0.2c0.1,0.1,0.2,0.3,0.2,0.5c0,0.2-0.1,0.4-0.2,0.5C201.9,167.3,201.7,167.4,201.3,167.4z"/>
	<path class="st2" d="M243,154.3l-4.6,9.8c-0.1,0.2-0.2,0.4-0.3,0.5c-0.1,0.1-0.3,0.1-0.4,0.1c-0.2,0-0.4-0.1-0.5-0.2
		c-0.1-0.1-0.2-0.3-0.2-0.5c0-0.1,0.1-0.3,0.2-0.5l4.6-9.8c0.1-0.2,0.2-0.4,0.3-0.5c0.1-0.1,0.3-0.1,0.4-0.1c0.2,0,0.4,0.1,0.5,0.2
		c0.1,0.1,0.2,0.3,0.2,0.5C243.1,153.9,243.1,154,243,154.3z"/>
	<path class="st2" d="M189.6,176.8v8.5c0,0.5,0,0.8,0,0.9c0,0.1-0.1,0.3-0.2,0.4c-0.1,0.1-0.3,0.1-0.4,0.1c-0.2,0-0.3,0-0.4-0.1
		c-0.1-0.1-0.2-0.2-0.2-0.4c0-0.1,0-0.4,0-0.9v-8.5c0-0.5,0-0.8,0-0.9c0-0.1,0.1-0.3,0.2-0.4c0.1-0.1,0.3-0.1,0.4-0.1
		c0.2,0,0.3,0,0.4,0.1c0.1,0.1,0.2,0.2,0.2,0.4C189.6,176,189.6,176.3,189.6,176.8z"/>
	<path class="st2" d="M200.4,181h-5.9v-1.3h5.9V181z"/>
	<path class="st2" d="M232.2,176.8v8.5c0,0.5,0,0.8,0,0.9c0,0.1-0.1,0.3-0.2,0.4c-0.1,0.1-0.3,0.1-0.4,0.1c-0.2,0-0.3,0-0.4-0.1
		c-0.1-0.1-0.2-0.2-0.2-0.4c0-0.1,0-0.4,0-0.9v-8.5c0-0.5,0-0.8,0-0.9c0-0.1,0.1-0.3,0.2-0.4s0.3-0.1,0.4-0.1c0.2,0,0.3,0,0.4,0.1
		c0.1,0.1,0.2,0.2,0.2,0.4C232.2,176,232.2,176.3,232.2,176.8z"/>
	<path class="st2" d="M189.6,198.1v8.5c0,0.5,0,0.8,0,0.9c0,0.1-0.1,0.3-0.2,0.4c-0.1,0.1-0.3,0.1-0.4,0.1c-0.2,0-0.3,0-0.4-0.1
		c-0.1-0.1-0.2-0.2-0.2-0.4c0-0.1,0-0.4,0-0.9v-8.5c0-0.5,0-0.8,0-0.9c0-0.1,0.1-0.3,0.2-0.4c0.1-0.1,0.3-0.1,0.4-0.1
		c0.2,0,0.3,0,0.4,0.1c0.1,0.1,0.2,0.2,0.2,0.4C189.6,197.3,189.6,197.6,189.6,198.1z"/>
	<path class="st2" d="M226,201h-6.1c-0.3,0-0.6-0.1-0.7-0.2c-0.1-0.1-0.2-0.3-0.2-0.5c0-0.2,0.1-0.4,0.2-0.5
		c0.1-0.1,0.4-0.2,0.7-0.2h6.1c0.3,0,0.6,0.1,0.7,0.2c0.1,0.1,0.2,0.3,0.2,0.5c0,0.2-0.1,0.4-0.2,0.5C226.6,201,226.4,201,226,201z
		 M226,203.7h-6.1c-0.3,0-0.6-0.1-0.7-0.2c-0.1-0.1-0.2-0.3-0.2-0.5s0.1-0.4,0.2-0.5c0.1-0.1,0.4-0.2,0.7-0.2h6.1
		c0.3,0,0.6,0.1,0.7,0.2c0.1,0.1,0.2,0.3,0.2,0.5s-0.1,0.4-0.2,0.5C226.6,203.6,226.4,203.7,226,203.7z"/>
	<path class="st2" d="M232.2,198.1v8.5c0,0.5,0,0.8,0,0.9c0,0.1-0.1,0.3-0.2,0.4c-0.1,0.1-0.3,0.1-0.4,0.1c-0.2,0-0.3,0-0.4-0.1
		c-0.1-0.1-0.2-0.2-0.2-0.4c0-0.1,0-0.4,0-0.9v-8.5c0-0.5,0-0.8,0-0.9c0-0.1,0.1-0.3,0.2-0.4c0.1-0.1,0.3-0.1,0.4-0.1
		c0.2,0,0.3,0,0.4,0.1c0.1,0.1,0.2,0.2,0.2,0.4C232.2,197.3,232.2,197.6,232.2,198.1z"/>
	<path class="st2" d="M189.6,219.4v8.5c0,0.5,0,0.8,0,0.9c0,0.1-0.1,0.3-0.2,0.4c-0.1,0.1-0.3,0.1-0.4,0.1c-0.2,0-0.3,0-0.4-0.1
		c-0.1-0.1-0.2-0.2-0.2-0.4c0-0.1,0-0.4,0-0.9v-8.5c0-0.5,0-0.8,0-0.9c0-0.1,0.1-0.3,0.2-0.4c0.1-0.1,0.3-0.1,0.4-0.1
		c0.2,0,0.3,0,0.4,0.1c0.1,0.1,0.2,0.2,0.2,0.4C189.6,218.6,189.6,218.9,189.6,219.4z"/>
	<path class="st2" d="M232.2,219.4v8.5c0,0.5,0,0.8,0,0.9c0,0.1-0.1,0.3-0.2,0.4c-0.1,0.1-0.3,0.1-0.4,0.1c-0.2,0-0.3,0-0.4-0.1
		c-0.1-0.1-0.2-0.2-0.2-0.4c0-0.1,0-0.4,0-0.9v-8.5c0-0.5,0-0.8,0-0.9c0-0.1,0.1-0.3,0.2-0.4s0.3-0.1,0.4-0.1c0.2,0,0.3,0,0.4,0.1
		c0.1,0.1,0.2,0.2,0.2,0.4C232.2,218.6,232.2,218.9,232.2,219.4z"/>
	<path class="st2" d="M12.8,244.9H6.9v-1.3h5.9V244.9z"/>
	<path class="st2" d="M21.4,244.9h-5.9v-1.3h5.9V244.9z"/>
	<path class="st2" d="M29.9,244.9h-5.9v-1.3h5.9V244.9z"/>
	<path class="st2" d="M38.4,244.9h-5.9v-1.3h5.9V244.9z"/>
	<path class="st2" d="M46.9,244.9H41v-1.3h5.9V244.9z"/>
	<path class="st2" d="M55.5,244.9h-5.9v-1.3h5.9V244.9z"/>
	<path class="st2" d="M64,244.9H58v-1.3H64V244.9z"/>
	<path class="st2" d="M72.5,244.9h-5.9v-1.3h5.9V244.9z"/>
	<path class="st2" d="M81,244.9h-5.9v-1.3H81V244.9z"/>
	<path class="st2" d="M89.6,244.9h-5.9v-1.3h5.9V244.9z"/>
	<path class="st2" d="M98.1,244.9h-5.9v-1.3h5.9V244.9z"/>
	<path class="st2" d="M106.6,244.9h-5.9v-1.3h5.9V244.9z"/>
	<path class="st2" d="M115.1,244.9h-5.9v-1.3h5.9V244.9z"/>
	<path class="st2" d="M123.7,244.9h-5.9v-1.3h5.9V244.9z"/>
	<path class="st2" d="M132.2,244.9h-5.9v-1.3h5.9V244.9z"/>
	<path class="st2" d="M140.7,244.9h-5.9v-1.3h5.9V244.9z"/>
	<path class="st2" d="M149.2,244.9h-5.9v-1.3h5.9V244.9z"/>
	<path class="st2" d="M157.8,244.9h-5.9v-1.3h5.9V244.9z"/>
	<path class="st2" d="M166.3,244.9h-5.9v-1.3h5.9V244.9z"/>
	<path class="st2" d="M174.8,244.9h-5.9v-1.3h5.9V244.9z"/>
	<path class="st2" d="M183.3,239.5l-4.6,9.8c-0.1,0.2-0.2,0.4-0.3,0.5c-0.1,0.1-0.3,0.1-0.4,0.1c-0.2,0-0.4-0.1-0.5-0.2
		c-0.1-0.1-0.2-0.3-0.2-0.5c0-0.1,0.1-0.3,0.2-0.5l4.6-9.8c0.1-0.2,0.2-0.4,0.3-0.5c0.1-0.1,0.3-0.1,0.4-0.1c0.2,0,0.4,0.1,0.5,0.2
		c0.1,0.1,0.2,0.3,0.2,0.5C183.4,239.1,183.4,239.3,183.3,239.5z"/>
	<path class="st2" d="M197.1,246.4h1.9l-2,3.9c-0.1,0.2-0.3,0.3-0.5,0.3c-0.1,0-0.2,0-0.3-0.1c-0.1-0.1-0.1-0.2-0.1-0.3
		c0-0.1,0-0.2,0-0.3L197.1,246.4z"/>
	<path class="st2" d="M224.1,247.6c0,0.3-0.1,0.5-0.3,0.7c-0.2,0.2-0.5,0.3-0.8,0.3s-0.6-0.1-0.8-0.3c-0.2-0.2-0.3-0.4-0.3-0.7
		s0.1-0.5,0.3-0.7s0.5-0.3,0.8-0.3s0.6,0.1,0.8,0.3C224,247.1,224.1,247.3,224.1,247.6z"/>
	<path class="st2" d="M238.4,238.9l4.6,9.8c0,0.1,0.1,0.2,0.1,0.4c0,0.1,0,0.2,0,0.2c0,0.2-0.1,0.3-0.2,0.4s-0.3,0.2-0.5,0.2
		c-0.2,0-0.3,0-0.4-0.1c-0.1-0.1-0.2-0.2-0.3-0.5l-4.6-9.8c-0.1-0.2-0.2-0.4-0.2-0.5c0-0.2,0.1-0.3,0.2-0.5c0.1-0.1,0.3-0.2,0.5-0.2
		c0.2,0,0.3,0,0.4,0.1C238.2,238.5,238.3,238.7,238.4,238.9z"/>
	<path class="st2" d="M251.5,244.9h-5.9v-1.3h5.9V244.9z"/>
	<path class="st2" d="M260.1,244.9h-5.9v-1.3h5.9V244.9z"/>
	<path class="st2" d="M268.6,244.9h-5.9v-1.3h5.9V244.9z"/>
	<path class="st2" d="M277.1,244.9h-5.9v-1.3h5.9V244.9z"/>
	<path class="st2" d="M285.6,244.9h-5.9v-1.3h5.9V244.9z"/>
	<path class="st2" d="M294.2,244.9h-5.9v-1.3h5.9V244.9z"/>
	<path class="st2" d="M302.7,244.9h-5.9v-1.3h5.9V244.9z"/>
	<path class="st2" d="M311.2,244.9h-5.9v-1.3h5.9V244.9z"/>
	<path class="st2" d="M317.8,247.6c0,0.3-0.1,0.5-0.3,0.7c-0.2,0.2-0.5,0.3-0.8,0.3c-0.3,0-0.6-0.1-0.8-0.3
		c-0.2-0.2-0.3-0.4-0.3-0.7s0.1-0.5,0.3-0.7s0.5-0.3,0.8-0.3c0.3,0,0.6,0.1,0.8,0.3S317.8,247.3,317.8,247.6z"/>
	<path class="st2" d="M329.2,252.6h-7.8c-0.3,0-0.6-0.1-0.7-0.2c-0.1-0.1-0.2-0.3-0.2-0.5s0.1-0.4,0.2-0.5c0.1-0.1,0.4-0.2,0.7-0.2
		h7.8c0.3,0,0.6,0.1,0.7,0.2c0.1,0.1,0.2,0.3,0.2,0.5c0,0.2-0.1,0.4-0.2,0.5C329.8,252.5,329.6,252.6,329.2,252.6z"/>
</g>
</svg>
