<?xml version="1.0" encoding="utf-8"?>
<!-- Generator: Adobe Illustrator 25.2.3, SVG Export Plug-In . SVG Version: 6.00 Build 0)  -->
<svg version="1.1" id="Layer_1" xmlns="http://www.w3.org/2000/svg" xmlns:xlink="http://www.w3.org/1999/xlink" x="0px" y="0px"
	 viewBox="0 0 339 135.3" style="enable-background:new 0 0 339 135.3;" xml:space="preserve">
<style type="text/css">
	.st0{fill:#FFFFFF;stroke:#FFFFFF;stroke-miterlimit:10;}
</style>
<g>
	<path class="st0" d="M320.5,8.9c0-0.4,0.1-0.9,0.2-1.4s0.3-1.1,0.7-1.7s0.6-1.1,0.7-1.2c0,0,0.1-0.1,0.2-0.1s0.1,0,0.2,0.1
		s0.1,0.1,0.1,0.2v0.1c-0.4,0.8-0.7,1.5-0.9,2.1s-0.3,1.3-0.3,1.9s0.1,1.3,0.3,1.9s0.5,1.4,0.9,2.1V13c0,0.1,0,0.1-0.1,0.2
		s-0.1,0.1-0.2,0.1s-0.1,0-0.2-0.1s-0.4-0.5-0.7-1.2s-0.6-1.2-0.7-1.7S320.5,9.4,320.5,8.9z"/>
	<path class="st0" d="M313.3,23.3c0-0.4,0.1-0.9,0.2-1.4s0.3-1.1,0.7-1.7s0.6-1.1,0.7-1.2c0,0,0.1-0.1,0.2-0.1s0.1,0,0.2,0.1
		s0.1,0.1,0.1,0.2v0.1c-0.4,0.8-0.7,1.5-0.9,2.1s-0.3,1.3-0.3,1.9s0.1,1.3,0.3,1.9s0.5,1.4,0.9,2.1v0.1c0,0.1,0,0.1-0.1,0.2
		s-0.1,0.1-0.2,0.1s-0.1,0-0.2-0.1s-0.4-0.5-0.7-1.2s-0.6-1.2-0.7-1.7S313.3,23.8,313.3,23.3z"/>
	<path class="st0" d="M335.1,23.3c0,0.4-0.1,0.9-0.2,1.4s-0.3,1.1-0.7,1.7s-0.6,1.1-0.7,1.2c0,0-0.1,0.1-0.2,0.1s-0.1,0-0.2-0.1
		s-0.1-0.1-0.1-0.2v-0.1c0.4-0.8,0.7-1.5,0.9-2.1s0.3-1.3,0.3-1.9s-0.1-1.3-0.3-1.9s-0.5-1.4-0.9-2.1v-0.1c0-0.1,0-0.1,0.1-0.2
		s0.1-0.1,0.2-0.1s0.1,0,0.2,0.1s0.4,0.5,0.7,1.2s0.6,1.2,0.7,1.7S335.1,22.8,335.1,23.3z"/>
	<path class="st0" d="M154.9,39.2h0.2c0.2,0,0.4,0.1,0.6,0.2s0.2,0.3,0.2,0.6c0,0.2-0.1,0.4-0.2,0.6s-0.3,0.2-0.6,0.2h-0.2
		c-0.2,0-0.4-0.1-0.6-0.2s-0.2-0.3-0.2-0.6c0-0.2,0.1-0.4,0.2-0.6S154.6,39.2,154.9,39.2z"/>
	<path class="st0" d="M165.4,43.9h-6.5c-0.1,0-0.2,0-0.3-0.1s-0.1-0.1-0.1-0.2s0-0.1,0.1-0.2s0.1-0.1,0.3-0.1h6.5
		c0.1,0,0.2,0,0.3,0.1s0.1,0.1,0.1,0.2s0,0.1-0.1,0.2S165.6,43.9,165.4,43.9z"/>
	<path class="st0" d="M172.6,43.9h-6.5c-0.1,0-0.2,0-0.3-0.1s-0.1-0.1-0.1-0.2s0-0.1,0.1-0.2s0.1-0.1,0.3-0.1h6.5
		c0.1,0,0.2,0,0.3,0.1s0.1,0.1,0.1,0.2s0,0.1-0.1,0.2S172.8,43.9,172.6,43.9z"/>
	<path class="st0" d="M179.8,43.9h-6.5c-0.1,0-0.2,0-0.3-0.1s-0.1-0.1-0.1-0.2s0-0.1,0.1-0.2s0.1-0.1,0.3-0.1h6.5
		c0.1,0,0.2,0,0.3,0.1s0.1,0.1,0.1,0.2s0,0.1-0.1,0.2S180,43.9,179.8,43.9z"/>
	<path class="st0" d="M183.7,39.2h0.2c0.2,0,0.4,0.1,0.6,0.2s0.2,0.3,0.2,0.6c0,0.2-0.1,0.4-0.2,0.6s-0.3,0.2-0.6,0.2h-0.2
		c-0.2,0-0.4-0.1-0.6-0.2s-0.2-0.3-0.2-0.6c0-0.2,0.1-0.4,0.2-0.6S183.5,39.2,183.7,39.2z"/>
	<path class="st0" d="M276.4,38.9h1.6l-1.7,3.2c-0.1,0.2-0.2,0.3-0.4,0.3c-0.1,0-0.2,0-0.2-0.1s-0.1-0.2-0.1-0.2V42L276.4,38.9z"/>
	<path class="st0" d="M287.1,36.9v0.7h-5v-0.7H287.1z"/>
	<path class="st0" d="M291.7,39.2h0.2c0.2,0,0.4,0.1,0.6,0.2s0.2,0.3,0.2,0.6c0,0.2-0.1,0.4-0.2,0.6s-0.3,0.2-0.6,0.2h-0.2
		c-0.2,0-0.4-0.1-0.6-0.2s-0.2-0.3-0.2-0.6c0-0.2,0.1-0.4,0.2-0.6S291.5,39.2,291.7,39.2z"/>
	<path class="st0" d="M316.7,43.9h-6.5c-0.1,0-0.2,0-0.3-0.1s-0.1-0.1-0.1-0.2s0-0.1,0.1-0.2s0.1-0.1,0.3-0.1h6.5
		c0.1,0,0.2,0,0.3,0.1s0.1,0.1,0.1,0.2s0,0.1-0.1,0.2S316.8,43.9,316.7,43.9z"/>
	<path class="st0" d="M323.9,43.9h-6.5c-0.1,0-0.2,0-0.3-0.1s-0.1-0.1-0.1-0.2s0-0.1,0.1-0.2s0.1-0.1,0.3-0.1h6.5
		c0.1,0,0.2,0,0.3,0.1s0.1,0.1,0.1,0.2s0,0.1-0.1,0.2S324,43.9,323.9,43.9z"/>
	<path class="st0" d="M327.9,37.7c0,0.4-0.1,0.9-0.2,1.4s-0.3,1.1-0.7,1.7s-0.6,1.1-0.7,1.2c0,0-0.1,0.1-0.2,0.1s-0.1,0-0.2-0.1
		s-0.1-0.1-0.1-0.2v-0.1c0.4-0.8,0.7-1.5,0.9-2.1s0.3-1.3,0.3-1.9s-0.1-1.3-0.3-1.9s-0.5-1.4-0.9-2.1v-0.1c0-0.1,0-0.1,0.1-0.2
		s0.1-0.1,0.2-0.1s0.1,0,0.2,0.1s0.4,0.5,0.7,1.2s0.6,1.2,0.7,1.7S327.9,37.2,327.9,37.7z"/>
	<path class="st0" d="M45.2,47.2l4,8.5c0,0.1,0.1,0.1,0.1,0.2c0,0.1,0,0.1-0.1,0.2s-0.1,0.1-0.2,0.1s-0.2-0.1-0.3-0.2l-4-8.5
		c0-0.1-0.1-0.1-0.1-0.2s0-0.1,0.1-0.2s0.1-0.1,0.2-0.1C45,46.9,45.1,47,45.2,47.2z"/>
	<path class="st0" d="M54.4,48v8.2c0,0.1,0,0.2-0.1,0.3s-0.1,0.1-0.2,0.1s-0.1,0-0.2-0.1s-0.1-0.1-0.1-0.3V48c0-0.1,0-0.2,0.1-0.3
		s0.1-0.1,0.2-0.1s0.1,0,0.2,0.1S54.4,47.9,54.4,48z"/>
	<path class="st0" d="M63.6,47.3l-4,8.5c-0.1,0.1-0.2,0.2-0.3,0.2c-0.1,0-0.1,0-0.2-0.1S59,55.8,59,55.7c0,0,0-0.1,0.1-0.2l4-8.5
		c0-0.1,0.1-0.1,0.1-0.2s0.1,0,0.1,0c0.1,0,0.1,0,0.2,0.1s0.1,0.1,0.1,0.2C63.6,47.2,63.6,47.2,63.6,47.3z"/>
	<path class="st0" d="M150,47.3l-4,8.5c-0.1,0.1-0.2,0.2-0.3,0.2s-0.1,0-0.2-0.1s-0.1-0.1-0.1-0.2c0,0,0-0.1,0.1-0.2l4-8.5
		c0-0.1,0.1-0.1,0.1-0.2s0.1,0,0.1,0c0.1,0,0.1,0,0.2,0.1s0.1,0.1,0.1,0.2C150,47.2,150,47.2,150,47.3z"/>
	<path class="st0" d="M157.2,47.3l-4,8.5c-0.1,0.1-0.2,0.2-0.3,0.2s-0.1,0-0.2-0.1s-0.1-0.1-0.1-0.2c0,0,0-0.1,0.1-0.2l4-8.5
		c0-0.1,0.1-0.1,0.1-0.2s0.1,0,0.1,0c0.1,0,0.1,0,0.2,0.1s0.1,0.1,0.1,0.2C157.2,47.2,157.2,47.2,157.2,47.3z"/>
	<path class="st0" d="M164.9,51h-5.4c-0.1,0-0.2,0-0.3-0.1s-0.1-0.1-0.1-0.2s0-0.1,0.1-0.2s0.1-0.1,0.3-0.1h5.4c0.1,0,0.2,0,0.3,0.1
		s0.1,0.1,0.1,0.2s0,0.1-0.1,0.2S165,51,164.9,51z M164.9,52.7h-5.4c-0.1,0-0.2,0-0.3-0.1s-0.1-0.1-0.1-0.2s0-0.1,0.1-0.2
		s0.1-0.1,0.3-0.1h5.4c0.1,0,0.2,0,0.3,0.1s0.1,0.1,0.1,0.2s0,0.1-0.1,0.2S165,52.7,164.9,52.7z"/>
	<path class="st0" d="M172.1,51h-5.4c-0.1,0-0.2,0-0.3-0.1s-0.1-0.1-0.1-0.2s0-0.1,0.1-0.2s0.1-0.1,0.3-0.1h5.4c0.1,0,0.2,0,0.3,0.1
		s0.1,0.1,0.1,0.2s0,0.1-0.1,0.2S172.2,51,172.1,51z M172.1,52.7h-5.4c-0.1,0-0.2,0-0.3-0.1s-0.1-0.1-0.1-0.2s0-0.1,0.1-0.2
		s0.1-0.1,0.3-0.1h5.4c0.1,0,0.2,0,0.3,0.1s0.1,0.1,0.1,0.2s0,0.1-0.1,0.2S172.2,52.7,172.1,52.7z"/>
	<path class="st0" d="M179.3,51h-5.4c-0.1,0-0.2,0-0.3-0.1s-0.1-0.1-0.1-0.2s0-0.1,0.1-0.2s0.1-0.1,0.3-0.1h5.4c0.1,0,0.2,0,0.3,0.1
		s0.1,0.1,0.1,0.2s0,0.1-0.1,0.2S179.4,51,179.3,51z M179.3,52.7h-5.4c-0.1,0-0.2,0-0.3-0.1s-0.1-0.1-0.1-0.2s0-0.1,0.1-0.2
		s0.1-0.1,0.3-0.1h5.4c0.1,0,0.2,0,0.3,0.1s0.1,0.1,0.1,0.2s0,0.1-0.1,0.2S179.4,52.7,179.3,52.7z"/>
	<path class="st0" d="M182,47.2l4,8.5c0,0.1,0.1,0.1,0.1,0.2c0,0.1,0,0.1-0.1,0.2s-0.1,0.1-0.2,0.1c-0.1,0-0.2-0.1-0.3-0.2l-4-8.5
		c0-0.1-0.1-0.1-0.1-0.2s0-0.1,0.1-0.2s0.1-0.1,0.2-0.1C181.9,46.9,181.9,47,182,47.2z"/>
	<path class="st0" d="M189.2,47.2l4,8.5c0,0.1,0.1,0.1,0.1,0.2c0,0.1,0,0.1-0.1,0.2s-0.1,0.1-0.2,0.1c-0.1,0-0.2-0.1-0.3-0.2l-4-8.5
		c0-0.1-0.1-0.1-0.1-0.2s0-0.1,0.1-0.2s0.1-0.1,0.2-0.1C189.1,46.9,189.1,47,189.2,47.2z"/>
	<path class="st0" d="M254.8,53.3h1.6l-1.7,3.2c-0.1,0.2-0.2,0.3-0.4,0.3c-0.1,0-0.2,0-0.2-0.1s-0.1-0.2-0.1-0.2v-0.1L254.8,53.3z"
		/>
	<path class="st0" d="M265.5,51.3V52h-5v-0.7H265.5z"/>
	<path class="st0" d="M269.4,47.7h1.6l-0.4,3.1c0,0.2-0.1,0.3-0.1,0.3s-0.1,0.1-0.2,0.1s-0.2,0-0.2-0.1s-0.1-0.2-0.1-0.3L269.4,47.7
		z"/>
	<path class="st0" d="M287.3,52.5c0,0.8-0.3,1.4-0.8,1.9c-0.5,0.5-1.2,0.8-1.9,0.8c-0.8,0-1.4-0.3-2-0.8s-0.8-1.2-0.8-1.9
		c0-0.8,0.3-1.4,0.8-1.9s1.2-0.8,2-0.8s1.4,0.3,1.9,0.8S287.3,51.8,287.3,52.5z M286.8,52.5c0-0.6-0.2-1.1-0.7-1.6s-1-0.7-1.6-0.7
		s-1.2,0.2-1.6,0.7s-0.7,1-0.7,1.6s0.2,1.1,0.7,1.6c0.5,0.5,1,0.7,1.6,0.7s1.2-0.2,1.6-0.7S286.8,53.1,286.8,52.5z"/>
	<path class="st0" d="M298.5,47.4l1.4,1.2l0.1,0.1v0.1c0,0.1,0,0.1-0.1,0.2s-0.1,0.1-0.2,0.1s-0.1,0-0.2-0.1l-1.4-1.2
		c-0.1-0.1-0.1-0.2-0.1-0.2c0-0.1,0-0.1,0.1-0.2s0.1-0.1,0.2-0.1C298.3,47.3,298.4,47.3,298.5,47.4z"/>
	<path class="st0" d="M308.7,51.3V52h-5v-0.7H308.7z"/>
	<path class="st0" d="M313.3,54h0.2c0.2,0,0.3,0.1,0.4,0.2s0.2,0.3,0.2,0.4c0,0.2-0.1,0.3-0.2,0.4s-0.3,0.2-0.4,0.2h-0.2
		c-0.2,0-0.3-0.1-0.4-0.2s-0.2-0.3-0.2-0.4c0-0.2,0.1-0.3,0.2-0.4S313.1,54,313.3,54z M313.9,48.2l-0.2,4c0,0.1,0,0.2-0.1,0.3
		s-0.1,0.1-0.2,0.1s-0.1,0-0.2-0.1s-0.1-0.1-0.1-0.3l-0.2-4c0-0.1,0-0.2,0-0.2c0-0.1,0-0.2,0.1-0.3s0.2-0.1,0.3-0.1s0.3,0,0.3,0.1
		s0.1,0.2,0.1,0.3C313.9,48,313.9,48.1,313.9,48.2z"/>
	<path class="st0" d="M320.8,48v8.2c0,0.1,0,0.2-0.1,0.3s-0.1,0.1-0.2,0.1s-0.1,0-0.2-0.1s-0.1-0.1-0.1-0.3V48c0-0.1,0-0.2,0.1-0.3
		s0.1-0.1,0.2-0.1s0.1,0,0.2,0.1S320.8,47.9,320.8,48z"/>
	<path class="st0" d="M32.4,68h0.2c0.2,0,0.4,0.1,0.6,0.2s0.2,0.3,0.2,0.6c0,0.2-0.1,0.4-0.2,0.6s-0.3,0.2-0.6,0.2h-0.2
		c-0.2,0-0.4-0.1-0.6-0.2s-0.2-0.3-0.2-0.6c0-0.2,0.1-0.4,0.2-0.6S32.2,68,32.4,68z"/>
	<path class="st0" d="M39,62.1h1.6l-0.4,3.1c0,0.2-0.1,0.3-0.1,0.3s-0.1,0.1-0.2,0.1s-0.2,0-0.2-0.1s-0.1-0.2-0.1-0.3L39,62.1z"/>
	<path class="st0" d="M47.2,66.3v2.5c0,0.1,0,0.2-0.1,0.3S47,69,46.9,69s-0.1,0-0.2-0.1s-0.1-0.1-0.1-0.3v-2.5h-2.2
		c-0.1,0-0.2,0-0.3-0.1S44,65.9,44,65.8s0-0.1,0.1-0.2s0.1-0.1,0.3-0.1h2.2v-2.4c0-0.1,0-0.2,0.1-0.3s0.1-0.1,0.2-0.1s0.1,0,0.2,0.1
		s0.1,0.1,0.1,0.3v2.4h2.2c0.1,0,0.2,0,0.3,0.1s0.1,0.1,0.1,0.2s0,0.1-0.1,0.2s-0.1,0.1-0.3,0.1h-2.2V66.3z"/>
	<path class="st0" d="M54.1,61.9l2.2,2.7c0.1,0.1,0.1,0.2,0.1,0.2c0,0.1,0,0.1-0.1,0.2s-0.1,0.1-0.2,0.1s-0.2-0.1-0.2-0.2l-1.8-2.3
		l-1.8,2.3c-0.1,0.1-0.2,0.2-0.2,0.2c-0.1,0-0.1,0-0.2-0.1s-0.1-0.1-0.1-0.2c0-0.1,0-0.1,0.1-0.2L54.1,61.9z"/>
	<path class="st0" d="M61.6,66.3v2.5c0,0.1,0,0.2-0.1,0.3s-0.1,0.1-0.2,0.1s-0.1,0-0.2-0.1S61,69,61,68.8v-2.5h-2.2
		c-0.1,0-0.2,0-0.3-0.1s-0.1-0.1-0.1-0.2s0-0.1,0.1-0.2s0.1-0.1,0.3-0.1H61v-2.4c0-0.1,0-0.2,0.1-0.3s0.1-0.1,0.2-0.1s0.1,0,0.2,0.1
		s0.1,0.1,0.1,0.3v2.4h2.2c0.1,0,0.2,0,0.3,0.1s0.1,0.1,0.1,0.2s0,0.1-0.1,0.2s-0.1,0.1-0.3,0.1H61.6z"/>
	<path class="st0" d="M68,61.8l1.4,1.2l0.1,0.1v0.1c0,0.1,0,0.1-0.1,0.2s-0.1,0.1-0.2,0.1s-0.1,0-0.2-0.1l-1.4-1.2
		c-0.1-0.1-0.1-0.2-0.1-0.2c0-0.1,0-0.1,0.1-0.2s0.1-0.1,0.2-0.1C67.9,61.7,67.9,61.7,68,61.8z"/>
	<path class="st0" d="M75.6,68h0.2c0.2,0,0.4,0.1,0.6,0.2s0.2,0.3,0.2,0.6c0,0.2-0.1,0.4-0.2,0.6s-0.3,0.2-0.6,0.2h-0.2
		c-0.2,0-0.4-0.1-0.6-0.2s-0.2-0.3-0.2-0.6c0-0.2,0.1-0.4,0.2-0.6S75.4,68,75.6,68z"/>
	<path class="st0" d="M142.8,61.7l-4,8.5c-0.1,0.1-0.2,0.2-0.3,0.2s-0.1,0-0.2-0.1s-0.1-0.1-0.1-0.2c0,0,0-0.1,0.1-0.2l4-8.5
		c0-0.1,0.1-0.1,0.1-0.2s0.1,0,0.1,0c0.1,0,0.1,0,0.2,0.1s0.1,0.1,0.1,0.2C142.8,61.6,142.8,61.6,142.8,61.7z"/>
	<path class="st0" d="M150,61.7l-4,8.5c-0.1,0.1-0.2,0.2-0.3,0.2s-0.1,0-0.2-0.1s-0.1-0.1-0.1-0.2c0,0,0-0.1,0.1-0.2l4-8.5
		c0-0.1,0.1-0.1,0.1-0.2s0.1,0,0.1,0c0.1,0,0.1,0,0.2,0.1s0.1,0.1,0.1,0.2C150,61.6,150,61.6,150,61.7z"/>
	<path class="st0" d="M157.7,65.4h-5.4c-0.1,0-0.2,0-0.3-0.1s-0.1-0.1-0.1-0.2c0-0.1,0-0.1,0.1-0.2s0.1-0.1,0.3-0.1h5.4
		c0.1,0,0.2,0,0.3,0.1s0.1,0.1,0.1,0.2c0,0.1,0,0.1-0.1,0.2S157.8,65.4,157.7,65.4z M157.7,67.1h-5.4c-0.1,0-0.2,0-0.3-0.1
		s-0.1-0.1-0.1-0.2s0-0.1,0.1-0.2s0.1-0.1,0.3-0.1h5.4c0.1,0,0.2,0,0.3,0.1s0.1,0.1,0.1,0.2s0,0.1-0.1,0.2S157.8,67.1,157.7,67.1z"
		/>
	<path class="st0" d="M162.4,62.4v8.2c0,0.1,0,0.2-0.1,0.3s-0.1,0.1-0.2,0.1c-0.1,0-0.1,0-0.2-0.1s-0.1-0.1-0.1-0.3v-8.2
		c0-0.1,0-0.2,0.1-0.3s0.1-0.1,0.2-0.1c0.1,0,0.1,0,0.2,0.1S162.4,62.3,162.4,62.4z"/>
	<path class="st0" d="M172.6,72.7h-6.5c-0.1,0-0.2,0-0.3-0.1s-0.1-0.1-0.1-0.2s0-0.1,0.1-0.2s0.1-0.1,0.3-0.1h6.5
		c0.1,0,0.2,0,0.3,0.1s0.1,0.1,0.1,0.2s0,0.1-0.1,0.2S172.8,72.7,172.6,72.7z"/>
	<path class="st0" d="M176.8,62.4v8.2c0,0.1,0,0.2-0.1,0.3s-0.1,0.1-0.2,0.1c-0.1,0-0.1,0-0.2-0.1s-0.1-0.1-0.1-0.3v-8.2
		c0-0.1,0-0.2,0.1-0.3s0.1-0.1,0.2-0.1c0.1,0,0.1,0,0.2,0.1S176.8,62.3,176.8,62.4z"/>
	<path class="st0" d="M186.5,65.4h-5.4c-0.1,0-0.2,0-0.3-0.1s-0.1-0.1-0.1-0.2c0-0.1,0-0.1,0.1-0.2s0.1-0.1,0.3-0.1h5.4
		c0.1,0,0.2,0,0.3,0.1s0.1,0.1,0.1,0.2c0,0.1,0,0.1-0.1,0.2S186.6,65.4,186.5,65.4z M186.5,67.1h-5.4c-0.1,0-0.2,0-0.3-0.1
		s-0.1-0.1-0.1-0.2s0-0.1,0.1-0.2s0.1-0.1,0.3-0.1h5.4c0.1,0,0.2,0,0.3,0.1s0.1,0.1,0.1,0.2s0,0.1-0.1,0.2S186.6,67.1,186.5,67.1z"
		/>
	<path class="st0" d="M189.2,61.6l4,8.5c0,0.1,0.1,0.1,0.1,0.2c0,0.1,0,0.1-0.1,0.2s-0.1,0.1-0.2,0.1c-0.1,0-0.2-0.1-0.3-0.2l-4-8.5
		c0-0.1-0.1-0.1-0.1-0.2c0-0.1,0-0.1,0.1-0.2s0.1-0.1,0.2-0.1C189.1,61.3,189.1,61.4,189.2,61.6z"/>
	<path class="st0" d="M196.4,61.6l4,8.5c0,0.1,0.1,0.1,0.1,0.2c0,0.1,0,0.1-0.1,0.2s-0.1,0.1-0.2,0.1c-0.1,0-0.2-0.1-0.3-0.2l-4-8.5
		c0-0.1-0.1-0.1-0.1-0.2c0-0.1,0-0.1,0.1-0.2s0.1-0.1,0.2-0.1C196.3,61.3,196.3,61.4,196.4,61.6z"/>
	<path class="st0" d="M233.2,67.7h1.6l-1.7,3.2c-0.1,0.2-0.2,0.3-0.4,0.3c-0.1,0-0.2,0-0.2-0.1s-0.1-0.2-0.1-0.2v-0.1L233.2,67.7z"
		/>
	<path class="st0" d="M243.9,65.7v0.7h-5v-0.7H243.9z"/>
	<path class="st0" d="M247.8,62.1h1.6l-0.4,3.1c0,0.2-0.1,0.3-0.1,0.3s-0.1,0.1-0.2,0.1s-0.2,0-0.2-0.1s-0.1-0.2-0.1-0.3L247.8,62.1
		z"/>
	<path class="st0" d="M258.3,65.7v0.7h-5v-0.7H258.3z"/>
	<path class="st0" d="M265.5,65.7v0.7h-5v-0.7H265.5z"/>
	<path class="st0" d="M272.7,65.7v0.7h-5v-0.7H272.7z"/>
	<path class="st0" d="M279.9,65.7v0.7h-5v-0.7H279.9z"/>
	<path class="st0" d="M287.1,65.7v0.7h-5v-0.7H287.1z"/>
	<path class="st0" d="M294.3,65.7v0.7h-5v-0.7H294.3z"/>
	<path class="st0" d="M301.5,65.7v0.7h-5v-0.7H301.5z"/>
	<path class="st0" d="M308.7,65.7v0.7h-5v-0.7H308.7z"/>
	<path class="st0" d="M315.9,65.7v0.7h-5v-0.7H315.9z"/>
	<path class="st0" d="M320.1,61.8l1.4,1.2l0.1,0.1v0.1c0,0.1,0,0.1-0.1,0.2s-0.1,0.1-0.2,0.1s-0.1,0-0.2-0.1l-1.4-1.2
		c-0.1-0.1-0.1-0.2-0.1-0.2c0-0.1,0-0.1,0.1-0.2s0.1-0.1,0.2-0.1C319.9,61.7,320,61.7,320.1,61.8z"/>
	<path class="st0" d="M330.3,65.7v0.7h-5v-0.7H330.3z"/>
	<path class="st0" d="M334.9,68h0.2c0.2,0,0.4,0.1,0.6,0.2s0.2,0.3,0.2,0.6c0,0.2-0.1,0.4-0.2,0.6s-0.3,0.2-0.6,0.2h-0.2
		c-0.2,0-0.4-0.1-0.6-0.2s-0.2-0.3-0.2-0.6c0-0.2,0.1-0.4,0.2-0.6S334.7,68,334.9,68z"/>
	<path class="st0" d="M18,82.4h0.2c0.2,0,0.4,0.1,0.6,0.2s0.2,0.3,0.2,0.6c0,0.2-0.1,0.4-0.2,0.6S18.5,84,18.2,84H18
		c-0.2,0-0.4-0.1-0.6-0.2s-0.2-0.3-0.2-0.6c0-0.2,0.1-0.4,0.2-0.6S17.8,82.4,18,82.4z"/>
	<path class="st0" d="M24.6,76.5h1.6l-0.4,3.1c0,0.2-0.1,0.3-0.1,0.3S25.6,80,25.5,80s-0.2,0-0.2-0.1s-0.1-0.2-0.1-0.3L24.6,76.5z"
		/>
	<path class="st0" d="M34.8,76.1l-4,8.5c-0.1,0.1-0.2,0.2-0.3,0.2c-0.1,0-0.1,0-0.2-0.1s-0.1-0.1-0.1-0.2c0,0,0-0.1,0.1-0.2l4-8.5
		c0-0.1,0.1-0.1,0.1-0.2s0.1,0,0.1,0c0.1,0,0.1,0,0.2,0.1s0.1,0.1,0.1,0.2C34.8,76,34.8,76,34.8,76.1z"/>
	<path class="st0" d="M42,76.1l-4,8.5c-0.1,0.1-0.2,0.2-0.3,0.2c-0.1,0-0.1,0-0.2-0.1s-0.1-0.1-0.1-0.2c0,0,0-0.1,0.1-0.2l4-8.5
		c0-0.1,0.1-0.1,0.1-0.2s0.1,0,0.1,0c0.1,0,0.1,0,0.2,0.1s0.1,0.1,0.1,0.2C42,76,42,76,42,76.1z"/>
	<path class="st0" d="M49.2,76.1l-4,8.5c-0.1,0.1-0.2,0.2-0.3,0.2c-0.1,0-0.1,0-0.2-0.1s-0.1-0.1-0.1-0.2c0,0,0-0.1,0.1-0.2l4-8.5
		c0-0.1,0.1-0.1,0.1-0.2s0.1,0,0.1,0c0.1,0,0.1,0,0.2,0.1s0.1,0.1,0.1,0.2C49.2,76,49.2,76,49.2,76.1z"/>
	<path class="st0" d="M54.4,76.8V85c0,0.1,0,0.2-0.1,0.3s-0.1,0.1-0.2,0.1s-0.1,0-0.2-0.1s-0.1-0.1-0.1-0.3v-8.2
		c0-0.1,0-0.2,0.1-0.3s0.1-0.1,0.2-0.1s0.1,0,0.2,0.1S54.4,76.7,54.4,76.8z"/>
	<path class="st0" d="M59.6,76l4,8.5c0,0.1,0.1,0.1,0.1,0.2c0,0.1,0,0.1-0.1,0.2S63.5,85,63.4,85s-0.2-0.1-0.3-0.2l-4-8.5
		c0-0.1-0.1-0.1-0.1-0.2c0-0.1,0-0.1,0.1-0.2s0.1-0.1,0.2-0.1C59.4,75.7,59.5,75.8,59.6,76z"/>
	<path class="st0" d="M66.8,76l4,8.5c0,0.1,0.1,0.1,0.1,0.2c0,0.1,0,0.1-0.1,0.2S70.7,85,70.6,85s-0.2-0.1-0.3-0.2l-4-8.5
		c0-0.1-0.1-0.1-0.1-0.2c0-0.1,0-0.1,0.1-0.2s0.1-0.1,0.2-0.1C66.6,75.7,66.7,75.8,66.8,76z"/>
	<path class="st0" d="M74,76l4,8.5c0,0.1,0.1,0.1,0.1,0.2c0,0.1,0,0.1-0.1,0.2S77.9,85,77.8,85s-0.2-0.1-0.3-0.2l-4-8.5
		c0-0.1-0.1-0.1-0.1-0.2c0-0.1,0-0.1,0.1-0.2s0.1-0.1,0.2-0.1C73.8,75.7,73.9,75.8,74,76z"/>
	<path class="st0" d="M82.4,76.2l1.4,1.2l0.1,0.1v0.1c0,0.1,0,0.1-0.1,0.2s-0.1,0.1-0.2,0.1s-0.1,0-0.2-0.1L82,76.6
		c-0.1-0.1-0.1-0.2-0.1-0.2c0-0.1,0-0.1,0.1-0.2s0.1-0.1,0.2-0.1S82.3,76.1,82.4,76.2z"/>
	<path class="st0" d="M90.1,82.4h0.2c0.2,0,0.4,0.1,0.6,0.2s0.2,0.3,0.2,0.6c0,0.2-0.1,0.4-0.2,0.6S90.6,84,90.3,84h-0.2
		c-0.2,0-0.4-0.1-0.6-0.2s-0.2-0.3-0.2-0.6c0-0.2,0.1-0.4,0.2-0.6S89.8,82.4,90.1,82.4z"/>
	<path class="st0" d="M135.6,76.1l-4,8.5c-0.1,0.1-0.2,0.2-0.3,0.2s-0.1,0-0.2-0.1s-0.1-0.1-0.1-0.2c0,0,0-0.1,0.1-0.2l4-8.5
		c0-0.1,0.1-0.1,0.1-0.2s0.1,0,0.1,0c0.1,0,0.1,0,0.2,0.1s0.1,0.1,0.1,0.2C135.6,76,135.6,76,135.6,76.1z"/>
	<path class="st0" d="M142.8,76.1l-4,8.5c-0.1,0.1-0.2,0.2-0.3,0.2s-0.1,0-0.2-0.1s-0.1-0.1-0.1-0.2c0,0,0-0.1,0.1-0.2l4-8.5
		c0-0.1,0.1-0.1,0.1-0.2s0.1,0,0.1,0c0.1,0,0.1,0,0.2,0.1s0.1,0.1,0.1,0.2C142.8,76,142.8,76,142.8,76.1z"/>
	<path class="st0" d="M150.4,79.8H145c-0.1,0-0.2,0-0.3-0.1s-0.1-0.1-0.1-0.2c0-0.1,0-0.1,0.1-0.2s0.1-0.1,0.3-0.1h5.4
		c0.1,0,0.2,0,0.3,0.1s0.1,0.1,0.1,0.2c0,0.1,0,0.1-0.1,0.2S150.6,79.8,150.4,79.8z M150.4,81.5H145c-0.1,0-0.2,0-0.3-0.1
		s-0.1-0.1-0.1-0.2s0-0.1,0.1-0.2s0.1-0.1,0.3-0.1h5.4c0.1,0,0.2,0,0.3,0.1s0.1,0.1,0.1,0.2s0,0.1-0.1,0.2S150.6,81.5,150.4,81.5z"
		/>
	<path class="st0" d="M157.7,79.8h-5.4c-0.1,0-0.2,0-0.3-0.1s-0.1-0.1-0.1-0.2c0-0.1,0-0.1,0.1-0.2s0.1-0.1,0.3-0.1h5.4
		c0.1,0,0.2,0,0.3,0.1s0.1,0.1,0.1,0.2c0,0.1,0,0.1-0.1,0.2S157.8,79.8,157.7,79.8z M157.7,81.5h-5.4c-0.1,0-0.2,0-0.3-0.1
		s-0.1-0.1-0.1-0.2s0-0.1,0.1-0.2s0.1-0.1,0.3-0.1h5.4c0.1,0,0.2,0,0.3,0.1s0.1,0.1,0.1,0.2s0,0.1-0.1,0.2S157.8,81.5,157.7,81.5z"
		/>
	<path class="st0" d="M164.9,79.8h-5.4c-0.1,0-0.2,0-0.3-0.1s-0.1-0.1-0.1-0.2c0-0.1,0-0.1,0.1-0.2s0.1-0.1,0.3-0.1h5.4
		c0.1,0,0.2,0,0.3,0.1s0.1,0.1,0.1,0.2c0,0.1,0,0.1-0.1,0.2S165,79.8,164.9,79.8z M164.9,81.5h-5.4c-0.1,0-0.2,0-0.3-0.1
		s-0.1-0.1-0.1-0.2s0-0.1,0.1-0.2s0.1-0.1,0.3-0.1h5.4c0.1,0,0.2,0,0.3,0.1s0.1,0.1,0.1,0.2s0,0.1-0.1,0.2S165,81.5,164.9,81.5z"/>
	<path class="st0" d="M172.1,79.8h-5.4c-0.1,0-0.2,0-0.3-0.1s-0.1-0.1-0.1-0.2c0-0.1,0-0.1,0.1-0.2s0.1-0.1,0.3-0.1h5.4
		c0.1,0,0.2,0,0.3,0.1s0.1,0.1,0.1,0.2c0,0.1,0,0.1-0.1,0.2S172.2,79.8,172.1,79.8z M172.1,81.5h-5.4c-0.1,0-0.2,0-0.3-0.1
		s-0.1-0.1-0.1-0.2s0-0.1,0.1-0.2s0.1-0.1,0.3-0.1h5.4c0.1,0,0.2,0,0.3,0.1s0.1,0.1,0.1,0.2s0,0.1-0.1,0.2S172.2,81.5,172.1,81.5z"
		/>
	<path class="st0" d="M179.3,79.8h-5.4c-0.1,0-0.2,0-0.3-0.1s-0.1-0.1-0.1-0.2c0-0.1,0-0.1,0.1-0.2s0.1-0.1,0.3-0.1h5.4
		c0.1,0,0.2,0,0.3,0.1s0.1,0.1,0.1,0.2c0,0.1,0,0.1-0.1,0.2S179.4,79.8,179.3,79.8z M179.3,81.5h-5.4c-0.1,0-0.2,0-0.3-0.1
		s-0.1-0.1-0.1-0.2s0-0.1,0.1-0.2s0.1-0.1,0.3-0.1h5.4c0.1,0,0.2,0,0.3,0.1s0.1,0.1,0.1,0.2s0,0.1-0.1,0.2S179.4,81.5,179.3,81.5z"
		/>
	<path class="st0" d="M186.5,79.8h-5.4c-0.1,0-0.2,0-0.3-0.1s-0.1-0.1-0.1-0.2c0-0.1,0-0.1,0.1-0.2s0.1-0.1,0.3-0.1h5.4
		c0.1,0,0.2,0,0.3,0.1s0.1,0.1,0.1,0.2c0,0.1,0,0.1-0.1,0.2S186.6,79.8,186.5,79.8z M186.5,81.5h-5.4c-0.1,0-0.2,0-0.3-0.1
		s-0.1-0.1-0.1-0.2s0-0.1,0.1-0.2s0.1-0.1,0.3-0.1h5.4c0.1,0,0.2,0,0.3,0.1s0.1,0.1,0.1,0.2s0,0.1-0.1,0.2S186.6,81.5,186.5,81.5z"
		/>
	<path class="st0" d="M193.7,79.8h-5.4c-0.1,0-0.2,0-0.3-0.1s-0.1-0.1-0.1-0.2c0-0.1,0-0.1,0.1-0.2s0.1-0.1,0.3-0.1h5.4
		c0.1,0,0.2,0,0.3,0.1s0.1,0.1,0.1,0.2c0,0.1,0,0.1-0.1,0.2S193.8,79.8,193.7,79.8z M193.7,81.5h-5.4c-0.1,0-0.2,0-0.3-0.1
		s-0.1-0.1-0.1-0.2s0-0.1,0.1-0.2s0.1-0.1,0.3-0.1h5.4c0.1,0,0.2,0,0.3,0.1s0.1,0.1,0.1,0.2s0,0.1-0.1,0.2S193.8,81.5,193.7,81.5z"
		/>
	<path class="st0" d="M196.4,76l4,8.5c0,0.1,0.1,0.1,0.1,0.2c0,0.1,0,0.1-0.1,0.2s-0.1,0.1-0.2,0.1c-0.1,0-0.2-0.1-0.3-0.2l-4-8.5
		c0-0.1-0.1-0.1-0.1-0.2c0-0.1,0-0.1,0.1-0.2s0.1-0.1,0.2-0.1C196.3,75.7,196.3,75.8,196.4,76z"/>
	<path class="st0" d="M203.6,76l4,8.5c0,0.1,0.1,0.1,0.1,0.2c0,0.1,0,0.1-0.1,0.2s-0.1,0.1-0.2,0.1c-0.1,0-0.2-0.1-0.3-0.2l-4-8.5
		c0-0.1-0.1-0.1-0.1-0.2c0-0.1,0-0.1,0.1-0.2s0.1-0.1,0.2-0.1C203.5,75.7,203.5,75.8,203.6,76z"/>
	<path class="st0" d="M241.6,76.8V85c0,0.1,0,0.2-0.1,0.3s-0.1,0.1-0.2,0.1s-0.1,0-0.2-0.1S241,85.2,241,85v-8.2
		c0-0.1,0-0.2,0.1-0.3s0.1-0.1,0.2-0.1s0.1,0,0.2,0.1S241.6,76.7,241.6,76.8z"/>
	<path class="st0" d="M256,77v7.9h1.2c0.1,0,0.2,0,0.3,0.1s0.1,0.1,0.1,0.2s0,0.1-0.1,0.2s-0.1,0.1-0.3,0.1h-1.7v-8.9h1.7
		c0.1,0,0.2,0,0.3,0.1s0.1,0.1,0.1,0.2c0,0.1,0,0.1-0.1,0.2s-0.1,0.1-0.3,0.1H256V77z"/>
	<path class="st0" d="M263.2,80.7v2.5c0,0.1,0,0.2-0.1,0.3s-0.1,0.1-0.2,0.1s-0.1,0-0.2-0.1s-0.1-0.1-0.1-0.3v-2.5h-2.2
		c-0.1,0-0.2,0-0.3-0.1s-0.1-0.1-0.1-0.2s0-0.1,0.1-0.2s0.1-0.1,0.3-0.1h2.2v-2.4c0-0.1,0-0.2,0.1-0.3s0.1-0.1,0.2-0.1
		s0.1,0,0.2,0.1s0.1,0.1,0.1,0.3v2.4h2.2c0.1,0,0.2,0,0.3,0.1s0.1,0.1,0.1,0.2s0,0.1-0.1,0.2s-0.1,0.1-0.3,0.1H263.2z"/>
	<path class="st0" d="M270,84.9V77h-1.2c-0.1,0-0.2,0-0.3-0.1s-0.1-0.1-0.1-0.2c0-0.1,0-0.1,0.1-0.2s0.1-0.1,0.3-0.1h1.7v8.9h-1.7
		c-0.1,0-0.2,0-0.3-0.1s-0.1-0.1-0.1-0.2c0-0.1,0-0.1,0.1-0.2s0.1-0.1,0.3-0.1h1.2V84.9z"/>
	<path class="st0" d="M299.2,77v7.9h1.2c0.1,0,0.2,0,0.3,0.1s0.1,0.1,0.1,0.2s0,0.1-0.1,0.2s-0.1,0.1-0.3,0.1h-1.7v-8.9h1.7
		c0.1,0,0.2,0,0.3,0.1s0.1,0.1,0.1,0.2c0,0.1,0,0.1-0.1,0.2s-0.1,0.1-0.3,0.1h-1.2V77z"/>
	<path class="st0" d="M306.4,80.7v2.5c0,0.1,0,0.2-0.1,0.3s-0.1,0.1-0.2,0.1s-0.1,0-0.2-0.1s-0.1-0.1-0.1-0.3v-2.5h-2.2
		c-0.1,0-0.2,0-0.3-0.1s-0.1-0.1-0.1-0.2s0-0.1,0.1-0.2s0.1-0.1,0.3-0.1h2.2v-2.4c0-0.1,0-0.2,0.1-0.3s0.1-0.1,0.2-0.1
		s0.1,0,0.2,0.1s0.1,0.1,0.1,0.3v2.4h2.2c0.1,0,0.2,0,0.3,0.1s0.1,0.1,0.1,0.2s0,0.1-0.1,0.2s-0.1,0.1-0.3,0.1H306.4z"/>
	<path class="st0" d="M313.2,84.9V77H312c-0.1,0-0.2,0-0.3-0.1s-0.1-0.1-0.1-0.2c0-0.1,0-0.1,0.1-0.2s0.1-0.1,0.3-0.1h1.7v8.9H312
		c-0.1,0-0.2,0-0.3-0.1s-0.1-0.1-0.1-0.2c0-0.1,0-0.1,0.1-0.2s0.1-0.1,0.3-0.1h1.2V84.9z"/>
	<path class="st0" d="M328,76.8V85c0,0.1,0,0.2-0.1,0.3s-0.1,0.1-0.2,0.1s-0.1,0-0.2-0.1s-0.1-0.1-0.1-0.3v-8.2c0-0.1,0-0.2,0.1-0.3
		s0.1-0.1,0.2-0.1s0.1,0,0.2,0.1S328,76.7,328,76.8z"/>
	<path class="st0" d="M13.2,90.5l-4,8.5c-0.1,0.1-0.2,0.2-0.3,0.2s-0.1,0-0.2-0.1S8.6,99,8.6,98.9c0,0,0-0.1,0.1-0.2l4-8.5
		c0-0.1,0.1-0.1,0.1-0.2s0.1,0,0.1,0c0.1,0,0.1,0,0.2,0.1s0.1,0.1,0.1,0.2C13.2,90.4,13.2,90.4,13.2,90.5z"/>
	<path class="st0" d="M20.4,90.5l-4,8.5c-0.1,0.1-0.2,0.2-0.3,0.2s-0.1,0-0.2-0.1s-0.1-0.1-0.1-0.2c0,0,0-0.1,0.1-0.2l4-8.5
		c0-0.1,0.1-0.1,0.1-0.2s0.1,0,0.1,0c0.1,0,0.1,0,0.2,0.1s0.1,0.1,0.1,0.2C20.4,90.4,20.4,90.4,20.4,90.5z"/>
	<path class="st0" d="M27.6,90.5l-4,8.5c-0.1,0.1-0.2,0.2-0.3,0.2c-0.1,0-0.1,0-0.2-0.1S23,99,23,98.9c0,0,0-0.1,0.1-0.2l4-8.5
		c0-0.1,0.1-0.1,0.1-0.2s0.1,0,0.1,0c0.1,0,0.1,0,0.2,0.1s0.1,0.1,0.1,0.2C27.6,90.4,27.6,90.4,27.6,90.5z"/>
	<path class="st0" d="M34.8,90.5l-4,8.5c-0.1,0.1-0.2,0.2-0.3,0.2c-0.1,0-0.1,0-0.2-0.1s-0.1-0.1-0.1-0.2c0,0,0-0.1,0.1-0.2l4-8.5
		c0-0.1,0.1-0.1,0.1-0.2s0.1,0,0.1,0c0.1,0,0.1,0,0.2,0.1s0.1,0.1,0.1,0.2C34.8,90.4,34.8,90.4,34.8,90.5z"/>
	<path class="st0" d="M42,90.5L38,99c-0.1,0.1-0.2,0.2-0.3,0.2c-0.1,0-0.1,0-0.2-0.1s-0.1-0.1-0.1-0.2c0,0,0-0.1,0.1-0.2l4-8.5
		c0-0.1,0.1-0.1,0.1-0.2s0.1,0,0.1,0c0.1,0,0.1,0,0.2,0.1s0.1,0.1,0.1,0.2C42,90.4,42,90.4,42,90.5z"/>
	<path class="st0" d="M49.2,90.5l-4,8.5c-0.1,0.1-0.2,0.2-0.3,0.2c-0.1,0-0.1,0-0.2-0.1s-0.1-0.1-0.1-0.2c0,0,0-0.1,0.1-0.2l4-8.5
		c0-0.1,0.1-0.1,0.1-0.2s0.1,0,0.1,0c0.1,0,0.1,0,0.2,0.1s0.1,0.1,0.1,0.2C49.2,90.4,49.2,90.4,49.2,90.5z"/>
	<path class="st0" d="M54.4,91.2v8.2c0,0.1,0,0.2-0.1,0.3s-0.1,0.1-0.2,0.1s-0.1,0-0.2-0.1s-0.1-0.1-0.1-0.3v-8.2
		c0-0.1,0-0.2,0.1-0.3s0.1-0.1,0.2-0.1s0.1,0,0.2,0.1S54.4,91.1,54.4,91.2z"/>
	<path class="st0" d="M59.6,90.4l4,8.5c0,0.1,0.1,0.1,0.1,0.2c0,0.1,0,0.1-0.1,0.2s-0.1,0.1-0.2,0.1s-0.2-0.1-0.3-0.2l-4-8.5
		c0-0.1-0.1-0.1-0.1-0.2c0-0.1,0-0.1,0.1-0.2s0.1-0.1,0.2-0.1C59.4,90.1,59.5,90.2,59.6,90.4z"/>
	<path class="st0" d="M66.8,90.4l4,8.5c0,0.1,0.1,0.1,0.1,0.2c0,0.1,0,0.1-0.1,0.2s-0.1,0.1-0.2,0.1s-0.2-0.1-0.3-0.2l-4-8.5
		c0-0.1-0.1-0.1-0.1-0.2c0-0.1,0-0.1,0.1-0.2s0.1-0.1,0.2-0.1C66.6,90.1,66.7,90.2,66.8,90.4z"/>
	<path class="st0" d="M74,90.4l4,8.5c0,0.1,0.1,0.1,0.1,0.2c0,0.1,0,0.1-0.1,0.2s-0.1,0.1-0.2,0.1s-0.2-0.1-0.3-0.2l-4-8.5
		c0-0.1-0.1-0.1-0.1-0.2c0-0.1,0-0.1,0.1-0.2s0.1-0.1,0.2-0.1C73.8,90.1,73.9,90.2,74,90.4z"/>
	<path class="st0" d="M81.2,90.4l4,8.5c0,0.1,0.1,0.1,0.1,0.2c0,0.1,0,0.1-0.1,0.2s-0.1,0.1-0.2,0.1s-0.2-0.1-0.3-0.2l-4-8.5
		c0-0.1-0.1-0.1-0.1-0.2c0-0.1,0-0.1,0.1-0.2s0.1-0.1,0.2-0.1C81,90.1,81.1,90.2,81.2,90.4z"/>
	<path class="st0" d="M88.4,90.4l4,8.5c0,0.1,0.1,0.1,0.1,0.2c0,0.1,0,0.1-0.1,0.2s-0.1,0.1-0.2,0.1c-0.1,0-0.2-0.1-0.3-0.2l-4-8.5
		c0-0.1-0.1-0.1-0.1-0.2c0-0.1,0-0.1,0.1-0.2s0.1-0.1,0.2-0.1C88.2,90.1,88.3,90.2,88.4,90.4z"/>
	<path class="st0" d="M95.6,90.4l4,8.5c0,0.1,0.1,0.1,0.1,0.2c0,0.1,0,0.1-0.1,0.2s-0.1,0.1-0.2,0.1c-0.1,0-0.2-0.1-0.3-0.2l-4-8.5
		c0-0.1-0.1-0.1-0.1-0.2c0-0.1,0-0.1,0.1-0.2s0.1-0.1,0.2-0.1C95.4,90.1,95.5,90.2,95.6,90.4z"/>
	<path class="st0" d="M128.4,90.5l-4,8.5c-0.1,0.1-0.2,0.2-0.3,0.2s-0.1,0-0.2-0.1s-0.1-0.1-0.1-0.2c0,0,0-0.1,0.1-0.2l4-8.5
		c0-0.1,0.1-0.1,0.1-0.2s0.1,0,0.1,0c0.1,0,0.1,0,0.2,0.1s0.1,0.1,0.1,0.2C128.4,90.4,128.4,90.4,128.4,90.5z"/>
	<path class="st0" d="M135.6,90.5l-4,8.5c-0.1,0.1-0.2,0.2-0.3,0.2s-0.1,0-0.2-0.1S131,99,131,98.9c0,0,0-0.1,0.1-0.2l4-8.5
		c0-0.1,0.1-0.1,0.1-0.2s0.1,0,0.1,0c0.1,0,0.1,0,0.2,0.1s0.1,0.1,0.1,0.2C135.6,90.4,135.6,90.4,135.6,90.5z"/>
	<path class="st0" d="M140.8,91.2v8.2c0,0.1,0,0.2-0.1,0.3s-0.1,0.1-0.2,0.1c-0.1,0-0.1,0-0.2-0.1s-0.1-0.1-0.1-0.3v-8.2
		c0-0.1,0-0.2,0.1-0.3s0.1-0.1,0.2-0.1c0.1,0,0.1,0,0.2,0.1S140.8,91.1,140.8,91.2z"/>
	<path class="st0" d="M148,91.2v8.2c0,0.1,0,0.2-0.1,0.3s-0.1,0.1-0.2,0.1c-0.1,0-0.1,0-0.2-0.1s-0.1-0.1-0.1-0.3v-8.2
		c0-0.1,0-0.2,0.1-0.3s0.1-0.1,0.2-0.1c0.1,0,0.1,0,0.2,0.1S148,91.1,148,91.2z"/>
	<path class="st0" d="M155.2,91.2v8.2c0,0.1,0,0.2-0.1,0.3s-0.1,0.1-0.2,0.1c-0.1,0-0.1,0-0.2-0.1s-0.1-0.1-0.1-0.3v-8.2
		c0-0.1,0-0.2,0.1-0.3s0.1-0.1,0.2-0.1c0.1,0,0.1,0,0.2,0.1S155.2,91.1,155.2,91.2z"/>
	<path class="st0" d="M161.4,90.9h1.6l-0.4,3.1c0,0.2-0.1,0.3-0.1,0.3s-0.1,0.1-0.2,0.1c-0.1,0-0.2,0-0.2-0.1S162,94.1,162,94
		L161.4,90.9z"/>
	<path class="st0" d="M167.3,91h1.6l-0.4,2.8c0,0.1-0.1,0.3-0.1,0.3s-0.1,0.1-0.2,0.1s-0.2,0-0.2-0.1s-0.1-0.2-0.1-0.3L167.3,91z
		 M169.8,91h1.6l-0.4,2.8c0,0.1-0.1,0.3-0.1,0.3s-0.1,0.1-0.2,0.1c-0.1,0-0.2,0-0.2-0.1s-0.1-0.2-0.1-0.3L169.8,91z"/>
	<path class="st0" d="M176,90.6l1.4,1.2l0.1,0.1V92c0,0.1,0,0.1-0.1,0.2s-0.1,0.1-0.2,0.1c-0.1,0-0.1,0-0.2-0.1l-1.4-1.2
		c-0.1-0.1-0.1-0.2-0.1-0.2c0-0.1,0-0.1,0.1-0.2s0.1-0.1,0.2-0.1C175.9,90.5,176,90.5,176,90.6z"/>
	<path class="st0" d="M184,91.2v8.2c0,0.1,0,0.2-0.1,0.3s-0.1,0.1-0.2,0.1c-0.1,0-0.1,0-0.2-0.1s-0.1-0.1-0.1-0.3v-8.2
		c0-0.1,0-0.2,0.1-0.3s0.1-0.1,0.2-0.1c0.1,0,0.1,0,0.2,0.1S184,91.1,184,91.2z"/>
	<path class="st0" d="M191.2,91.2v8.2c0,0.1,0,0.2-0.1,0.3s-0.1,0.1-0.2,0.1c-0.1,0-0.1,0-0.2-0.1s-0.1-0.1-0.1-0.3v-8.2
		c0-0.1,0-0.2,0.1-0.3s0.1-0.1,0.2-0.1c0.1,0,0.1,0,0.2,0.1S191.2,91.1,191.2,91.2z"/>
	<path class="st0" d="M198.4,91.2v8.2c0,0.1,0,0.2-0.1,0.3s-0.1,0.1-0.2,0.1c-0.1,0-0.1,0-0.2-0.1s-0.1-0.1-0.1-0.3v-8.2
		c0-0.1,0-0.2,0.1-0.3s0.1-0.1,0.2-0.1c0.1,0,0.1,0,0.2,0.1S198.4,91.1,198.4,91.2z"/>
	<path class="st0" d="M203.6,90.4l4,8.5c0,0.1,0.1,0.1,0.1,0.2c0,0.1,0,0.1-0.1,0.2s-0.1,0.1-0.2,0.1c-0.1,0-0.2-0.1-0.3-0.2l-4-8.5
		c0-0.1-0.1-0.1-0.1-0.2c0-0.1,0-0.1,0.1-0.2s0.1-0.1,0.2-0.1C203.5,90.1,203.5,90.2,203.6,90.4z"/>
	<path class="st0" d="M210.8,90.4l4,8.5c0,0.1,0.1,0.1,0.1,0.2c0,0.1,0,0.1-0.1,0.2s-0.1,0.1-0.2,0.1s-0.2-0.1-0.3-0.2l-4-8.5
		c0-0.1-0.1-0.1-0.1-0.2c0-0.1,0-0.1,0.1-0.2s0.1-0.1,0.2-0.1C210.7,90.1,210.7,90.2,210.8,90.4z"/>
	<path class="st0" d="M241.6,91.2v8.2c0,0.1,0,0.2-0.1,0.3s-0.1,0.1-0.2,0.1s-0.1,0-0.2-0.1s-0.1-0.1-0.1-0.3v-8.2
		c0-0.1,0-0.2,0.1-0.3s0.1-0.1,0.2-0.1s0.1,0,0.2,0.1S241.6,91.1,241.6,91.2z"/>
	<path class="st0" d="M280.7,101.5h-6.5c-0.1,0-0.2,0-0.3-0.1s-0.1-0.1-0.1-0.2s0-0.1,0.1-0.2s0.1-0.1,0.3-0.1h6.5
		c0.1,0,0.2,0,0.3,0.1s0.1,0.1,0.1,0.2s0,0.1-0.1,0.2S280.8,101.5,280.7,101.5z"/>
	<path class="st0" d="M287.9,101.5h-6.5c-0.1,0-0.2,0-0.3-0.1s-0.1-0.1-0.1-0.2s0-0.1,0.1-0.2s0.1-0.1,0.3-0.1h6.5
		c0.1,0,0.2,0,0.3,0.1s0.1,0.1,0.1,0.2s0,0.1-0.1,0.2S288,101.5,287.9,101.5z"/>
	<path class="st0" d="M295.1,101.5h-6.5c-0.1,0-0.2,0-0.3-0.1s-0.1-0.1-0.1-0.2s0-0.1,0.1-0.2s0.1-0.1,0.3-0.1h6.5
		c0.1,0,0.2,0,0.3,0.1s0.1,0.1,0.1,0.2s0,0.1-0.1,0.2S295.2,101.5,295.1,101.5z"/>
	<path class="st0" d="M328,91.2v8.2c0,0.1,0,0.2-0.1,0.3s-0.1,0.1-0.2,0.1s-0.1,0-0.2-0.1s-0.1-0.1-0.1-0.3v-8.2
		c0-0.1,0-0.2,0.1-0.3s0.1-0.1,0.2-0.1s0.1,0,0.2,0.1S328,91.1,328,91.2z"/>
	<path class="st0" d="M6,104.9l-4,8.5c-0.1,0.1-0.2,0.2-0.3,0.2s-0.1,0-0.2-0.1s-0.1-0.1-0.1-0.2c0,0,0-0.1,0.1-0.2l4-8.5
		c0-0.1,0.1-0.1,0.1-0.2s0.1,0,0.1,0c0.1,0,0.1,0,0.2,0.1s0.1,0.1,0.1,0.2C6,104.8,6,104.8,6,104.9z"/>
	<path class="st0" d="M10.9,109.7c0-0.4,0.1-0.9,0.2-1.4s0.3-1.1,0.7-1.7s0.6-1.1,0.7-1.2c0,0,0.1-0.1,0.2-0.1c0.1,0,0.1,0,0.2,0.1
		s0.1,0.1,0.1,0.2v0.1c-0.4,0.8-0.7,1.5-0.9,2.1s-0.3,1.3-0.3,1.9c0,0.6,0.1,1.3,0.3,1.9s0.5,1.4,0.9,2.1v0.1c0,0.1,0,0.1-0.1,0.2
		s-0.1,0.1-0.2,0.1c-0.1,0-0.1,0-0.2-0.1c-0.1-0.1-0.4-0.5-0.7-1.2s-0.6-1.2-0.7-1.7S10.9,110.2,10.9,109.7z"/>
	<path class="st0" d="M18.1,109.7c0-0.4,0.1-0.9,0.2-1.4s0.3-1.1,0.7-1.7s0.6-1.1,0.7-1.2c0,0,0.1-0.1,0.2-0.1c0.1,0,0.1,0,0.2,0.1
		s0.1,0.1,0.1,0.2v0.1c-0.4,0.8-0.7,1.5-0.9,2.1s-0.3,1.3-0.3,1.9c0,0.6,0.1,1.3,0.3,1.9s0.5,1.4,0.9,2.1v0.1c0,0.1,0,0.1-0.1,0.2
		s-0.1,0.1-0.2,0.1c-0.1,0-0.1,0-0.2-0.1c-0.1-0.1-0.4-0.5-0.7-1.2s-0.6-1.2-0.7-1.7S18.1,110.2,18.1,109.7z"/>
	<path class="st0" d="M25.6,105.6v8.2c0,0.1,0,0.2-0.1,0.3s-0.1,0.1-0.2,0.1s-0.1,0-0.2-0.1S25,114,25,113.8v-8.2
		c0-0.1,0-0.2,0.1-0.3s0.1-0.1,0.2-0.1s0.1,0,0.2,0.1S25.6,105.5,25.6,105.6z"/>
	<path class="st0" d="M32.8,105.6v8.2c0,0.1,0,0.2-0.1,0.3s-0.1,0.1-0.2,0.1s-0.1,0-0.2-0.1s-0.1-0.1-0.1-0.3v-8.2
		c0-0.1,0-0.2,0.1-0.3s0.1-0.1,0.2-0.1s0.1,0,0.2,0.1S32.8,105.5,32.8,105.6z"/>
	<path class="st0" d="M40,105.6v8.2c0,0.1,0,0.2-0.1,0.3s-0.1,0.1-0.2,0.1s-0.1,0-0.2-0.1s-0.1-0.1-0.1-0.3v-8.2
		c0-0.1,0-0.2,0.1-0.3s0.1-0.1,0.2-0.1s0.1,0,0.2,0.1S40,105.5,40,105.6z"/>
	<path class="st0" d="M68.8,105.6v8.2c0,0.1,0,0.2-0.1,0.3s-0.1,0.1-0.2,0.1s-0.1,0-0.2-0.1s-0.1-0.1-0.1-0.3v-8.2
		c0-0.1,0-0.2,0.1-0.3s0.1-0.1,0.2-0.1s0.1,0,0.2,0.1S68.8,105.5,68.8,105.6z"/>
	<path class="st0" d="M76,105.6v8.2c0,0.1,0,0.2-0.1,0.3s-0.1,0.1-0.2,0.1s-0.1,0-0.2-0.1s-0.1-0.1-0.1-0.3v-8.2
		c0-0.1,0-0.2,0.1-0.3s0.1-0.1,0.2-0.1s0.1,0,0.2,0.1S76,105.5,76,105.6z"/>
	<path class="st0" d="M83.2,105.6v8.2c0,0.1,0,0.2-0.1,0.3s-0.1,0.1-0.2,0.1s-0.1,0-0.2-0.1s-0.1-0.1-0.1-0.3v-8.2
		c0-0.1,0-0.2,0.1-0.3s0.1-0.1,0.2-0.1s0.1,0,0.2,0.1S83.2,105.5,83.2,105.6z"/>
	<path class="st0" d="M90.3,109.7c0,0.4-0.1,0.9-0.2,1.4s-0.3,1.1-0.7,1.7s-0.6,1.1-0.7,1.2c0,0-0.1,0.1-0.2,0.1
		c-0.1,0-0.1,0-0.2-0.1s-0.1-0.1-0.1-0.2v-0.1c0.4-0.8,0.7-1.5,0.9-2.1s0.3-1.3,0.3-1.9c0-0.6-0.1-1.3-0.3-1.9s-0.5-1.4-0.9-2.1
		v-0.1c0-0.1,0-0.1,0.1-0.2s0.1-0.1,0.2-0.1c0.1,0,0.1,0,0.2,0.1c0.1,0.1,0.4,0.5,0.7,1.2s0.6,1.2,0.7,1.7S90.3,109.2,90.3,109.7z"
		/>
	<path class="st0" d="M97.5,109.7c0,0.4-0.1,0.9-0.2,1.4s-0.3,1.1-0.7,1.7s-0.6,1.1-0.7,1.2c0,0-0.1,0.1-0.2,0.1
		c-0.1,0-0.1,0-0.2-0.1s-0.1-0.1-0.1-0.2v-0.1c0.4-0.8,0.7-1.5,0.9-2.1s0.3-1.3,0.3-1.9c0-0.6-0.1-1.3-0.3-1.9s-0.5-1.4-0.9-2.1
		v-0.1c0-0.1,0-0.1,0.1-0.2s0.1-0.1,0.2-0.1c0.1,0,0.1,0,0.2,0.1c0.1,0.1,0.4,0.5,0.7,1.2s0.6,1.2,0.7,1.7S97.5,109.2,97.5,109.7z"
		/>
	<path class="st0" d="M102.8,104.8l4,8.5c0,0.1,0.1,0.1,0.1,0.2c0,0.1,0,0.1-0.1,0.2s-0.1,0.1-0.2,0.1c-0.1,0-0.2-0.1-0.3-0.2
		l-4-8.5c0-0.1-0.1-0.1-0.1-0.2c0-0.1,0-0.1,0.1-0.2s0.1-0.1,0.2-0.1C102.6,104.5,102.7,104.6,102.8,104.8z"/>
	<path class="st0" d="M126.4,105.6v8.2c0,0.1,0,0.2-0.1,0.3s-0.1,0.1-0.2,0.1c-0.1,0-0.1,0-0.2-0.1s-0.1-0.1-0.1-0.3v-8.2
		c0-0.1,0-0.2,0.1-0.3s0.1-0.1,0.2-0.1c0.1,0,0.1,0,0.2,0.1S126.4,105.5,126.4,105.6z"/>
	<path class="st0" d="M133.6,105.6v8.2c0,0.1,0,0.2-0.1,0.3s-0.1,0.1-0.2,0.1c-0.1,0-0.1,0-0.2-0.1s-0.1-0.1-0.1-0.3v-8.2
		c0-0.1,0-0.2,0.1-0.3s0.1-0.1,0.2-0.1c0.1,0,0.1,0,0.2,0.1S133.6,105.5,133.6,105.6z"/>
	<path class="st0" d="M140.8,105.6v8.2c0,0.1,0,0.2-0.1,0.3s-0.1,0.1-0.2,0.1c-0.1,0-0.1,0-0.2-0.1s-0.1-0.1-0.1-0.3v-8.2
		c0-0.1,0-0.2,0.1-0.3s0.1-0.1,0.2-0.1c0.1,0,0.1,0,0.2,0.1S140.8,105.5,140.8,105.6z"/>
	<path class="st0" d="M148,105.6v8.2c0,0.1,0,0.2-0.1,0.3s-0.1,0.1-0.2,0.1c-0.1,0-0.1,0-0.2-0.1s-0.1-0.1-0.1-0.3v-8.2
		c0-0.1,0-0.2,0.1-0.3s0.1-0.1,0.2-0.1c0.1,0,0.1,0,0.2,0.1S148,105.5,148,105.6z"/>
	<path class="st0" d="M155.2,105.6v8.2c0,0.1,0,0.2-0.1,0.3s-0.1,0.1-0.2,0.1c-0.1,0-0.1,0-0.2-0.1s-0.1-0.1-0.1-0.3v-8.2
		c0-0.1,0-0.2,0.1-0.3s0.1-0.1,0.2-0.1c0.1,0,0.1,0,0.2,0.1S155.2,105.5,155.2,105.6z"/>
	<path class="st0" d="M184,105.6v8.2c0,0.1,0,0.2-0.1,0.3s-0.1,0.1-0.2,0.1c-0.1,0-0.1,0-0.2-0.1s-0.1-0.1-0.1-0.3v-8.2
		c0-0.1,0-0.2,0.1-0.3s0.1-0.1,0.2-0.1c0.1,0,0.1,0,0.2,0.1S184,105.5,184,105.6z"/>
	<path class="st0" d="M191.2,105.6v8.2c0,0.1,0,0.2-0.1,0.3s-0.1,0.1-0.2,0.1c-0.1,0-0.1,0-0.2-0.1s-0.1-0.1-0.1-0.3v-8.2
		c0-0.1,0-0.2,0.1-0.3s0.1-0.1,0.2-0.1c0.1,0,0.1,0,0.2,0.1S191.2,105.5,191.2,105.6z"/>
	<path class="st0" d="M198.4,105.6v8.2c0,0.1,0,0.2-0.1,0.3s-0.1,0.1-0.2,0.1c-0.1,0-0.1,0-0.2-0.1s-0.1-0.1-0.1-0.3v-8.2
		c0-0.1,0-0.2,0.1-0.3s0.1-0.1,0.2-0.1c0.1,0,0.1,0,0.2,0.1S198.4,105.5,198.4,105.6z"/>
	<path class="st0" d="M205.6,105.6v8.2c0,0.1,0,0.2-0.1,0.3s-0.1,0.1-0.2,0.1c-0.1,0-0.1,0-0.2-0.1s-0.1-0.1-0.1-0.3v-8.2
		c0-0.1,0-0.2,0.1-0.3s0.1-0.1,0.2-0.1c0.1,0,0.1,0,0.2,0.1S205.6,105.5,205.6,105.6z"/>
	<path class="st0" d="M212.8,105.6v8.2c0,0.1,0,0.2-0.1,0.3s-0.1,0.1-0.2,0.1c-0.1,0-0.1,0-0.2-0.1s-0.1-0.1-0.1-0.3v-8.2
		c0-0.1,0-0.2,0.1-0.3s0.1-0.1,0.2-0.1c0.1,0,0.1,0,0.2,0.1S212.8,105.5,212.8,105.6z"/>
	<path class="st0" d="M241.6,105.6v8.2c0,0.1,0,0.2-0.1,0.3s-0.1,0.1-0.2,0.1s-0.1,0-0.2-0.1s-0.1-0.1-0.1-0.3v-8.2
		c0-0.1,0-0.2,0.1-0.3s0.1-0.1,0.2-0.1s0.1,0,0.2,0.1S241.6,105.5,241.6,105.6z"/>
	<path class="st0" d="M270.4,105.6v8.2c0,0.1,0,0.2-0.1,0.3s-0.1,0.1-0.2,0.1s-0.1,0-0.2-0.1s-0.1-0.1-0.1-0.3v-8.2
		c0-0.1,0-0.2,0.1-0.3s0.1-0.1,0.2-0.1s0.1,0,0.2,0.1S270.4,105.5,270.4,105.6z"/>
	<path class="st0" d="M299.2,105.6v8.2c0,0.1,0,0.2-0.1,0.3s-0.1,0.1-0.2,0.1s-0.1,0-0.2-0.1s-0.1-0.1-0.1-0.3v-8.2
		c0-0.1,0-0.2,0.1-0.3s0.1-0.1,0.2-0.1s0.1,0,0.2,0.1S299.2,105.5,299.2,105.6z"/>
	<path class="st0" d="M10.9,124.1c0-0.4,0.1-0.9,0.2-1.4s0.3-1.1,0.7-1.7s0.6-1.1,0.7-1.2c0,0,0.1-0.1,0.2-0.1c0.1,0,0.1,0,0.2,0.1
		s0.1,0.1,0.1,0.2v0.1c-0.4,0.8-0.7,1.5-0.9,2.1s-0.3,1.3-0.3,1.9c0,0.6,0.1,1.3,0.3,1.9s0.5,1.4,0.9,2.1v0.1c0,0.1,0,0.1-0.1,0.2
		s-0.1,0.1-0.2,0.1c-0.1,0-0.1,0-0.2-0.1c-0.1-0.1-0.4-0.5-0.7-1.2s-0.6-1.2-0.7-1.7S10.9,124.6,10.9,124.1z"/>
	<path class="st0" d="M18.1,124.1c0-0.4,0.1-0.9,0.2-1.4s0.3-1.1,0.7-1.7s0.6-1.1,0.7-1.2c0,0,0.1-0.1,0.2-0.1c0.1,0,0.1,0,0.2,0.1
		s0.1,0.1,0.1,0.2v0.1c-0.4,0.8-0.7,1.5-0.9,2.1s-0.3,1.3-0.3,1.9c0,0.6,0.1,1.3,0.3,1.9s0.5,1.4,0.9,2.1v0.1c0,0.1,0,0.1-0.1,0.2
		s-0.1,0.1-0.2,0.1c-0.1,0-0.1,0-0.2-0.1c-0.1-0.1-0.4-0.5-0.7-1.2s-0.6-1.2-0.7-1.7S18.1,124.6,18.1,124.1z"/>
	<path class="st0" d="M25.6,120v8.2c0,0.1,0,0.2-0.1,0.3s-0.1,0.1-0.2,0.1s-0.1,0-0.2-0.1s-0.1-0.1-0.1-0.3V120c0-0.1,0-0.2,0.1-0.3
		s0.1-0.1,0.2-0.1s0.1,0,0.2,0.1S25.6,119.9,25.6,120z"/>
	<path class="st0" d="M32.8,120v8.2c0,0.1,0,0.2-0.1,0.3s-0.1,0.1-0.2,0.1s-0.1,0-0.2-0.1s-0.1-0.1-0.1-0.3V120c0-0.1,0-0.2,0.1-0.3
		s0.1-0.1,0.2-0.1s0.1,0,0.2,0.1S32.8,119.9,32.8,120z"/>
	<path class="st0" d="M40,120v8.2c0,0.1,0,0.2-0.1,0.3s-0.1,0.1-0.2,0.1s-0.1,0-0.2-0.1s-0.1-0.1-0.1-0.3V120c0-0.1,0-0.2,0.1-0.3
		s0.1-0.1,0.2-0.1s0.1,0,0.2,0.1S40,119.9,40,120z"/>
	<path class="st0" d="M76,120v8.2c0,0.1,0,0.2-0.1,0.3s-0.1,0.1-0.2,0.1s-0.1,0-0.2-0.1s-0.1-0.1-0.1-0.3V120c0-0.1,0-0.2,0.1-0.3
		s0.1-0.1,0.2-0.1s0.1,0,0.2,0.1S76,119.9,76,120z"/>
	<path class="st0" d="M68.6,120v8.2c0,0.1,0,0.2-0.1,0.3s-0.1,0.1-0.2,0.1s-0.1,0-0.2-0.1s-0.1-0.1-0.1-0.3V120c0-0.1,0-0.2,0.1-0.3
		s0.1-0.1,0.2-0.1s0.1,0,0.2,0.1S68.6,119.9,68.6,120z"/>
	<path class="st0" d="M83.2,120v8.2c0,0.1,0,0.2-0.1,0.3s-0.1,0.1-0.2,0.1s-0.1,0-0.2-0.1s-0.1-0.1-0.1-0.3V120c0-0.1,0-0.2,0.1-0.3
		s0.1-0.1,0.2-0.1s0.1,0,0.2,0.1S83.2,119.9,83.2,120z"/>
	<path class="st0" d="M90.4,120v8.2c0,0.1,0,0.2-0.1,0.3s-0.1,0.1-0.2,0.1c-0.1,0-0.1,0-0.2-0.1s-0.1-0.1-0.1-0.3V120
		c0-0.1,0-0.2,0.1-0.3s0.1-0.1,0.2-0.1c0.1,0,0.1,0,0.2,0.1S90.4,119.9,90.4,120z"/>
	<path class="st0" d="M97.5,124.1c0,0.4-0.1,0.9-0.2,1.4s-0.3,1.1-0.7,1.7s-0.6,1.1-0.7,1.2c0,0-0.1,0.1-0.2,0.1
		c-0.1,0-0.1,0-0.2-0.1s-0.1-0.1-0.1-0.2v-0.1c0.4-0.8,0.7-1.5,0.9-2.1s0.3-1.3,0.3-1.9c0-0.6-0.1-1.3-0.3-1.9s-0.5-1.4-0.9-2.1V120
		c0-0.1,0-0.1,0.1-0.2s0.1-0.1,0.2-0.1c0.1,0,0.1,0,0.2,0.1c0.1,0.1,0.4,0.5,0.7,1.2s0.6,1.2,0.7,1.7S97.5,123.6,97.5,124.1z"/>
	<path class="st0" d="M126.4,120v8.2c0,0.1,0,0.2-0.1,0.3s-0.1,0.1-0.2,0.1c-0.1,0-0.1,0-0.2-0.1s-0.1-0.1-0.1-0.3V120
		c0-0.1,0-0.2,0.1-0.3s0.1-0.1,0.2-0.1c0.1,0,0.1,0,0.2,0.1S126.4,119.9,126.4,120z"/>
	<path class="st0" d="M133.6,120v8.2c0,0.1,0,0.2-0.1,0.3s-0.1,0.1-0.2,0.1c-0.1,0-0.1,0-0.2-0.1s-0.1-0.1-0.1-0.3V120
		c0-0.1,0-0.2,0.1-0.3s0.1-0.1,0.2-0.1c0.1,0,0.1,0,0.2,0.1S133.6,119.9,133.6,120z"/>
	<path class="st0" d="M140.8,120v8.2c0,0.1,0,0.2-0.1,0.3s-0.1,0.1-0.2,0.1c-0.1,0-0.1,0-0.2-0.1s-0.1-0.1-0.1-0.3V120
		c0-0.1,0-0.2,0.1-0.3s0.1-0.1,0.2-0.1c0.1,0,0.1,0,0.2,0.1S140.8,119.9,140.8,120z"/>
	<path class="st0" d="M148,120v8.2c0,0.1,0,0.2-0.1,0.3s-0.1,0.1-0.2,0.1c-0.1,0-0.1,0-0.2-0.1s-0.1-0.1-0.1-0.3V120
		c0-0.1,0-0.2,0.1-0.3s0.1-0.1,0.2-0.1c0.1,0,0.1,0,0.2,0.1S148,119.9,148,120z"/>
	<path class="st0" d="M155.2,120v8.2c0,0.1,0,0.2-0.1,0.3s-0.1,0.1-0.2,0.1c-0.1,0-0.1,0-0.2-0.1s-0.1-0.1-0.1-0.3V120
		c0-0.1,0-0.2,0.1-0.3s0.1-0.1,0.2-0.1c0.1,0,0.1,0,0.2,0.1S155.2,119.9,155.2,120z"/>
	<path class="st0" d="M184,120v8.2c0,0.1,0,0.2-0.1,0.3s-0.1,0.1-0.2,0.1c-0.1,0-0.1,0-0.2-0.1s-0.1-0.1-0.1-0.3V120
		c0-0.1,0-0.2,0.1-0.3s0.1-0.1,0.2-0.1c0.1,0,0.1,0,0.2,0.1S184,119.9,184,120z"/>
	<path class="st0" d="M191.2,120v8.2c0,0.1,0,0.2-0.1,0.3s-0.1,0.1-0.2,0.1c-0.1,0-0.1,0-0.2-0.1s-0.1-0.1-0.1-0.3V120
		c0-0.1,0-0.2,0.1-0.3s0.1-0.1,0.2-0.1c0.1,0,0.1,0,0.2,0.1S191.2,119.9,191.2,120z"/>
	<path class="st0" d="M198.4,120v8.2c0,0.1,0,0.2-0.1,0.3s-0.1,0.1-0.2,0.1c-0.1,0-0.1,0-0.2-0.1s-0.1-0.1-0.1-0.3V120
		c0-0.1,0-0.2,0.1-0.3s0.1-0.1,0.2-0.1c0.1,0,0.1,0,0.2,0.1S198.4,119.9,198.4,120z"/>
	<path class="st0" d="M205.6,120v8.2c0,0.1,0,0.2-0.1,0.3s-0.1,0.1-0.2,0.1c-0.1,0-0.1,0-0.2-0.1s-0.1-0.1-0.1-0.3V120
		c0-0.1,0-0.2,0.1-0.3s0.1-0.1,0.2-0.1c0.1,0,0.1,0,0.2,0.1S205.6,119.9,205.6,120z"/>
	<path class="st0" d="M212.8,120v8.2c0,0.1,0,0.2-0.1,0.3s-0.1,0.1-0.2,0.1c-0.1,0-0.1,0-0.2-0.1s-0.1-0.1-0.1-0.3V120
		c0-0.1,0-0.2,0.1-0.3s0.1-0.1,0.2-0.1c0.1,0,0.1,0,0.2,0.1S212.8,119.9,212.8,120z"/>
	<path class="st0" d="M241.6,120v8.2c0,0.1,0,0.2-0.1,0.3s-0.1,0.1-0.2,0.1s-0.1,0-0.2-0.1s-0.1-0.1-0.1-0.3V120
		c0-0.1,0-0.2,0.1-0.3s0.1-0.1,0.2-0.1s0.1,0,0.2,0.1S241.6,119.9,241.6,120z"/>
	<path class="st0" d="M270.4,120v8.2c0,0.1,0,0.2-0.1,0.3s-0.1,0.1-0.2,0.1s-0.1,0-0.2-0.1s-0.1-0.1-0.1-0.3V120
		c0-0.1,0-0.2,0.1-0.3s0.1-0.1,0.2-0.1s0.1,0,0.2,0.1S270.4,119.9,270.4,120z"/>
	<path class="st0" d="M276.6,119.7h1.6l-0.4,3.1c0,0.2-0.1,0.3-0.1,0.3s-0.1,0.1-0.2,0.1s-0.2,0-0.2-0.1s-0.1-0.2-0.1-0.3
		L276.6,119.7z"/>
	<path class="st0" d="M299.2,120v8.2c0,0.1,0,0.2-0.1,0.3s-0.1,0.1-0.2,0.1s-0.1,0-0.2-0.1s-0.1-0.1-0.1-0.3V120
		c0-0.1,0-0.2,0.1-0.3s0.1-0.1,0.2-0.1s0.1,0,0.2,0.1S299.2,119.9,299.2,120z"/>
	<path class="st0" d="M327.8,105.6v8.2c0,0.1,0,0.2-0.1,0.3s-0.1,0.1-0.2,0.1s-0.1,0-0.2-0.1s-0.1-0.1-0.1-0.3v-8.2
		c0-0.1,0-0.2,0.1-0.3s0.1-0.1,0.2-0.1s0.1,0,0.2,0.1S327.8,105.5,327.8,105.6z"/>
	<path class="st0" d="M327.5,121.2v8.2c0,0.1,0,0.2-0.1,0.3s-0.1,0.1-0.2,0.1s-0.1,0-0.2-0.1s-0.1-0.1-0.1-0.3v-8.2
		c0-0.1,0-0.2,0.1-0.3s0.1-0.1,0.2-0.1s0.1,0,0.2,0.1S327.5,121.1,327.5,121.2z"/>
</g>
</svg>
