<?xml version="1.0" encoding="utf-8"?>
<!-- Generator: Adobe Illustrator 25.2.3, SVG Export Plug-In . SVG Version: 6.00 Build 0)  -->
<svg version="1.1" id="Layer_1" xmlns="http://www.w3.org/2000/svg" xmlns:xlink="http://www.w3.org/1999/xlink" x="0px" y="0px"
	 viewBox="0 0 341 138.3" style="enable-background:new 0 0 341 138.3;" xml:space="preserve">
<style type="text/css">
	.st0{fill:#FFFFFF;stroke:#FFFFFF;stroke-miterlimit:10;}
</style>
<g>
	<path class="st0" d="M101.9,25H91.6c-0.2,0-0.3,0-0.4-0.1s-0.1-0.2-0.1-0.3s0-0.2,0.1-0.3c0.1-0.1,0.2-0.1,0.4-0.1h10.3
		c0.2,0,0.3,0,0.4,0.1c0.1,0.1,0.1,0.2,0.1,0.3s0,0.2-0.1,0.3S102.1,25,101.9,25z"/>
	<path class="st0" d="M106.6,17h2.5l-2.7,5.1c-0.2,0.3-0.4,0.5-0.6,0.5c-0.2,0-0.3-0.1-0.4-0.2s-0.2-0.2-0.2-0.4c0-0.1,0-0.1,0-0.2
		L106.6,17z"/>
	<path class="st0" d="M123.5,13.9V15h-7.9v-1.1H123.5z"/>
	<path class="st0" d="M134.8,13.9V15h-7.9v-1.1H134.8z"/>
	<path class="st0" d="M141,8.2h2.5l-0.6,4.9c0,0.3-0.1,0.4-0.2,0.5s-0.2,0.2-0.4,0.2s-0.3-0.1-0.4-0.2s-0.2-0.3-0.2-0.5L141,8.2z"/>
	<path class="st0" d="M152.1,17h2.5l-2.7,5.1c-0.2,0.3-0.4,0.5-0.6,0.5c-0.2,0-0.3-0.1-0.4-0.2s-0.2-0.2-0.2-0.4c0-0.1,0-0.1,0-0.2
		L152.1,17z"/>
	<path class="st0" d="M204.2,25h-10.3c-0.2,0-0.3,0-0.4-0.1s-0.1-0.2-0.1-0.3s0-0.2,0.1-0.3c0.1-0.1,0.2-0.1,0.4-0.1h10.3
		c0.2,0,0.3,0,0.4,0.1c0.1,0.1,0.1,0.2,0.1,0.3s0,0.2-0.1,0.3S204.4,25,204.2,25z"/>
	<path class="st0" d="M210.3,17.5h0.3c0.3,0,0.6,0.1,0.9,0.4s0.4,0.5,0.4,0.9s-0.1,0.7-0.4,0.9c-0.3,0.2-0.5,0.4-0.9,0.4h-0.3
		c-0.3,0-0.6-0.1-0.9-0.4s-0.4-0.5-0.4-0.9s0.1-0.7,0.4-0.9C209.6,17.7,209.9,17.5,210.3,17.5z"/>
	<path class="st0" d="M227,25h-10.3c-0.2,0-0.3,0-0.4-0.1s-0.1-0.2-0.1-0.3s0-0.2,0.1-0.3c0.1-0.1,0.2-0.1,0.4-0.1H227
		c0.2,0,0.3,0,0.4,0.1s0.1,0.2,0.1,0.3s0,0.2-0.1,0.3S227.2,25,227,25z"/>
	<path class="st0" d="M233,17.5h0.3c0.3,0,0.6,0.1,0.9,0.4s0.4,0.5,0.4,0.9s-0.1,0.7-0.4,0.9c-0.3,0.2-0.5,0.4-0.9,0.4H233
		c-0.3,0-0.6-0.1-0.9-0.4s-0.4-0.5-0.4-0.9s0.1-0.7,0.4-0.9S232.7,17.5,233,17.5z"/>
	<path class="st0" d="M248.5,13.9V15h-7.9v-1.1H248.5z"/>
	<path class="st0" d="M259.9,13.9V15H252v-1.1H259.9z"/>
	<path class="st0" d="M267.1,17.5h0.3c0.3,0,0.6,0.1,0.9,0.4s0.4,0.5,0.4,0.9s-0.1,0.7-0.4,0.9c-0.3,0.2-0.5,0.4-0.9,0.4h-0.3
		c-0.3,0-0.6-0.1-0.9-0.4s-0.4-0.5-0.4-0.9s0.1-0.7,0.4-0.9S266.8,17.5,267.1,17.5z"/>
	<path class="st0" d="M283.8,25h-10.3c-0.2,0-0.3,0-0.4-0.1s-0.1-0.2-0.1-0.3s0-0.2,0.1-0.3c0.1-0.1,0.2-0.1,0.4-0.1h10.3
		c0.2,0,0.3,0,0.4,0.1s0.1,0.2,0.1,0.3s0,0.2-0.1,0.3S284,25,283.8,25z"/>
	<path class="st0" d="M295.2,25h-10.3c-0.2,0-0.3,0-0.4-0.1s-0.1-0.2-0.1-0.3s0-0.2,0.1-0.3c0.1-0.1,0.2-0.1,0.4-0.1h10.3
		c0.2,0,0.3,0,0.4,0.1s0.1,0.2,0.1,0.3s0,0.2-0.1,0.3S295.4,25,295.2,25z"/>
	<path class="st0" d="M306.5,25h-10.3c-0.2,0-0.3,0-0.4-0.1s-0.1-0.2-0.1-0.3s0-0.2,0.1-0.3c0.1-0.1,0.2-0.1,0.4-0.1h10.3
		c0.2,0,0.3,0,0.4,0.1s0.1,0.2,0.1,0.3s0,0.2-0.1,0.3S306.7,25,306.5,25z"/>
	<path class="st0" d="M317.9,25h-10.3c-0.2,0-0.3,0-0.4-0.1s-0.1-0.2-0.1-0.3s0-0.2,0.1-0.3c0.1-0.1,0.2-0.1,0.4-0.1h10.3
		c0.2,0,0.3,0,0.4,0.1s0.1,0.2,0.1,0.3s0,0.2-0.1,0.3S318.1,25,317.9,25z"/>
	<path class="st0" d="M329.3,25H319c-0.2,0-0.3,0-0.4-0.1s-0.1-0.2-0.1-0.3s0-0.2,0.1-0.3c0.1-0.1,0.2-0.1,0.4-0.1h10.3
		c0.2,0,0.3,0,0.4,0.1s0.1,0.2,0.1,0.3s0,0.2-0.1,0.3S329.5,25,329.3,25z"/>
	<path class="st0" d="M17,40.3h0.3c0.3,0,0.6,0.1,0.9,0.4s0.4,0.5,0.4,0.9s-0.1,0.7-0.4,0.9c-0.3,0.2-0.5,0.4-0.9,0.4H17
		c-0.3,0-0.6-0.1-0.9-0.4s-0.4-0.5-0.4-0.9s0.1-0.7,0.4-0.9C16.4,40.4,16.7,40.3,17,40.3z"/>
	<path class="st0" d="M32.5,36.6v1.1h-7.9v-1.1H32.5z"/>
	<path class="st0" d="M43.9,36.6v1.1H36v-1.1H43.9z"/>
	<path class="st0" d="M51.1,40.3h0.3c0.3,0,0.6,0.1,0.9,0.4s0.4,0.5,0.4,0.9s-0.1,0.7-0.4,0.9c-0.3,0.2-0.5,0.4-0.9,0.4h-0.3
		c-0.3,0-0.6-0.1-0.9-0.4s-0.4-0.5-0.4-0.9s0.1-0.7,0.4-0.9C50.5,40.4,50.8,40.3,51.1,40.3z"/>
	<path class="st0" d="M66.6,36.6v1.1h-7.9v-1.1H66.6z"/>
	<path class="st0" d="M78,36.6v1.1h-7.9v-1.1H78z"/>
	<path class="st0" d="M84.2,30.9h2.5l-0.6,4.9c0,0.3-0.1,0.4-0.2,0.5s-0.2,0.2-0.4,0.2s-0.3-0.1-0.4-0.2s-0.2-0.3-0.2-0.5L84.2,30.9
		z"/>
	<path class="st0" d="M95.2,39.7h2.4L95,44c-0.1,0.2-0.2,0.3-0.3,0.4s-0.2,0.1-0.3,0.1s-0.3,0-0.4-0.1c-0.1-0.1-0.1-0.2-0.1-0.3
		c0-0.1,0-0.2,0.1-0.3L95.2,39.7z M96.6,34.5h0.3c0.3,0,0.6,0.1,0.9,0.4c0.2,0.2,0.4,0.5,0.4,0.9s-0.1,0.7-0.4,0.9
		c-0.2,0.2-0.5,0.4-0.9,0.4h-0.3c-0.3,0-0.6-0.1-0.9-0.4c-0.2-0.2-0.4-0.5-0.4-0.9s0.1-0.7,0.4-0.9C96,34.6,96.3,34.5,96.6,34.5z"/>
	<path class="st0" d="M113.3,47.7H103c-0.2,0-0.3,0-0.4-0.1s-0.1-0.2-0.1-0.3s0-0.2,0.1-0.3c0.1-0.1,0.2-0.1,0.4-0.1h10.3
		c0.2,0,0.3,0,0.4,0.1c0.1,0.1,0.1,0.2,0.1,0.3s0,0.2-0.1,0.3S113.5,47.7,113.3,47.7z"/>
	<path class="st0" d="M118.3,30.9h2.5l-0.6,4.9c0,0.3-0.1,0.4-0.2,0.5s-0.2,0.2-0.4,0.2s-0.3-0.1-0.4-0.2S119,36,119,35.8
		L118.3,30.9z"/>
	<path class="st0" d="M134.8,36.6v1.1h-7.9v-1.1H134.8z"/>
	<path class="st0" d="M142.1,40.3h0.3c0.3,0,0.6,0.1,0.9,0.4s0.4,0.5,0.4,0.9s-0.1,0.7-0.4,0.9c-0.3,0.2-0.5,0.4-0.9,0.4h-0.3
		c-0.3,0-0.6-0.1-0.9-0.4s-0.4-0.5-0.4-0.9s0.1-0.7,0.4-0.9C141.4,40.4,141.7,40.3,142.1,40.3z"/>
	<path class="st0" d="M152.4,30.9h2.5l-0.6,4.9c0,0.3-0.1,0.4-0.2,0.5s-0.2,0.2-0.4,0.2s-0.3-0.1-0.4-0.2s-0.2-0.3-0.2-0.5
		L152.4,30.9z"/>
	<path class="st0" d="M163.4,39.7h2.5l-2.7,5.1c-0.2,0.3-0.4,0.5-0.6,0.5c-0.2,0-0.3-0.1-0.4-0.2s-0.2-0.2-0.2-0.4
		c0-0.1,0-0.1,0-0.2L163.4,39.7z"/>
	<path class="st0" d="M184.5,31.1h2.5l-0.6,4.5c0,0.2-0.1,0.4-0.2,0.5c-0.1,0.1-0.2,0.1-0.4,0.1s-0.3,0-0.4-0.1
		c-0.1-0.1-0.2-0.3-0.2-0.5L184.5,31.1z M188.4,31.1h2.5l-0.6,4.5c0,0.2-0.1,0.4-0.2,0.5c-0.1,0.1-0.2,0.1-0.4,0.1s-0.3,0-0.4-0.1
		c-0.1-0.1-0.2-0.3-0.2-0.5L188.4,31.1z"/>
	<path class="st0" d="M197.5,39.7h2.4l-2.6,4.3c-0.1,0.2-0.2,0.3-0.3,0.4s-0.2,0.1-0.3,0.1s-0.3,0-0.4-0.1c-0.1-0.1-0.1-0.2-0.1-0.3
		c0-0.1,0-0.2,0.1-0.3L197.5,39.7z M198.9,34.5h0.3c0.3,0,0.6,0.1,0.9,0.4c0.2,0.2,0.4,0.5,0.4,0.9s-0.1,0.7-0.4,0.9
		c-0.2,0.2-0.5,0.4-0.9,0.4h-0.3c-0.3,0-0.6-0.1-0.9-0.4c-0.2-0.2-0.4-0.5-0.4-0.9s0.1-0.7,0.4-0.9
		C198.3,34.6,198.6,34.5,198.9,34.5z"/>
	<path class="st0" d="M215.6,47.7h-10.3c-0.2,0-0.3,0-0.4-0.1s-0.1-0.2-0.1-0.3s0-0.2,0.1-0.3c0.1-0.1,0.2-0.1,0.4-0.1h10.3
		c0.2,0,0.3,0,0.4,0.1s0.1,0.2,0.1,0.3s0,0.2-0.1,0.3S215.8,47.7,215.6,47.7z"/>
	<path class="st0" d="M295.2,47.7h-10.3c-0.2,0-0.3,0-0.4-0.1s-0.1-0.2-0.1-0.3s0-0.2,0.1-0.3c0.1-0.1,0.2-0.1,0.4-0.1h10.3
		c0.2,0,0.3,0,0.4,0.1s0.1,0.2,0.1,0.3s0,0.2-0.1,0.3S295.4,47.7,295.2,47.7z"/>
	<path class="st0" d="M301.2,40.3h0.3c0.3,0,0.6,0.1,0.9,0.4s0.4,0.5,0.4,0.9s-0.1,0.7-0.4,0.9c-0.3,0.2-0.5,0.4-0.9,0.4h-0.3
		c-0.3,0-0.6-0.1-0.9-0.4s-0.4-0.5-0.4-0.9s0.1-0.7,0.4-0.9C300.6,40.4,300.9,40.3,301.2,40.3z"/>
	<path class="st0" d="M311.2,39.7h2.5l-2.7,5.1c-0.2,0.3-0.4,0.5-0.6,0.5s-0.3-0.1-0.4-0.2s-0.2-0.2-0.2-0.4c0-0.1,0-0.1,0-0.2
		L311.2,39.7z"/>
	<path class="st0" d="M328.1,36.6v1.1h-7.9v-1.1H328.1z"/>
	<path class="st0" d="M334.2,30.9h2.5l-0.6,4.9c0,0.3-0.1,0.4-0.2,0.5s-0.2,0.2-0.4,0.2c-0.2,0-0.3-0.1-0.4-0.2s-0.2-0.3-0.2-0.5
		L334.2,30.9z"/>
	<path class="st0" d="M5.7,63H6c0.3,0,0.6,0.1,0.9,0.4s0.4,0.5,0.4,0.9S7.2,65,6.9,65.2c-0.3,0.2-0.5,0.4-0.9,0.4H5.7
		c-0.3,0-0.6-0.1-0.9-0.4s-0.4-0.5-0.4-0.9s0.1-0.7,0.4-0.9C5,63.1,5.3,63,5.7,63z"/>
	<path class="st0" d="M15.9,53.6h2.5l-0.6,4.9c0,0.3-0.1,0.4-0.2,0.5c-0.1,0.1-0.2,0.2-0.4,0.2s-0.3-0.1-0.4-0.2s-0.2-0.3-0.2-0.5
		L15.9,53.6z"/>
	<path class="st0" d="M32.5,59.3v1.1h-7.9v-1.1H32.5z"/>
	<path class="st0" d="M43.9,59.3v1.1H36v-1.1H43.9z"/>
	<path class="st0" d="M50,53.6h2.5l-0.6,4.9c0,0.3-0.1,0.4-0.2,0.5c-0.1,0.1-0.2,0.2-0.4,0.2c-0.2,0-0.3-0.1-0.4-0.2
		s-0.2-0.3-0.2-0.5L50,53.6z"/>
	<path class="st0" d="M62.5,63h0.3c0.3,0,0.6,0.1,0.9,0.4s0.4,0.5,0.4,0.9S64,65,63.7,65.2s-0.5,0.4-0.9,0.4h-0.3
		c-0.3,0-0.6-0.1-0.9-0.4s-0.4-0.5-0.4-0.9s0.1-0.7,0.4-0.9C61.9,63.1,62.2,63,62.5,63z"/>
	<path class="st0" d="M101.9,70.4H91.6c-0.2,0-0.3,0-0.4-0.1s-0.1-0.2-0.1-0.3s0-0.2,0.1-0.3s0.2-0.1,0.4-0.1h10.3
		c0.2,0,0.3,0,0.4,0.1c0.1,0.1,0.1,0.2,0.1,0.3s0,0.2-0.1,0.3S102.1,70.4,101.9,70.4z"/>
	<path class="st0" d="M108,63h0.3c0.3,0,0.6,0.1,0.9,0.4s0.4,0.5,0.4,0.9s-0.1,0.7-0.4,0.9c-0.3,0.2-0.5,0.4-0.9,0.4H108
		c-0.3,0-0.6-0.1-0.9-0.4s-0.4-0.5-0.4-0.9s0.1-0.7,0.4-0.9C107.3,63.1,107.6,63,108,63z"/>
	<path class="st0" d="M118.3,53.6h2.5l-0.6,4.9c0,0.3-0.1,0.4-0.2,0.5c-0.1,0.1-0.2,0.2-0.4,0.2s-0.3-0.1-0.4-0.2s-0.2-0.3-0.2-0.5
		L118.3,53.6z"/>
	<path class="st0" d="M175.9,60.6c0.3,0.2,0.5,0.5,0.6,0.7c0.1,0.3,0.2,0.6,0.2,1v3.3c0,0.4,0.1,0.6,0.3,0.9
		c0.2,0.2,0.5,0.4,0.8,0.4c0.2,0,0.3,0.1,0.4,0.1c0.1,0.1,0.1,0.2,0.1,0.3s0,0.2-0.1,0.3s-0.2,0.1-0.4,0.1c-0.5,0-0.9-0.2-1.2-0.5
		c-0.4-0.4-0.7-0.9-0.7-1.6v-3.3c0-0.3-0.1-0.6-0.3-0.9c-0.2-0.2-0.5-0.4-0.8-0.4c-0.2,0-0.3-0.1-0.4-0.1s-0.1-0.2-0.1-0.3
		s0-0.2,0.1-0.3s0.2-0.1,0.4-0.1c0.3,0,0.6-0.2,0.8-0.4s0.3-0.5,0.3-0.9v-3.3c0-0.6,0.2-1.1,0.6-1.4c0.4-0.4,0.8-0.6,1.3-0.6
		c0.1,0,0.3,0,0.3,0.1c0.1,0.1,0.1,0.2,0.1,0.3c0,0.1,0,0.2-0.1,0.3c-0.1,0.1-0.2,0.1-0.4,0.1c-0.3,0-0.6,0.2-0.8,0.4
		c-0.2,0.2-0.3,0.5-0.3,0.9V59c0,0.4-0.1,0.7-0.2,0.9C176.4,60.2,176.2,60.4,175.9,60.6z"/>
	<path class="st0" d="M186.9,53.1l2.2,1.9l0.2,0.2v0.1c0,0.1,0,0.2-0.1,0.3s-0.2,0.1-0.3,0.1s-0.2-0.1-0.4-0.2l-2.2-1.9
		c-0.2-0.1-0.2-0.3-0.2-0.4s0-0.2,0.1-0.3s0.2-0.1,0.3-0.1C186.6,52.9,186.7,53,186.9,53.1z"/>
	<path class="st0" d="M197.8,53.6h2.5l-0.6,4.9c0,0.3-0.1,0.4-0.2,0.5c-0.1,0.1-0.2,0.2-0.4,0.2s-0.3-0.1-0.4-0.2s-0.2-0.3-0.2-0.5
		L197.8,53.6z"/>
	<path class="st0" d="M214.4,59.3v1.1h-7.9v-1.1H214.4z"/>
	<path class="st0" d="M220.3,62.4h2.4l-2.6,4.3c-0.1,0.2-0.2,0.3-0.3,0.4c-0.1,0.1-0.2,0.1-0.3,0.1c-0.1,0-0.3,0-0.4-0.1
		s-0.1-0.2-0.1-0.3s0-0.2,0.1-0.3L220.3,62.4z M221.6,57.2h0.3c0.3,0,0.6,0.1,0.9,0.4c0.2,0.2,0.4,0.5,0.4,0.9s-0.1,0.7-0.4,0.9
		c-0.2,0.2-0.5,0.4-0.9,0.4h-0.3c-0.3,0-0.6-0.1-0.9-0.4c-0.2-0.2-0.4-0.5-0.4-0.9s0.1-0.7,0.4-0.9C221,57.3,221.3,57.2,221.6,57.2z
		"/>
	<path class="st0" d="M238.3,70.4H228c-0.2,0-0.3,0-0.4-0.1s-0.1-0.2-0.1-0.3s0-0.2,0.1-0.3s0.2-0.1,0.4-0.1h10.3
		c0.2,0,0.3,0,0.4,0.1s0.1,0.2,0.1,0.3s0,0.2-0.1,0.3S238.5,70.4,238.3,70.4z"/>
	<path class="st0" d="M255.7,63h0.3c0.3,0,0.6,0.1,0.9,0.4s0.4,0.5,0.4,0.9s-0.1,0.7-0.4,0.9s-0.5,0.4-0.9,0.4h-0.3
		c-0.3,0-0.6-0.1-0.9-0.4s-0.4-0.5-0.4-0.9s0.1-0.7,0.4-0.9C255.1,63.1,255.4,63,255.7,63z"/>
	<path class="st0" d="M271.2,59.3v1.1h-7.9v-1.1H271.2z"/>
	<path class="st0" d="M278.5,63h0.3c0.3,0,0.6,0.1,0.9,0.4s0.4,0.5,0.4,0.9s-0.1,0.7-0.4,0.9s-0.5,0.4-0.9,0.4h-0.3
		c-0.3,0-0.6-0.1-0.9-0.4s-0.4-0.5-0.4-0.9s0.1-0.7,0.4-0.9C277.8,63.1,278.1,63,278.5,63z"/>
	<path class="st0" d="M294.8,59.8l-8.4,4.7c-0.1,0.1-0.2,0.1-0.3,0.1c-0.1,0-0.2,0-0.3-0.1s-0.1-0.2-0.1-0.3c0-0.2,0.1-0.3,0.3-0.4
		l7.2-4l-7.2-4c-0.2-0.1-0.3-0.3-0.3-0.4s0-0.2,0.1-0.3s0.2-0.1,0.3-0.1c0.1,0,0.2,0,0.3,0.1L294.8,59.8z"/>
	<path class="st0" d="M301.2,63h0.3c0.3,0,0.6,0.1,0.9,0.4s0.4,0.5,0.4,0.9s-0.1,0.7-0.4,0.9s-0.5,0.4-0.9,0.4h-0.3
		c-0.3,0-0.6-0.1-0.9-0.4s-0.4-0.5-0.4-0.9s0.1-0.7,0.4-0.9C300.6,63.1,300.9,63,301.2,63z"/>
	<path class="st0" d="M311.5,53.6h2.5l-0.6,4.9c0,0.3-0.1,0.4-0.2,0.5c-0.1,0.1-0.2,0.2-0.4,0.2c-0.2,0-0.3-0.1-0.4-0.2
		s-0.2-0.3-0.2-0.5L311.5,53.6z"/>
	<path class="st0" d="M72.8,76.4h2.5l-0.6,4.9c0,0.3-0.1,0.4-0.2,0.5S74.3,82,74.1,82c-0.2,0-0.3-0.1-0.4-0.2s-0.2-0.3-0.2-0.5
		L72.8,76.4z"/>
	<path class="st0" d="M89.4,82.1v1.1h-7.9v-1.1H89.4z"/>
	<path class="st0" d="M96.6,80h0.3c0.3,0,0.6,0.1,0.9,0.4c0.2,0.2,0.4,0.5,0.4,0.9s-0.1,0.7-0.4,0.9c-0.3,0.2-0.5,0.4-0.9,0.4h-0.3
		c-0.3,0-0.6-0.1-0.9-0.4c-0.2-0.2-0.4-0.5-0.4-0.9s0.1-0.7,0.4-0.9C96,80.1,96.3,80,96.6,80z M96.6,85.7h0.3c0.3,0,0.6,0.1,0.9,0.4
		s0.4,0.5,0.4,0.9s-0.1,0.7-0.4,0.9c-0.3,0.2-0.5,0.4-0.9,0.4h-0.3c-0.3,0-0.6-0.1-0.9-0.4s-0.4-0.5-0.4-0.9s0.1-0.7,0.4-0.9
		S96.3,85.7,96.6,85.7z"/>
	<path class="st0" d="M113.3,93.2H103c-0.2,0-0.3,0-0.4-0.1s-0.1-0.2-0.1-0.3s0-0.2,0.1-0.3s0.2-0.1,0.4-0.1h10.3
		c0.2,0,0.3,0,0.4,0.1c0.1,0.1,0.1,0.2,0.1,0.3s0,0.2-0.1,0.3S113.5,93.2,113.3,93.2z"/>
	<path class="st0" d="M187.9,83.4c0,0.7-0.1,1.5-0.3,2.3s-0.5,1.7-1.1,2.8c-0.5,1-0.9,1.7-1.1,1.9c-0.1,0.1-0.2,0.1-0.2,0.1
		c-0.1,0-0.2,0-0.3-0.1s-0.1-0.2-0.1-0.3s0-0.1,0.1-0.2c0.7-1.2,1.2-2.4,1.5-3.4s0.4-2,0.4-3s-0.1-2-0.4-3c-0.3-1-0.8-2.1-1.5-3.4
		c0-0.1-0.1-0.1-0.1-0.2c0-0.1,0-0.2,0.1-0.3s0.2-0.1,0.3-0.1s0.2,0,0.2,0.1c0.2,0.2,0.6,0.8,1.1,1.8s0.9,1.9,1.1,2.7
		C187.8,81.8,187.9,82.6,187.9,83.4z"/>
	<path class="st0" d="M225.3,75.8L219,89.2c-0.1,0.2-0.2,0.3-0.4,0.3c-0.1,0-0.2,0-0.3-0.1c-0.1-0.1-0.1-0.2-0.1-0.3s0-0.2,0.1-0.3
		l6.2-13.4c0.1-0.1,0.1-0.2,0.2-0.3c0.1,0,0.1-0.1,0.2-0.1s0.2,0,0.3,0.1c0.1,0.1,0.1,0.2,0.1,0.3C225.4,75.6,225.3,75.7,225.3,75.8
		z"/>
	<path class="st0" d="M243.7,75.9l2.2,1.9l0.2,0.2v0.1c0,0.1,0,0.2-0.1,0.3s-0.2,0.1-0.3,0.1c-0.1,0-0.2-0.1-0.4-0.2l-2.2-1.9
		c-0.2-0.1-0.2-0.3-0.2-0.4c0-0.1,0-0.2,0.1-0.3s0.2-0.1,0.3-0.1C243.4,75.7,243.6,75.7,243.7,75.9z"/>
	<path class="st0" d="M254.7,76.4h2.5l-0.6,4.9c0,0.3-0.1,0.4-0.2,0.5S256.2,82,256,82c-0.2,0-0.3-0.1-0.4-0.2s-0.2-0.3-0.2-0.5
		L254.7,76.4z"/>
	<path class="st0" d="M277.4,76.4h2.5l-0.6,4.9c0,0.3-0.1,0.4-0.2,0.5s-0.2,0.2-0.4,0.2c-0.2,0-0.3-0.1-0.4-0.2s-0.2-0.3-0.2-0.5
		L277.4,76.4z"/>
	<path class="st0" d="M294.2,81.5h-8.5c-0.2,0-0.3,0-0.4-0.1s-0.1-0.2-0.1-0.3s0-0.2,0.1-0.3s0.2-0.1,0.4-0.1h8.5
		c0.2,0,0.3,0,0.4,0.1s0.1,0.2,0.1,0.3s0,0.2-0.1,0.3C294.6,81.5,294.4,81.5,294.2,81.5z M294.2,84.3h-8.5c-0.2,0-0.3,0-0.4-0.1
		s-0.1-0.2-0.1-0.3s0-0.2,0.1-0.3s0.2-0.1,0.4-0.1h8.5c0.2,0,0.3,0,0.4,0.1s0.1,0.2,0.1,0.3s0,0.2-0.1,0.3S294.4,84.3,294.2,84.3z"
		/>
	<path class="st0" d="M301.2,85.7h0.3c0.3,0,0.6,0.1,0.9,0.4s0.4,0.5,0.4,0.9s-0.1,0.7-0.4,0.9s-0.5,0.4-0.9,0.4h-0.3
		c-0.3,0-0.6-0.1-0.9-0.4s-0.4-0.5-0.4-0.9s0.1-0.7,0.4-0.9S300.9,85.7,301.2,85.7z"/>
	<path class="st0" d="M97,106.1c0,0.7-0.1,1.5-0.3,2.3s-0.5,1.7-1.1,2.8c-0.5,1-0.9,1.7-1.1,1.9c-0.1,0.1-0.2,0.1-0.2,0.1
		c-0.1,0-0.2,0-0.3-0.1s-0.1-0.2-0.1-0.3s0-0.1,0.1-0.2c0.7-1.2,1.2-2.4,1.5-3.4s0.4-2,0.4-3s-0.1-2-0.4-3c-0.3-1-0.8-2.1-1.5-3.4
		c0-0.1-0.1-0.1-0.1-0.2c0-0.1,0-0.2,0.1-0.3s0.2-0.1,0.3-0.1s0.2,0,0.2,0.1c0.2,0.2,0.6,0.8,1.1,1.8s0.9,1.9,1.1,2.7
		C96.9,104.5,97,105.3,97,106.1z"/>
	<path class="st0" d="M124.3,105.3l-8.4,4.7c-0.1,0.1-0.2,0.1-0.3,0.1s-0.2,0-0.3-0.1s-0.1-0.2-0.1-0.3c0-0.2,0.1-0.3,0.3-0.4l7.2-4
		l-7.2-4c-0.2-0.1-0.3-0.3-0.3-0.4c0-0.1,0-0.2,0.1-0.3s0.2-0.1,0.3-0.1s0.2,0,0.3,0.1L124.3,105.3z"/>
	<path class="st0" d="M187.2,106.1c0.3,0.2,0.5,0.5,0.6,0.7c0.1,0.3,0.2,0.6,0.2,1v3.3c0,0.4,0.1,0.6,0.3,0.9
		c0.2,0.2,0.5,0.4,0.8,0.4c0.2,0,0.3,0.1,0.4,0.1c0.1,0.1,0.1,0.2,0.1,0.3s0,0.2-0.1,0.3s-0.2,0.1-0.4,0.1c-0.5,0-0.9-0.2-1.2-0.5
		c-0.4-0.4-0.7-0.9-0.7-1.6v-3.3c0-0.3-0.1-0.6-0.3-0.9c-0.2-0.2-0.5-0.4-0.8-0.4c-0.2,0-0.3-0.1-0.4-0.1s-0.1-0.2-0.1-0.3
		s0-0.2,0.1-0.3s0.2-0.1,0.4-0.1c0.3,0,0.6-0.2,0.8-0.4s0.3-0.5,0.3-0.9v-3.3c0-0.6,0.2-1.1,0.6-1.4c0.4-0.4,0.8-0.6,1.3-0.6
		c0.1,0,0.3,0,0.3,0.1c0.1,0.1,0.1,0.2,0.1,0.3s0,0.2-0.1,0.3s-0.2,0.1-0.4,0.1c-0.3,0-0.6,0.2-0.8,0.4s-0.3,0.5-0.3,0.9v3.3
		c0,0.4-0.1,0.7-0.2,0.9C187.8,105.6,187.6,105.9,187.2,106.1z"/>
	<path class="st0" d="M204.2,115.9h-10.3c-0.2,0-0.3,0-0.4-0.1s-0.1-0.2-0.1-0.3s0-0.2,0.1-0.3s0.2-0.1,0.4-0.1h10.3
		c0.2,0,0.3,0,0.4,0.1c0.1,0.1,0.1,0.2,0.1,0.3s0,0.2-0.1,0.3S204.4,115.9,204.2,115.9z"/>
	<path class="st0" d="M213.9,98.5l-6.3,13.4c-0.1,0.2-0.2,0.3-0.4,0.3c-0.1,0-0.2,0-0.3-0.1s-0.1-0.2-0.1-0.3s0-0.2,0.1-0.3
		l6.2-13.4c0.1-0.1,0.1-0.2,0.2-0.3c0.1,0,0.1-0.1,0.2-0.1s0.2,0,0.3,0.1c0.1,0.1,0.1,0.2,0.1,0.3C214,98.3,214,98.4,213.9,98.5z"/>
	<path class="st0" d="M220.3,107.9h2.5L220,113c-0.2,0.3-0.4,0.5-0.6,0.5s-0.3-0.1-0.4-0.2s-0.2-0.2-0.2-0.4c0-0.1,0-0.1,0-0.2
		L220.3,107.9z"/>
	<path class="st0" d="M293.5,98.5l-6.3,13.4c-0.1,0.2-0.2,0.3-0.4,0.3c-0.1,0-0.2,0-0.3-0.1c-0.1-0.1-0.1-0.2-0.1-0.3s0-0.2,0.1-0.3
		l6.2-13.4c0.1-0.1,0.1-0.2,0.2-0.3c0.1,0,0.1-0.1,0.2-0.1s0.2,0,0.3,0.1c0.1,0.1,0.1,0.2,0.1,0.3C293.6,98.3,293.6,98.4,293.5,98.5
		z"/>
	<path class="st0" d="M305,104.5c0.1,0,0.2,0,0.3,0.1c0.1,0.1,0.1,0.2,0.1,0.3c0,0.2-0.3,0.6-0.8,1.1s-1,0.7-1.5,0.7
		c-0.3,0-0.6-0.1-0.8-0.2c-0.3-0.2-0.7-0.5-1.2-1c-0.4-0.3-0.6-0.6-0.8-0.7c-0.2-0.1-0.3-0.2-0.5-0.2s-0.3,0-0.5,0.1
		s-0.5,0.4-0.9,0.8c-0.2,0.2-0.3,0.3-0.3,0.4c-0.1,0-0.1,0-0.2,0s-0.2,0-0.3-0.1s-0.1-0.2-0.1-0.3s0.1-0.2,0.2-0.5
		c0.4-0.5,0.8-0.9,1.1-1s0.6-0.3,0.9-0.3s0.5,0.1,0.7,0.2c0.2,0.1,0.6,0.4,1,0.7c0.6,0.6,1,0.9,1.2,1s0.3,0.1,0.4,0.1
		c0.4,0,0.9-0.3,1.4-0.9c0.2-0.2,0.3-0.4,0.4-0.4C304.8,104.5,304.9,104.5,305,104.5z"/>
	<path class="st0" d="M313,106.1c0,0.7-0.1,1.5-0.3,2.3s-0.5,1.7-1.1,2.8c-0.5,1-0.9,1.7-1.1,1.9c-0.1,0.1-0.2,0.1-0.2,0.1
		c-0.1,0-0.2,0-0.3-0.1c-0.1-0.1-0.1-0.2-0.1-0.3s0-0.1,0.1-0.2c0.7-1.2,1.2-2.4,1.5-3.4s0.4-2,0.4-3s-0.1-2-0.4-3s-0.8-2.1-1.5-3.4
		c0-0.1-0.1-0.1-0.1-0.2c0-0.1,0-0.2,0.1-0.3s0.2-0.1,0.3-0.1c0.1,0,0.2,0,0.2,0.1c0.2,0.2,0.6,0.8,1.1,1.8s0.9,1.9,1.1,2.7
		C312.9,104.5,313,105.3,313,106.1z"/>
	<path class="st0" d="M97.1,122.3v13c0,0.2,0,0.3-0.1,0.4c-0.1,0.1-0.2,0.1-0.3,0.1s-0.2,0-0.3-0.1s-0.1-0.2-0.1-0.4v-13
		c0-0.2,0-0.3,0.1-0.4c0.1-0.1,0.2-0.1,0.3-0.1s0.2,0,0.3,0.1S97.1,122.2,97.1,122.3z"/>
	<path class="st0" d="M111.6,121.3l-6.3,13.4c-0.1,0.2-0.2,0.3-0.4,0.3c-0.1,0-0.2,0-0.3-0.1s-0.1-0.2-0.1-0.3s0-0.2,0.1-0.3
		l6.2-13.4c0.1-0.1,0.1-0.2,0.2-0.3c0.1,0,0.1-0.1,0.2-0.1c0.1,0,0.2,0,0.3,0.1s0.1,0.2,0.1,0.3C111.7,121,111.7,121.1,111.6,121.3z
		"/>
	<path class="st0" d="M289.2,121.3l2.2,1.9l0.2,0.2v0.1c0,0.1,0,0.2-0.1,0.3s-0.2,0.1-0.3,0.1c-0.1,0-0.2-0.1-0.4-0.2l-2.2-1.9
		c-0.2-0.1-0.2-0.3-0.2-0.4c0-0.1,0-0.2,0.1-0.3s0.2-0.1,0.3-0.1C288.9,121.1,289,121.2,289.2,121.3z"/>
	<path class="st0" d="M301.4,121.6l3.4,4.3c0.1,0.1,0.2,0.3,0.2,0.3c0,0.1,0,0.2-0.1,0.3s-0.2,0.1-0.3,0.1c-0.1,0-0.3-0.1-0.4-0.2
		l-2.8-3.6l-2.8,3.6c-0.1,0.2-0.3,0.2-0.4,0.2s-0.2,0-0.3-0.1c-0.1-0.1-0.1-0.2-0.1-0.3s0.1-0.2,0.2-0.3L301.4,121.6z"/>
	<path class="st0" d="M323.9,131.2h0.3c0.3,0,0.6,0.1,0.9,0.4s0.4,0.5,0.4,0.9s-0.1,0.7-0.4,0.9s-0.5,0.4-0.9,0.4h-0.3
		c-0.3,0-0.6-0.1-0.9-0.4s-0.4-0.5-0.4-0.9s0.1-0.7,0.4-0.9C323.3,131.3,323.6,131.2,323.9,131.2z"/>
	<path class="st0" d="M334.2,121.8h2.5l-0.6,4.9c0,0.3-0.1,0.4-0.2,0.5s-0.2,0.2-0.4,0.2c-0.2,0-0.3-0.1-0.4-0.2s-0.2-0.3-0.2-0.5
		L334.2,121.8z"/>
</g>
</svg>
